<?xml version="1.0" encoding="UTF-8" standalone="no"?>
<svg
   width="199.99983"
   height="200"
   version="1.1"
   id="svg3"
   sodipodi:docname="antennae.svg"
   inkscape:version="1.3.2 (091e20e, 2023-11-25, custom)"
   xmlns:inkscape="http://www.inkscape.org/namespaces/inkscape"
   xmlns:sodipodi="http://sodipodi.sourceforge.net/DTD/sodipodi-0.dtd"
   xmlns="http://www.w3.org/2000/svg"
   xmlns:svg="http://www.w3.org/2000/svg">
  <defs
     id="defs3" />
  <sodipodi:namedview
     id="namedview3"
     pagecolor="#ffffff"
     bordercolor="#000000"
     borderopacity="0.25"
     inkscape:showpageshadow="2"
     inkscape:pageopacity="0.0"
     inkscape:pagecheckerboard="0"
     inkscape:deskcolor="#d1d1d1"
     inkscape:zoom="1.3836794"
     inkscape:cx="-112.38152"
     inkscape:cy="77.691407"
     inkscape:window-width="1920"
     inkscape:window-height="1057"
     inkscape:window-x="-8"
     inkscape:window-y="-8"
     inkscape:window-maximized="1"
     inkscape:current-layer="svg3" />
  <path
     fill="#111111"
     fill-rule="evenodd"
     d="m 60.348807,176.48637 q 0.224848,0.67878 0.551515,1.30666 0.326666,0.63637 0.750908,1.20485 0.42,0.57273 0.924848,1.07333 0.509091,0.50061 1.081818,0.91637 0.576969,0.41575 1.213332,0.73818 0.636363,0.32242 1.310908,0.53879 0.674545,0.21636 1.378787,0.3309 0.704247,0.11455 1.412727,0.11031 0.44545,0 0.89091,-0.0424 0.44545,-0.0424 0.88242,-0.13151 0.43697,-0.0891 0.86546,-0.22061 0.42424,-0.12727 0.84,-0.29697 0.41151,-0.16969 0.80606,-0.38182 0.39454,-0.21212 0.76363,-0.45818 0.36909,-0.24606 0.72121,-0.53454 0.3394,-0.28 0.65758,-0.59394 0.31818,-0.31394 0.60242,-0.66606 0.28424,-0.35212 0.5303,-0.71697 0.24606,-0.36909 0.45819,-0.76364 0.21212,-0.39454 0.38181,-0.80606 0.1697,-0.41151 0.29697,-0.84 0.13152,-0.42424 0.22061,-0.86545 0.0891,-0.44121 0.12727,-0.88242 0.0382,-0.44122 0.0467,-0.89091 0,-94.673869 -63.267231,-157.945342 Q 14.29311,15.168332 13.720383,14.748333 13.143414,14.332575 12.511293,14.005909 11.87493,13.683485 11.200385,13.462879 10.52584,13.242273 9.8258412,13.123485 9.1258411,13.004697 8.4131141,13.00894 q -0.712726,0 -1.416968,0.101818 -0.7,0.110303 -1.378787,0.322424 -0.678788,0.212121 -1.315151,0.534545 -0.398788,0.199394 -0.776363,0.436969 -0.381818,0.237576 -0.729697,0.509091 -0.356363,0.275757 -0.678787,0.585454 -0.322424,0.305455 -0.615151,0.644848 -0.29697,0.339394 -0.55151497,0.7 -0.258788,0.364848 -0.479394,0.755151 -0.22060503,0.381818 -0.40303003,0.793333 -0.182424,0.407272 -0.322424,0.831514 -0.144242,0.424242 -0.241818,0.861212 -0.09757,0.432727 -0.156969,0.878181 -0.05515,0.441212 -0.06788,0.890908 -0.0085,0.445455 0.02121,0.890909 0.0297,0.445454 0.106061,0.882424 0.07636,0.436969 0.195151,0.873938 0.118788,0.43697 0.275757,0.848485 0.15697,0.411514 0.360606,0.814545 Q 30.253097,86.194951 60.353076,176.49064 m 77.852674,-0.004 q -0.22484,0.67878 -0.55151,1.30666 -0.32667,0.63637 -0.75091,1.20485 -0.42,0.57273 -0.92485,1.07333 -0.50909,0.50061 -1.08181,0.91637 -0.57697,0.41575 -1.21334,0.73818 -0.63636,0.32242 -1.31091,0.53879 -0.67454,0.21636 -1.37878,0.3309 -0.70424,0.11455 -1.41273,0.11031 -0.44545,0 -0.89091,-0.0424 -0.44545,-0.0424 -0.88242,-0.13151 -0.43697,-0.0891 -0.86545,-0.22061 -0.42425,-0.12727 -0.84,-0.29697 -0.41152,-0.16969 -0.80606,-0.38182 -0.39455,-0.21212 -0.76364,-0.45818 -0.36909,-0.24606 -0.72121,-0.53454 -0.3394,-0.28 -0.65758,-0.59394 -0.31818,-0.31394 -0.60242,-0.66606 -0.28424,-0.35212 -0.5303,-0.71697 -0.24606,-0.36909 -0.45818,-0.76364 -0.21213,-0.39454 -0.38182,-0.80606 -0.1697,-0.41151 -0.29697,-0.84 -0.13152,-0.42424 -0.22061,-0.86545 -0.0891,-0.44121 -0.12727,-0.88242 -0.0382,-0.44122 -0.0467,-0.89091 0,-94.673869 63.26723,-157.945342 0.50485,-0.500606 1.07758,-0.920605 0.57697,-0.415758 1.20909,-0.742424 0.63636,-0.322424 1.31091,-0.54303 0.67454,-0.220606 1.37454,-0.339394 0.7,-0.118788 1.41273,-0.114545 0.71272,0 1.41697,0.101818 0.7,0.110303 1.37878,0.322424 0.67879,0.212121 1.31515,0.534545 0.39879,0.199394 0.77637,0.436969 0.38181,0.237576 0.72969,0.509091 0.35637,0.275757 0.67879,0.585454 0.32242,0.305455 0.61515,0.644848 0.29697,0.339394 0.55152,0.7 0.25878,0.364848 0.47939,0.755151 0.22061,0.381818 0.40303,0.793333 0.18242,0.407272 0.32242,0.831514 0.14425,0.424242 0.24182,0.861212 0.0976,0.432727 0.15697,0.878181 0.0551,0.441212 0.0679,0.890908 0.008,0.445455 -0.0212,0.890909 -0.0297,0.445454 -0.10606,0.882424 -0.0764,0.436969 -0.19515,0.873938 -0.11879,0.43697 -0.27576,0.848485 -0.15697,0.411514 -0.36061,0.814545 -30.01513,60.030262 -60.11511,150.325951"
     id="path1"
     style="stroke-width:4.24242" />
</svg>
