<?xml version="1.0" encoding="UTF-8" standalone="no"?>
<svg
   width="200"
   height="200"
   version="1.1"
   id="svg5"
   sodipodi:docname="chip.svg"
   inkscape:version="1.4 (86a8ad7, 2024-10-11)"
   xmlns:inkscape="http://www.inkscape.org/namespaces/inkscape"
   xmlns:sodipodi="http://sodipodi.sourceforge.net/DTD/sodipodi-0.dtd"
   xmlns="http://www.w3.org/2000/svg"
   xmlns:svg="http://www.w3.org/2000/svg">
  <defs
     id="defs5" />
  <sodipodi:namedview
     id="namedview5"
     pagecolor="#ffffff"
     bordercolor="#000000"
     borderopacity="0.25"
     inkscape:showpageshadow="2"
     inkscape:pageopacity="0.0"
     inkscape:pagecheckerboard="0"
     inkscape:deskcolor="#d1d1d1"
     showguides="true"
     inkscape:zoom="3.5772727"
     inkscape:cx="45.844981"
     inkscape:cy="99.097841"
     inkscape:window-width="1920"
     inkscape:window-height="1001"
     inkscape:window-x="-9"
     inkscape:window-y="-9"
     inkscape:window-maximized="1"
     inkscape:current-layer="svg5" />
  <path
     fill="#cfcfcf"
     d="m 154.0063,184.1096 q -2.05973,1.32227 -4.18202,2.54803 -2.11748,1.22096 -4.2975,2.34055 -2.18004,1.11959 -4.41302,2.12335 -2.23297,1.00379 -4.50927,1.90621 -2.27628,0.8976 -4.59586,1.68422 -2.3148,0.78177 -4.66808,1.44775 -2.35809,0.67559 -4.74026,1.22575 -2.38696,0.55497 -4.79319,0.98931 -2.40621,0.43432 -4.8365,0.74798 -2.43028,0.31369 -4.86537,0.51156 -2.43511,0.19775 -4.88464,0.27505 -2.44953,0.0772 -4.894253,0.029 -2.444719,-0.0481 -4.889439,-0.21237 -2.439908,-0.16419 -4.870191,-0.44878 -2.430283,-0.28473 -4.846126,-0.6901 -2.415848,-0.40537 -4.80282,-0.92655 -2.386971,-0.52121 -4.754691,-1.15822 -2.367722,-0.63699 -4.692131,-1.39947 -2.324409,-0.76249 -4.619944,-1.6215 -2.295537,-0.859 -4.52851,-1.84828 -2.23297,-0.9893 -4.437071,-2.07511 -2.204097,-1.08581 -4.331195,-2.2826 -2.131915,-1.19682 -4.210888,-2.49497 -2.074162,-1.30298 -4.085764,-2.70247 -2.006787,-1.3995 -3.946202,-2.8955 -1.939413,-1.496 -3.801829,-3.08853 -1.862415,-1.59253 -3.647831,-3.27192 -1.780603,-1.67938 -3.479395,-3.44563 -1.698793,-1.77107 -3.310961,-3.61936 -1.607356,-1.84347 -3.128088,-3.76897 -1.515917,-1.93032 -2.935587,-3.9234 -1.424483,-1.9979 -2.743093,-4.06335 -1.32342,-2.06545 -2.54578,-4.19364 -1.217551,-2.12337 -2.334034,-4.30947 -1.116487,-2.1861 -2.1174748,-4.42529 -1.0009894,-2.23917 -1.9009149,-4.51698 -0.8999275,-2.27782 -1.6795434,-4.61352 -0.7796145,-2.33571 -1.443733,-4.68107 -0.6641161,-2.34534 -1.2223594,-4.75344 -0.5534311,-2.39361 -0.9865515,-4.80652 -0.4331191,-2.41291 -0.7459288,-4.84996 -0.31280845,-2.43704 -0.51011615,-4.87893 -0.19730781,-2.44185 -0.26949833,-4.8982 -0.072184,-2.45635 -0.0336884,-4.907869 0.0384956,-2.451523 0.21174099,-4.903045 0.16361384,-2.446695 0.44755699,-4.88374 0.2887462,-2.437044 0.6881797,-4.859612 0.4042445,-2.417742 0.9239888,-4.816179 0.5197419,-2.398437 1.1549857,-4.767922 0.6352426,-2.369484 1.3956071,-4.705185 0.7603668,-2.335701 1.6169814,-4.632796 0.8566151,-2.297098 1.8431645,-4.536283 0.9865505,-2.239184 2.0693515,-4.454241 1.082799,-2.215058 2.276285,-4.343247 1.193484,-2.137846 2.488031,-4.222604 1.299355,-2.075071 2.694964,-4.097093 1.395608,-2.012373 2.887465,-3.957183 1.491854,-1.94481 3.079963,-3.812407 1.588105,-1.867596 3.262835,-3.657981 1.679541,-1.785557 3.440896,-3.489074 1.761353,-1.703517 3.604517,-3.32017 1.843165,-1.616655 3.758518,-3.136793 1.924977,-1.520135 3.912516,-2.943756 1.992352,-1.428445 4.052075,-2.750722 2.059726,-1.327104 4.182013,-2.548039 2.117474,-1.22576 4.297509,-2.340527 2.180037,-1.1195941 4.41301,-2.1233672 2.228162,-1.0134231 4.509258,-1.9110291 2.276285,-0.8976025 4.595883,-1.6793895 2.314785,-0.786609 4.668067,-1.4574 2.358097,-0.6659636 4.740254,-1.2209346 2.386974,-0.5501467 4.793195,-0.9892954 2.406221,-0.4391508 4.836503,-0.74800361 2.425471,-0.31850555 4.865378,-0.51153832 2.43991,-0.19304174 4.88463,-0.27024762 2.444712,-0.0772013929 4.89425,-0.03378389 2.44953,0.04341749 4.88945,0.21233023 2.4399,0.16891112 4.87018,0.44880358 2.4303,0.27989918 4.84613,0.69009413 2.41586,0.4101939 4.80281,0.9265585 2.38699,0.5163657 4.75471,1.1581998 2.35809,0.6418364 4.69213,1.3994916 2.32922,0.7528278 4.61993,1.6214779 2.28592,0.868649 4.52853,1.8482926 2.24259,0.9796462 4.43706,2.0751089 2.19448,1.095462 4.3312,2.282617 2.13192,1.196807 4.21088,2.494956 2.07417,1.302973 4.08576,2.702464 2.0068,1.39949 3.94621,2.895498 1.93942,1.496009 3.80183,3.088532 1.86242,1.592523 3.64783,3.271913 1.78061,1.684216 3.47941,3.450468 1.69877,1.766256 3.31096,3.61455 1.61216,1.848292 3.12809,3.773799 1.51591,1.925504 2.93559,3.918573 1.42447,1.997896 2.74308,4.063349 1.32342,2.065457 2.54579,4.19365 1.21754,2.123363 2.33403,4.309466 1.11648,2.1861 2.11749,4.425285 1.00096,2.239187 1.90092,4.521805 0.8951,2.282617 1.67951,4.608668 0.78443,2.326051 1.44375,4.681058 0.67374,2.364656 1.22236,4.753443 0.55343,2.393612 0.98654,4.806528 0.43312,2.412915 0.74593,4.849958 0.31281,2.437046 0.51014,4.878914 0.19721,2.441873 0.26947,4.898221 0.0721,2.456351 0.0337,4.907865 -0.0482,2.45634 -0.21177,4.90304 -0.16375,2.44669 -0.44757,4.88374 -0.28393,2.43704 -0.68818,4.85961 -0.40425,2.42257 -0.92397,4.81619 -0.51973,2.39361 -1.15499,4.76792 -0.64006,2.36948 -1.39561,4.70519 -0.75555,2.33569 -1.61699,4.63279 -0.86142,2.2971 -1.84316,4.54111 -0.98175,2.24401 -2.06933,4.4494 -1.08283,2.20059 -2.27631,4.34326 -1.19348,2.14266 -2.48803,4.2226 -1.29937,2.07994 -2.69495,4.09713 -1.39562,2.01237 -2.88749,3.95719 -1.49184,1.9448 -3.07996,3.81239 -1.5881,1.8676 -3.26281,3.65798 -1.67955,1.78556 -3.44092,3.48908 -1.76136,1.70352 -3.60452,3.32018 -1.84317,1.61664 -3.75852,3.13679 -1.92498,1.52013 -3.91252,2.94376 -1.99235,1.42843 -4.05206,2.75071"
     id="path1"
     style="stroke-width:4.81913" />
  <path
     fill="#ffffff"
     d="m 142.86068,166.70283 q -1.63142,1.05203 -3.31577,2.02685 -1.68436,0.96516 -3.40721,1.85312 -1.73248,0.88312 -3.49864,1.68421 -1.77098,0.80109 -3.57566,1.51048 -1.80466,0.71422 -3.64783,1.33676 -1.83835,0.62254 -3.70557,1.15339 -1.86723,0.53083 -3.75371,0.96515 -1.8961,0.43915 -3.80182,0.78661 -1.91055,0.34264 -3.83553,0.59358 -1.92497,0.25093 -3.85957,0.40536 -1.9346,0.15445 -3.87402,0.21719 -1.94423,0.0579 -3.883642,0.024 -1.939413,-0.0337 -3.874014,-0.16892 -1.934601,-0.13512 -3.864392,-0.3571 -1.929788,-0.22195 -3.845141,-0.54527 -1.915352,-0.31851 -3.811454,-0.73353 -1.896101,-0.41503 -3.768143,-0.92175 -1.872037,-0.5067 -3.720015,-1.10993 -1.847976,-0.60323 -3.662269,-1.28366 -1.81429,-0.68046 -3.594892,-1.46705 -1.780605,-0.78663 -3.517895,-1.64079 -1.737292,-0.86865 -3.436086,-1.81452 -1.693978,-0.95069 -3.339832,-1.97858 -1.645857,-1.03273 -3.238775,-2.14268 -1.592917,-1.10993 -3.128087,-2.29709 -1.535168,-1.18716 -3.0174,-2.45153 -1.482234,-1.26436 -2.892278,-2.59629 -1.410045,-1.33192 -2.762342,-2.73143 -1.352295,-1.39949 -2.622781,-2.86654 -1.270485,-1.46705 -2.483218,-2.99201 -1.212738,-1.52496 -2.329224,-3.11266 -1.116487,-1.5877 -2.175222,-3.22365 -1.058738,-1.63597 -2.016415,-3.32501 -0.957675,-1.68901 -1.852791,-3.41666 -0.880674,-1.7373 -1.67954,-3.50838 -0.798865,-1.77591 -1.506296,-3.58559 -0.712239,-1.80968 -1.333046,-3.65316 -0.620804,-1.84829 -1.150175,-3.71589 -0.529366,-1.87724 -0.962486,-3.7738 -0.433119,-1.89654 -0.784428,-3.8124 -0.341685,-1.91102 -0.591932,-3.84136 -0.250236,-1.93033 -0.404245,-3.87032 -0.154009,-1.93998 -0.216569,-3.88479 -0.06256,-1.94481 -0.02401,-3.894443 0.0385,-1.949638 0.168441,-3.884794 0.129948,-1.93516 0.356122,-3.875144 0.226199,-1.939982 0.543807,-3.855837 0.317619,-1.915855 0.731491,-3.817234 0.41387,-1.906203 0.919177,-3.78345 0.505307,-1.882076 1.106861,-3.730369 0.596742,-1.853117 1.280109,-3.667633 0.68818,-1.824161 1.462982,-3.609718 0.774805,-1.785558 1.636232,-3.522857 0.861426,-1.7373 1.809476,-3.445642 0.948052,-1.70352 1.973102,-3.353953 1.029864,-1.650435 2.136725,-3.247786 1.106862,-1.597349 2.29072,-3.136789 1.183861,-1.539441 2.444723,-3.025796 1.260857,-1.486356 2.589093,-2.900325 1.328233,-1.413968 2.723844,-2.770026 1.395606,-1.35606 2.858588,-2.630077 1.462981,-1.274021 2.983714,-2.485303 1.520731,-1.211286 3.104025,-2.340528 1.583294,-1.129245 3.21471,-2.181277 1.631419,-1.05203 3.315772,-2.022022 1.684356,-0.965166 3.40721,-1.853119 1.73248,-0.887953 3.498644,-1.689042 1.770981,-0.801087 3.575645,-1.510485 1.804666,-0.714223 3.647831,-1.336754 1.838352,-0.622533 3.705581,-1.148548 1.867228,-0.530842 3.753705,-0.969993 1.896101,-0.439148 3.801828,-0.78661 1.910539,-0.342632 3.835515,-0.593576 1.924978,-0.250934 3.85958,-0.40537 1.934602,-0.15444 3.874017,-0.217173 1.944233,-0.05792 3.883645,-0.02408 1.93941,0.03861 3.87402,0.16891 1.93941,0.13031 3.86438,0.357115 1.92979,0.226803 3.84514,0.545319 1.91536,0.323331 3.81145,0.733525 1.89612,0.415021 3.76815,0.921734 1.87685,0.511539 3.72001,1.109941 1.84799,0.598402 3.66227,1.283671 1.8143,0.685267 3.5949,1.467054 1.7806,0.781783 3.5179,1.64078 1.73728,0.858999 3.43608,1.814515 1.69878,0.955513 3.33983,1.97859 1.64105,1.023074 3.23877,2.142668 1.59774,1.119594 3.12809,2.297096 1.53036,1.177502 3.0174,2.451522 1.48705,1.274018 2.89229,2.596296 1.40522,1.322279 2.76234,2.731421 1.3571,1.409142 2.62278,2.866542 1.26567,1.457403 2.48322,2.992017 1.21753,1.534613 2.3292,3.112661 1.11169,1.578045 2.17523,3.223656 1.06355,1.645607 2.01644,3.324998 0.95284,1.679388 1.8528,3.416685 0.8999,1.737299 1.67951,3.50838 0.77963,1.771079 1.50631,3.585593 0.72666,1.814511 1.33304,3.657978 0.60636,1.843469 1.15018,3.715891 0.54381,1.872422 0.96248,3.764147 0.43793,1.90138 0.78442,3.812408 0.3417,1.92068 0.59193,3.851011 0.25034,1.930333 0.40425,3.865491 0.15403,1.935158 0.21663,3.889619 0.0577,1.944807 0.023,3.889629 -0.0386,1.9448 -0.16834,3.88961 -0.13004,1.93999 -0.35612,3.87514 -0.22607,1.93033 -0.54381,3.85102 -0.31763,1.92068 -0.7315,3.82206 -0.41387,1.90136 -0.91917,3.77862 -0.5053,1.87725 -1.10686,3.73036 -0.60156,1.85312 -1.28011,3.67246 -0.67857,1.81934 -1.463,3.60489 -0.78441,1.78557 -1.63622,3.52769 -0.86624,1.74212 -1.80946,3.44565 -0.94807,1.69869 -1.97312,3.34912 -1.02986,1.65043 -2.13673,3.24778 -1.10686,1.59736 -2.29072,3.1368 -1.18385,1.53944 -2.44472,3.02579 -1.26086,1.48636 -2.58909,2.90033 -1.32824,1.41396 -2.72384,2.77002 -1.39561,1.35606 -2.8586,2.63008 -1.46298,1.27401 -2.9837,2.49014 -1.52073,1.2161 -3.10402,2.3357 -1.58331,1.11959 -3.21471,2.18127"
     id="path2"
     style="stroke-width:4.81913" />
  <path
     fill="#4772d0"
     d="M 131.07982,186.58042 165.78714,164.232 154.64635,146.83007 119.93421,169.17366 Z M 40.832099,170.14848 77.488466,189.1188 86.944913,170.73722 50.288544,151.7717 Z M 9.8977225,83.55859 11.846761,124.87735 32.444012,123.90252 30.499783,82.583775 Z M 69.211066,13.400664 34.503735,35.749087 45.644537,53.155858 80.356681,30.807435 Z m 90.247724,16.431954 -36.65637,-18.965515 -9.45644,18.376761 36.65637,18.965516 z m 30.93437,86.589872 -1.94904,-41.318754 -20.59725,0.974817 1.94422,41.318757 z m -65.61764,37.35194 13.88389,-8.94226 -3.7152,-5.80065 -13.8839,8.93743 z m -30.111448,5.13951 16.477798,-0.77696 -0.32243,-6.88646 -16.482616,0.77696 z m -28.648467,-10.64095 14.663509,7.58619 3.152151,-6.1288 -14.66351,-7.58621 z m -19.500016,-23.58385 8.912645,13.92253 5.784554,-3.72072 -8.912645,-13.92253 z m -5.130061,-30.195217 0.779615,16.523637 6.867356,-0.32333 -0.779616,-16.528464 z m 10.611433,-28.72817 -7.565159,14.704306 6.111802,3.16092 7.565159,-14.704307 z m 23.518405,-19.554264 -13.883895,8.937436 3.715205,5.805474 13.883892,-8.942263 z m 30.111454,-5.144337 -16.477808,0.781784 0.322433,6.886461 16.482615,-0.781787 z m 28.64846,10.640958 -14.6635,-7.586209 -3.15215,6.128806 14.66351,7.586204 z m 19.50002,23.583834 -8.91265,-13.922522 -5.78454,3.725541 8.91263,13.922522 z m 5.13006,30.200046 -0.77961,-16.528467 -6.86735,0.323328 0.7796,16.528469 z m -10.61143,28.72334 7.56516,-14.70431 -6.1118,-3.1609 -7.56517,14.70428 z"
     id="path3"
     style="stroke-width:4.81913" />
</svg>
