<?xml version="1.0" encoding="UTF-8" standalone="no"?>
<svg
   width="200"
   height="199.99837"
   version="1.1"
   id="svg5"
   sodipodi:docname="dice.svg"
   inkscape:version="1.3.2 (091e20e, 2023-11-25, custom)"
   xmlns:inkscape="http://www.inkscape.org/namespaces/inkscape"
   xmlns:sodipodi="http://sodipodi.sourceforge.net/DTD/sodipodi-0.dtd"
   xmlns="http://www.w3.org/2000/svg"
   xmlns:svg="http://www.w3.org/2000/svg">
  <defs
     id="defs5" />
  <sodipodi:namedview
     id="namedview5"
     pagecolor="#ffffff"
     bordercolor="#000000"
     borderopacity="0.25"
     inkscape:showpageshadow="2"
     inkscape:pageopacity="0.0"
     inkscape:pagecheckerboard="0"
     inkscape:deskcolor="#d1d1d1"
     inkscape:zoom="5.5347176"
     inkscape:cx="5.1493142"
     inkscape:cy="36.587232"
     inkscape:window-width="1920"
     inkscape:window-height="1057"
     inkscape:window-x="-8"
     inkscape:window-y="-8"
     inkscape:window-maximized="1"
     inkscape:current-layer="svg5" />
  <g
     id="g5"
     transform="matrix(4.5018202,0,0,4.5018202,-147.60068,-115.44418)">
    <path
       fill="#ffffff"
       d="M 57.31,27.787 75.07,50.167 52.69,67.927 34.93,45.547 Z"
       id="path1" />
    <path
       fill="#cfcfcf"
       d="m 33.597,43.868 22.381,-17.76 q 0.083,-0.065 0.171,-0.122 0.089,-0.058 0.182,-0.106 0.094,-0.048 0.192,-0.086 0.098,-0.039 0.199,-0.068 0.101,-0.029 0.205,-0.048 0.104,-0.019 0.208,-0.027 0.104,-0.008 0.21,-0.007 0.106,0.001 0.21,0.014 0.104,0.013 0.208,0.034 0.104,0.021 0.203,0.054 0.099,0.033 0.197,0.075 0.098,0.042 0.188,0.093 0.092,0.05 0.179,0.11 0.086,0.06 0.167,0.129 0.08,0.068 0.153,0.143 0.073,0.076 0.139,0.159 l 17.76,22.38 q 0.066,0.083 0.123,0.171 0.057,0.088 0.105,0.182 0.048,0.094 0.086,0.192 0.04,0.098 0.068,0.2 0.029,0.1 0.048,0.204 0.019,0.104 0.027,0.208 0.009,0.105 0.007,0.21 -0.002,0.106 -0.014,0.21 -0.012,0.105 -0.034,0.208 -0.022,0.103 -0.054,0.203 -0.032,0.1 -0.074,0.197 -0.042,0.097 -0.094,0.188 -0.05,0.092 -0.11,0.179 -0.06,0.087 -0.129,0.167 -0.068,0.08 -0.143,0.153 -0.076,0.073 -0.158,0.139 l -22.381,17.76 q -0.083,0.066 -0.171,0.123 -0.088,0.057 -0.182,0.105 -0.094,0.048 -0.192,0.087 -0.098,0.039 -0.199,0.067 -0.101,0.028 -0.205,0.048 -0.104,0.02 -0.208,0.027 -0.104,0.007 -0.21,0.007 -0.106,-10e-4 -0.21,-0.013 Q 52.34,70.044 52.237,70.022 52.134,70 52.034,69.968 51.934,69.936 51.837,69.894 51.741,69.852 51.649,69.801 51.557,69.749 51.47,69.69 51.384,69.63 51.303,69.562 51.223,69.494 51.15,69.418 51.077,69.342 51.011,69.26 L 33.251,46.879 q -0.066,-0.083 -0.123,-0.171 -0.057,-0.088 -0.105,-0.182 -0.048,-0.094 -0.086,-0.192 -0.04,-0.098 -0.068,-0.199 -0.028,-0.101 -0.048,-0.205 -0.019,-0.103 -0.027,-0.208 -0.008,-0.105 -0.007,-0.21 0.002,-0.106 0.014,-0.21 0.012,-0.105 0.034,-0.208 0.022,-0.103 0.054,-0.203 0.032,-0.1 0.074,-0.197 0.042,-0.097 0.094,-0.188 0.05,-0.092 0.11,-0.179 0.06,-0.086 0.129,-0.167 0.068,-0.08 0.143,-0.153 0.076,-0.073 0.158,-0.139 M 56.964,30.798 37.94,45.892 53.036,64.916 72.06,49.821 Z"
       id="path2" />
    <path
       fill="#777777"
       d="m 56.954,50.319 q -0.121,0.096 -0.251,0.18 -0.13,0.084 -0.267,0.154 -0.137,0.07 -0.281,0.127 -0.144,0.057 -0.292,0.1 -0.148,0.043 -0.3,0.07 -0.152,0.027 -0.306,0.04 -0.154,0.013 -0.309,0.01 -0.155,-0.003 -0.307,-0.02 -0.152,-0.017 -0.305,-0.05 -0.15,-0.034 -0.298,-0.08 -0.147,-0.048 -0.288,-0.11 -0.142,-0.06 -0.277,-0.136 -0.135,-0.075 -0.262,-0.163 -0.127,-0.088 -0.244,-0.188 -0.117,-0.1 -0.226,-0.21 -0.109,-0.11 -0.203,-0.232 -0.094,-0.122 -0.18,-0.251 -0.086,-0.129 -0.154,-0.267 -0.068,-0.138 -0.127,-0.281 -0.059,-0.143 -0.1,-0.292 -0.041,-0.149 -0.07,-0.3 -0.027,-0.152 -0.04,-0.306 -0.012,-0.154 -0.01,-0.309 0.003,-0.154 0.02,-0.307 0.018,-0.154 0.051,-0.305 0.033,-0.15 0.08,-0.298 0.047,-0.147 0.109,-0.288 0.061,-0.142 0.136,-0.277 0.075,-0.135 0.163,-0.262 0.088,-0.127 0.188,-0.244 0.1,-0.117 0.21,-0.225 0.11,-0.108 0.232,-0.204 0.122,-0.096 0.251,-0.18 0.13,-0.083 0.267,-0.154 0.138,-0.07 0.281,-0.127 0.143,-0.057 0.292,-0.099 0.149,-0.042 0.3,-0.07 0.151,-0.028 0.306,-0.04 0.155,-0.012 0.309,-0.01 0.154,0.002 0.307,0.02 0.153,0.018 0.305,0.05 0.152,0.032 0.298,0.08 0.146,0.048 0.288,0.109 0.142,0.061 0.277,0.136 0.135,0.075 0.262,0.163 0.127,0.088 0.244,0.188 0.117,0.1 0.226,0.21 0.107,0.112 0.203,0.232 0.096,0.12 0.18,0.251 0.084,0.131 0.154,0.267 0.07,0.138 0.127,0.281 0.057,0.143 0.1,0.292 0.043,0.149 0.07,0.3 0.027,0.153 0.04,0.306 0.012,0.154 0.01,0.309 -0.003,0.154 -0.02,0.307 -0.018,0.154 -0.051,0.305 -0.033,0.15 -0.08,0.298 -0.047,0.147 -0.109,0.288 -0.061,0.142 -0.136,0.277 -0.075,0.135 -0.163,0.262 -0.088,0.127 -0.188,0.245 -0.1,0.118 -0.21,0.225 -0.11,0.107 -0.232,0.203 m 0.924,-8.029 q -0.121,0.097 -0.251,0.18 -0.13,0.084 -0.267,0.155 -0.137,0.071 -0.281,0.127 -0.144,0.056 -0.292,0.099 -0.148,0.043 -0.3,0.07 -0.152,0.027 -0.306,0.04 -0.154,0.013 -0.309,0.01 -0.155,-0.003 -0.307,-0.02 -0.152,-0.017 -0.305,-0.05 -0.15,-0.033 -0.297,-0.08 -0.147,-0.047 -0.29,-0.109 -0.143,-0.062 -0.276,-0.136 -0.133,-0.074 -0.262,-0.163 -0.129,-0.089 -0.244,-0.188 -0.115,-0.099 -0.225,-0.21 -0.108,-0.112 -0.204,-0.232 -0.096,-0.12 -0.18,-0.251 -0.083,-0.13 -0.154,-0.267 -0.07,-0.138 -0.127,-0.281 -0.057,-0.143 -0.099,-0.292 -0.042,-0.149 -0.07,-0.3 -0.028,-0.153 -0.04,-0.306 -0.013,-0.154 -0.01,-0.309 0.002,-0.154 0.02,-0.307 0.018,-0.154 0.05,-0.305 0.033,-0.15 0.08,-0.298 0.047,-0.147 0.109,-0.288 0.061,-0.142 0.136,-0.277 0.075,-0.135 0.163,-0.262 0.088,-0.127 0.188,-0.245 0.1,-0.118 0.21,-0.225 0.112,-0.107 0.232,-0.203 0.12,-0.096 0.251,-0.18 0.131,-0.084 0.267,-0.154 0.138,-0.07 0.281,-0.127 0.143,-0.057 0.292,-0.1 0.149,-0.043 0.3,-0.07 0.153,-0.027 0.306,-0.04 0.154,-0.012 0.309,-0.01 0.154,0.003 0.307,0.02 0.154,0.018 0.305,0.05 0.15,0.034 0.298,0.08 0.147,0.048 0.288,0.11 0.142,0.06 0.277,0.136 0.135,0.075 0.262,0.163 0.127,0.088 0.245,0.187 0.118,0.099 0.225,0.211 0.107,0.112 0.203,0.232 0.096,0.12 0.18,0.251 0.084,0.131 0.154,0.267 0.07,0.136 0.127,0.281 0.057,0.145 0.1,0.292 0.043,0.147 0.07,0.3 0.027,0.153 0.04,0.306 0.013,0.153 0.01,0.309 -0.003,0.156 -0.02,0.307 -0.017,0.151 -0.05,0.305 -0.034,0.15 -0.08,0.297 -0.048,0.147 -0.11,0.29 -0.06,0.14 -0.136,0.276 -0.075,0.135 -0.163,0.262 -0.088,0.127 -0.188,0.244 -0.1,0.117 -0.21,0.225 -0.11,0.108 -0.232,0.204 m -8.953,7.104 q -0.12,0.096 -0.25,0.18 -0.13,0.084 -0.267,0.154 -0.138,0.07 -0.281,0.127 -0.143,0.057 -0.292,0.1 -0.149,0.043 -0.3,0.07 -0.153,0.027 -0.307,0.04 -0.153,0.012 -0.308,0.01 -0.154,-0.003 -0.308,-0.02 -0.153,-0.018 -0.304,-0.051 -0.15,-0.033 -0.298,-0.08 -0.147,-0.047 -0.288,-0.109 -0.142,-0.061 -0.277,-0.136 -0.135,-0.075 -0.262,-0.163 -0.127,-0.088 -0.245,-0.188 -0.118,-0.1 -0.225,-0.21 -0.107,-0.11 -0.203,-0.232 -0.096,-0.122 -0.18,-0.251 -0.083,-0.13 -0.154,-0.267 -0.07,-0.138 -0.127,-0.281 -0.057,-0.143 -0.1,-0.292 -0.043,-0.149 -0.07,-0.3 -0.027,-0.152 -0.04,-0.306 -0.012,-0.154 -0.01,-0.309 0.003,-0.154 0.02,-0.307 0.018,-0.154 0.05,-0.305 0.033,-0.15 0.08,-0.298 0.048,-0.147 0.11,-0.288 0.06,-0.142 0.136,-0.277 0.075,-0.135 0.163,-0.262 0.088,-0.127 0.187,-0.244 0.099,-0.117 0.211,-0.226 0.112,-0.109 0.232,-0.203 0.12,-0.094 0.25,-0.18 0.13,-0.086 0.268,-0.154 0.138,-0.068 0.28,-0.127 0.145,-0.057 0.293,-0.1 0.148,-0.041 0.3,-0.07 0.152,-0.027 0.306,-0.04 0.154,-0.012 0.308,-0.01 0.155,0.003 0.308,0.02 0.154,0.018 0.304,0.051 0.151,0.033 0.298,0.08 0.147,0.047 0.289,0.109 0.142,0.062 0.277,0.136 0.135,0.074 0.262,0.163 0.127,0.089 0.244,0.188 0.117,0.099 0.225,0.21 0.108,0.111 0.204,0.232 0.096,0.121 0.18,0.251 0.084,0.13 0.154,0.267 0.07,0.138 0.127,0.281 0.057,0.143 0.099,0.292 0.042,0.149 0.07,0.3 0.028,0.151 0.04,0.306 0.012,0.155 0.01,0.309 -0.002,0.154 -0.02,0.307 -0.018,0.153 -0.05,0.305 -0.032,0.152 -0.08,0.298 -0.048,0.146 -0.109,0.288 -0.061,0.142 -0.136,0.277 -0.075,0.135 -0.163,0.262 -0.088,0.127 -0.188,0.244 -0.1,0.117 -0.21,0.226 -0.112,0.107 -0.233,0.203 m 7.105,8.952 q -0.121,0.096 -0.251,0.18 -0.13,0.084 -0.267,0.154 -0.137,0.07 -0.281,0.127 -0.144,0.057 -0.292,0.1 -0.148,0.043 -0.3,0.07 -0.153,0.027 -0.306,0.04 -0.154,0.012 -0.309,0.01 -0.154,-0.003 -0.307,-0.02 -0.154,-0.018 -0.305,-0.05 -0.15,-0.033 -0.298,-0.08 -0.147,-0.048 -0.288,-0.11 -0.142,-0.06 -0.277,-0.136 -0.135,-0.075 -0.262,-0.163 -0.127,-0.087 -0.245,-0.187 -0.118,-0.1 -0.225,-0.211 -0.107,-0.111 -0.203,-0.232 -0.096,-0.121 -0.18,-0.25 -0.083,-0.13 -0.154,-0.268 -0.07,-0.137 -0.127,-0.28 -0.057,-0.143 -0.1,-0.293 -0.043,-0.15 -0.07,-0.3 -0.027,-0.152 -0.04,-0.306 -0.012,-0.154 -0.01,-0.308 0.003,-0.155 0.02,-0.308 0.017,-0.153 0.05,-0.304 0.033,-0.151 0.08,-0.298 0.048,-0.147 0.11,-0.289 0.06,-0.142 0.136,-0.277 0.075,-0.135 0.163,-0.261 0.088,-0.127 0.188,-0.245 0.1,-0.118 0.21,-0.225 0.11,-0.107 0.232,-0.204 0.122,-0.097 0.251,-0.18 0.129,-0.083 0.267,-0.153 0.138,-0.07 0.281,-0.128 0.143,-0.058 0.292,-0.099 0.149,-0.041 0.3,-0.07 0.151,-0.029 0.306,-0.04 0.155,-0.011 0.309,-0.01 0.154,10e-4 0.307,0.02 0.153,0.019 0.305,0.05 0.15,0.033 0.298,0.08 0.146,0.047 0.288,0.109 0.142,0.061 0.277,0.136 0.135,0.075 0.262,0.163 0.127,0.088 0.244,0.188 0.117,0.1 0.225,0.21 0.108,0.112 0.204,0.233 0.096,0.12 0.18,0.25 0.084,0.13 0.154,0.268 0.07,0.138 0.127,0.28 0.057,0.142 0.099,0.293 0.042,0.151 0.07,0.3 0.028,0.149 0.04,0.306 0.013,0.154 0.01,0.308 -0.003,0.154 -0.02,0.308 -0.017,0.154 -0.05,0.304 -0.033,0.15 -0.08,0.298 -0.047,0.148 -0.109,0.289 -0.062,0.141 -0.136,0.276 -0.074,0.135 -0.163,0.262 -0.089,0.127 -0.188,0.245 -0.099,0.118 -0.21,0.225 -0.111,0.107 -0.232,0.203 m 8.952,-7.104 q -0.121,0.096 -0.25,0.18 -0.13,0.083 -0.268,0.154 -0.137,0.07 -0.28,0.127 -0.145,0.057 -0.293,0.1 -0.148,0.042 -0.3,0.07 -0.152,0.027 -0.306,0.04 -0.154,0.012 -0.308,0.01 -0.155,-0.003 -0.308,-0.02 -0.154,-0.018 -0.304,-0.05 -0.151,-0.033 -0.298,-0.08 -0.147,-0.048 -0.289,-0.11 -0.142,-0.06 -0.277,-0.136 -0.135,-0.075 -0.262,-0.163 -0.127,-0.088 -0.244,-0.187 -0.117,-0.099 -0.225,-0.211 -0.108,-0.112 -0.204,-0.232 -0.096,-0.12 -0.18,-0.25 -0.084,-0.13 -0.154,-0.268 -0.07,-0.138 -0.127,-0.28 -0.057,-0.145 -0.099,-0.293 -0.042,-0.148 -0.07,-0.3 -0.028,-0.152 -0.04,-0.306 -0.012,-0.154 -0.01,-0.308 0.002,-0.154 0.02,-0.308 0.018,-0.154 0.05,-0.304 0.032,-0.15 0.08,-0.298 0.048,-0.148 0.109,-0.29 0.061,-0.14 0.136,-0.276 0.075,-0.135 0.163,-0.262 0.088,-0.127 0.188,-0.244 0.1,-0.117 0.21,-0.225 0.112,-0.108 0.233,-0.204 0.12,-0.096 0.25,-0.18 0.13,-0.084 0.267,-0.154 0.138,-0.07 0.281,-0.127 0.143,-0.057 0.292,-0.099 0.149,-0.042 0.3,-0.07 0.153,-0.028 0.307,-0.04 0.153,-0.013 0.308,-0.01 0.154,0.002 0.308,0.02 0.153,0.018 0.304,0.05 0.15,0.033 0.298,0.08 0.147,0.047 0.288,0.109 0.142,0.061 0.277,0.136 0.135,0.075 0.262,0.163 0.127,0.088 0.245,0.188 0.118,0.1 0.225,0.21 0.107,0.112 0.203,0.233 0.096,0.12 0.18,0.25 0.084,0.13 0.154,0.267 0.07,0.138 0.127,0.281 0.057,0.143 0.1,0.292 0.043,0.149 0.07,0.3 0.027,0.153 0.04,0.307 0.012,0.153 0.01,0.308 -0.003,0.154 -0.02,0.308 -0.018,0.153 -0.05,0.304 -0.033,0.15 -0.08,0.298 -0.048,0.147 -0.11,0.288 -0.06,0.142 -0.136,0.277 -0.075,0.135 -0.163,0.262 -0.088,0.127 -0.187,0.245 -0.099,0.118 -0.211,0.225 -0.112,0.107 -0.232,0.203"
       id="path3" />
  </g>
</svg>
