<?xml version="1.0" encoding="UTF-8" standalone="no"?>
<svg
   width="200"
   height="200"
   version="1.1"
   id="svg4"
   sodipodi:docname="egg.svg"
   inkscape:version="1.3.2 (091e20e, 2023-11-25, custom)"
   xmlns:inkscape="http://www.inkscape.org/namespaces/inkscape"
   xmlns:sodipodi="http://sodipodi.sourceforge.net/DTD/sodipodi-0.dtd"
   xmlns="http://www.w3.org/2000/svg"
   xmlns:svg="http://www.w3.org/2000/svg">
  <defs
     id="defs4" />
  <sodipodi:namedview
     id="namedview4"
     pagecolor="#ffffff"
     bordercolor="#000000"
     borderopacity="0.25"
     inkscape:showpageshadow="2"
     inkscape:pageopacity="0.0"
     inkscape:pagecheckerboard="0"
     inkscape:deskcolor="#d1d1d1"
     inkscape:zoom="1.3836794"
     inkscape:cx="82.750382"
     inkscape:cy="281.49584"
     inkscape:window-width="1920"
     inkscape:window-height="1057"
     inkscape:window-x="-8"
     inkscape:window-y="-8"
     inkscape:window-maximized="1"
     inkscape:current-layer="g4" />
  <g
     id="g4">
    <path
       fill="#fff0b8"
       d="m 170.2025,100.35501 q 0,2.22639 -0.085,4.45279 -0.0764,2.2264 -0.23793,4.44005 -0.16145,2.2179 -0.40364,4.4188 -0.24219,2.2094 -0.5651,4.3933 -0.31867,2.18392 -0.72231,4.34233 -0.39938,2.16266 -0.87524,4.29133 -0.48013,2.13293 -1.03249,4.23185 -0.55234,2.09894 -1.18542,4.15538 -0.63308,2.05645 -1.33414,4.0704 -0.70106,2.01395 -1.4786,3.98117 -0.77754,1.96723 -1.62305,3.87495 -0.84978,1.91199 -1.76329,3.76023 -0.9135,1.8525 -1.89497,3.64551 -0.97725,1.78452 -2.02246,3.50955 -1.04522,1.72504 -2.15416,3.37359 -1.10896,1.64856 -2.26889,3.22488 -1.16418,1.57207 -2.38361,3.07191 -1.21942,1.4956 -2.49407,2.90622 -1.27466,1.41061 -2.5918,2.7405 -1.31714,1.3299 -2.69376,2.5663 -1.37663,1.23642 -2.78301,2.37937 -1.40636,1.14294 -2.86372,2.19665 -1.45735,1.05372 -2.9402,2.00545 -1.48285,0.95175 -3.00818,1.80575 -1.52109,0.84978 -3.07193,1.60183 -1.55083,0.7478 -3.12715,1.39788 -1.57206,0.64582 -3.16964,1.18967 -1.59757,0.53959 -3.21213,0.97298 -1.61456,0.43338 -3.24611,0.7648 -1.63156,0.3314 -3.26737,0.5396 -1.6358,0.2082 -3.2801,0.33142 -1.64431,0.12321 -3.29286,0.1062 -1.64855,-0.0169 -3.292859,-0.1062 -1.6443,-0.0892 -3.28011,-0.33142 -1.6358,-0.24218 -3.27162,-0.54384 -1.63579,-0.30168 -3.241871,-0.7648 -1.614555,-0.42915 -3.212119,-0.97299 -1.597572,-0.5396 -3.169642,-1.18968 -1.576323,-0.64582 -3.127157,-1.39362 -1.550827,-0.7478 -3.071913,-1.60183 -1.521086,-0.854 -3.008186,-1.80575 -1.487099,-0.95173 -2.940204,-2.00545 -1.453106,-1.05371 -2.863724,-2.19241 -1.410617,-1.13869 -2.782996,-2.38361 -1.372378,-1.2449 -2.693769,-2.5663 -1.317143,-1.32564 -2.591799,-2.7405 -1.274655,-1.41062 -2.494074,-2.90622 -1.219419,-1.4956 -2.383604,-3.07191 -1.164185,-1.57632 -2.268885,-3.22913 -1.1047,-1.6528 -2.154166,-3.36934 -1.040967,-1.72078 -2.022452,-3.50955 -0.981484,-1.79301 -1.894986,-3.64551 -0.917751,-1.84824 -1.763272,-3.76023 -0.84977,-1.91198 -1.62306,-3.87495 -0.773291,-1.96722 -1.4786,-3.98117 -0.705309,-2.01395 -1.334139,-4.0704 -0.628829,-2.05644 -1.185428,-4.15538 -0.552349,-2.09892 -1.03247,-4.22759 -0.475872,-2.13293 -0.879512,-4.29134 -0.399391,-2.16692 -0.722304,-4.34658 -0.318664,-2.18815 -0.560848,-4.38906 -0.242184,-2.20514 -0.403641,-4.4188 -0.161456,-2.21789 -0.242185,-4.44429 -0.08072,-2.2264 -0.08072,-4.45279 0,-2.226397 0.08497,-4.452793 0.07648,-2.222148 0.237936,-4.440048 0.161457,-2.217901 0.403642,-4.418799 0.242183,-2.209403 0.565096,-4.389071 0.318664,-2.188145 0.722304,-4.346561 0.399392,-2.162666 0.875263,-4.291338 0.48012,-2.132919 1.032469,-4.231853 0.552351,-2.09893 1.185429,-4.155373 0.633079,-2.056444 1.334139,-4.070396 0.701059,-2.01396 1.4786,-3.981174 0.777538,-1.967217 1.62306,-3.874951 0.849768,-1.911981 1.763272,-3.760231 0.913502,-1.852498 1.894986,-3.641262 0.977235,-1.788766 2.022452,-3.513799 1.045217,-1.725032 2.154165,-3.369337 1.10895,-1.644303 2.268886,-3.229123 1.159935,-1.584821 2.383604,-3.067669 1.223668,-1.482849 2.494074,-2.910462 1.270406,-1.427613 2.591798,-2.740507 1.325641,-1.32564 2.69377,-2.566305 1.368129,-1.236415 2.782995,-2.379354 1.410618,-1.14719 2.863724,-2.196656 1.448858,-1.049466 2.940204,-2.001207 1.4871,-0.955991 3.008186,-1.805761 1.521087,-0.84977 3.071914,-1.606065 1.550834,-0.747797 3.127156,-1.393622 1.572072,-0.650074 3.169644,-1.189677 1.597563,-0.539604 3.212119,-0.977237 1.614569,-0.433381 3.246129,-0.760543 1.62731,-0.327161 3.26737,-0.543853 1.6358,-0.2209388 3.28011,-0.3271608 1.644309,-0.10622 3.292849,-0.11047 1.64856,0 3.29286,0.11047 1.64431,0.11047 3.28011,0.3271608 1.6358,0.216692 3.27162,0.543853 1.63579,0.327162 3.24186,0.764793 1.60607,0.437631 3.21213,0.972987 1.60607,0.535353 3.16964,1.189677 1.56358,0.654321 3.12715,1.393622 1.56358,0.739299 3.07193,1.606065 1.50833,0.866764 3.00818,1.805761 1.49985,0.938995 2.9402,1.996958 1.44036,1.057964 2.86372,2.200905 1.41487,1.142939 2.78301,2.379354 1.36812,1.236415 2.69376,2.566305 1.31714,1.32564 2.5918,2.740507 1.27465,1.410617 2.49407,2.910462 1.21943,1.495594 2.38361,3.067669 1.16418,1.576321 2.26889,3.229123 1.1047,1.648554 2.15416,3.369337 1.04096,1.725033 2.02246,3.513799 0.98147,1.788764 1.89497,3.641262 0.91776,1.852498 1.76329,3.760231 0.84976,1.911982 1.62305,3.874951 0.77329,1.967214 1.4786,3.981174 0.7053,2.013952 1.33414,4.070396 0.62882,2.056443 1.18542,4.155373 0.55236,2.098934 1.03249,4.227596 0.47586,2.132929 0.8795,4.291346 0.39938,2.166914 0.7223,4.35081 0.31866,2.183915 0.56085,4.384823 0.24219,2.205146 0.40364,4.418799 0.16146,2.222148 0.24219,4.444296 0.0807,2.226396 0.0807,4.452793"
       id="path1"
       style="stroke-width:4.24885" />
    <path
       fill="none"
       stroke="#cfc295"
       stroke-linejoin="round"
       stroke-width="18.2094"
       d="m 170.2025,100.35501 q 0,2.22639 -0.085,4.45279 -0.0764,2.2264 -0.23793,4.44005 -0.16145,2.2179 -0.40364,4.4188 -0.24219,2.2094 -0.5651,4.3933 -0.31867,2.18392 -0.72231,4.34233 -0.39938,2.16266 -0.87524,4.29133 -0.48013,2.13293 -1.03249,4.23185 -0.55234,2.09894 -1.18542,4.15538 -0.63308,2.05645 -1.33414,4.0704 -0.70106,2.01395 -1.4786,3.98117 -0.77754,1.96723 -1.62305,3.87495 -0.84978,1.91199 -1.76329,3.76023 -0.9135,1.8525 -1.89497,3.64551 -0.97725,1.78452 -2.02246,3.50955 -1.04522,1.72504 -2.15416,3.37359 -1.10896,1.64856 -2.26889,3.22488 -1.16418,1.57207 -2.38361,3.07191 -1.21942,1.4956 -2.49407,2.90622 -1.27466,1.41061 -2.5918,2.7405 -1.31714,1.3299 -2.69376,2.5663 -1.37663,1.23642 -2.78301,2.37937 -1.40636,1.14294 -2.86372,2.19665 -1.45735,1.05372 -2.9402,2.00545 -1.48285,0.95175 -3.00818,1.80575 -1.52109,0.84978 -3.07193,1.60183 -1.55083,0.7478 -3.12715,1.39788 -1.57206,0.64582 -3.16964,1.18967 -1.59757,0.53959 -3.21213,0.97298 -1.61456,0.43338 -3.24611,0.7648 -1.63156,0.3314 -3.26737,0.5396 -1.6358,0.2082 -3.2801,0.33142 -1.64431,0.12321 -3.29286,0.1062 -1.64855,-0.0169 -3.292859,-0.1062 -1.6443,-0.0892 -3.28011,-0.33142 -1.6358,-0.24218 -3.27162,-0.54384 -1.63579,-0.30168 -3.241871,-0.7648 -1.614555,-0.42915 -3.212119,-0.97299 -1.597572,-0.5396 -3.169642,-1.18968 -1.576323,-0.64582 -3.127157,-1.39362 -1.550827,-0.7478 -3.071913,-1.60183 -1.521086,-0.854 -3.008186,-1.80575 -1.487099,-0.95173 -2.940204,-2.00545 -1.453106,-1.05371 -2.863724,-2.19241 -1.410617,-1.13869 -2.782996,-2.38361 -1.372378,-1.2449 -2.693769,-2.5663 -1.317143,-1.32564 -2.591799,-2.7405 -1.274655,-1.41062 -2.494074,-2.90622 -1.219419,-1.4956 -2.383604,-3.07191 -1.164185,-1.57632 -2.268885,-3.22913 -1.1047,-1.6528 -2.154166,-3.36934 -1.040967,-1.72078 -2.022452,-3.50955 -0.981484,-1.79301 -1.894986,-3.64551 -0.917751,-1.84824 -1.763272,-3.76023 -0.84977,-1.91198 -1.62306,-3.87495 -0.773291,-1.96722 -1.4786,-3.98117 -0.705309,-2.01395 -1.334139,-4.0704 -0.628829,-2.05644 -1.185428,-4.15538 -0.552349,-2.09892 -1.03247,-4.22759 -0.475872,-2.13293 -0.879512,-4.29134 -0.399391,-2.16692 -0.722304,-4.34658 -0.318664,-2.18815 -0.560848,-4.38906 -0.242184,-2.20514 -0.403641,-4.4188 -0.161456,-2.21789 -0.242185,-4.44429 -0.08072,-2.2264 -0.08072,-4.45279 0,-2.226397 0.08497,-4.452793 0.07648,-2.222148 0.237936,-4.440048 0.161457,-2.217901 0.403642,-4.418799 0.242183,-2.209403 0.565096,-4.389071 0.318664,-2.188145 0.722304,-4.346561 0.399392,-2.162666 0.875263,-4.291338 0.48012,-2.132919 1.032469,-4.231853 0.552351,-2.09893 1.185429,-4.155373 0.633079,-2.056444 1.334139,-4.070396 0.701059,-2.01396 1.4786,-3.981174 0.777538,-1.967217 1.62306,-3.874951 0.849768,-1.911981 1.763272,-3.760231 0.913502,-1.852498 1.894986,-3.641262 0.977235,-1.788766 2.022452,-3.513799 1.045217,-1.725032 2.154165,-3.369337 1.10895,-1.644303 2.268886,-3.229123 1.159935,-1.584821 2.383604,-3.067669 1.223668,-1.482849 2.494074,-2.910462 1.270406,-1.427613 2.591798,-2.740507 1.325641,-1.32564 2.69377,-2.566305 1.368129,-1.236415 2.782995,-2.379354 1.410618,-1.14719 2.863724,-2.196656 1.448858,-1.049466 2.940204,-2.001207 1.4871,-0.955991 3.008186,-1.805761 1.521087,-0.84977 3.071914,-1.606065 1.550834,-0.747797 3.127156,-1.393622 1.572072,-0.650074 3.169644,-1.189677 1.597563,-0.539604 3.212119,-0.977237 1.614569,-0.433381 3.246129,-0.760543 1.62731,-0.327161 3.26737,-0.543853 1.6358,-0.2209388 3.28011,-0.3271608 1.644309,-0.10622 3.292849,-0.11047 1.64856,0 3.29286,0.11047 1.64431,0.11047 3.28011,0.3271608 1.6358,0.216692 3.27162,0.543853 1.63579,0.327162 3.24186,0.764793 1.60607,0.437631 3.21213,0.972987 1.60607,0.535353 3.16964,1.189677 1.56358,0.654321 3.12715,1.393622 1.56358,0.739299 3.07193,1.606065 1.50833,0.866764 3.00818,1.805761 1.49985,0.938995 2.9402,1.996958 1.44036,1.057964 2.86372,2.200905 1.41487,1.142939 2.78301,2.379354 1.36812,1.236415 2.69376,2.566305 1.31714,1.32564 2.5918,2.740507 1.27465,1.410617 2.49407,2.910462 1.21943,1.495594 2.38361,3.067669 1.16418,1.576321 2.26889,3.229123 1.1047,1.648554 2.15416,3.369337 1.04096,1.725033 2.02246,3.513799 0.98147,1.788764 1.89497,3.641262 0.91776,1.852498 1.76329,3.760231 0.84976,1.911982 1.62305,3.874951 0.77329,1.967214 1.4786,3.981174 0.7053,2.013952 1.33414,4.070396 0.62882,2.056443 1.18542,4.155373 0.55236,2.098934 1.03249,4.227596 0.47586,2.132929 0.8795,4.291346 0.39938,2.166914 0.7223,4.35081 0.31866,2.183915 0.56085,4.384823 0.24219,2.205146 0.40364,4.418799 0.16146,2.222148 0.24219,4.444296 0.0807,2.226396 0.0807,4.452793"
       id="path2" />
  </g>
</svg>
