<?xml version="1.0" encoding="UTF-8" standalone="no"?>
<svg
   version="1.1"
   width="223.04631"
   height="200"
   viewBox="0 0 223.04632 199.99999"
   id="svg2"
   sodipodi:docname="dual_faster.svg"
   inkscape:version="1.4 (86a8ad7, 2024-10-11)"
   xmlns:inkscape="http://www.inkscape.org/namespaces/inkscape"
   xmlns:sodipodi="http://sodipodi.sourceforge.net/DTD/sodipodi-0.dtd"
   xmlns="http://www.w3.org/2000/svg"
   xmlns:svg="http://www.w3.org/2000/svg">
  <defs
     id="defs2" />
  <sodipodi:namedview
     id="namedview2"
     pagecolor="#ffffff"
     bordercolor="#000000"
     borderopacity="0.25"
     inkscape:showpageshadow="2"
     inkscape:pageopacity="0.0"
     inkscape:pagecheckerboard="0"
     inkscape:deskcolor="#d1d1d1"
     inkscape:zoom="1.7029811"
     inkscape:cx="166.17918"
     inkscape:cy="56.078133"
     inkscape:window-width="1920"
     inkscape:window-height="1001"
     inkscape:window-x="-9"
     inkscape:window-y="-9"
     inkscape:window-maximized="1"
     inkscape:current-layer="svg2" />
  <g
     transform="matrix(1.5619918,0,0,1.5619918,-388.33252,-181.09185)"
     id="g2">
    <g
       data-paper-data="{&quot;isPaintingLayer&quot;:true}"
       fill="#ffffff"
       fill-rule="nonzero"
       stroke="#d6d6d6"
       stroke-width="13.5"
       stroke-linecap="butt"
       stroke-linejoin="miter"
       stroke-miterlimit="10"
       stroke-dasharray="none"
       stroke-dashoffset="0"
       style="mix-blend-mode:normal"
       id="g1">
      <path
         d="m 356.24928,223.97687 c -42.68226,31.44129 -86.07101,-1.02756 -99.287,-12.6602 -2.62714,-2.3124 -2.02189,-3.75166 1.51374,-3.93331 12.45828,-0.64007 43.48514,-4.15352 69.25617,-22.84282 26.66393,-19.33683 39.56401,-49.01796 43.56684,-59.81026 0.96391,-2.59886 2.15962,-2.74616 3.28098,-0.30959 6.6343,14.41543 26.3467,66.64518 -18.33073,99.55618 z"
         data-paper-data="{&quot;index&quot;:null}"
         id="path1" />
    </g>
  </g>
  <path
     style="fill:#feffc9;stroke-width:0.587206;fill-opacity:1"
     d="M 98.650537,178.43701 C 79.858379,176.43902 58.996444,168.39094 39.720141,155.70294 l -5.494688,-3.6167 3.145866,-0.49949 c 16.507089,-2.62097 34.813036,-7.29305 48.654298,-12.41766 16.815733,-6.22588 37.416113,-17.76167 50.499683,-28.27878 20.24098,-16.270534 39.42298,-40.260269 52.81748,-66.055566 l 4.59313,-8.845499 0.93189,2.851176 c 0.51254,1.568146 1.59021,5.4936 2.39479,8.723231 10.18112,40.866828 2.53331,75.652878 -22.11976,100.611678 -15.31521,15.50513 -33.06252,25.43206 -52.12326,29.15507 -4.83895,0.94516 -19.58809,1.61493 -24.369033,1.10661 z"
     id="path2" />
  <path
     style="fill:#cfd0a4;fill-opacity:1;stroke-width:0.587206"
     d="M 98.356934,199.54646 C 73.663654,197.75355 43.161552,185.10784 18.299116,166.35572 9.4836484,159.70678 4.4302752,155.16597 2.501823,152.16074 c -1.67002363,-2.60251 -1.91252879,-3.47775 -1.91350244,-6.90616 -9.6712e-4,-3.40538 0.23247316,-4.26388 1.76050174,-6.47443 2.8153671,-4.07288 6.6273989,-5.63366 15.5609477,-6.37124 46.607511,-3.84804 84.49314,-18.71215 112.67128,-44.20567 19.73754,-17.857069 38.67331,-45.944883 49.70757,-73.732217 3.31346,-8.3442369 5.8714,-11.7640832 9.96987,-13.3293059 5.22845,-1.99676268 11.09657,0.2304934 14.42179,5.4738196 2.24942,3.5469633 8.1291,18.5535253 10.7761,27.5035563 2.53536,8.572586 4.63819,18.226567 5.99819,27.537493 1.39121,9.524509 1.38669,29.753377 -0.009,38.461964 -4.21798,26.3266 -15.09836,47.33956 -33.91299,65.49523 -25.37052,24.48194 -56.45165,36.30872 -89.176066,33.93268 z m 24.369036,-21.61149 c 27.70995,-4.94506 55.86383,-25.87903 68.87553,-51.21279 7.51712,-14.63582 10.36176,-27.20215 10.34233,-45.68781 -0.0137,-13.01644 -1.01223,-20.839274 -4.34735,-34.057924 -3.55693,-14.097782 -2.84974,-13.744172 -7.91651,-3.958469 -21.13234,40.813975 -49.55814,69.866033 -85.74458,87.633623 -12.084917,5.93372 -21.346816,9.51617 -34.351529,13.28699 -9.409547,2.72837 -26.42807,6.39117 -32.780236,7.05511 -1.99458,0.20847 -3.625214,0.53958 -3.62363,0.73579 0.0077,0.95654 16.054001,10.67845 24.366152,14.76266 13.518476,6.64235 26.572438,10.68969 39.636376,12.28913 6.001537,0.73478 19.119077,0.30017 25.543447,-0.84631 z"
     id="path3" />
</svg>
