<?xml version="1.0" encoding="UTF-8" standalone="no"?>
<svg
   width="200"
   height="200"
   version="1.1"
   id="svg5"
   sodipodi:docname="heaviest.svg"
   inkscape:version="1.4 (86a8ad7, 2024-10-11)"
   xmlns:inkscape="http://www.inkscape.org/namespaces/inkscape"
   xmlns:sodipodi="http://sodipodi.sourceforge.net/DTD/sodipodi-0.dtd"
   xmlns="http://www.w3.org/2000/svg"
   xmlns:svg="http://www.w3.org/2000/svg">
  <defs
     id="defs5" />
  <sodipodi:namedview
     id="namedview5"
     pagecolor="#ffffff"
     bordercolor="#000000"
     borderopacity="0.25"
     inkscape:showpageshadow="2"
     inkscape:pageopacity="0.0"
     inkscape:pagecheckerboard="0"
     inkscape:deskcolor="#d1d1d1"
     inkscape:zoom="3.5772727"
     inkscape:cx="37.738246"
     inkscape:cy="99.09784"
     inkscape:window-width="1920"
     inkscape:window-height="1001"
     inkscape:window-x="-9"
     inkscape:window-y="-9"
     inkscape:window-maximized="1"
     inkscape:current-layer="svg5" />
  <path
     fill="#333333"
     d="m 191.35836,100.41065 q 0,2.24214 -0.10791,4.48428 -0.11191,2.23815 -0.33173,4.46831 -0.21981,2.23415 -0.54755,4.45232 -0.32773,2.21816 -0.76736,4.41634 -0.43963,2.19819 -0.98319,4.37639 -0.54355,2.1782 -1.199,4.32043 -0.65547,2.14222 -1.40284,4.25647 -0.75538,2.11426 -1.61468,4.18454 -0.85529,2.07428 -1.81449,4.10061 -0.95921,2.02632 -2.01834,4.0047 -1.05912,1.97836 -2.21016,3.90076 -1.15105,1.92242 -2.39803,3.78887 -1.24697,1.86646 -2.58186,3.66498 -1.33489,1.79851 -2.75772,3.53707 -1.42283,1.73057 -2.92958,3.39319 -1.50676,1.66263 -3.09344,3.24932 -1.58669,1.58668 -3.24531,3.08945 -1.65863,1.50275 -3.3972,2.92957 -1.73855,1.42681 -3.53307,2.75772 -1.79452,1.3309 -3.66497,2.58187 -1.87046,1.25096 -3.78887,2.39801 -1.91842,1.14705 -3.90078,2.21017 -1.97836,1.05913 -4.00468,2.01833 -2.03032,0.95921 -4.10062,1.8145 -2.07028,0.85529 -4.18453,1.61467 -2.11026,0.75937 -4.25649,1.40684 -2.14622,0.65146 -4.32042,1.19901 -2.17421,0.54755 -4.37639,0.97919 -2.20217,0.43164 -4.41635,0.76736 -2.21417,0.33573 -4.45232,0.54755 -2.23815,0.21182 -4.4683,0.33172 -2.23016,0.11991 -4.4843,0.10791 -2.254133,-0.012 -4.484282,-0.10791 -2.23016,-0.0959 -4.468308,-0.33172 -2.238149,-0.23581 -4.45232,-0.54755 -2.218166,-0.32772 -4.416349,-0.76736 -2.198183,-0.43964 -4.376383,-0.98319 -2.178199,-0.54355 -4.320427,-1.19901 -2.146225,-0.64747 -4.25648,-1.39884 -2.114253,-0.75937 -4.184541,-1.61867 -2.070288,-0.85529 -4.100609,-1.8145 -2.026325,-0.9592 -4.004689,-2.01833 -1.978364,-1.05513 -3.900775,-2.21017 -1.92241,-1.15104 -3.788866,-2.39801 -1.866457,-1.24698 -3.664971,-2.58187 -1.798513,-1.3349 -3.533078,-2.75772 -1.734566,-1.42283 -3.397191,-2.92957 -1.662626,-1.50676 -3.245317,-3.08945 -1.582691,-1.5827 -3.093442,-3.24932 -1.510751,-1.66662 -2.929577,-3.39719 -1.418828,-1.73056 -2.75772,-3.53307 -1.338894,-1.80251 -2.581866,-3.66498 -1.242972,-1.86246 -2.398017,-3.78887 -1.155045,-1.9224 -2.210172,-3.90076 -1.055128,-1.97838 -2.018332,-4.0047 -0.963203,-2.02633 -1.814499,-4.10061 -0.851296,-2.07428 -1.614665,-4.18454 -0.76337,-2.11025 -1.406837,-4.25647 -0.643469,-2.14623 -1.199009,-4.32043 -0.539553,-2.17421 -0.979189,-4.37639 -0.439637,-2.20217 -0.7673661,-4.41634 -0.3277291,-2.21817 -0.5475474,-4.45232 -0.2198183,-2.23016 -0.3317257,-4.46831 -0.1079142,-2.23815 -0.1079142,-4.48428 0,-2.242146 0.1079142,-4.480306 0.1119074,-2.238149 0.3317257,-4.476297 0.2198183,-2.230149 0.5475474,-4.448315 0.3277291,-2.21817 0.7673661,-4.416352 0.439636,-2.198183 0.983185,-4.376381 0.543551,-2.178199 1.19901,-4.320428 0.655458,-2.14223 1.40284,-4.256481 0.747381,-2.114252 1.614665,-4.18454 0.867282,-2.070289 1.814499,-4.10061 0.947217,-2.030321 2.018332,-4.004688 1.071114,-1.974368 2.210172,-3.900775 1.139059,-1.926408 2.398017,-3.788867 1.258959,-1.862461 2.581866,-3.664969 1.334896,-1.798514 2.75772,-3.533079 1.422822,-1.734566 2.929577,-3.397192 1.506754,-1.662625 3.093442,-3.245317 1.582691,-1.586688 3.245317,-3.093442 1.662625,-1.506753 3.397191,-2.929577 1.734565,-1.422824 3.533078,-2.75772 1.798514,-1.334896 3.664971,-2.581866 1.866456,-1.246969 3.788866,-2.398017 1.922411,-1.151048 3.900775,-2.210172 1.978364,-1.059125 4.004689,-2.014335 2.030321,-0.959207 4.100609,-1.818496 2.070288,-0.859289 4.184541,-1.614665 2.110255,-0.755375 4.25648,-1.406837 2.146225,-0.651462 4.320427,-1.195011 2.174206,-0.543551 4.376383,-0.983188 2.202177,-0.439637 4.416349,-0.767366 2.214171,-0.3277289 4.45232,-0.5475472 2.238148,-0.2198183 4.468308,-0.3277291 2.230149,-0.1079142 4.484282,-0.1119075 2.25414,-0.00397 4.4843,0.1119075 2.23015,0.1159051 4.4683,0.3277291 2.23815,0.2118251 4.45232,0.5475472 2.21418,0.335723 4.41635,0.767366 2.19819,0.439637 4.37639,0.983188 2.1782,0.543549 4.32042,1.199008 2.14623,0.647465 4.25649,1.40284 2.11425,0.759372 4.18453,1.614665 2.0703,0.855292 4.10062,1.818496 2.03032,0.963204 4.00468,2.014335 1.97437,1.051131 3.90078,2.210172 1.92241,1.151048 3.78887,2.398017 1.86645,1.24697 3.66497,2.581866 1.79851,1.334896 3.53307,2.75772 1.73457,1.422824 3.3972,2.929577 1.66262,1.506754 3.24531,3.093442 1.58668,1.582692 3.09344,3.245317 1.50675,1.662626 2.92958,3.397192 1.42283,1.734565 2.75772,3.533079 1.33489,1.798512 2.58186,3.664969 1.24698,1.866457 2.39803,3.788867 1.15104,1.922411 2.21016,3.900775 1.05913,1.978364 2.01834,4.004688 0.9592,2.030321 1.81449,4.10061 0.8553,2.070288 1.61468,4.18454 0.75536,2.110255 1.40683,4.256481 0.65146,2.146225 1.19901,4.320428 0.53956,2.178198 0.97919,4.376381 0.43963,2.198182 0.76736,4.416352 0.32774,2.218166 0.54755,4.45232 0.21982,2.230149 0.33173,4.472292 0.10791,2.23816 0.10791,4.480306"
     id="path1"
     style="stroke-width:3.9967" />
  <path
     fill="none"
     stroke="#292929"
     stroke-linejoin="round"
     stroke-width="17.1287"
     d="m 191.35836,100.41065 q 0,2.24214 -0.10791,4.48428 -0.11191,2.23815 -0.33173,4.46831 -0.21981,2.23415 -0.54755,4.45232 -0.32773,2.21816 -0.76736,4.41634 -0.43963,2.19819 -0.98319,4.37639 -0.54355,2.1782 -1.199,4.32043 -0.65547,2.14222 -1.40284,4.25647 -0.75538,2.11426 -1.61468,4.18454 -0.85529,2.07428 -1.81449,4.10061 -0.95921,2.02632 -2.01834,4.0047 -1.05912,1.97836 -2.21016,3.90076 -1.15105,1.92242 -2.39803,3.78887 -1.24697,1.86646 -2.58186,3.66498 -1.33489,1.79851 -2.75772,3.53707 -1.42283,1.73057 -2.92958,3.39319 -1.50676,1.66263 -3.09344,3.24932 -1.58669,1.58668 -3.24531,3.08945 -1.65863,1.50275 -3.3972,2.92957 -1.73855,1.42681 -3.53307,2.75772 -1.79452,1.3309 -3.66497,2.58187 -1.87046,1.25096 -3.78887,2.39801 -1.91842,1.14705 -3.90078,2.21017 -1.97836,1.05913 -4.00468,2.01833 -2.03032,0.95921 -4.10062,1.8145 -2.07028,0.85529 -4.18453,1.61467 -2.11026,0.75937 -4.25649,1.40684 -2.14622,0.65146 -4.32042,1.19901 -2.17421,0.54755 -4.37639,0.97919 -2.20217,0.43164 -4.41635,0.76736 -2.21417,0.33573 -4.45232,0.54755 -2.23815,0.21182 -4.4683,0.33172 -2.23016,0.11991 -4.4843,0.10791 -2.254133,-0.012 -4.484282,-0.10791 -2.23016,-0.0959 -4.468308,-0.33172 -2.238149,-0.23581 -4.45232,-0.54755 -2.218166,-0.32772 -4.416349,-0.76736 -2.198183,-0.43964 -4.376383,-0.98319 -2.178199,-0.54355 -4.320427,-1.19901 -2.146225,-0.64747 -4.25648,-1.39884 -2.114253,-0.75937 -4.184541,-1.61867 -2.070288,-0.85529 -4.100609,-1.8145 -2.026325,-0.9592 -4.004689,-2.01833 -1.978364,-1.05513 -3.900775,-2.21017 -1.92241,-1.15104 -3.788866,-2.39801 -1.866457,-1.24698 -3.664971,-2.58187 -1.798513,-1.3349 -3.533078,-2.75772 -1.734566,-1.42283 -3.397191,-2.92957 -1.662626,-1.50676 -3.245317,-3.08945 -1.582691,-1.5827 -3.093442,-3.24932 -1.510751,-1.66662 -2.929577,-3.39719 -1.418828,-1.73056 -2.75772,-3.53307 -1.338894,-1.80251 -2.581866,-3.66498 -1.242972,-1.86246 -2.398017,-3.78887 -1.155045,-1.9224 -2.210172,-3.90076 -1.055128,-1.97838 -2.018332,-4.0047 -0.963203,-2.02633 -1.814499,-4.10061 -0.851296,-2.07428 -1.614665,-4.18454 -0.76337,-2.11025 -1.406837,-4.25647 -0.643469,-2.14623 -1.199009,-4.32043 -0.539553,-2.17421 -0.979189,-4.37639 -0.439637,-2.20217 -0.7673661,-4.41634 -0.3277291,-2.21817 -0.5475474,-4.45232 -0.2198183,-2.23016 -0.3317257,-4.46831 -0.1079142,-2.23815 -0.1079142,-4.48428 0,-2.242146 0.1079142,-4.480306 0.1119074,-2.238149 0.3317257,-4.476297 0.2198183,-2.230149 0.5475474,-4.448315 0.3277291,-2.21817 0.7673661,-4.416352 0.439636,-2.198183 0.983185,-4.376381 0.543551,-2.178199 1.19901,-4.320428 0.655458,-2.14223 1.40284,-4.256481 0.747381,-2.114252 1.614665,-4.18454 0.867282,-2.070289 1.814499,-4.10061 0.947217,-2.030321 2.018332,-4.004688 1.071114,-1.974368 2.210172,-3.900775 1.139059,-1.926408 2.398017,-3.788867 1.258959,-1.862461 2.581866,-3.664969 1.334896,-1.798514 2.75772,-3.533079 1.422822,-1.734566 2.929577,-3.397192 1.506754,-1.662625 3.093442,-3.245317 1.582691,-1.586688 3.245317,-3.093442 1.662625,-1.506753 3.397191,-2.929577 1.734565,-1.422824 3.533078,-2.75772 1.798514,-1.334896 3.664971,-2.581866 1.866456,-1.246969 3.788866,-2.398017 1.922411,-1.151048 3.900775,-2.210172 1.978364,-1.059125 4.004689,-2.014335 2.030321,-0.959207 4.100609,-1.818496 2.070288,-0.859289 4.184541,-1.614665 2.110255,-0.755375 4.25648,-1.406837 2.146225,-0.651462 4.320427,-1.195011 2.174206,-0.543551 4.376383,-0.983188 2.202177,-0.439637 4.416349,-0.767366 2.214171,-0.3277289 4.45232,-0.5475472 2.238148,-0.2198183 4.468308,-0.3277291 2.230149,-0.1079142 4.484282,-0.1119075 2.25414,-0.00397 4.4843,0.1119075 2.23015,0.1159051 4.4683,0.3277291 2.23815,0.2118251 4.45232,0.5475472 2.21418,0.335723 4.41635,0.767366 2.19819,0.439637 4.37639,0.983188 2.1782,0.543549 4.32042,1.199008 2.14623,0.647465 4.25649,1.40284 2.11425,0.759372 4.18453,1.614665 2.0703,0.855292 4.10062,1.818496 2.03032,0.963204 4.00468,2.014335 1.97437,1.051131 3.90078,2.210172 1.92241,1.151048 3.78887,2.398017 1.86645,1.24697 3.66497,2.581866 1.79851,1.334896 3.53307,2.75772 1.73457,1.422824 3.3972,2.929577 1.66262,1.506754 3.24531,3.093442 1.58668,1.582692 3.09344,3.245317 1.50675,1.662626 2.92958,3.397192 1.42283,1.734565 2.75772,3.533079 1.33489,1.798512 2.58186,3.664969 1.24698,1.866457 2.39803,3.788867 1.15104,1.922411 2.21016,3.900775 1.05913,1.978364 2.01834,4.004688 0.9592,2.030321 1.81449,4.10061 0.8553,2.070288 1.61468,4.18454 0.75536,2.110255 1.40683,4.256481 0.65146,2.146225 1.19901,4.320428 0.53956,2.178198 0.97919,4.376381 0.43963,2.198182 0.76736,4.416352 0.32774,2.218166 0.54755,4.45232 0.21982,2.230149 0.33173,4.472292 0.10791,2.23816 0.10791,4.480306"
     id="path2" />
  <path
     fill="#cccccc"
     d="m 160.52786,66.154969 q 0,0.643467 -0.032,1.286936 -0.032,0.643467 -0.0959,1.286935 -0.064,0.643468 -0.15987,1.278942 -0.0959,0.635475 -0.21583,1.27095 -0.11989,0.635474 -0.28376,1.254962 -0.15987,0.627482 -0.34372,1.242972 -0.18784,0.619488 -0.40366,1.226986 -0.21982,0.603501 -0.46362,1.199008 -0.2478,0.599504 -0.52356,1.179025 -0.27578,0.583518 -0.57953,1.151048 -0.30375,0.571528 -0.63946,1.123072 -0.32774,0.551544 -0.68744,1.091099 -0.3597,0.535556 -0.73939,1.05113 -0.38368,0.51957 -0.79534,1.019158 -0.40766,0.495589 -0.83931,0.975193 -0.43564,0.479603 -0.89126,0.93123 -0.45562,0.451627 -0.93123,0.89126 -0.4756,0.439635 -0.97919,0.839314 -0.49559,0.411652 -1.01516,0.795332 -0.51957,0.383691 -1.05513,0.743394 -0.53555,0.359703 -1.08709,0.687429 -0.55155,0.327726 -1.11908,0.639474 -0.57153,0.299754 -1.15504,0.57552 -0.58352,0.279771 -1.17904,0.519566 -0.5955,0.2518 -1.199,0.467617 -0.6115,0.215828 -1.22698,0.403663 -0.6155,0.187846 -1.23898,0.343725 -0.62748,0.159863 -1.26295,0.279761 -0.63149,0.127897 -1.26696,0.223817 -0.63947,0.09589 -1.27895,0.159874 -0.64346,0.05991 -1.28693,0.09191 -0.64347,0.032 -1.29093,0.032 -0.63948,0 -1.28694,-0.032 -0.64347,-0.032 -1.28694,-0.09589 -0.63946,-0.05992 -1.27894,-0.155868 -0.63947,-0.09589 -1.27094,-0.219812 -0.63148,-0.127897 -1.25496,-0.279771 -0.62748,-0.159874 -1.24298,-0.34772 -0.61949,-0.187835 -1.22298,-0.403663 -0.6075,-0.215817 -1.20302,-0.463612 -0.59949,-0.247794 -1.17902,-0.519576 -0.58352,-0.279761 -1.15105,-0.583509 -0.57153,-0.30376 -1.12307,-0.63548 -0.55154,-0.331731 -1.0871,-0.687429 -0.53556,-0.355708 -1.05513,-0.743394 -0.51956,-0.38368 -1.01516,-0.795332 -0.49959,-0.407668 -0.97919,-0.839314 -0.47961,-0.435636 -0.93122,-0.89126 -0.45163,-0.455623 -0.89127,-0.93123 -0.43964,-0.475607 -0.83931,-0.975193 -0.41165,-0.499588 -0.79534,-1.019158 -0.38368,-0.51957 -0.74339,-1.05113 -0.3597,-0.531561 -0.68743,-1.091099 -0.32772,-0.559537 -0.63947,-1.119074 -0.29975,-0.571528 -0.57552,-1.155046 -0.27578,-0.583517 -0.51958,-1.179025 -0.25179,-0.595507 -0.46761,-1.199008 -0.21583,-0.607498 -0.40367,-1.226986 -0.18784,-0.61549 -0.34372,-1.238975 -0.15986,-0.627481 -0.27976,-1.258959 -0.12789,-0.635475 -0.22381,-1.270949 -0.0959,-0.639471 -0.15988,-1.278943 -0.0599,-0.639471 -0.0919,-1.286935 -0.032,-0.643469 -0.032,-1.286936 0,-0.647465 0.032,-1.290933 0.032,-0.639472 0.0959,-1.282939 0.0599,-0.643469 0.15987,-1.278943 0.0919,-0.639471 0.21581,-1.270949 0.1279,-0.635475 0.27978,-1.25896 0.15987,-0.627481 0.3477,-1.238974 0.18785,-0.619488 0.40368,-1.226986 0.21582,-0.607498 0.46361,-1.203005 0.24779,-0.595508 0.51958,-1.179026 0.27976,-0.583517 0.58351,-1.151048 0.30375,-0.567531 0.63548,-1.119075 0.33172,-0.559537 0.68743,-1.091097 0.3597,-0.535558 0.74338,-1.055128 0.38369,-0.51957 0.79535,-1.01516 0.41166,-0.495591 0.83931,-0.975194 0.43564,-0.479604 0.89126,-0.935227 0.45563,-0.455624 0.93123,-0.887266 0.47561,-0.431643 0.97918,-0.843303 0.50359,-0.411659 1.01517,-0.795343 0.51158,-0.383682 1.05513,-0.739388 0.54354,-0.355707 1.0871,-0.691429 0.55154,-0.331726 1.11907,-0.635474 0.56753,-0.303749 1.15505,-0.579521 0.58751,-0.275772 1.17902,-0.519571 0.59151,-0.243797 1.19901,-0.467612 0.60749,-0.223816 1.22699,-0.39967 0.61549,-0.191841 1.23897,-0.347713 0.62749,-0.155871 1.25896,-0.279768 0.63547,-0.127895 1.27095,-0.223815 0.63948,-0.09193 1.27894,-0.159868 0.63947,-0.05995 1.28694,-0.09193 0.64346,-0.03198 1.28693,-0.03198 0.64747,0 1.29093,0.03198 0.64347,0.03198 1.28694,0.09592 0.63948,0.06394 1.27895,0.159868 0.63946,0.09193 1.26695,0.219819 0.63547,0.123897 1.25896,0.279768 0.62748,0.159868 1.24298,0.343716 0.61548,0.187845 1.22298,0.403667 0.6075,0.21582 1.203,0.467612 0.59951,0.243799 1.17903,0.519571 0.58351,0.279769 1.15104,0.579521 0.56753,0.303748 1.11908,0.639471 0.55954,0.327729 1.0911,0.687432 0.53555,0.359702 1.05513,0.739388 0.51957,0.38768 1.01516,0.795343 0.49959,0.407663 0.97919,0.839305 0.47561,0.43564 0.93123,0.891264 0.45562,0.455623 0.89126,0.935226 0.43564,0.479604 0.8393,0.975195 0.40368,0.495589 0.79535,1.01516 0.39168,0.51957 0.73939,1.055128 0.34772,0.535556 0.69143,1.0871 0.34371,0.551544 0.63547,1.119076 0.30375,0.571527 0.57952,1.155044 0.27577,0.583518 0.51957,1.179025 0.2438,0.595508 0.46762,1.199008 0.21581,0.611495 0.39967,1.226987 0.19184,0.61549 0.3477,1.242971 0.15988,0.623485 0.27978,1.25896 0.12789,0.631478 0.22381,1.266952 0.0919,0.639471 0.15987,1.278943 0.0599,0.643467 0.0919,1.286936 0.032,0.643467 0.032,1.290933"
     id="path3"
     style="stroke-width:3.9967" />
</svg>
