<?xml version="1.0" encoding="UTF-8" standalone="no"?>
<svg
   width="200"
   height="200"
   version="1.1"
   id="svg4"
   sodipodi:docname="honey.svg"
   inkscape:version="1.4 (86a8ad7, 2024-10-11)"
   xmlns:inkscape="http://www.inkscape.org/namespaces/inkscape"
   xmlns:sodipodi="http://sodipodi.sourceforge.net/DTD/sodipodi-0.dtd"
   xmlns="http://www.w3.org/2000/svg"
   xmlns:svg="http://www.w3.org/2000/svg">
  <defs
     id="defs4" />
  <sodipodi:namedview
     id="namedview4"
     pagecolor="#ffffff"
     bordercolor="#000000"
     borderopacity="0.25"
     inkscape:showpageshadow="2"
     inkscape:pageopacity="0.0"
     inkscape:pagecheckerboard="0"
     inkscape:deskcolor="#d1d1d1"
     inkscape:zoom="2.5295138"
     inkscape:cx="40.719288"
     inkscape:cy="124.33219"
     inkscape:window-width="1920"
     inkscape:window-height="1001"
     inkscape:window-x="-9"
     inkscape:window-y="-9"
     inkscape:window-maximized="1"
     inkscape:current-layer="svg4" />
  <path
     fill="#f7cf2f"
     d="m 186.38765,99.843278 q -7.79487,45.128242 -42.97849,74.447922 -42.97849,15.80856 -85.95699,0 Q 22.268554,144.97152 14.473676,99.843278 22.268554,54.715035 57.45217,25.400825 q 42.9785,-15.808559 85.95699,0 35.18362,29.31968 42.97849,74.447923"
     id="path1"
     style="stroke-width:5.47009" />
  <path
     fill="#c8a826"
     d="m 197.94048,101.83986 q -8.53334,49.3785 -47.02636,81.44963 -1.55897,1.29642 -3.45709,1.99659 -47.02636,17.30189 -94.052726,0 -1.898121,-0.70017 -3.457097,-1.99659 -38.49849,-32.07113 -47.0263603,-81.44963 -0.344616,-1.996582 0,-3.993172 8.5333403,-49.378495 47.0263603,-81.449631 1.558976,-1.296411 3.457097,-1.996582 47.026366,-17.301894 94.052726,0 1.89812,0.700171 3.45709,1.996582 38.49849,32.071136 47.02636,81.449631 0.34462,1.99659 0,3.993172 m -23.10019,-3.993172 11.54736,1.99659 -11.54736,1.996582 Q 167.77841,60.961878 135.90967,34.404593 l 7.49949,-9.003768 -4.04787,11.00035 q -38.93062,-14.326164 -77.861253,0 l -4.047867,-10.99488 7.499493,8.998298 Q 33.082921,60.961878 26.021035,101.83986 l -11.547359,-1.996582 11.547359,-1.99659 q 7.061886,40.877982 38.930628,67.435272 l -7.499493,9.00377 4.047867,-11.00035 q 38.930633,14.32616 77.861253,0 l 4.04787,11.00035 -7.49949,-9.00377 q 31.86874,-26.55729 38.93062,-67.435272"
     id="path2"
     style="stroke-width:5.47009" />
</svg>
