<?xml version="1.0" encoding="UTF-8" standalone="no"?>
<svg
   version="1.1"
   width="200"
   height="200"
   viewBox="0 0 199.99999 200"
   id="svg3"
   sodipodi:docname="poison_cactus.svg"
   inkscape:version="1.3.2 (091e20e, 2023-11-25, custom)"
   xmlns:inkscape="http://www.inkscape.org/namespaces/inkscape"
   xmlns:sodipodi="http://sodipodi.sourceforge.net/DTD/sodipodi-0.dtd"
   xmlns="http://www.w3.org/2000/svg"
   xmlns:svg="http://www.w3.org/2000/svg">
  <defs
     id="defs3" />
  <sodipodi:namedview
     id="namedview3"
     pagecolor="#ffffff"
     bordercolor="#000000"
     borderopacity="0.25"
     inkscape:showpageshadow="2"
     inkscape:pageopacity="0.0"
     inkscape:pagecheckerboard="0"
     inkscape:deskcolor="#d1d1d1"
     inkscape:zoom="1.9449389"
     inkscape:cx="127.76751"
     inkscape:cy="103.08807"
     inkscape:window-width="1920"
     inkscape:window-height="1057"
     inkscape:window-x="-8"
     inkscape:window-y="-8"
     inkscape:window-maximized="1"
     inkscape:current-layer="g3" />
  <g
     transform="translate(-241.81032,-101.95271)"
     id="g3">
    <g
       data-paper-data="{&quot;isPaintingLayer&quot;:true}"
       fill-rule="nonzero"
       stroke-linecap="butt"
       stroke-linejoin="miter"
       stroke-miterlimit="10"
       stroke-dasharray="none"
       stroke-dashoffset="0"
       style="mix-blend-mode:normal"
       id="g2"
       transform="matrix(1.2360392,0,0,1.2622409,-53.073702,-24.086753)">
      <path
         d="m 248.56032,177.97518 c 3.44819,-5.35344 13.17415,-12.64451 17.23322,-20.45265 3.11525,-5.99257 2.01693,-21.57303 2.77409,-26.42859 0.20628,-1.32287 1.4701,-3.17986 2.43171,-3.17998 4.31117,-5.2e-4 17.94851,-1.37001 24.72193,-4.03585 6.49591,-2.55662 16.53973,-11.58526 20.96955,-15.17541 1.17535,-0.95257 4.39555,-0.76261 5.31265,-0.12144 4.07502,2.84896 15.1006,10.77778 23.09835,14.85874 5.15901,2.63245 18.45011,3.61606 23.59994,3.90383 1.28413,0.0718 3.42687,2.61923 3.64922,3.8507 0.8767,4.8554 2.1794,15.87762 4.75987,24.00952 2.239,7.05581 11.77129,18.74682 14.55595,23.5602 0.66206,1.1444 -7.7e-4,2.1359 -0.15033,2.31305 -3.39392,4.02009 -12.71282,15.32775 -15.12219,21.06978 -3.07157,7.32016 -2.56515,21.82059 -2.28035,27.71609 0.0833,1.72505 -1.65881,2.73135 -2.75748,2.80521 -5.4107,0.36375 -20.73462,1.03867 -23.64148,3.08099 -10.53739,7.4034 -22.62596,14.0246 -25.77532,15.96697 -0.63321,0.39053 -2.82966,0.34134 -3.95307,-0.4295 -3.97334,-2.72637 -10.84575,-9.75797 -18.64143,-13.81409 -5.73015,-2.98142 -23.80589,-5.75197 -28.75347,-6.4691 -0.80516,-0.1167 -1.22262,-1.16558 -1.23849,-3.00668 -0.0452,-5.23598 -0.5425,-16.49747 -3.69892,-24.74693 -2.77677,-7.2572 -13.43833,-18.65108 -16.86837,-21.95635 -0.61695,-0.59451 -1.191,-1.81965 -0.22557,-3.31851 z"
         data-paper-data="{&quot;index&quot;:null}"
         fill="#30c65c"
         stroke="#2da24d"
         stroke-width="13.5"
         id="path1"
         style="fill:#b03ac8;fill-opacity:1;stroke:#9d2fae;stroke-opacity:1" />
      <path
         d="m 280.3,180 c 0,-21.9257 17.7743,-39.7 39.7,-39.7 21.9257,0 39.7,17.7743 39.7,39.7 0,21.9257 -17.7743,39.7 -39.7,39.7 -21.9257,0 -39.7,-17.7743 -39.7,-39.7 z"
         fill="#73d78f"
         stroke="none"
         stroke-width="0"
         id="path2"
         style="fill:#bf75d4;fill-opacity:1" />
    </g>
  </g>
</svg>
