<?xml version="1.0" encoding="UTF-8" standalone="no"?>
<svg
   width="200"
   height="200"
   version="1.1"
   id="svg5"
   sodipodi:docname="shell.svg"
   inkscape:version="1.4 (86a8ad7, 2024-10-11)"
   xmlns:inkscape="http://www.inkscape.org/namespaces/inkscape"
   xmlns:sodipodi="http://sodipodi.sourceforge.net/DTD/sodipodi-0.dtd"
   xmlns="http://www.w3.org/2000/svg"
   xmlns:svg="http://www.w3.org/2000/svg">
  <defs
     id="defs5" />
  <sodipodi:namedview
     id="namedview5"
     pagecolor="#ffffff"
     bordercolor="#000000"
     borderopacity="0.25"
     inkscape:showpageshadow="2"
     inkscape:pageopacity="0.0"
     inkscape:pagecheckerboard="0"
     inkscape:deskcolor="#d1d1d1"
     inkscape:zoom="3.5772727"
     inkscape:cx="47.522236"
     inkscape:cy="107.48412"
     inkscape:window-width="1920"
     inkscape:window-height="1001"
     inkscape:window-x="-9"
     inkscape:window-y="-9"
     inkscape:window-maximized="1"
     inkscape:current-layer="svg5" />
  <path
     fill="#fcdd86"
     d="m 119.40962,8.2842863 q 2.17054,0.954677 4.28705,2.0129277 2.1165,1.058251 4.18797,2.220076 2.07147,1.161824 4.06638,2.422719 1.99492,1.260895 3.9448,2.62086 1.94989,1.359965 3.81421,2.805491 1.86432,1.445526 3.6701,2.994625 1.80579,1.5491 3.5215,3.17025 1.71572,1.621151 3.35939,3.341372 1.64366,1.720221 3.18826,3.498983 1.5446,1.778762 3.01714,3.647589 1.47255,1.868826 2.83702,3.796194 1.36897,1.936374 2.63887,3.93129 1.2744,1.999419 2.44974,4.052876 1.17083,2.062464 2.24709,4.174463 1.06726,2.111999 2.03545,4.278036 0.96818,2.161534 1.82829,4.3681 0.85561,2.206566 1.60764,4.453661 0.75204,2.247094 1.38699,4.525712 0.63945,2.28312 1.17083,4.59326 0.52237,2.31014 0.93666,4.63829 0.4098,2.33716 0.70701,4.68332 0.29721,2.35067 0.47734,4.71485 0.18012,2.36418 0.24767,4.72836 0.0676,2.36417 0.0135,4.73736 -0.045,2.368679 -0.21615,4.728349 -0.16662,2.36418 -0.45032,4.71935 -0.2837,2.35067 -0.67548,4.68333 -0.40529,2.34166 -0.91415,4.6518 -0.50886,2.31014 -1.13481,4.59326 -0.62594,2.28312 -1.36446,4.53922 -0.73403,2.2516 -1.57612,4.46717 -0.85111,2.20657 -1.80128,4.37711 -1.14381,2.60284 -2.44073,5.13364 -1.29692,2.5308 -2.73795,4.98054 -1.44102,2.44973 -3.02614,4.81391 -1.58513,2.36418 -3.30085,4.62478 -1.71571,2.26061 -3.57103,4.42214 -1.85532,2.16154 -3.82772,4.20148 -1.9724,2.03995 -4.06188,3.97182 -2.08948,1.93187 -4.29155,3.72415 -2.20656,1.80127 -4.50319,3.46746 -2.30564,1.66618 -4.70134,3.19727 -2.4002,1.53108 -4.88146,2.91356 -2.48126,1.38248 -5.04358,2.62086 -2.55782,1.23388 -5.18768,2.31915 -2.62987,1.08077 -5.31378,2.00842 -2.6884,0.92766 -5.42635,1.69321 -2.73794,0.76554 -5.51641,1.36897 Q 74.157004,160.63641 30.003168,117.41023 16.565632,90.201921 35.136811,66.204391 87.000117,32.61055 119.40962,8.2842863"
     id="path1"
     style="stroke-width:4.5032" />
  <path
     fill="none"
     stroke="#ccb36d"
     stroke-linecap="round"
     stroke-linejoin="round"
     stroke-width="16.0829"
     d="m 119.40962,8.2842863 q 2.17054,0.954677 4.28705,2.0129277 2.1165,1.058251 4.18797,2.220076 2.07147,1.161824 4.06638,2.422719 1.99492,1.260895 3.9448,2.62086 1.94989,1.359965 3.81421,2.805491 1.86432,1.445526 3.6701,2.994625 1.80579,1.5491 3.5215,3.17025 1.71572,1.621151 3.35939,3.341372 1.64366,1.720221 3.18826,3.498983 1.5446,1.778762 3.01714,3.647589 1.47255,1.868826 2.83702,3.796194 1.36897,1.936374 2.63887,3.93129 1.2744,1.999419 2.44974,4.052876 1.17083,2.062464 2.24709,4.174463 1.06726,2.111999 2.03545,4.278036 0.96818,2.161534 1.82829,4.3681 0.85561,2.206566 1.60764,4.453661 0.75204,2.247094 1.38699,4.525712 0.63945,2.28312 1.17083,4.59326 0.52237,2.31014 0.93666,4.63829 0.4098,2.33716 0.70701,4.68332 0.29721,2.35067 0.47734,4.71485 0.18012,2.36418 0.24767,4.72836 0.0676,2.36417 0.0135,4.73736 -0.045,2.368679 -0.21615,4.728349 -0.16662,2.36418 -0.45032,4.71935 -0.2837,2.35067 -0.67548,4.68333 -0.40529,2.34166 -0.91415,4.6518 -0.50886,2.31014 -1.13481,4.59326 -0.62594,2.28312 -1.36446,4.53922 -0.73403,2.2516 -1.57612,4.46717 -0.85111,2.20657 -1.80128,4.37711 -1.14381,2.60284 -2.44073,5.13364 -1.29692,2.5308 -2.73795,4.98054 -1.44102,2.44973 -3.02614,4.81391 -1.58513,2.36418 -3.30085,4.62478 -1.71571,2.26061 -3.57103,4.42214 -1.85532,2.16154 -3.82772,4.20148 -1.9724,2.03995 -4.06188,3.97182 -2.08948,1.93187 -4.29155,3.72415 -2.20656,1.80127 -4.50319,3.46746 -2.30564,1.66618 -4.70134,3.19727 -2.4002,1.53108 -4.88146,2.91356 -2.48126,1.38248 -5.04358,2.62086 -2.55782,1.23388 -5.18768,2.31915 -2.62987,1.08077 -5.31378,2.00842 -2.6884,0.92766 -5.42635,1.69321 -2.73794,0.76554 -5.51641,1.36897 Q 74.157004,160.63641 30.003168,117.41023 16.565632,90.201921 35.136811,66.204391 87.000117,32.61055 119.40962,8.2842863"
     id="path2" />
  <path
     fill="none"
     stroke="#ccb36d"
     stroke-linecap="round"
     stroke-linejoin="round"
     stroke-width="12.8664"
     d="M 114.1679,148.48679 Q 78.007237,122.22865 53.370252,110.05651 m 80.967468,11.35706 Q 79.551837,106.86825 60.093523,101.03661 M 138.19245,83.010321 q -56.587163,3.37289 -76.815516,5.2237 M 123.80024,52.469644 Q 83.145387,71.022811 56.58103,78.052301"
     id="path3" />
</svg>
