<?xml version="1.0" encoding="UTF-8" standalone="no"?>
<svg
   width="200"
   height="200"
   version="1.1"
   id="svg5"
   sodipodi:docname="talisman.svg"
   inkscape:version="1.4 (86a8ad7, 2024-10-11)"
   xmlns:inkscape="http://www.inkscape.org/namespaces/inkscape"
   xmlns:sodipodi="http://sodipodi.sourceforge.net/DTD/sodipodi-0.dtd"
   xmlns="http://www.w3.org/2000/svg"
   xmlns:svg="http://www.w3.org/2000/svg">
  <defs
     id="defs5" />
  <sodipodi:namedview
     id="namedview5"
     pagecolor="#ffffff"
     bordercolor="#000000"
     borderopacity="0.25"
     inkscape:showpageshadow="2"
     inkscape:pageopacity="0.0"
     inkscape:pagecheckerboard="0"
     inkscape:deskcolor="#d1d1d1"
     inkscape:zoom="2.5295138"
     inkscape:cx="148.24983"
     inkscape:cy="94.286894"
     inkscape:window-width="1920"
     inkscape:window-height="1001"
     inkscape:window-x="-9"
     inkscape:window-y="-9"
     inkscape:window-maximized="1"
     inkscape:current-layer="svg5" />
  <path
     fill="#fff824"
     d="m 139.05037,138.5325 c 7.26512,42.12771 -53.238739,40.28788 -122.736709,-31.26605 l 56.935026,-2.68771 C 33.132603,89.810229 64.980529,38.328193 161.69359,13.917175 l -26.13447,50.650784 c 32.85097,-27.35364 61.51244,25.968223 34.28625,121.933161 z"
     id="path1"
     style="stroke-width:5.54166" />
  <path
     fill="#cfc91d"
     d="m 150.75435,136.51534 q 3.87917,22.52131 -10.58457,34.20867 -13.11711,10.59565 -35.81021,6.49483 -44.466286,-8.03541 -96.5634422,-61.67869 -0.4100823,-0.41563 -0.7758317,-0.87558 -0.3602085,-0.45441 -0.6760831,-0.94208 -0.3158745,-0.48767 -0.5818742,-1.00859 -0.2715416,-0.52092 -0.4821247,-1.06399 -0.2216667,-0.53755 -0.3768331,-1.1028 -0.16625,-0.55416 -0.2659997,-1.13049 -0.1108334,-0.57634 -0.1551663,-1.15821 -0.055419,-0.58188 -0.044329,-1.16376 0.01108,-0.58186 0.077588,-1.16374 0.066499,-0.57634 0.1884166,-1.14712 0.1219161,-0.5708 0.299249,-1.13051 0.1773337,-0.5597 0.4100833,-1.0917 0.2272076,-0.532 0.5098329,-1.04183 0.2826244,-0.50983 0.6095827,-0.99196 0.3324991,-0.48212 0.7148741,-0.925456 0.3768331,-0.44333 0.7924573,-0.853411 1.5572073,-1.512874 3.5466631,-2.377374 1.994997,-0.864499 4.167329,-0.964242 L 72.68899,92.7196 l 0.559707,11.85914 -4.100833,11.13874 Q 47.70163,107.82616 44.814424,89.455558 42.193219,72.797321 57.094745,55.191468 86.28267,20.70571 158.78976,2.4071447 q 0.56525,-0.1440827 1.14159,-0.2327496 0.57632,-0.083128 1.16374,-0.1108333 0.58187,-0.033249 1.16375,-0.00551 0.58188,0.027709 1.16375,0.1108334 0.58188,0.083128 1.14159,0.2216668 0.5597,0.1385417 1.10832,0.3435829 0.55417,0.1939584 1.08063,0.4433325 0.532,0.2438333 1.03075,0.5430832 0.49875,0.2992499 0.96979,0.6483747 0.47104,0.3491238 0.90329,0.7370406 0.43225,0.3879159 0.82571,0.8257075 0.38792,0.426708 0.73704,0.8977489 0.34912,0.4655 0.65391,0.9697911 0.3048,0.5042911 0.54863,1.0252068 0.24384,0.5209167 0.44333,1.0750826 0.19951,0.5541652 0.34358,1.1138732 0.532,2.105832 0.28263,4.26708 -0.24938,2.155706 -1.24133,4.084203 l -26.14002,50.650777 -10.55132,-5.441905 -7.60316,-9.127116 q 17.56707,-14.624444 34.91247,-7.941201 15.73832,6.062578 23.53543,27.769267 15.27836,42.521149 -5.13158,114.462999 -0.1607,0.56525 -0.37129,1.10833 -0.21058,0.54308 -0.48213,1.05846 -0.27153,0.51537 -0.58187,1.01412 -0.31034,0.49876 -0.67608,0.94209 -0.36575,0.44333 -0.76475,0.88666 -0.399,0.44333 -0.84788,0.79246 -0.44887,0.34913 -0.92545,0.70933 -0.47659,0.36021 -0.98641,0.62066 -0.50984,0.26047 -1.04738,0.51538 -0.53755,0.25492 -1.08616,0.41562 -0.54863,0.16072 -1.12497,0.29926 -0.57078,0.12745 -1.15266,0.19395 -0.57634,0.0665 -1.16375,0.0775 -0.58187,0.0111 -1.16375,-0.0333 -0.58187,-0.0444 -1.15266,-0.15516 -0.5708,-0.11084 -1.13604,-0.26047 -2.08921,-0.59295 -3.83483,-1.88416 -1.74563,-1.2912 -2.92046,-3.1255 l -30.79501,-47.96308 9.99162,-6.41724 z m -23.40798,4.03986 q -0.14407,-0.85895 -0.16624,-1.72899 -0.0221,-0.87004 0.0832,-1.73454 0.10528,-0.8645 0.33249,-1.70683 0.23275,-0.83679 0.58741,-1.63479 0.34914,-0.798 0.81463,-1.53504 0.4655,-0.73704 1.02521,-1.3965 0.55971,-0.65946 1.21916,-1.23579 0.66501,-0.57079 1.39096,-1.04183 0.49321,-0.31587 1.01412,-0.58188 0.51538,-0.26045 1.05846,-0.47658 0.54309,-0.21612 1.10833,-0.37129 0.55417,-0.16071 1.13051,-0.266 0.57632,-0.0998 1.1582,-0.14963 0.58188,-0.0443 1.16375,-0.0333 0.58187,0.0111 1.16374,0.0775 0.58188,0.0665 1.14713,0.19396 0.56525,0.12746 1.12496,0.30479 0.55971,0.17734 1.09171,0.41008 0.53199,0.23276 1.04183,0.51538 0.50983,0.28262 0.99196,0.62066 0.48212,0.33805 0.91992,0.70934 0.43779,0.37129 0.85341,0.798 0.41563,0.4267 0.76475,0.87558 0.34912,0.44887 0.67608,0.95317 l 30.80055,47.96307 -9.99716,6.41724 -11.42136,-3.24187 q 18.32074,-64.61023 5.63033,-99.954934 -4.123,-11.48232 -9.72007,-13.632489 -4.33358,-1.673577 -11.17754,4.023246 -0.66499,0.559716 -1.41312,1.014125 -0.74258,0.45442 -1.54612,0.792462 -0.798,0.343582 -1.64033,0.559706 -0.84234,0.216125 -1.70683,0.315873 -0.8645,0.09975 -1.73455,0.06101 -0.87004,-0.03877 -1.72899,-0.188415 -0.85342,-0.166247 -1.67913,-0.44333 -0.82016,-0.277084 -1.59599,-0.681624 -0.52092,-0.266004 -1.00859,-0.581876 -0.48767,-0.321422 -0.94208,-0.681624 -0.45996,-0.365752 -0.88112,-0.775832 -0.41563,-0.40454 -0.79247,-0.84788 -0.37683,-0.443329 -0.70932,-0.925458 -0.3325,-0.482119 -0.60959,-0.991956 -0.27708,-0.509829 -0.51537,-1.047376 -0.2383,-0.537536 -0.41008,-1.091702 -0.1718,-0.554166 -0.29926,-1.124958 -0.12745,-0.57079 -0.18841,-1.147124 -0.0609,-0.581874 -0.072,-1.163748 -0.0111,-0.581874 0.0388,-1.163749 0.0499,-0.581875 0.15517,-1.158207 0.11083,-0.570791 0.266,-1.130499 0.16625,-0.565249 0.37683,-1.108333 0.22167,-0.537541 0.48212,-1.052915 l 26.14002,-50.656325 10.55132,5.441912 2.90938,11.515571 q -65.114636,16.431102 -89.37602,45.103653 -7.880244,9.309991 -6.949246,15.239571 0.720423,4.582952 9.077246,7.658579 0.814621,0.299243 1.579373,0.720413 0.764751,0.415621 1.457455,0.942078 0.698254,0.520913 1.30783,1.141578 0.609585,0.620666 1.130503,1.318919 0.509828,0.703793 0.919918,1.474085 0.40454,0.770292 0.698244,1.590453 0.288163,0.82017 0.454419,1.67358 0.166246,0.85342 0.210585,1.72346 0.02775,0.58187 0,1.16375 -0.03326,0.58187 -0.121917,1.16374 -0.08315,0.57634 -0.227215,1.14158 -0.144077,0.56525 -0.338042,1.10834 -0.199495,0.55417 -0.448869,1.08062 -0.249374,0.52646 -0.554167,1.02521 -0.299253,0.49875 -0.648375,0.96979 -0.349122,0.47104 -0.742582,0.89775 -0.393461,0.42671 -0.825711,0.82571 -0.43225,0.399 -0.897749,0.73704 -0.465499,0.33804 -0.975327,0.64283 -0.509838,0.3048 -1.025206,0.54863 -0.515377,0.24382 -1.080624,0.44333 -0.565257,0.1995 -1.108334,0.3325 -0.570796,0.14408 -1.147123,0.22721 -0.576336,0.0831 -1.163752,0.11083 l -56.935025,2.69325 -0.554167,-11.85916 8.511992,-8.279241 q 46.788241,48.179201 83.751126,54.856901 12.00877,2.16125 16.67485,-1.60708 3.60762,-2.91491 2.09474,-11.6929"
     id="path2"
     style="stroke-width:5.54166" />
  <path
     fill="#37cf37"
     d="m 130.92629,125.87535 q -1.14712,0.73704 -2.36074,1.35771 -1.21364,0.62066 -2.47713,1.11941 -1.2635,0.49875 -2.57688,0.8645 -1.31336,0.36575 -2.6489,0.61513 -1.33555,0.24937 -2.6988,0.34912 -1.36325,0.0998 -2.71541,0.0832 -1.35216,-0.0166 -2.71541,-0.18288 -1.36325,-0.16626 -2.68217,-0.44334 -1.31892,-0.27708 -2.62675,-0.70933 -1.30782,-0.43225 -2.53808,-0.96425 -1.23025,-0.532 -2.43832,-1.20808 -1.20809,-0.67608 -2.30533,-1.44083 -1.097255,-0.76475 -2.155706,-1.6625 -1.058455,-0.89775 -1.978374,-1.85645 -0.919918,-0.95871 -1.789957,-2.05042 -0.87004,-1.09171 -1.579373,-2.21666 -0.709333,-1.12497 -1.357708,-2.35521 -0.648375,-1.23025 -1.119414,-2.47712 -0.471039,-1.24688 -0.864499,-2.57688 -0.393461,-1.33 -0.609586,-2.64891 -0.216125,-1.31892 -0.354662,-2.69879 -0.138546,-1.37987 -0.08315,-2.71541 0.0554,-1.33555 0.182876,-2.715412 0.127457,-1.379877 0.44333,-2.682166 0.315882,-1.302285 0.714873,-2.621203 0.399001,-1.31891 0.958707,-2.549161 0.559717,-1.23025 1.208082,-2.432792 0.648375,-1.202542 1.440836,-2.305326 0.792461,-1.102794 1.6625,-2.155709 0.87004,-1.052915 1.861997,-1.978373 0.991956,-0.925458 2.050408,-1.789958 1.058464,-0.864499 2.20559,-1.579373 1.14712,-0.714873 2.36074,-1.357708 1.21362,-0.642834 2.47712,-1.113873 1.2635,-0.471039 2.57687,-0.87004 1.31338,-0.399 2.64892,-0.609585 1.33554,-0.210585 2.69879,-0.354662 1.36324,-0.144087 2.71541,-0.08315 1.35217,0.06091 2.71542,0.182876 1.36325,0.121917 2.68216,0.443329 1.31891,0.321422 2.62675,0.714873 1.30783,0.393461 2.53808,0.958708 1.25241,0.548627 2.43834,1.208091 1.19145,0.664994 2.30532,1.440826 1.11941,0.775832 2.15571,1.662501 1.03629,0.886669 1.97837,1.861996 0.94208,0.975337 1.78996,2.050412 0.84787,1.075084 1.57937,2.211127 0.7315,1.136043 1.35771,2.355205 0.62621,1.219161 1.11942,2.477122 0.4932,1.25796 0.8645,2.576869 0.37129,1.318914 0.60957,2.648912 0.2383,1.329999 0.35467,2.698784 0.11638,1.3688 0.0831,2.71542 -0.0333,1.34663 -0.18288,2.71541 -0.14962,1.36879 -0.44334,2.68217 -0.2937,1.31337 -0.71487,2.62675 -0.42116,1.31337 -0.95871,2.53808 -0.54307,1.25241 -1.20808,2.43833 -0.66499,1.19145 -1.44082,2.30533 -0.77585,1.11941 -1.6625,2.16125 -0.88113,1.03074 -1.862,1.97837 -0.97534,0.94208 -2.05042,1.78442 -1.064,0.84787 -2.20558,1.57937"
     id="path3"
     style="stroke-width:5.54166" />
</svg>
