<?xml version="1.0" encoding="UTF-8" standalone="no"?>
<svg
   width="200"
   height="200"
   version="1.1"
   id="svg4"
   sodipodi:docname="triangle.svg"
   inkscape:version="1.4 (86a8ad7, 2024-10-11)"
   xmlns:inkscape="http://www.inkscape.org/namespaces/inkscape"
   xmlns:sodipodi="http://sodipodi.sourceforge.net/DTD/sodipodi-0.dtd"
   xmlns="http://www.w3.org/2000/svg"
   xmlns:svg="http://www.w3.org/2000/svg">
  <defs
     id="defs4" />
  <sodipodi:namedview
     id="namedview4"
     pagecolor="#ffffff"
     bordercolor="#000000"
     borderopacity="0.25"
     inkscape:showpageshadow="2"
     inkscape:pageopacity="0.0"
     inkscape:pagecheckerboard="0"
     inkscape:deskcolor="#d1d1d1"
     inkscape:zoom="2.5295138"
     inkscape:cx="30.835965"
     inkscape:cy="112.47221"
     inkscape:window-width="1920"
     inkscape:window-height="1001"
     inkscape:window-x="-9"
     inkscape:window-y="-9"
     inkscape:window-maximized="1"
     inkscape:current-layer="svg4" />
  <path
     fill="#ffffff"
     d="M 174.11775,185.28844 23.245213,107.43141 166.10759,15.700477 Z"
     id="path1"
     style="stroke-width:9.80208" />
  <path
     fill="#cfcfcf"
     d="M 167.37512,198.3544 16.502583,120.49737 q -0.641959,-0.3312 -1.247826,-0.72407 -0.607034,-0.39206 -1.171259,-0.84266 -0.565042,-0.45004 -1.083714,-0.95303 -0.517766,-0.50342 -0.983906,-1.05521 -0.466099,-0.55173 -0.876792,-1.146 -0.409836,-0.59476 -0.758858,-1.22721 -0.349866,-0.63201 -0.6359195,-1.29519 -0.286123,-0.66329 -0.505553,-1.35153 -0.220253,-0.68773 -0.371068,-1.39431 -0.15157,-0.70596 -0.232741,-1.42374 -0.0809,-0.71793 -0.09139,-1.44017 -0.01029,-0.72229 0.05009,-1.44206 0.06038,-0.71978 0.191023,-1.4302 0.130643,-0.71036 0.330311,-1.40459 0.1996,-0.69419 0.466374,-1.36543 0.266774,-0.67126 0.5979765,-1.31319 1.806637,-3.500964 5.121822,-5.629624 L 158.16345,3.328227 q 0.60779,-0.39028 1.25096,-0.71913 0.6432,-0.328801 1.31542,-0.592967 0.67221,-0.264167 1.36719,-0.461228 0.69495,-0.197061 1.40583,-0.325028 0.71088,-0.127966 1.43092,-0.185602 0.72003,-0.05764 1.44222,-0.0446 0.72219,0.01304 1.43959,0.09716 0.71745,0.08378 1.42315,0.237681 0.7058,0.153834 1.39306,0.376077 0.68727,0.222243 1.34949,0.510836 0.6622,0.288524 1.29291,0.640586 0.63091,0.351925 1.22406,0.764141 0.59317,0.412168 1.14309,0.880429 0.55001,0.468295 1.05074,0.988764 0.50151,0.519825 0.94932,1.086623 0.4486,0.566208 0.83885,1.173983 2.12865,3.315185 2.3141,7.250688 l 8.01017,169.58797 q 0.0336,0.72139 -0.003,1.44276 -0.037,0.72138 -0.14416,1.43566 -0.10738,0.71429 -0.28406,1.41482 -0.17676,0.70056 -0.42164,1.3797 -0.24441,0.67997 -0.55454,1.33223 -0.31014,0.65226 -0.68265,1.27119 -0.37251,0.61891 -0.80363,1.19863 -0.43166,0.5789 -0.91763,1.11339 -0.48593,0.53451 -1.02208,1.01855 -0.53615,0.484 -1.11723,0.91306 -0.5811,0.42904 -1.20128,0.79929 -0.62021,0.37024 -1.27364,0.67805 -0.65397,0.30691 -1.33437,0.54926 -0.68038,0.24235 -1.38144,0.41642 -0.70107,0.17408 -1.41571,0.27885 -0.71463,0.10471 -1.43643,0.13833 -3.93501,0.18642 -7.43613,-1.62048 z m 13.48526,-26.13191 -6.74263,13.06595 -14.68677,0.69371 -8.01008,-169.588014 14.68669,-0.693659 7.94413,12.372249 -142.862372,91.730934 -7.944135,-12.37225 6.742549,-13.065914 z"
     id="path2"
     style="stroke-width:9.80208" />
</svg>
