<?xml version="1.0" encoding="UTF-8" standalone="no"?>
<svg
   width="200"
   height="200"
   version="1.1"
   id="svg4"
   sodipodi:docname="uranium.svg"
   inkscape:version="1.4 (86a8ad7, 2024-10-11)"
   xmlns:inkscape="http://www.inkscape.org/namespaces/inkscape"
   xmlns:sodipodi="http://sodipodi.sourceforge.net/DTD/sodipodi-0.dtd"
   xmlns="http://www.w3.org/2000/svg"
   xmlns:svg="http://www.w3.org/2000/svg">
  <defs
     id="defs4" />
  <sodipodi:namedview
     id="namedview4"
     pagecolor="#ffffff"
     bordercolor="#000000"
     borderopacity="0.25"
     inkscape:showpageshadow="2"
     inkscape:pageopacity="0.0"
     inkscape:pagecheckerboard="0"
     inkscape:deskcolor="#d1d1d1"
     inkscape:zoom="2.5295138"
     inkscape:cx="-53.36994"
     inkscape:cy="125.12286"
     inkscape:window-width="1920"
     inkscape:window-height="1001"
     inkscape:window-x="-9"
     inkscape:window-y="-9"
     inkscape:window-maximized="1"
     inkscape:current-layer="svg4" />
  <path
     fill="#63bf2e"
     d="M 38.14904,47.026592 97.498597,15.52567 168.86808,50.776701 179.03577,136.07051 108.5598,185.18064 46.457979,150.86224 22.36597,110.98717 Z"
     id="path1"
     style="stroke-width:6.52193" />
  <path
     fill="#509b25"
     d="M 31.594501,34.680578 90.944062,3.1796572 q 1.460914,-0.7826324 3.071829,-1.1935134 1.610914,-0.410882 3.274009,-0.4369697 1.663094,-0.02609 3.28053,0.3391403 1.62397,0.3717504 3.11096,1.1087288 l 71.376,35.2510308 q 1.56527,0.769588 2.88921,1.904403 1.32396,1.134816 2.33485,2.556597 1.01091,1.421781 1.63049,3.052264 0.61959,1.630482 0.8348,3.358793 l 10.16769,85.293809 q 0.11088,0.93916 0.0979,1.89135 -0.0195,0.93916 -0.16304,1.87181 -0.14348,0.93915 -0.41089,1.8457 -0.26088,0.90654 -0.65219,1.76744 -0.39132,0.86089 -0.88698,1.66961 -0.49567,0.80872 -1.10221,1.52613 -0.60654,0.71742 -1.30438,1.36961 -0.69785,0.65219 -1.46743,1.18048 l -70.47598,49.11012 q -0.79568,0.56089 -1.66309,0.99786 -0.87394,0.44349 -1.79353,0.75654 -0.9196,0.31957 -1.87832,0.50219 -0.95221,0.18262 -1.93049,0.23479 -0.97176,0.0521 -1.94353,-0.0326 -0.96525,-0.0848 -1.91746,-0.30653 -0.95219,-0.21522 -1.85874,-0.5674 -0.91307,-0.34567 -1.76092,-0.81525 L 39.694737,163.09086 q -3.274009,-1.80658 -5.2045,-5.00232 L 10.398228,118.21347 q -0.7108897,-1.17395 -1.1739471,-2.47182 -0.469579,-1.29134 -0.6782807,-2.65442 -0.2087017,-1.36308 -0.1434824,-2.73921 0.065224,-1.37613 0.3913157,-2.7066 L 24.576904,43.67432 q 0.352184,-1.434825 0.997855,-2.758777 0.639149,-1.323952 1.545697,-2.484855 0.913071,-1.160904 2.041364,-2.113106 1.128294,-0.945679 2.426158,-1.637004 m 13.109079,24.685505 -6.554539,-12.339491 13.565613,3.345749 -15.783069,63.960579 -13.565615,-3.34575 11.96122,-7.2263 24.092009,39.86856 -11.96122,7.23281 6.763241,-12.23513 62.101813,34.32491 -6.76324,12.22862 -7.98936,-11.46556 70.47597,-49.11012 7.98937,11.46555 -13.87867,1.65656 -10.17421,-85.293798 13.88519,-1.656571 -6.19584,12.528628 L 91.296243,28.054298 97.49208,15.52567 104.0401,27.865161 Z"
     id="path2"
     style="stroke-width:6.52193" />
</svg>
