<?xml version="1.0" encoding="UTF-8" standalone="no"?>
<svg
   width="200"
   height="200"
   version="1.1"
   id="svg10"
   sodipodi:docname="yinyang.svg"
   inkscape:version="1.3.2 (091e20e, 2023-11-25, custom)"
   xmlns:inkscape="http://www.inkscape.org/namespaces/inkscape"
   xmlns:sodipodi="http://sodipodi.sourceforge.net/DTD/sodipodi-0.dtd"
   xmlns="http://www.w3.org/2000/svg"
   xmlns:svg="http://www.w3.org/2000/svg">
  <defs
     id="defs10" />
  <sodipodi:namedview
     id="namedview10"
     pagecolor="#505050"
     bordercolor="#eeeeee"
     borderopacity="1"
     inkscape:showpageshadow="0"
     inkscape:pageopacity="0"
     inkscape:pagecheckerboard="0"
     inkscape:deskcolor="#505050"
     inkscape:zoom="1.8477273"
     inkscape:cx="80.910209"
     inkscape:cy="143.14883"
     inkscape:window-width="1920"
     inkscape:window-height="1009"
     inkscape:window-x="3832"
     inkscape:window-y="-8"
     inkscape:window-maximized="1"
     inkscape:current-layer="svg10" />
  <path
     fill="#ffffff"
     d="m 188.88881,99.9995 q 0,2.17777 -0.10371,4.36073 -0.10889,2.17777 -0.32667,4.35554 -0.2126,2.16739 -0.53408,4.32442 -0.31631,2.16222 -0.74669,4.30369 -0.42519,2.13629 -0.95409,4.25184 -0.5289,2.12073 -1.1615,4.20517 -0.63261,2.08444 -1.36892,4.14813 -0.73631,2.05333 -1.57114,4.06517 -0.83483,2.02222 -1.76819,3.99258 -0.93335,1.97036 -1.96003,3.89406 -1.03188,1.9237 -2.1519,3.79554 -1.12002,1.87185 -2.33338,3.68666 -1.21336,1.8148 -2.51486,3.56739 -1.30151,1.75259 -2.6808,3.43777 -1.37928,1.68518 -2.85191,3.30813 -1.47262,1.62296 -3.00746,3.15777 -1.53485,1.53481 -3.16303,3.0074 -1.62818,1.47258 -3.30303,2.85184 -1.67485,1.37925 -3.43785,2.68073 -1.76299,1.30147 -3.56747,2.5148 -1.80448,1.21333 -3.68156,2.33333 -1.87707,1.11999 -3.80082,2.15184 -1.92374,1.03185 -3.89415,1.96 -1.97041,0.93333 -3.99267,1.76814 -2.01708,0.83481 -4.07045,1.5711 -2.05338,0.7363 -4.14305,1.36889 -2.08967,0.63259 -4.20008,1.16147 -2.11041,0.52889 -4.26231,0.95926 -2.15189,0.43037 -4.2986,0.74148 -2.14671,0.31111 -4.32972,0.53407 -2.183,0.22296 -4.35045,0.32148 -2.16746,0.0985 -4.360832,0.10889 -2.177822,0 -4.360828,-0.1037 -2.177821,-0.10371 -4.355642,-0.32148 -2.167451,-0.20741 -4.324531,-0.53408 -2.162265,-0.31629 -4.30379,-0.74148 -2.136339,-0.42518 -4.251936,-0.95925 -2.120783,-0.52889 -4.205269,-1.16148 -2.084486,-0.63259 -4.148231,-1.36888 -2.048189,-0.7363 -4.065266,-1.57111 -2.022263,-0.83481 -3.992673,-1.76295 -1.970409,-0.92815 -3.894151,-1.97037 -1.923742,-1.02666 -3.795632,-2.14666 -1.871889,-1.11999 -3.68674,-2.33332 -1.814851,-1.21333 -3.567479,-2.51481 -1.752627,-1.29629 -3.437846,-2.68073 -1.690404,-1.38444 -3.303029,-2.85184 -1.61781,-1.4674 -3.163026,-3.0074 -1.540031,-1.54518 -3.007467,-3.16295 -1.467437,-1.61258 -2.851909,-3.30295 -1.384472,-1.68518 -2.680794,-3.43776 -1.296322,-1.75259 -2.514865,-3.5674 -1.218543,-1.81481 -2.33338,-3.68147 -1.114837,-1.86666 -2.151895,-3.80072 -1.037058,-1.93407 -1.960039,-3.89406 -0.922981,-1.96 -1.768183,-3.99258 -0.845202,-2.03259 -1.571143,-4.07036 -0.72594,-2.03777 -1.368916,-4.14295 -0.642976,-2.10517 -1.161505,-4.19998 -0.518528,-2.09481 -0.954093,-4.26221 -0.435564,-2.1674 -0.746681,-4.2985 -0.311118,-2.1311 -0.534085,-4.32961 -0.222967,-2.19852 -0.321488,-4.35036 -0.09852,-2.15184 -0.103706,-4.35554 0,-2.18814 0.103706,-4.36591 0.103706,-2.17777 0.321488,-4.355539 0.212597,-2.1674 0.534085,-4.324429 0.316302,-2.162215 0.746681,-4.303689 0.425194,-2.136288 0.954093,-4.251836 0.5289,-2.115548 1.161505,-4.20517 0.632605,-2.089622 1.368916,-4.148133 0.736311,-2.048141 1.571143,-4.065171 0.834831,-2.01703 1.768183,-3.992578 0.933352,-1.975548 1.960039,-3.89406 1.031873,-1.923697 2.151895,-3.795542 1.120022,-1.871845 2.33338,-3.681469 1.213357,-1.809623 2.514865,-3.572579 1.301507,-1.762957 2.680794,-3.437766 1.379287,-1.674809 2.851909,-3.302951 1.472622,-1.628142 3.007467,-3.162951 1.534845,-1.53481 3.163026,-3.007397 1.628181,-1.472587 3.303029,-2.851842 1.674848,-1.379254 3.437846,-2.680731 1.762998,-1.301476 3.567479,-2.514805 1.804481,-1.213329 3.681555,-2.333325 1.877075,-1.119996 3.800817,-2.151844 1.923742,-1.031849 3.894151,-1.959993 1.97041,-0.93333 3.992673,-1.762957 2.017077,-0.839997 4.070451,-1.576291 2.053374,-0.731108 4.143046,-1.368884 2.084486,-0.63259 4.200083,-1.161477 2.115598,-0.528887 4.262308,-0.954071 2.146709,-0.425183 4.298604,-0.746664 2.151895,-0.32148 4.329716,-0.534072 2.177821,-0.212591 4.350457,-0.32148 2.177821,-0.103703 4.360828,-0.103703 2.177822,0 4.360832,0.103703 2.17782,0.103703 4.35564,0.32148 2.16745,0.212592 4.32453,0.534072 2.16226,0.321481 4.30379,0.746664 2.13634,0.425184 4.25193,0.954071 2.12079,0.528887 4.20527,1.161477 2.08449,0.632591 4.14823,1.368884 2.04819,0.736294 4.06527,1.571106 2.02226,0.834812 3.99267,1.768142 1.97041,0.93333 3.89415,1.959993 1.92375,1.031848 3.79564,2.151844 1.87188,1.125181 3.68674,2.333325 1.81485,1.213329 3.56747,2.514805 1.75263,1.296292 3.43785,2.685917 1.6904,1.379254 3.30303,2.851841 1.61781,1.462217 3.16303,3.007397 1.54003,1.539994 3.00746,3.157766 1.46744,1.612587 2.85191,3.302951 1.38447,1.685179 2.6808,3.437766 1.29632,1.752586 2.51486,3.567394 1.21854,1.814809 2.33338,3.681469 1.11484,1.86666 2.1519,3.800727 1.03705,1.934067 1.96003,3.899245 0.92299,1.965178 1.76819,3.987393 0.8452,2.022215 1.57114,4.070356 0.72594,2.048141 1.36892,4.142948 0.64297,2.094807 1.1615,4.199985 0.51853,2.105177 0.95409,4.262207 0.43557,2.157029 0.74669,4.298503 0.31111,2.141473 0.53408,4.329614 0.22297,2.18814 0.32149,4.350354 0.0985,2.162215 0.1037,4.36073"
     id="path1"
     style="stroke-width:5.18523" />
  <path
     fill="#333333"
     d="m 99.997408,11.11019 q 2.177822,0 4.360832,0.108889 2.17782,0.103703 4.35564,0.32148 2.16745,0.212592 4.32453,0.534072 2.16226,0.321481 4.30379,0.746664 2.13634,0.425184 4.25193,0.954071 2.12079,0.528887 4.20527,1.161477 2.08449,0.632591 4.14823,1.368884 2.04819,0.736294 4.06527,1.571106 2.02226,0.834811 3.99267,1.768141 1.97041,0.93333 3.89415,1.959993 1.92375,1.031848 3.79564,2.151844 1.87188,1.125182 3.68674,2.333325 1.81485,1.213329 3.56747,2.514806 1.75263,1.296292 3.43785,2.685916 1.6904,1.379255 3.30303,2.851842 1.61781,1.462217 3.16303,3.007397 1.54003,1.539994 3.00746,3.157766 1.46744,1.612587 2.85191,3.302951 1.38447,1.685179 2.6808,3.437765 1.29632,1.752587 2.51486,3.567395 1.21854,1.814809 2.33338,3.681469 1.11484,1.86666 2.1519,3.800727 1.03705,1.934067 1.96003,3.899245 0.92299,1.965178 1.76819,3.987393 0.8452,2.022215 1.57114,4.070356 0.72594,2.04814 1.36892,4.142948 0.64297,2.094807 1.1615,4.199985 0.51853,2.105177 0.95409,4.262206 0.43557,2.15703 0.74669,4.298503 0.31111,2.141474 0.53408,4.329615 0.22297,2.18814 0.32149,4.350354 0.0985,2.162215 0.1037,4.360725 0.005,2.19851 -0.1037,4.36073 -0.10371,2.17777 -0.32149,4.35554 -0.2126,2.16739 -0.53408,4.32442 -0.31631,2.16222 -0.74669,4.30369 -0.42519,2.13629 -0.95409,4.25184 -0.5289,2.12073 -1.1615,4.20517 -0.63261,2.08444 -1.36892,4.14813 -0.73631,2.05333 -1.57114,4.06517 -0.83483,2.02222 -1.76819,3.99258 -0.93335,1.97036 -1.96003,3.89406 -1.03188,1.9237 -2.1519,3.79554 -1.12002,1.87185 -2.33338,3.68666 -1.21336,1.8148 -2.51486,3.56739 -1.30151,1.75259 -2.6808,3.43777 -1.37928,1.68518 -2.85191,3.30813 -1.47262,1.62296 -3.00746,3.15777 -1.53485,1.53481 -3.16303,3.0074 -1.62818,1.47258 -3.30303,2.85184 -1.67485,1.37925 -3.43785,2.68073 -1.76299,1.30147 -3.56747,2.5148 -1.80448,1.21333 -3.68156,2.33333 -1.87707,1.11999 -3.80082,2.15184 -1.92374,1.03185 -3.89415,1.96 -1.97041,0.93333 -3.99267,1.76814 -2.01708,0.83481 -4.07045,1.5711 -2.05338,0.7363 -4.14305,1.36889 -2.08967,0.63259 -4.20008,1.16147 -2.11041,0.52889 -4.26231,0.95926 -2.15189,0.43037 -4.2986,0.74148 -2.14671,0.31111 -4.32972,0.53407 -2.183,0.22296 -4.35045,0.32148 -2.16746,0.0985 -4.360832,0.10889"
     id="path2"
     style="stroke-width:5.18523" />
  <path
     fill="#333333"
     d="m 144.44052,144.44675 q 0,1.08888 -0.0519,2.17777 -0.0518,1.08888 -0.15556,2.17777 -0.10889,1.08888 -0.26963,2.16221 -0.16074,1.07852 -0.37334,2.15185 -0.2126,1.06814 -0.47705,2.12591 -0.26963,1.05778 -0.58594,2.10518 -0.31111,1.04222 -0.68445,2.07407 -0.36297,1.02148 -0.78298,2.03258 -0.41483,1.00593 -0.8815,1.99111 -0.46668,0.98518 -0.98521,1.94962 -0.51852,0.96444 -1.07335,1.89777 -0.55483,0.93333 -1.16669,1.84592 -0.61186,0.91259 -1.25484,1.7837 -0.64298,0.87111 -1.34818,1.71629 -0.70519,0.84518 -1.42076,1.65407 -0.71557,0.80888 -1.50374,1.57629 -0.77261,0.77777 -1.58151,1.50369 -0.80891,0.7363 -1.64892,1.42593 -0.84521,0.69481 -1.72152,1.34814 -0.87631,0.64814 -1.78374,1.24962 -0.90742,0.60667 -1.84078,1.17185 -0.93335,0.56 -1.89781,1.07333 -0.96446,0.51852 -1.94967,0.98 -0.9852,0.46666 -1.99634,0.88148 -1.00594,0.41481 -2.03263,0.78814 -1.02669,0.36296 -2.07411,0.68444 -1.04225,0.31111 -2.10005,0.58074 -1.0578,0.26445 -2.12596,0.47704 -1.07336,0.21259 -2.1519,0.37333 -1.07854,0.16074 -2.16745,0.26963 -1.08891,0.10889 -2.17782,0.15555 -1.08891,0.0467 -2.177822,0.057 -1.088911,0 -2.177822,-0.0519 -1.08891,-0.0519 -2.177821,-0.15556 -1.08891,-0.1037 -2.16745,-0.26963 -1.07854,-0.15555 -2.14671,-0.37333 -1.073355,-0.2074 -2.125968,-0.47703 -1.062984,-0.26445 -2.105227,-0.58074 -1.042243,-0.3163 -2.074116,-0.68444 -1.026687,-0.36815 -2.032633,-0.78296 -1.011131,-0.42 -1.996336,-0.88667 -0.985205,-0.46666 -1.949669,-0.98518 -0.959278,-0.50815 -1.897815,-1.06814 -0.933352,-0.56519 -1.840778,-1.17185 -0.907425,-0.60148 -1.783739,-1.25481 -0.876314,-0.64815 -1.721516,-1.34296 -0.840016,-0.68963 -1.648921,-1.42073 -0.808905,-0.73111 -1.581513,-1.5037 -0.772608,-0.77778 -1.503734,-1.58148 -0.731126,-0.80888 -1.425954,-1.65407 -0.689644,-0.83999 -1.34299,-1.71629 -0.648161,-0.88148 -1.25484,-1.78369 -0.606679,-0.90741 -1.16669,-1.84592 -0.560011,-0.93333 -1.073355,-1.89777 -0.518529,-0.96445 -0.985205,-1.94963 -0.466676,-0.98518 -0.881499,-1.9911 -0.414823,-1.01111 -0.782978,-2.03777 -0.368156,-1.02666 -0.684458,-2.07407 -0.316303,-1.03703 -0.585938,-2.09999 -0.259264,-1.05777 -0.477046,-2.12592 -0.207412,-1.07333 -0.373341,-2.15184 -0.155559,-1.07852 -0.26445,-2.16222 -0.103706,-1.08888 -0.160744,-2.17777 -0.05704,-1.08888 -0.05185,-2.17777 0,-1.08888 0.05185,-2.18295 0.05185,-1.08889 0.155559,-2.17777 0.108891,-1.0837 0.269635,-2.16222 0.160744,-1.07851 0.373341,-2.15184 0.212596,-1.07333 0.477046,-2.12592 0.269635,-1.05777 0.585938,-2.10518 0.311117,-1.04222 0.684458,-2.07406 0.36297,-1.02148 0.782978,-2.03259 0.414823,-1.00592 0.881499,-1.9911 0.466676,-0.98518 0.985205,-1.94963 0.518529,-0.96444 1.073355,-1.89777 0.554826,-0.93333 1.16669,-1.84592 0.611864,-0.91258 1.25484,-1.77851 0.642976,-0.86592 1.348175,-1.72147 0.705199,-0.85556 1.420769,-1.65407 0.71557,-0.79852 1.503734,-1.57629 0.772608,-0.77778 1.581513,-1.5037 0.808905,-0.73629 1.648921,-1.42592 0.845202,-0.69481 1.721516,-1.34814 0.876314,-0.64296 1.783739,-1.24963 0.907426,-0.60666 1.840778,-1.16666 0.933352,-0.56518 1.897815,-1.07852 0.964464,-0.51333 1.949669,-0.97999 0.985205,-0.46667 1.996336,-0.88148 1.005946,-0.42 2.032633,-0.78815 1.026687,-0.36814 2.074116,-0.68444 1.042243,-0.31111 2.100042,-0.58074 1.057798,-0.26444 2.125968,-0.47703 1.073355,-0.21259 2.151895,-0.37333 1.07854,-0.16074 2.16745,-0.26963 1.088911,-0.10889 2.177821,-0.15556 1.088911,-0.0467 2.177822,-0.0518 1.088912,0 2.177822,0.0518 1.08891,0.0519 2.17782,0.15556 1.08891,0.10889 2.16745,0.26963 1.07854,0.16074 2.14671,0.37333 1.07335,0.2074 2.12597,0.47703 1.06298,0.26445 2.10523,0.58074 1.04224,0.3163 2.07411,0.68444 1.02669,0.36815 2.03263,0.78815 1.01114,0.41481 1.99634,0.88148 0.98521,0.46666 1.94967,0.98518 0.95928,0.50815 1.89781,1.07333 0.93336,0.56 1.84078,1.16666 0.90743,0.60667 1.78374,1.25481 0.87631,0.64815 1.72152,1.34296 0.84001,0.68963 1.64892,1.42592 0.8089,0.72592 1.58151,1.5037 0.77261,0.7674 1.50374,1.57629 0.73112,0.80889 1.42595,1.65407 0.68964,0.84518 1.34299,1.72147 0.64816,0.8763 1.25484,1.77851 0.60668,0.90222 1.16669,1.84592 0.56001,0.9437 1.07335,1.89777 0.51335,0.95408 0.98521,1.94963 0.47186,0.99555 0.8815,1.9911 0.40964,0.99555 0.78298,2.03777 0.37334,1.04222 0.68445,2.07407 0.31631,1.03703 0.58594,2.09999 0.25927,1.05777 0.47705,2.12592 0.20741,1.07333 0.37334,2.15184 0.15556,1.07852 0.26445,2.16222 0.1037,1.08888 0.16074,2.17777 0.057,1.08888 0.0519,2.17777"
     id="path3"
     style="stroke-width:5.18523" />
  <path
     fill="#ffffff"
     d="m 144.44052,55.557438 q 0,1.088885 -0.0519,2.17777 -0.0518,1.088885 -0.15556,2.17777 -0.10889,1.088885 -0.26963,2.162214 -0.16074,1.0837 -0.37334,2.151845 -0.2126,1.068144 -0.47705,2.125918 -0.26445,1.057774 -0.58594,2.105177 -0.32148,1.047404 -0.68445,2.074067 -0.36297,1.021478 -0.78298,2.032585 -0.41483,1.005923 -0.8815,1.991104 -0.46668,0.985182 -0.98521,1.949623 -0.51852,0.964441 -1.07335,1.897771 -0.55483,0.93333 -1.16669,1.845919 -0.61186,0.912589 -1.25484,1.783697 -0.64298,0.871108 -1.34818,1.71629 -0.70519,0.845183 -1.42076,1.654069 -0.71557,0.808886 -1.50374,1.581475 -0.78816,0.77259 -1.58151,1.503699 -0.79335,0.731108 -1.64892,1.420735 -0.85558,0.689627 -1.72152,1.348144 -0.86594,0.658516 -1.78374,1.25481 -0.91779,0.596294 -1.84078,1.166662 -0.92298,0.570369 -1.89781,1.07333 -0.96446,0.518516 -1.94967,0.985181 -0.9852,0.466665 -1.99634,0.881479 -1.00594,0.414813 -2.03263,0.78296 -1.02669,0.368147 -2.07411,0.684442 -1.04743,0.316295 -2.10005,0.580738 -1.05261,0.264444 -2.12596,0.477036 -1.07336,0.212592 -2.1519,0.373332 -1.07854,0.16074 -2.16745,0.269628 -1.08891,0.108889 -2.17782,0.155555 -1.08891,0.04667 -2.177822,0.05704 -1.088911,0 -2.177822,-0.05185 -1.08891,-0.05185 -2.177821,-0.160741 -1.08891,-0.103703 -2.16745,-0.269628 -1.07854,-0.155555 -2.14671,-0.373332 Q 90.25425,98.936541 89.201637,98.666912 88.138653,98.407654 87.09641,98.086174 86.048981,97.769879 85.022294,97.401732 83.995607,97.03877 82.989661,96.618772 81.97853,96.203958 80.993325,95.737293 80.00812,95.270628 79.043656,94.752112 78.084378,94.233595 77.145841,93.678782 76.212489,93.113599 75.305063,92.51212 74.397638,91.905455 73.521324,91.252124 72.64501,90.603979 71.799808,89.909166 70.959792,89.219539 70.150887,88.488431 69.341982,87.757322 68.569374,86.984732 67.796766,86.206957 67.06564,85.403257 q -0.731126,-0.808886 -1.425954,-1.654069 -0.689644,-0.839997 -1.34299,-1.71629 -0.648161,-0.881478 -1.25484,-1.783697 -0.606679,-0.907404 -1.16669,-1.845919 -0.560011,-0.93333 -1.073355,-1.897771 -0.518529,-0.959256 -0.985205,-1.949623 -0.466676,-0.985181 -0.881499,-1.991104 -0.414823,-1.011107 -0.782978,-2.03777 -0.368156,-1.026663 -0.684458,-2.074067 -0.316303,-1.037033 -0.585938,-2.099992 -0.259264,-1.057774 -0.477046,-2.125918 -0.207412,-1.068145 -0.373341,-2.151845 -0.155559,-1.078514 -0.26445,-2.162214 -0.103706,-1.088885 -0.160744,-2.17777 -0.05704,-1.088885 -0.05185,-2.17777 0,-1.088885 0.05185,-2.17777 0.05185,-1.09407 0.155559,-2.17777 0.108891,-1.088885 0.269635,-2.1674 0.160744,-1.078514 0.373341,-2.151844 0.212596,-1.073329 0.477046,-2.125918 0.269635,-1.057774 0.585938,-2.099993 0.311117,-1.047403 0.684458,-2.074066 0.36297,-1.026663 0.782978,-2.032586 0.414823,-1.011107 0.881499,-1.996289 0.466676,-0.985181 0.985205,-1.949622 0.513344,-0.959256 1.073355,-1.897771 0.560011,-0.93333 1.16669,-1.840734 0.606679,-0.907404 1.25484,-1.783698 0.653346,-0.881478 1.348175,-1.721475 0.689643,-0.845182 1.420769,-1.654068 0.731126,-0.803701 1.503734,-1.576291 0.772608,-0.772589 1.581513,-1.503698 0.808905,-0.736293 1.648921,-1.425921 0.845202,-0.694812 1.721516,-1.342958 0.876314,-0.648146 1.783739,-1.25481 0.907426,-0.606665 1.840778,-1.166663 0.933352,-0.559997 1.897815,-1.078514 0.964464,-0.518517 1.949669,-0.979997 0.985205,-0.461479 1.996336,-0.881478 1.005946,-0.414813 2.032633,-0.788145 1.026687,-0.362962 2.074116,-0.684442 1.042243,-0.31111 2.100042,-0.580739 1.057798,-0.264443 2.125968,-0.477035 1.073355,-0.212592 2.151895,-0.373332 1.07854,-0.16074 2.16745,-0.264444 1.088911,-0.103703 2.177821,-0.16074 1.088911,-0.05704 2.177822,-0.05185 1.088912,0 2.177822,0.05185 1.08891,0.05185 2.17782,0.155555 1.08891,0.108889 2.16745,0.269629 1.07854,0.16074 2.14671,0.373332 1.06817,0.212592 2.12597,0.477035 1.06298,0.264444 2.10523,0.580739 1.04224,0.316295 2.07411,0.684442 1.02669,0.368147 2.03263,0.788145 1.01114,0.414813 1.99634,0.881478 0.98521,0.466665 1.94967,0.985182 0.95928,0.513332 1.89781,1.073329 0.93336,0.559998 1.84078,1.166663 0.90743,0.606664 1.78374,1.25481 0.87631,0.648146 1.72152,1.342958 0.84001,0.689628 1.64892,1.425921 0.8089,0.731109 1.58151,1.503698 0.77261,0.77259 1.50374,1.576291 0.73112,0.803701 1.42595,1.654068 0.69483,0.850367 1.34299,1.721475 0.64816,0.871108 1.25484,1.783698 0.60668,0.912589 1.16669,1.840734 0.56001,0.928145 1.07335,1.897771 0.51335,0.969626 0.98521,1.949622 0.47186,0.979997 0.8815,1.996289 0.40964,1.016293 0.78298,2.032586 0.37334,1.016292 0.68445,2.074066 0.31631,1.037034 0.58594,2.099993 0.25927,1.057774 0.47705,2.125918 0.20741,1.07333 0.37334,2.151844 0.15556,1.078515 0.26445,2.1674 0.1037,1.0837 0.16074,2.17777 0.0519,1.088885 0.0519,2.17777"
     id="path4"
     style="stroke-width:5.18523" />
  <path
     fill="none"
     stroke="#292929"
     stroke-linecap="round"
     stroke-linejoin="round"
     stroke-width="22.2224"
     d="m 99.997408,11.11019 q 2.177822,0 4.360832,0.108889 2.17782,0.103703 4.35564,0.32148 2.16745,0.212592 4.32453,0.534072 2.16226,0.321481 4.30379,0.746664 2.13634,0.425184 4.25193,0.954071 2.12079,0.528887 4.20527,1.161477 2.08449,0.632591 4.14823,1.368884 2.04819,0.736294 4.06527,1.571106 2.02226,0.834811 3.99267,1.768141 1.97041,0.93333 3.89415,1.959993 1.92375,1.031848 3.79564,2.151844 1.87188,1.125182 3.68674,2.333325 1.81485,1.213329 3.56747,2.514806 1.75263,1.296292 3.43785,2.685916 1.6904,1.379255 3.30303,2.851842 1.61781,1.462217 3.16303,3.007397 1.54003,1.539994 3.00746,3.157766 1.46744,1.612587 2.85191,3.302951 1.38447,1.685179 2.6808,3.437765 1.29632,1.752587 2.51486,3.567395 1.21854,1.814809 2.33338,3.681469 1.11484,1.86666 2.1519,3.800727 1.03705,1.934067 1.96003,3.899245 0.92299,1.965178 1.76819,3.987393 0.8452,2.022215 1.57114,4.070356 0.72594,2.04814 1.36892,4.142948 0.64297,2.094807 1.1615,4.199985 0.51853,2.105177 0.95409,4.262206 0.43557,2.15703 0.74669,4.298503 0.31111,2.141474 0.53408,4.329615 0.22297,2.18814 0.32149,4.350354 0.0985,2.162215 0.1037,4.360725"
     id="path5" />
  <path
     fill="none"
     stroke="#cfcfcf"
     stroke-linecap="round"
     stroke-linejoin="round"
     stroke-width="22.2224"
     d="m 99.997408,188.88881 q -2.177822,0 -4.360828,-0.1037 -2.177821,-0.10889 -4.355642,-0.32667 -2.167451,-0.20741 -4.324531,-0.53407 -2.162265,-0.3163 -4.30379,-0.74148 -2.136339,-0.42518 -4.251936,-0.95926 -2.120783,-0.52888 -4.205269,-1.16147 -2.084486,-0.63259 -4.148231,-1.36889 -2.048189,-0.73629 -4.065266,-1.5711 -2.022263,-0.83481 -3.992673,-1.76296 -1.970409,-0.92814 -3.894151,-1.97036 -1.923742,-1.02667 -3.795632,-2.14666 -1.871889,-1.12 -3.68674,-2.33333 -1.814851,-1.21333 -3.567479,-2.5148 -1.752627,-1.29629 -3.437846,-2.68073 -1.690404,-1.38444 -3.303029,-2.85184 -1.61781,-1.46741 -3.163026,-3.0074 -1.540031,-1.54518 -3.007467,-3.16295 -1.467437,-1.61259 -2.851909,-3.30295 -1.384472,-1.68518 -2.680794,-3.43777 -1.296322,-1.75259 -2.514865,-3.56739 -1.218543,-1.81481 -2.33338,-3.68147 -1.114837,-1.86666 -2.151895,-3.80073 -1.037058,-1.93407 -1.960039,-3.89406 -0.922981,-1.95999 -1.768183,-3.99258 -0.845202,-2.03258 -1.571143,-4.07035 -0.72594,-2.03777 -1.368916,-4.14295 -0.642976,-2.10518 -1.161505,-4.19999 -0.518528,-2.0948 -0.954093,-4.2622 -0.435564,-2.1674 -0.746681,-4.29851 -0.311118,-2.1311 -0.534085,-4.32961 -0.222967,-2.19851 -0.321488,-4.35035 -0.09852,-2.15185 -0.103706,-4.35554 0,-2.188145 0.103706,-4.365915 0.103706,-2.17777 0.321488,-4.35554 0.212597,-2.167399 0.534085,-4.324429 0.316302,-2.162214 0.746681,-4.303688 0.425194,-2.136288 0.954093,-4.251836 0.5289,-2.115548 1.161505,-4.20517 0.632605,-2.089622 1.368916,-4.148133 0.736311,-2.048141 1.571143,-4.065171 0.834831,-2.01703 1.768183,-3.992578 0.933352,-1.975549 1.960039,-3.89406 1.031873,-1.923697 2.151895,-3.795542 1.120022,-1.871845 2.33338,-3.681469 1.213357,-1.809623 2.514865,-3.57258 1.301507,-1.762956 2.680794,-3.437765 1.379287,-1.674809 2.851909,-3.302951 1.472622,-1.628142 3.007467,-3.162952 1.534845,-1.534809 3.163026,-3.007396 1.628181,-1.472587 3.303029,-2.851842 1.674848,-1.379254 3.437846,-2.680731 1.762998,-1.301477 3.567479,-2.514806 1.804481,-1.213329 3.681555,-2.333325 1.877075,-1.119996 3.800817,-2.151844 1.923742,-1.031848 3.894151,-1.959993 1.97041,-0.93333 3.992673,-1.762956 2.017077,-0.839997 4.070451,-1.576291 2.053374,-0.731108 4.143046,-1.368884 2.084486,-0.63259 4.200083,-1.161477 2.115598,-0.528887 4.262308,-0.954071 2.146709,-0.425183 4.298604,-0.746664 2.151895,-0.32148 4.329716,-0.534072 2.177821,-0.212592 4.350457,-0.32148 2.177821,-0.103703 4.360828,-0.103703"
     id="path6" />
  <path
     fill="none"
     stroke="#292929"
     stroke-linecap="round"
     stroke-linejoin="round"
     stroke-width="22.2224"
     d="m 188.88881,99.9995 q 0,2.17777 -0.10371,4.36073 -0.10889,2.17777 -0.32667,4.35554 -0.2126,2.16739 -0.53408,4.32442 -0.31631,2.16222 -0.74669,4.30369 -0.42519,2.13629 -0.95409,4.25184 -0.5289,2.12073 -1.1615,4.20517 -0.63261,2.08444 -1.36892,4.14813 -0.73631,2.05333 -1.57114,4.06517 -0.83483,2.02222 -1.76819,3.99258 -0.93335,1.97036 -1.96003,3.89406 -1.03188,1.9237 -2.1519,3.79554 -1.12002,1.87185 -2.33338,3.68666 -1.21336,1.8148 -2.51486,3.56739 -1.30151,1.75259 -2.6808,3.43777 -1.37928,1.68518 -2.85191,3.30813 -1.47262,1.62296 -3.00746,3.15777 -1.53485,1.53481 -3.16303,3.0074 -1.62818,1.47258 -3.30303,2.85184 -1.67485,1.37925 -3.43785,2.68073 -1.76299,1.30147 -3.56747,2.5148 -1.80448,1.21333 -3.68156,2.33333 -1.87707,1.11999 -3.80082,2.15184 -1.92374,1.03185 -3.89415,1.96 -1.97041,0.93333 -3.99267,1.76814 -2.01708,0.83481 -4.07045,1.5711 -2.05338,0.7363 -4.14305,1.36889 -2.08967,0.63259 -4.20008,1.16147 -2.11041,0.52889 -4.26231,0.95926 -2.15189,0.43037 -4.2986,0.74148 -2.14671,0.31111 -4.32972,0.53407 -2.183,0.22296 -4.35045,0.32148 -2.16746,0.0985 -4.360832,0.10889 m 0,0 q -1.088911,0 -2.177822,-0.0519 -1.08891,-0.0519 -2.177821,-0.16074 -1.08891,-0.10371 -2.16745,-0.26963 -1.07854,-0.15556 -2.14671,-0.37333 -1.073355,-0.20741 -2.125968,-0.47704 -1.062984,-0.26444 -2.105227,-0.58074 -1.042243,-0.31629 -2.074116,-0.68444 -1.026687,-0.36815 -2.032633,-0.78296 -1.011131,-0.42 -1.996336,-0.88666 -0.985205,-0.46667 -1.949669,-0.98518 -0.959278,-0.50815 -1.897815,-1.06815 -0.933352,-0.56518 -1.840778,-1.17185 -0.907425,-0.60148 -1.783739,-1.25481 -0.876314,-0.64814 -1.721516,-1.34295 -0.840016,-0.68963 -1.648921,-1.42074 -0.808905,-0.73111 -1.581513,-1.5037 -0.772608,-0.77777 -1.503734,-1.58147 -0.731126,-0.80889 -1.425954,-1.65407 -0.689644,-0.84 -1.34299,-1.71629 -0.648161,-0.88148 -1.25484,-1.7837 -0.606679,-0.9074 -1.16669,-1.84592 -0.560011,-0.93333 -1.073355,-1.89777 -0.518529,-0.96444 -0.985205,-1.94962 -0.466676,-0.98518 -0.881499,-1.99111 -0.414823,-1.0111 -0.782978,-2.03777 -0.368156,-1.02666 -0.684458,-2.07406 -0.316303,-1.03704 -0.585938,-2.1 -0.259264,-1.05777 -0.477046,-2.12591 -0.207412,-1.07333 -0.373341,-2.15185 -0.155559,-1.07851 -0.26445,-2.16221 -0.103706,-1.08889 -0.160744,-2.17777 -0.05704,-1.08889 -0.05185,-2.17777 0,-1.08889 0.05185,-2.18296 0.05185,-1.08888 0.155559,-2.17777 0.108891,-1.0837 0.269635,-2.16221 0.160744,-1.07852 0.373341,-2.15185 0.212596,-1.07333 0.477046,-2.12591 0.269635,-1.05778 0.585938,-2.10518 0.311117,-1.04222 0.684458,-2.07407 0.36297,-1.02148 0.782978,-2.03258 0.414823,-1.00593 0.881499,-1.99111 0.466676,-0.98518 0.985205,-1.94962 0.518529,-0.96444 1.073355,-1.89777 0.554826,-0.93333 1.16669,-1.84592 0.611864,-0.91259 1.25484,-1.77851 0.642976,-0.86593 1.348175,-1.72148 0.705199,-0.85555 1.420769,-1.65407 0.71557,-0.79851 1.503734,-1.57629 0.772608,-0.77777 1.581513,-1.50369 0.808905,-0.7363 1.648921,-1.42593 0.845202,-0.69481 1.721516,-1.34814 0.876314,-0.64296 1.783739,-1.24962 0.907426,-0.60667 1.840778,-1.16667 0.933352,-0.56518 1.897815,-1.07851 0.964464,-0.51333 1.949669,-0.98 0.985205,-0.46666 1.996336,-0.88148 1.005946,-0.41999 2.032633,-0.78814 1.026687,-0.36815 2.074116,-0.68444 1.042243,-0.31111 2.100042,-0.58074 1.057798,-0.26445 2.125968,-0.47704 1.073355,-0.21259 2.151895,-0.37333 1.07854,-0.16074 2.16745,-0.26963 1.088911,-0.10889 2.177821,-0.15555 1.088911,-0.0467 2.177822,-0.0519"
     id="path7" />
  <path
     fill="none"
     stroke="#cfcfcf"
     stroke-linecap="round"
     stroke-linejoin="round"
     stroke-width="22.2224"
     d="m 99.997408,11.11019 q 1.088912,0 2.177822,0.05185 1.08891,0.05185 2.17782,0.165925 1.08891,0.103704 2.16745,0.264444 1.07854,0.16074 2.14671,0.373332 1.06817,0.212592 2.12597,0.477035 1.06298,0.264444 2.10523,0.580739 1.04224,0.316295 2.07411,0.684442 1.02669,0.368147 2.03263,0.788145 1.01114,0.414813 1.99634,0.881478 0.98521,0.466665 1.94967,0.985182 0.95928,0.513332 1.89781,1.073329 0.93336,0.559998 1.84078,1.166663 0.90743,0.606664 1.78374,1.25481 0.87631,0.648146 1.72152,1.342958 0.84001,0.689628 1.64892,1.425921 0.8089,0.731109 1.58151,1.503698 0.77261,0.77259 1.50374,1.576291 0.73112,0.803701 1.42595,1.654068 0.69483,0.850367 1.34299,1.721475 0.64816,0.871108 1.25484,1.783698 0.60668,0.912589 1.16669,1.840734 0.56001,0.928145 1.07335,1.897771 0.51335,0.969626 0.98521,1.949622 0.47186,0.979997 0.8815,1.996289 0.40964,1.016293 0.78298,2.032586 0.37334,1.016292 0.68445,2.074066 0.31631,1.037034 0.58594,2.099993 0.25927,1.057774 0.47705,2.125918 0.20741,1.07333 0.37334,2.151844 0.15556,1.078515 0.26445,2.1674 0.1037,1.0837 0.16074,2.17777 0.0519,1.088885 0.0519,2.17777 0,1.088885 -0.0519,2.17777 -0.0518,1.088885 -0.15556,2.17777 -0.1037,1.088885 -0.26963,2.162214 -0.16074,1.0837 -0.37334,2.151845 -0.2126,1.068144 -0.47705,2.125918 -0.26445,1.057774 -0.58594,2.105177 -0.32148,1.047404 -0.68445,2.074067 -0.36297,1.021478 -0.78298,2.032585 -0.41483,1.005923 -0.8815,1.991104 -0.46668,0.985182 -0.98521,1.949623 -0.51852,0.964441 -1.07335,1.897771 -0.55483,0.93333 -1.16669,1.845919 -0.61186,0.912589 -1.25484,1.783697 -0.64298,0.871108 -1.34818,1.71629 -0.70519,0.845183 -1.42076,1.654069 -0.71557,0.808886 -1.50374,1.581475 -0.78816,0.77259 -1.58151,1.503699 -0.79335,0.731108 -1.64892,1.420735 -0.85558,0.689627 -1.72152,1.348144 -0.86594,0.658516 -1.78374,1.25481 -0.91779,0.596294 -1.84078,1.166662 -0.92298,0.570369 -1.89781,1.07333 -0.96446,0.518516 -1.94967,0.985181 -0.9852,0.466665 -1.99634,0.881479 -1.00594,0.414813 -2.03263,0.78296 -1.02669,0.368147 -2.07411,0.684442 -1.04743,0.316295 -2.10005,0.580738 -1.05261,0.264444 -2.12596,0.477036 -1.07336,0.212592 -2.1519,0.373332 -1.07854,0.16074 -2.16745,0.269628 -1.08891,0.108889 -2.17782,0.155555 -1.08891,0.04667 -2.177822,0.05704"
     id="path8" />
</svg>
