<?xml version="1.0" encoding="UTF-8" standalone="no"?>
<svg
   width="200"
   height="200.00172"
   version="1.1"
   id="svg4"
   sodipodi:docname="pollen.svg"
   inkscape:version="1.3.2 (091e20e, 2023-11-25, custom)"
   xmlns:inkscape="http://www.inkscape.org/namespaces/inkscape"
   xmlns:sodipodi="http://sodipodi.sourceforge.net/DTD/sodipodi-0.dtd"
   xmlns="http://www.w3.org/2000/svg"
   xmlns:svg="http://www.w3.org/2000/svg">
  <defs
     id="defs4" />
  <sodipodi:namedview
     id="namedview4"
     pagecolor="#ffffff"
     bordercolor="#000000"
     borderopacity="0.25"
     inkscape:showpageshadow="2"
     inkscape:pageopacity="0.0"
     inkscape:pagecheckerboard="0"
     inkscape:deskcolor="#d1d1d1"
     inkscape:zoom="0.97840909"
     inkscape:cx="-171.19628"
     inkscape:cy="170.17422"
     inkscape:window-width="1920"
     inkscape:window-height="1057"
     inkscape:window-x="-8"
     inkscape:window-y="-8"
     inkscape:window-maximized="1"
     inkscape:current-layer="svg4" />
  <path
     fill="#cfbb50"
     d="m 200,100.00173 q 0,2.45409 -0.12353,4.90818 -0.12353,2.45409 -0.36235,4.89171 -0.23882,2.43762 -0.60117,4.87523 -0.36234,2.43762 -0.83175,4.83407 -0.46941,2.39644 -1.07881,4.79288 -0.60941,2.39644 -1.3094,4.727 -0.69999,2.33056 -1.53998,4.66113 -0.83999,2.33056 -1.76233,4.57876 -0.92234,2.24821 -1.99292,4.48819 -1.07058,2.23997 -2.20703,4.38112 -1.13646,2.14115 -2.42115,4.27407 -1.28469,2.13292 -2.62703,4.1423 -1.34234,2.00939 -2.82467,4.01878 -1.48234,2.00939 -3.01408,3.87054 -1.53175,1.86116 -3.21173,3.70584 -1.64704,1.82822 -3.37643,3.55761 -1.73763,1.73762 -3.55761,3.38466 -1.81998,1.64704 -3.72231,3.21173 -1.90233,1.56469 -3.87054,3.01408 -1.96821,1.4494 -4.01054,2.83291 -2.04233,1.38351 -4.1423,2.61879 -2.10821,1.26822 -4.27407,2.42115 -2.16586,1.15293 -4.38113,2.20703 -2.21526,1.05411 -4.48818,1.99292 -2.27291,0.93881 -4.57877,1.76233 -2.30585,0.82352 -4.66112,1.53999 -2.35527,0.71646 -4.73524,1.30939 -2.37997,0.59294 -4.78465,1.07058 -2.40468,0.48587 -4.83406,0.84822 -2.42938,0.35412 -4.87524,0.59294 -2.43761,0.24705 -4.8917,0.36235 -2.45409,0.12352 -4.90818,0.12352 -2.45409,0 -4.90818,-0.12352 -2.45409,-0.12353 -4.8917,-0.36235 -2.43762,-0.23882 -4.87524,-0.59294 -2.43762,-0.35411 -4.83406,-0.83999 -2.39644,-0.48587 -4.78465,-1.07881 -2.38821,-0.59293 -4.73524,-1.30939 -2.34703,-0.71647 -4.66112,-1.53999 -2.31409,-0.82352 -4.57877,-1.76233 -2.26468,-0.93881 -4.48818,-1.99292 -2.223507,-1.0541 -4.381129,-2.20703 -2.157622,-1.15293 -4.274067,-2.42115 -2.116446,-1.26822 -4.142305,-2.61879 -2.025858,-1.35057 -4.010541,-2.83291 -1.984682,-1.48233 -3.870542,-3.01408 -1.88586,-1.53175 -3.722309,-3.21173 -1.811744,-1.64704 -3.54937,-3.37643 -1.737627,-1.73762 -3.384667,-3.5576 -1.647039,-1.81998 -3.211726,-3.72231 -1.564688,-1.90233 -3.014083,-3.87055 -1.449394,-1.96821 -2.824672,-4.01054 -1.375278,-2.04233 -2.635263,-4.1423 Q 12.9622,149.31409 11.809273,147.14 10.656345,144.96591 9.60224,142.75888 8.548135,140.55184 7.609322,138.27069 6.67051,135.98955 5.84699,133.69193 5.02347,131.39431 4.307008,129.0308 3.590546,126.6673 2.997612,124.3038 2.404678,121.91559 1.927036,119.51092 1.449395,117.10624 1.087046,114.67685 0.724697,112.24747 0.485877,109.80162 0.247056,107.35576 0.123528,104.90991 0,102.46406 0,100.00173 q 0,-2.462319 0.123528,-4.908169 0.115293,-2.44586 0.362349,-4.89171 0.247056,-2.44586 0.601169,-4.87524 0.354114,-2.42938 0.831755,-4.83406 0.485877,-2.40468 1.078811,-4.78465 0.592934,-2.38821 1.309396,-4.73524 0.716462,-2.34703 1.539982,-4.66112 0.82352,-2.305854 1.762332,-4.578768 0.947048,-2.26468 1.992918,-4.488183 1.04587,-2.223503 2.207033,-4.381125 1.152927,-2.165857 2.421148,-4.274067 1.259985,-2.099975 2.627028,-4.142304 1.358807,-2.042329 2.824672,-4.010541 1.45763,-1.976448 3.014083,-3.870543 1.564687,-1.894095 3.211726,-3.722309 1.64704,-1.811744 3.376431,-3.54937 1.737627,-1.737627 3.557606,-3.384666 1.819978,-1.64704 3.722309,-3.211727 1.90233,-1.564688 3.870542,-3.014082 1.968213,-1.449395 4.010541,-2.824673 2.042329,-1.375278 4.142305,-2.635263 2.099975,-1.259985 4.274067,-2.412913 2.174092,-1.152928 4.381129,-2.2070333 2.20703,-1.054105 4.48818,-1.984682 2.28115,-0.930578 4.57877,-1.770568 2.29762,-0.83999 4.66112,-1.539982 2.3635,-0.699991 4.73524,-1.309396 2.37173,-0.609405 4.78465,-1.070576 2.41291,-0.461171 4.83406,-0.83999 2.42115,-0.37881905 4.87524,-0.60116905 2.45408,-0.22235 4.8917,-0.362349 2.43762,-0.139998 4.90818,-0.123528 2.47056,0.01647 4.90818,0.123528 2.43762,0.107058 4.8917,0.362349 2.45409,0.255291 4.87524,0.60116905 2.42115,0.345879 4.83406,0.83999 2.41292,0.494112 4.78465,1.070576 2.38821,0.601169 4.73524,1.317632 2.34703,0.708227 4.66112,1.531746 2.31409,0.82352 4.57877,1.770568 2.26468,0.947047 4.48818,1.984682 2.22351,1.0376353 4.38113,2.2070333 2.15762,1.169398 4.27407,2.421148 2.11644,1.25175 4.1423,2.627028 2.02586,1.375278 4.01054,2.824673 1.97645,1.457629 3.87054,3.022317 1.8941,1.556452 3.72231,3.203492 1.81175,1.647039 3.54937,3.376431 1.73763,1.745861 3.38467,3.557605 1.64704,1.819978 3.21173,3.722309 1.55645,1.894095 3.01408,3.870543 1.46586,1.968212 2.82467,4.010541 1.35881,2.042329 2.63526,4.142304 1.27646,2.099975 2.41292,4.274067 1.13645,2.174092 2.20703,4.381125 1.07058,2.207033 1.99292,4.488183 0.92234,2.281149 1.76233,4.578768 0.83999,2.29762 1.53998,4.66112 0.69999,2.3635 1.3094,4.73524 0.6094,2.37174 1.07057,4.78465 0.48588,2.41291 0.83999,4.83406 0.36235,2.42938 0.60117,4.87524 0.24706,2.44585 0.36235,4.89171 Q 200,97.547641 200,100.00173"
     id="path1"
     style="stroke-width:8.2352" />
  <path
     fill="#ffe763"
     d="m 164.70394,100.00173 q 0,1.5894 -0.0823,3.17879 -0.0741,1.58116 -0.23058,3.16232 -0.15647,1.58115 -0.38706,3.15408 -0.23058,1.57292 -0.54352,3.12937 -0.3047,1.56469 -0.69176,3.09643 -0.38705,1.53999 -0.84822,3.0635 -0.46117,1.51527 -0.99646,3.01408 -0.53529,1.49881 -1.14469,2.96467 -0.60941,1.46587 -1.28469,2.89879 -0.67529,1.43293 -1.43293,2.84114 -0.75764,1.40822 -1.56469,2.75879 -0.80705,1.35058 -1.69645,2.68468 -0.8894,1.3341 -1.82821,2.60232 -0.93881,1.26822 -1.95174,2.5035 -1.01293,1.23528 -2.07527,2.40468 -1.06234,1.1694 -2.19056,2.29762 -1.12823,1.12822 -2.30586,2.19056 -1.17763,1.06234 -2.39644,2.07527 -1.21881,1.01293 -2.51174,1.95174 -1.29292,0.93882 -2.59408,1.82822 -1.30117,0.8894 -2.68468,1.69645 -1.38351,0.80705 -2.75879,1.56468 -1.37528,0.75764 -2.84114,1.43293 -1.46587,0.67529 -2.89879,1.28469 -1.43293,0.6094 -2.96467,1.14469 -1.53175,0.53529 -3.01409,0.98823 -1.52351,0.4694 -3.06349,0.85646 -1.53998,0.38705 -3.09643,0.69175 -1.55645,0.30471 -3.12938,0.54353 -1.57292,0.23882 -3.15408,0.38705 -1.58116,0.14823 -3.16231,0.23882 -1.5894,0.0823 -3.17879,0.0823 -1.58939,0 -3.17879,-0.0823 -1.58115,-0.0823 -3.16231,-0.23882 -1.58116,-0.15647 -3.15408,-0.38705 -1.57293,-0.23059 -3.12938,-0.54353 -1.55645,-0.31293 -3.09643,-0.69175 -1.53998,-0.37882 -3.06349,-0.84823 -1.51528,-0.46117 -3.01409,-0.99646 -1.4988,-0.53529 -2.96467,-1.14469 -1.46586,-0.6094 -2.89879,-1.28469 -1.43292,-0.67529 -2.84114,-1.43293 -1.40822,-0.75763 -2.75879,-1.56468 -1.35057,-0.80705 -2.68468,-1.69645 -1.3341,-0.8894 -2.59408,-1.82822 -1.25999,-0.93881 -2.51174,-1.95174 -1.25175,-1.01293 -2.404676,-2.07527 -1.169398,-1.07057 -2.29762,-2.19056 -1.119987,-1.11999 -2.190562,-2.30586 -1.070576,-1.16939 -2.07527,-2.39644 -1.004694,-1.23528 -1.951742,-2.5035 -0.947047,-1.27645 -1.828214,-2.60232 -0.881166,-1.31763 -1.69645,-2.68468 -0.82352,-1.3588 -1.564688,-2.75879 -0.749403,-1.39998 -1.432924,-2.84114 -0.683521,-1.44116 -1.284691,-2.89879 -0.601169,-1.45763 -1.144692,-2.96467 -0.543523,-1.50704 -0.988224,-3.01408 -0.4447,-1.50704 -0.85646,-3.0635 -0.41176,-1.55645 -0.691757,-3.09643 -0.279997,-1.53998 -0.543523,-3.12937 -0.263526,-1.5894 -0.387054,-3.15408 -0.123528,-1.56469 -0.238821,-3.16232 -0.115293,-1.59763 -0.08235,-3.17879 0.03294,-1.581149 0.08235,-3.170549 0.04941,-1.58939 0.238821,-3.17055 0.189409,-1.58116 0.387054,-3.15408 0.197645,-1.57292 0.543523,-3.12937 0.345878,-1.55646 0.691757,-3.09644 0.345878,-1.53998 0.848225,-3.06349 0.502347,-1.52351 0.996459,-3.01408 0.494112,-1.49057 1.144692,-2.96467 0.650581,-1.47411 1.284691,-2.89879 0.63411,-1.42469 1.432924,-2.84115 0.798815,-1.41645 1.564688,-2.75879 0.765873,-1.34234 1.69645,-2.684673 0.930578,-1.342337 1.828214,-2.594087 0.897637,-1.25175 1.951742,-2.5035 1.054105,-1.25175 2.07527,-2.404677 1.021164,-1.152928 2.190562,-2.305856 1.169398,-1.152927 2.305855,-2.190562 1.169401,-1.070576 2.396441,-2.07527 1.23528,-1.004694 2.51174,-1.951742 1.26822,-0.947047 2.59408,-1.828213 1.31764,-0.881166 2.68468,-1.696451 1.35881,-0.82352 2.75879,-1.564687 1.39998,-0.749403 2.84114,-1.432925 1.44116,-0.683521 2.89879,-1.284691 1.45763,-0.601169 2.96467,-1.144692 1.50704,-0.543523 3.01409,-0.988224 1.50704,-0.4447 3.06349,-0.85646 1.55645,-0.41176 3.09643,-0.691757 1.53998,-0.279996 3.12938,-0.543523 1.58939,-0.263526 3.15408,-0.387054 1.56469,-0.123528 3.16231,-0.238821 1.59763,-0.115292 3.17879,-0.07412 1.58116,0.04118 3.17879,0.08235 1.59762,0.04117 3.16231,0.230585 1.56469,0.18941 3.15408,0.387054 1.5894,0.197645 3.12938,0.543523 1.53998,0.345879 3.09643,0.691757 1.55645,0.345878 3.06349,0.848225 1.50705,0.502347 3.01409,0.996459 1.50704,0.494112 2.96467,1.152928 1.45763,0.658815 2.89879,1.276455 1.44116,0.61764 2.84114,1.432925 1.39998,0.815284 2.75879,1.564687 1.35881,0.749403 2.68468,1.696451 1.32586,0.947047 2.59408,1.828213 1.26822,0.881167 2.51174,1.951742 1.24351,1.070576 2.40468,2.07527 1.16939,1.070576 2.29762,2.190562 1.11998,1.128222 2.19056,2.305856 1.07057,1.169398 2.07527,2.404677 1.00469,1.227045 1.95174,2.5035 0.94705,1.276456 1.82821,2.594087 0.88117,1.317629 1.69645,2.684669 0.81529,1.36704 1.56469,2.75879 0.7494,1.39175 1.43293,2.84115 0.68352,1.44939 1.28469,2.89879 0.60117,1.44939 1.14469,2.96467 0.54352,1.51527 0.98822,3.01408 0.46941,1.52351 0.85646,3.06349 0.38706,1.53998 0.69176,3.09644 0.3047,1.55645 0.54352,3.12937 0.23882,1.57292 0.38706,3.15408 0.14823,1.58116 0.23882,3.17055 0.0823,1.58116 0.0823,3.170549"
     id="path2"
     style="stroke-width:8.2352" />
</svg>
