<?xml version="1.0" encoding="UTF-8" standalone="no"?>
<!-- Creator: CorelDRAW -->

<svg
   xml:space="preserve"
   width="200"
   height="200"
   version="1.1"
   style="clip-rule:evenodd;fill-rule:evenodd;image-rendering:optimizeQuality;shape-rendering:geometricPrecision;text-rendering:geometricPrecision"
   viewBox="0 0 9415.3206 9415.321"
   id="svg98"
   sodipodi:docname="web.svg"
   inkscape:version="1.4 (86a8ad7, 2024-10-11)"
   xmlns:inkscape="http://www.inkscape.org/namespaces/inkscape"
   xmlns:sodipodi="http://sodipodi.sourceforge.net/DTD/sodipodi-0.dtd"
   xmlns="http://www.w3.org/2000/svg"
   xmlns:svg="http://www.w3.org/2000/svg"><sodipodi:namedview
   id="namedview98"
   pagecolor="#ffffff"
   bordercolor="#000000"
   borderopacity="0.25"
   inkscape:showpageshadow="2"
   inkscape:pageopacity="0.0"
   inkscape:pagecheckerboard="0"
   inkscape:deskcolor="#d1d1d1"
   inkscape:document-units="mm"
   inkscape:zoom="3.0733877"
   inkscape:cx="138.93464"
   inkscape:cy="116.9719"
   inkscape:window-width="1920"
   inkscape:window-height="1001"
   inkscape:window-x="-9"
   inkscape:window-y="-9"
   inkscape:window-maximized="1"
   inkscape:current-layer="圖層_x0020_1" />
 <defs
   id="defs1">
  <style
   type="text/css"
   id="style1">
   <![CDATA[
    .fil0 {fill:#CFCFCF;fill-opacity:0.701961}
   ]]>
  </style>
 </defs>
 <g
   id="圖層_x0020_1"
   inkscape:label="圖層 1"
   inkscape:groupmode="layer">
  <metadata
   id="CorelCorpID_0Corel-Layer" />
  <path
   class="fil0"
   d="m 3072.3487,9039.3262 -0.4517,1.2337 c -3.4972,9.4785 -8.2338,18.6762 -14.2481,27.3726 -2.9906,4.3235 -6.2235,8.399 -9.6438,12.2103 10.2497,-11.3786 18.445,-24.751 23.8919,-39.5774 l 0.2864,-0.8041 0.1653,-0.4296 z m -24.4702,40.9543 c -1.1345,1.2667 -2.3022,2.5059 -3.4862,3.7121 1.184,-1.2062 2.3517,-2.4509 3.4862,-3.7121 z m -33.084,25.9186 c -18.6211,9.9963 -39.9795,15.278 -62.3127,14.4354 21.6008,0.7765 43.1464,-4.1858 62.3127,-14.4354 z m -98.2881,7.6611 c -15.603,-5.436 -29.6418,-13.8736 -41.5106,-24.5748 3.8113,3.4312 7.8869,6.6421 12.2103,9.6437 9.2803,6.4273 19.1388,11.3786 29.3003,14.9366 z m -72.6064,-68.382 c -5.5185,-13.1521 -8.7625,-27.3782 -9.3573,-42.166 0.6058,14.4739 3.7617,28.7715 9.3573,42.166 z"
   id="path1"
   style="stroke-width:0.550757" />
  <path
   class="fil0"
   d="m 5261.7242,9303.9154 c -3.8499,12.1828 -9.5171,23.4788 -16.6605,33.5853 7.2314,-10.2772 12.8547,-21.6393 16.6605,-33.5853 z m -59.3772,71.1909 c -14.0994,7.4848 -29.7519,12.2709 -46.1865,13.7689 10.7287,-0.9914 21.5126,-3.4202 32.0817,-7.4187 4.9017,-1.8505 9.5941,-3.9709 14.0993,-6.3502 z m -85.6096,10.9766 c -18.6487,-4.3896 -35.4633,-12.9648 -49.5572,-24.5582 14.4464,11.8467 31.4372,20.2458 49.5572,24.5582 z m -80.1297,-62.0703 c -7.0277,-13.3173 -11.6596,-27.9895 -13.3835,-43.4217 l -0.061,-0.4406 0.1652,1.3108 v 0.022 c 1.1676,9.6052 3.4698,19.216 7.0441,28.6724 1.8231,4.8026 3.9104,9.418 6.2347,13.8571 z"
   id="path2"
   style="stroke-width:0.550757" />
  <polygon
   class="fil0"
   points="8280.77,9855.66 9120.39,16849.02 9120.41,16849.26 8280.76,9855.66 "
   id="polygon2"
   transform="matrix(0.55075719,0,0,0.55075719,0.00471179,0.00720185)" />
  <path
   class="fil0"
   d="m 3856.01,6981.2898 0.011,-0.011 -242.7242,637.4354 h -0.011 z m -351.1077,922.0611 h 0.011 l -169.0495,443.9434 h -0.011 l -105.1175,276.0725 h 0.011 l -158.6071,416.5046 0.1543,-0.4515 432.6087,-1136.0745 z m -661.553,1048.9171 -0.1542,0.391 314.1299,-824.9682 z"
   id="path3"
   style="stroke-width:0.550757" />
  <path
   class="fil0"
   d="m 3335.853,8347.2998 c 267.3099,-53.1536 542.4903,-63.7171 815.2307,-30.2311 272.7185,33.486 537.148,110.2947 783.6559,226.5319 l 35.2209,293.3168 c -261.538,-145.6477 -549.6336,-239.9814 -848.7443,-276.7004 -299.0998,-36.73 -601.471,-14.9035 -890.4808,63.1498 l 105.1176,-276.0725 z"
   id="path4"
   style="stroke-width:0.550757" />
  <path
   class="fil0"
   d="m 3613.2858,7618.7196 c 204.9974,-46.1369 417.1821,-56.9428 627.351,-31.1453 210.158,25.803 413.4314,87.6254 601.1681,181.9756 l 36.2948,302.4043 c -201.0374,-129.2957 -429.0674,-211.9644 -667.3139,-241.2151 -238.2631,-29.2618 -479.5388,-4.2023 -705.8835,72.6118 l 108.3835,-284.6368 z"
   id="path5"
   style="stroke-width:0.550757" />
  <path
   class="fil0"
   d="m 3969.1356,6684.2003 c 125.6387,-29.3278 255.9313,-36.4821 384.9628,-20.6368 129.0203,15.8452 253.7062,54.3101 368.5005,113.153 l 37.9032,315.6224 c -124.4711,-101.141 -275.4998,-165.877 -436.2603,-185.6107 -160.7716,-19.7446 -322.9806,6.5485 -468.2263,74.5616 l 113.1256,-297.0895 z"
   id="path6"
   style="stroke-width:0.550757" />
  <path
   class="fil0"
   d="m 4443.668,5934.08 c 64.02,7.8593 126.1178,25.7424 184.1015,52.7791 l 41.1581,342.7362 c -57.7193,-81.446 -148.2198,-139.2315 -255.1217,-152.3504 -106.902,-13.1302 -208.7094,21.0499 -284.422,86.1494 l 122.8574,-322.6281 c 62.8028,-12.2103 127.3957,-14.54 191.4212,-6.6807 z"
   id="path7"
   style="stroke-width:0.550757" />
  <path
   class="fil0"
   d="m 5266.2734,9249.7044 c 7.9089,55.5549 -23.3411,111.1042 -78.0258,131.7521 -63.293,23.9084 -133.9661,-8.0134 -157.869,-71.301 -3.5744,-9.4564 -5.8821,-19.0782 -7.0442,-28.6944 l 243.2419,-29.2011 z"
   id="path8"
   style="stroke-width:0.550757" />
  <path
   class="fil0"
   d="m 7306.6911,8416.4142 0.2864,0.4022 -0.1487,-0.2038 z m 19.3426,41.7365 c 4.5548,18.0814 4.8137,36.4325 1.2943,53.8695 3.5579,-17.8335 3.1063,-36.2783 -1.2943,-53.8695 z m -17.7564,98.9931 c -7.5068,10.9765 -16.8366,20.8021 -27.7527,28.9478 6.5155,-4.8798 12.6399,-10.4864 18.2576,-16.8037 3.4588,-3.8993 6.6147,-7.9473 9.4951,-12.1441 z m -79.6285,51.3967 c -10.6627,1.9111 -21.3528,2.3516 -31.8283,1.4594 10.6352,0.8922 21.3309,0.3911 31.8283,-1.4594 z m -102.9255,-29.1462 c -1.4594,-1.2942 -2.8805,-2.6271 -4.2849,-3.9874 1.3935,1.3603 2.8144,2.6767 4.2849,3.9874 z"
   id="path9"
   style="stroke-width:0.550757" />
  <path
   class="fil0"
   d="m 5107.6774,5221.4443 319.0977,463.6329 v 0.011 l -319.0977,-463.6329 z m 514.8368,748.0053 255.298,370.9295 -0.011,0.011 -255.2869,-370.9185 z m 435.5277,632.7925 386.7142,561.8605 -0.011,0.023 -386.7087,-561.8549 v -0.027 z m 559.3931,812.7469 269.3313,391.313 -0.011,0.022 -269.3312,-391.302 v -0.011 z m 436.8221,634.665 252.5331,366.9145 -0.2422,-0.3415 -0.2424,-0.3304 -336.1326,-488.3675 84.0786,122.1525 0.011,-0.023 z"
   id="path10"
   style="stroke-width:0.550757" />
  <path
   class="fil0"
   d="m 4803.9403,5399.0084 161.9061,1348.507 37.8921,315.6334 81.3082,677.2001 36.306,302.4097 0.011,-0.011 56.6234,471.6465 -0.011,0.011 35.2209,293.3058 h 0.011 l 53.3683,444.5436 -243.2419,29.2012 -462.6305,-3853.3782 c 84.1282,4.1086 166.0918,-6.2732 243.2418,-29.0745 z"
   id="path11"
   style="stroke-width:0.550757" />
  <path
   class="fil0"
   d="m 5177.9815,8514.4105 c 211.992,-171.2964 450.7452,-308.5287 707.8057,-405.6217 257.0383,-97.093 526.8708,-151.9704 799.1486,-163.5914 l 167.4908,243.3521 c -299.2539,-7.4297 -598.1774,42.9315 -880.0935,149.4204 -281.9106,106.4835 -539.4997,266.3187 -759.1362,469.7464 l -35.2209,-293.3058 z"
   id="path12"
   style="stroke-width:0.550757" />
  <path
   class="fil0"
   d="m 5085.0522,7740.3489 c 160.0666,-136.1032 342.9345,-244.294 541.0199,-319.1198 198.0853,-74.8093 406.7837,-114.5354 616.859,-118.2421 l 172.679,250.8974 c -238.0869,-21.0609 -478.4208,11.7091 -702.9645,96.5368 -224.5658,84.8166 -426.5615,219.1242 -591.2819,392.3429 l -36.3059,-302.4098 z"
   id="path13"
   style="stroke-width:0.550757" />
  <path
   class="fil0"
   d="m 4965.8519,6747.5154 c 97.6107,-84.354 209.6623,-151.2434 331.2695,-197.1767 121.6016,-45.9276 249.8785,-69.8195 378.8658,-71.0641 l 180.2242,261.863 c -157.2135,-31.7016 -321.0088,-18.8469 -472.5221,38.3822 -151.5298,57.2402 -282.9405,155.8974 -379.9454,283.629 z"
   id="path14"
   style="stroke-width:0.550757" />
  <path
   class="fil0"
   d="m 5037.4227,5862.79 c 60.3355,-22.7958 123.623,-35.8158 187.5329,-38.8229 l 195.7171,284.3505 c -88.9583,-45.2943 -195.9319,-54.3983 -296.6819,-16.3465 -100.7555,38.0628 -175.0307,115.6314 -211.8157,208.4616 l -41.1471,-342.7748 c 49.9371,-39.9904 106.0483,-72.0776 166.3947,-94.8679 z"
   id="path15"
   style="stroke-width:0.550757" />
  <path
   class="fil0"
   d="m 7306.4928,8416.1609 c 32.9629,45.5201 31.173,109.3639 -7.7106,153.127 -44.9307,50.5871 -122.3451,55.1639 -172.9322,10.2331 -8.0466,-7.1543 -14.9365,-15.1292 -20.6368,-23.6881 l 1.0794,1.5587 201.8085,-138.8954 -1.6083,-2.3298 z"
   id="path16"
   style="stroke-width:0.550757" />
  <path
   class="fil0"
   d="m 8771.3583,6769.2317 c 5.0835,7.2039 9.3188,14.854 12.6784,22.8013 -3.4092,-8.0355 -7.6555,-15.68 -12.6784,-22.8013 z m 19.4417,97.3298 c -1.9332,8.7019 -4.8301,17.2387 -8.702,25.4505 3.3597,-7.1543 6.0859,-14.7272 8.0576,-22.6967 z m -44.5672,70.1664 c -11.643,9.0435 -24.5969,15.7077 -38.1895,19.9705 13.8294,-4.3619 26.7722,-11.1418 38.1895,-19.9705 z m -83.7537,25.3019 c -17.2938,-1.2227 -34.4168,-6.1134 -50.1354,-14.7493 l 0.5783,0.3029 0.066,0.038 1.1787,0.617 h 0.021 c 8.5643,4.4885 17.795,8.0575 27.5929,10.4973 6.9066,1.7129 13.8296,2.7924 20.6975,3.2936 z"
   id="path17"
   style="stroke-width:0.550757" />
  <polygon
   class="fil0"
   points="9405.47,9332.63 15637.37,12614.07 15638.34,12614.6 14909.42,12230.78 14446.61,11987.09 13683.43,11585.24 13194.11,11327.58 12098.31,10750.58 12011.11,10704.68 10864.12,10100.72 10309.52,9808.71 9405.45,9332.66 "
   id="polygon17"
   transform="matrix(0.55075719,0,0,0.55075719,0.00471179,0.00720185)" />
  <path
   class="fil0"
   d="m 5107.6774,5221.4443 770.1238,1118.9459 v 0.011 l 180.2407,261.874 386.7087,561.844 v 0.011 l 172.6789,250.8974 v -0.011 l 269.3313,391.3019 v 0.011 l 167.4908,243.3521 v -0.011 l 253.855,368.8314 -201.8085,138.8954 L 4905.913,5360.4169 c 74.6331,-34.8079 142.8554,-81.8866 201.7699,-138.9671 z"
   id="path18"
   style="stroke-width:0.550757" />
  <path
   class="fil0"
   d="m 6886.7552,7806.3185 c 108.1083,-250.1814 255.7387,-482.6561 438.2211,-688.0885 182.4878,-205.4159 395.9062,-379.4056 631.6083,-516.2467 l 261.4004,137.6452 c -268.439,132.5012 -509.7203,316.0135 -709.8544,541.3117 -200.1452,225.2873 -353.9496,486.5334 -453.8845,768.7303 z"
   id="path19"
   style="stroke-width:0.550757" />
  <path
   class="fil0"
   d="m 6444.7451,7164.1191 c 78.4719,-194.9129 190.1214,-375.6935 330.7517,-533.9922 140.6138,-158.2986 306.9701,-290.4637 491.2589,-391.3735 l 269.4965,141.9081 c -220.6168,91.9984 -418.1844,232.7059 -577.6011,412.1646 -159.4167,179.4698 -275.8632,392.2658 -341.2271,622.1905 z"
   id="path20"
   style="stroke-width:0.550757" />
  <path
   class="fil0"
   d="m 5877.8012,6340.3956 c 47.2329,-120.054 115.3616,-231.3455 201.7037,-328.5377 86.3257,-97.181 188.8052,-177.9496 302.4484,-238.99 l 281.2827,148.0986 c -153.9422,44.9914 -293.0139,132.5011 -400.5822,253.5906 -107.5685,121.0895 -178.0874,269.5241 -204.6119,427.7071 l -180.2407,-261.874 z"
   id="path21"
   style="stroke-width:0.550757" />
  <path
   class="fil0"
   d="m 5530.0255,5523.7438 c 42.8324,-48.2132 92.8302,-89.1676 148.0216,-121.5245 l 305.4499,160.8266 c -99.8247,1.2227 -198.7904,42.8819 -270.3062,123.4027 -71.5378,80.5207 -101.2402,183.7216 -90.6766,283.0066 l -195.7336,-284.3836 c 25.6377,-58.6226 60.4015,-113.1035 103.2449,-161.3387 z"
   id="path22"
   style="stroke-width:0.550757" />
  <path
   class="fil0"
   d="m 8726.0144,6730.2491 c 50.2346,25.0374 78.2021,82.3272 64.1357,139.0662 -16.2749,65.6778 -82.6962,105.7068 -148.3739,89.4209 -10.4149,-2.5775 -20.1798,-6.4273 -29.1847,-11.3291 l 1.5862,0.8317 114.1334,-216.7726 -2.3022,-1.2171 z"
   id="path23"
   style="stroke-width:0.550757" />
  <path
   class="fil0"
   d="m 9199.3792,4577.6641 0.4902,-0.011 -0.4792,0.011 z m 50.5541,9.8861 c 12.75,5.4361 24.2167,12.9043 34.1139,21.9037 -10.0844,-9.1316 -21.6173,-16.5393 -34.1139,-21.9037 z m 68.2168,74.6056 c 3.4972,10.6903 5.546,21.9091 5.9756,33.409 -0.3139,-8.1347 -1.4484,-16.3575 -3.4587,-24.5693 -0.7325,-2.9907 -1.5751,-5.9372 -2.5169,-8.8397 z m -1.8011,81.132 c -6.576,17.5528 -16.8917,32.8583 -29.7904,45.2228 13.1686,-12.6784 23.3521,-28.1713 29.7904,-45.2228 z m -70.8989,71.2901 c -14.562,5.5956 -30.2917,8.4266 -46.4179,8.0741 h 0.7326 c 10.2386,0.1487 20.6643,-0.9804 31.0847,-3.5303 5.0284,-1.2448 9.8971,-2.7538 14.6006,-4.5493 z"
   id="path24"
   style="stroke-width:0.550757" />
  <path
   class="fil0"
   d="m 5294.3069,4923.2533 497.9121,262.1825 v 0.011 l 305.472,160.8487 -0.011,-0.011 398.4343,209.7944 v 0.011 l 281.2937,148.1206 -0.011,-0.022 603.5197,317.7869 v 0.011 l 269.5076,141.9081 v -0.011 l 420.3268,221.3329 v 0.011 l 261.3894,137.6343 v -0.011 l 396.1707,208.6104 -114.1334,216.7725 L 5180.13,5140.0143 c 49.1826,-64.2955 88.1653,-137.2597 114.172,-216.7671 z"
   id="path25"
   style="stroke-width:0.550757" />
  <path
   class="fil0"
   d="m 8070.7566,6385.2272 c -20.5488,-271.7765 2.1369,-546.2244 68.2553,-812.9341 66.1184,-266.6932 174.232,-519.9313 319.3456,-750.6324 l 295.4261,0.3909 c -176.1156,242.0744 -304.4805,516.6984 -376.9933,809.2 -72.5071,292.4962 -87.284,595.2915 -44.6388,891.6044 l -261.3894,-137.6343 z"
   id="path26"
   style="stroke-width:0.550757" />
  <path
   class="fil0"
   d="m 7380.9222,6021.9919 c -21.0885,-209.051 -6.2401,-421.0043 44.7049,-626.5304 50.9451,-205.5261 136.8301,-399.8552 253.1116,-574.8473 l 304.5796,0.413 c -152.5872,183.986 -262.1384,400.3951 -319.8962,633.3819 -57.758,232.9922 -61.9713,475.5292 -12.9924,709.4908 z"
   id="path27"
   style="stroke-width:0.550757" />
  <path
   class="fil0"
   d="m 6496.1142,5556.0953 c -13.9617,-128.2548 -5.3589,-258.4593 25.9187,-384.6378 31.272,-126.1674 84.4806,-245.3127 156.74,-352.1762 l 317.897,0.4241 c -115.4112,111.3687 -197.8816,253.4915 -236.8531,410.6941 -38.9716,157.2248 -32.4287,321.422 17.5911,473.8165 z"
   id="path28"
   style="stroke-width:0.550757" />
  <path
   class="fil0"
   d="m 5808.6646,4994.6039 c 15.5203,-62.5991 40.756,-122.0918 74.5835,-176.391 l 345.2036,0.4516 c -87.8127,47.4863 -156.0846,130.3642 -181.9977,234.8925 -25.9186,104.5392 -4.2629,209.7283 51.2315,292.7384 l -305.472,-160.8487 c -4.5493,-63.8216 0.9198,-128.2272 16.4456,-190.8428 z"
   id="path29"
   style="stroke-width:0.550757" />
  <path
   class="fil0"
   d="m 9199.517,4577.6641 c 56.0064,-1.0574 107.2544,36.642 121.15,93.3314 16.0986,65.7163 -24.1066,132.0275 -89.823,148.1262 -10.4534,2.5555 -20.9122,3.6845 -31.1894,3.5303 h 1.8726 l 0.3249,-244.9879 h -2.3297 z"
   id="path30"
   style="stroke-width:0.550757" />
  <path
   class="fil0"
   d="m 8667.9371,2436.882 c 12.6234,-0.9529 25.0759,0.077 36.9943,2.8805 -12.1111,-2.8199 -24.6077,-3.7947 -36.9943,-2.8805 z m 96.6303,36.4931 c 6.4879,6.6146 12.271,14.0113 17.1671,22.0854 -3.7121,-6.1134 -8.0245,-11.9734 -12.9262,-17.5196 -1.3934,-1.5586 -2.8033,-3.0842 -4.2409,-4.5658 z m 34.6041,76.4726 c 1.118,14.5126 -0.391,28.7992 -4.1968,42.2927 3.8498,-13.7468 5.2598,-28.0831 4.1968,-42.2927 z m -30.3412,90.2802 c -1.2667,1.432 -2.5555,2.8309 -3.8829,4.2022 m -0.099,0.1102 c -8.5146,8.7626 -18.4007,16.3245 -29.4159,22.2946 7.975,-4.3289 15.5919,-9.6327 22.6857,-15.8947 2.3407,-2.0764 4.5933,-4.2024 6.7302,-6.3999 z m -32.9958,24.1673 -0.1652,0.077 0.1101,-0.061 0.061,-0.023 z"
   id="path31"
   style="stroke-width:0.550757" />
  <path
   class="fil0"
   d="m 5181.242,4249.5506 498.7437,-260.9102 z m 804.6453,-420.9382 398.9961,-208.7315 z m 680.6698,-356.0811 604.3733,-316.1622 z m 874.2499,-457.3432 420.9161,-220.1928 z m 682.6801,-357.133 394.5294,-206.3853 -0.05,0.027 -394.4798,206.3687 z"
   id="path32"
   style="stroke-width:0.550757" />
  <path
   class="fil0"
   d="m 5320.9141,4572.454 562.6645,0.7546 0.011,0.011 345.2366,0.4626 -0.011,-0.011 450.2881,0.6058 0.011,0.011 317.9026,0.4295 -0.011,-0.011 682.0633,0.9087 0.011,0.023 304.5852,0.402 -0.011,-0.011 475.028,0.6389 0.011,0.011 295.4152,0.391 447.738,0.6004 -0.3249,244.9878 -3881.1033,-5.2157 c 1.9001,-11.2079 3.5854,-22.5094 4.9898,-33.9046 8.8507,-72.0555 6.89,-142.9435 -4.4997,-211.0832 z"
   id="path33"
   style="stroke-width:0.550757" />
  <path
   class="fil0"
   d="m 8458.699,4576.6784 c -144.4857,-231.0923 -251.944,-484.6444 -317.3463,-751.5303 -65.4025,-266.8694 -87.3501,-541.3502 -66.0689,-813.0553 l 261.7639,-136.9458 c -43.4437,296.1917 -29.4765,599.0145 42.2431,891.7035 71.725,292.6888 199.3521,567.6764 374.8178,810.2188 l -295.4152,-0.3909 z"
   id="path34"
   style="stroke-width:0.550757" />
  <path
   class="fil0"
   d="m 7679.0801,4575.6374 c -115.8187,-175.3115 -201.1751,-369.8886 -251.5749,-575.5523 -50.3998,-205.6528 -64.6754,-417.6337 -43.0306,-626.6185 l 269.8765,-141.1811 c -49.6067,233.813 -46.0378,476.3499 11.0922,709.4909 57.1411,233.1466 166.1194,449.8641 318.2165,634.263 l -304.5852,-0.402 z"
   id="path35"
   style="stroke-width:0.550757" />
  <path
   class="fil0"
   d="m 6679.1143,4574.2826 c -71.9674,-107.0673 -124.8677,-226.3558 -155.8037,-352.6224 -30.9361,-126.2445 -39.1863,-256.4711 -24.8721,-384.6763 l 281.6737,-147.3551 c -50.4274,152.2458 -57.4165,316.4155 -18.8635,473.7282 38.5531,157.3183 120.6599,299.6671 235.7682,411.3606 l -317.9026,-0.4296 z"
   id="path36"
   style="stroke-width:0.550757" />
  <path
   class="fil0"
   d="m 5809.4687,4396.5918 c -15.3551,-62.6487 -20.6479,-127.0488 -15.9334,-190.843 l 305.8685,-160.028 c -55.6926,82.856 -77.6237,187.9625 -51.9859,292.5623 25.6377,104.6108 93.6948,187.687 181.4084,235.3936 l -345.2367,-0.4626 c -33.6788,-54.4094 -58.7658,-113.9682 -74.1209,-176.6279 z"
   id="path37"
   style="stroke-width:0.550757" />
  <path
   class="fil0"
   d="m 8618.0165,2451.6698 c 49.1165,-27.0587 112.1176,-17.5141 150.7918,26.2711 44.8041,50.7027 40.0125,128.1006 -10.6902,172.8993 -8.1237,7.1708 -16.9247,13.0749 -26.172,17.7178 l 1.8506,-0.9694 -113.5662,-217.0754 z"
   id="path38"
   style="stroke-width:0.550757" />
  <path
   class="fil0"
   d="m 7250.0017,788.94486 c 12.3755,3.40918 24.3104,8.77906 35.276,16.0821 -7.4572,-4.95682 -15.5809,-9.16459 -24.3049,-12.48566 -3.635,-1.39342 -7.303,-2.57754 -10.9766,-3.59644 z m 67.589,47.56889 c 12.838,18.186 20.0805,38.95506 21.8705,60.02152 -1.8726,-21.64476 -9.484,-42.38076 -21.8705,-60.02152 z m 21.8815,60.15921 c 0.1542,1.83403 0.2644,3.67355 0.3415,5.50757 -0.066,-1.84504 -0.1873,-3.67354 -0.3415,-5.50757 z m -0.727,27.17436 c -2.6657,19.39217 -9.9963,38.23907 -21.843,54.69023 l 1.2337,-1.78449 -0.023,-0.022 c 5.4966,-7.95845 10.145,-16.68794 13.7415,-26.13344 3.3595,-8.82863 5.6452,-17.78394 6.8899,-26.75027 z"
   id="path39"
   style="stroke-width:0.550757" />
  <polygon
   class="fil0"
   points="12590.37,2780.38 9276.54,7567.5 9276.51,7567.46 13287.1,1773.79 13287.36,1773.42 13287.4,1773.46 12824.68,2441.89 "
   id="polygon39"
   transform="matrix(0.55075719,0,0,0.55075719,0.00471179,0.00720185)" />
  <path
   class="fil0"
   d="m 5181.242,4249.5396 498.7437,-260.8992 0.011,0.011 305.9016,-160.0335 h -0.011 l 398.9961,-208.7315 0.011,0.011 281.6848,-147.3552 -0.023,-0.011 604.3733,-316.1622 0.011,0.011 269.8875,-141.1812 -0.023,-0.011 420.9162,-220.1928 0.023,0.011 261.7528,-136.9404 -0.011,-0.011 396.7435,-207.5418 113.5661,217.0754 L 5294.956,4466.554 c -25.6543,-78.6426 -64.2844,-151.9318 -113.7148,-217.0204 z"
   id="path40"
   style="stroke-width:0.550757" />
  <path
   class="fil0"
   d="M 7961.7452,2795.0063 C 7726.4121,2657.5318 7513.4398,2482.9638 7331.4918,2277.0357 7149.5656,2071.1186 7002.5741,1838.286 6895.1433,1587.8072 l 168.1517,-242.9115 c 99.1693,282.4613 252.2688,544.104 451.7971,769.9365 199.5284,225.838 440.3304,410.0002 708.4115,543.2338 l -261.7529,136.9403 z"
   id="path41"
   style="stroke-width:0.550757" />
  <path
   class="fil0"
   d="m 7270.9415,3156.3802 c -184.0246,-101.4054 -350.0283,-234.0223 -490.229,-392.7065 -140.1897,-158.6731 -251.349,-339.7456 -329.3032,-534.8568 l 173.3508,-250.4238 c 64.736,230.0899 180.6042,443.1833 339.5418,623.0717 158.9376,179.8883 356.1526,321.1299 576.5216,413.7342 l -269.8875,141.1812 z"
   id="path42"
   style="stroke-width:0.550757" />
  <path
   class="fil0"
   d="m 6384.8943,3619.8919 c -113.489,-61.3543 -215.7536,-142.3983 -301.8314,-239.8217 -86.0669,-97.418 -153.8927,-208.8857 -200.7896,-329.0554 l 180.9293,-261.3839 c 26.1058,158.2436 96.2118,306.849 203.4551,428.2247 107.2435,121.387 246.0949,209.2768 399.9268,254.6813 l -281.6846,147.355 z"
   id="path43"
   style="stroke-width:0.550757" />
  <path
   class="fil0"
   d="m 5532.2781,3866.7028 c -42.7057,-48.34 -77.3263,-102.9035 -102.8044,-161.5812 l 196.4772,-283.8437 c -10.8114,99.2409 18.61,202.5079 89.9221,283.2159 71.312,80.7079 170.1895,122.6425 270.0253,124.1186 l -305.9016,160.0335 c -55.1143,-32.5222 -105.0018,-73.6032 -147.7186,-121.9431 z"
   id="path44"
   style="stroke-width:0.550757" />
  <path
   class="fil0"
   d="m 7115.4022,839.11884 c 30.9745,-46.61609 91.0566,-67.33007 145.5706,-46.57754 63.2269,24.06808 94.956,94.82937 70.8769,158.05629 -3.5965,9.4455 -8.2393,18.18051 -13.7468,26.14445 l -201.4395,-139.44622 -1.2668,1.82302 z"
   id="path45"
   style="stroke-width:0.550757" />
  <path
   class="fil0"
   d="m 5035.3078,110.46707 0.1102,-0.99137 -0.027,0.38002 -0.077,0.60583 z m 13.042,-44.066089 c 8.7405,-16.990859 21.0664,-31.23344 35.678,-42.099879 -14.942,11.141818 -27.1522,25.593686 -35.678,42.099879 z m 82.0133,-63.3811373 c 12.8271,-2.90249041 26.194,-3.75065649 39.6214,-2.32970293 -8.9167,-0.9197645 -18.0703,-0.88121151 -27.3395,0.2368256 -4.1748,0.51220423 -8.2724,1.20615823 -12.2765,2.09838483 z m 88.2368,13.4935513 c 11.0757,6.388783 20.8517,14.347225 29.1626,23.478779 -8.4652,-9.269243 -18.3072,-17.189132 -29.1626,-23.478779 z m 58.8264,82.294136 c 1.9882,10.007259 2.7317,20.311929 2.1369,30.682689 0.402,-7.07724 0.1762,-14.27563 -0.694,-21.55664 -0.3745,-3.07873 -0.8537,-6.12441 -1.4429,-9.126049 z"
   id="path46"
   style="stroke-width:0.550757" />
  <path
   class="fil0"
   d="m 4562.6811,3959.7036 68.5747,-558.5504 0.023,-0.011 -68.5858,558.5615 z m 110.6471,-901.182 54.8775,-446.9615 0.022,-0.011 -54.8664,446.934 -0.011,0.011 z m 93.6233,-762.4793 83.1202,-676.9962 0.022,-0.011 -83.1204,676.9852 z m 120.2413,-979.3013 57.8956,-471.50325 h 0.023 l -57.8846,471.48125 h -0.011 z m 93.8985,-764.70986 54.2882,-442.13136 -0.05,0.49018 -54.2275,441.63567 -0.011,0.0111 z"
   id="path47"
   style="stroke-width:0.550757" />
  <path
   class="fil0"
   d="m 4907.769,4028.2784 320.2488,-462.6305 196.4992,-283.8603 256.2839,-370.2356 h 0.011 l 180.9403,-261.3838 388.2067,-560.814 h 0.011 l 173.3508,-250.4238 h -0.011 l 270.3778,-390.586 h 0.011 l 168.1406,-242.9004 h -0.011 L 7116.6744,837.29582 7318.1138,976.74204 5109.1149,4167.8457 c -58.2096,-56.8491 -126.0518,-104.3134 -201.3403,-139.5618 z"
   id="path48"
   style="stroke-width:0.550757" />
  <path
   class="fil0"
   d="m 6693.6928,1448.3389 c -272.2668,-12.3645 -541.967,-67.9579 -798.7741,-165.7504 -256.7685,-97.7814 -495.1308,-235.6304 -706.66,-407.48319 l 36.0029,-293.21762 c 219.0747,204.00597 476.2233,364.52966 757.842,471.76761 281.6296,107.2379 580.4319,158.4088 879.7299,151.7831 z"
   id="path49"
   style="stroke-width:0.550757" />
  <path
   class="fil0"
   d="m 6249.9643,2089.3542 c -210.0698,-4.2628 -418.6911,-44.5508 -616.5837,-119.8943 -197.8705,-75.3491 -380.4245,-184.0246 -540.1276,-320.5408 l -0.011,-0.011 37.1321,-302.3051 c 164.2468,173.6482 365.8624,308.49 590.1914,393.9015 224.3289,85.4335 464.5912,118.8478 702.7496,98.4257 z"
   id="path50"
   style="stroke-width:0.550757" />
  <path
   class="fil0"
   d="m 5680.8118,2911.5466 c -128.9983,-1.5862 -257.2256,-25.8195 -378.7117,-72.0831 -121.4859,-46.2527 -233.3337,-113.4395 -330.7131,-198.0468 l 38.7348,-315.5123 c 96.6523,127.9795 227.7987,226.978 379.1522,284.6148 151.3701,57.6423 315.1598,70.9266 472.4726,39.649 l -180.9403,261.3838 z"
   id="path51"
   style="stroke-width:0.550757" />
  <path
   class="fil0"
   d="m 5040.5511,3526.3182 c -60.2749,-22.961 -116.2924,-55.1803 -166.1083,-95.3085 l 42.0612,-342.6206 c 36.5538,92.9018 110.5866,170.6467 211.2374,208.9739 100.651,38.3272 207.6906,29.504 296.7756,-15.5809 l -196.4992,283.8602 c -63.9044,-3.1834 -127.1753,-16.374 -187.4612,-39.3241 z"
   id="path52"
   style="stroke-width:0.550757" />
  <path
   class="fil0"
   d="m 5035.3465,110.2798 c 5.5681,-55.868802 49.2211,-102.3967703 107.293,-109.36384878 67.1757,-8.06308542 128.1556,39.83626778 136.2242,107.01212878 1.2832,10.71222 1.1456,21.27575 -0.2643,31.48679 l 0.2368,-1.94968 -243.1649,-29.85104 z"
   id="path53"
   style="stroke-width:0.550757" />
  <path
   class="fil0"
   d="m 2846.0481,382.1666 c 0.3524,-14.37476 3.2219,-28.25384 8.2393,-41.14706 -5.0835,13.14106 -7.8704,27.07521 -8.2393,41.14706 z m 41.6262,-88.89221 c 9.7318,-8.57529 20.8901,-15.64701 33.1335,-20.81311 -7.4958,3.17236 -14.7768,7.15434 -21.7439,11.94592 -4.0205,2.76481 -7.8097,5.72237 -11.3896,8.86719 z m 83.2469,-30.44585 c 14.7768,0.27537 29.0579,3.22192 42.2761,8.41006 -13.4825,-5.25973 -27.8132,-8.11265 -42.2761,-8.41006 z m 89.2558,41.21866 c 1.2336,1.39342 2.4288,2.80336 3.5963,4.25185 m 0.067,0.0771 c 7.6445,9.44549 13.9176,20.09163 18.511,31.67956 -3.3321,-8.36049 -7.6335,-16.47315 -12.9428,-24.19476 -1.7735,-2.58856 -3.635,-5.07799 -5.5682,-7.4848 z m 19.7446,34.88496 0.2424,0.69396 0.088,0.23682 -0.077,-0.20377 -0.066,-0.20379 -0.1873,-0.51771 z"
   id="path54"
   style="stroke-width:0.550757" />
  <path
   class="fil0"
   d="m 3083.8099,343.88898 -0.027,-0.0771 136.5383,361.47297 -136.5052,-361.39586 z m 537.3738,1422.69952 833.2515,2206.0194 z"
   id="path55"
   style="stroke-width:0.550757" />
  <path
   class="fil0"
   d="m 4562.6922,3959.7036 68.5857,-558.5615 42.0779,-342.659 -0.011,0.023 54.8775,-446.956 h 0.011 l 38.7458,-315.5343 -0.023,0.011 83.1313,-676.9852 h 0.011 l 37.121,-302.3161 h -0.011 l 57.8956,-471.48126 0.011,-0.011 35.9919,-293.21212 54.5636,-444.40598 243.1648,29.85104 -472.9793,3852.09492 c -38.7347,-11.4943 -78.9125,-19.9925 -120.3459,-25.076 -41.4224,-5.0834 -82.4649,-6.565 -122.8188,-4.7805 z"
   id="path56"
   style="stroke-width:0.550757" />
  <path
   class="fil0"
   d="m 4945.1158,845.23224 c -246.8272,115.57639 -511.4827,191.68556 -784.3112,224.44456 -272.8065,32.7481 -547.9373,21.452 -815.0931,-32.4176 l -98.4258,-260.55768 -5.9703,-15.80673 c 288.7896,78.82437 591.0837,101.466 890.2935,65.55113 299.2099,-35.9259 587.5644,-129.48303 849.4989,-274.4258 z"
   id="path57"
   style="stroke-width:0.550757" />
  <path
   class="fil0"
   d="m 4850.0992,1619.0351 c -187.9954,93.849 -391.4396,155.1262 -601.6692,180.3674 -210.2294,25.2358 -422.3866,13.8571 -627.2463,-32.8196 l -107.6179,-284.9287 c 226.1353,77.4255 467.3284,103.1183 705.6521,74.5065 238.3401,-28.6119 466.6125,-110.6747 668.0024,-239.4417 z"
   id="path58"
   style="stroke-width:0.550757" />
  <path
   class="fil0"
   d="m 4728.2332,2611.5491 c -114.9651,58.54 -239.7611,96.6744 -368.8311,112.1672 -129.0699,15.5038 -259.335,7.997 -384.8746,-21.6778 l -112.3324,-297.3868 c 145.0639,68.4205 307.1958,95.1323 468.0058,75.8282 160.8211,-19.315 312.0261,-83.66 436.7836,-184.465 l -38.7458,315.5342 z"
   id="path59"
   style="stroke-width:0.550757" />
  <path
   class="fil0"
   d="m 4447.0055,3453.4421 c -64.042,7.6831 -128.6073,5.1826 -191.3715,-7.193 l -121.9818,-322.9309 c 75.5254,65.2758 177.2227,99.7201 284.1577,86.882 106.9405,-12.8382 197.6172,-70.3923 255.5514,-151.7171 l -42.0779,342.659 c -58.0608,26.8826 -120.2193,44.6059 -184.2668,52.3 z"
   id="path60"
   style="stroke-width:0.550757" />
  <path
   class="fil0"
   d="m 2854.8161,430.94717 c -20.9508,-52.03554 -3.8884,-113.41743 44.2423,-146.53997 55.7311,-38.36574 131.9889,-24.28288 170.3437,31.45375 6.1134,8.87821 10.8774,18.26861 14.3748,27.94542 l -0.6775,-1.78446 -229.1811,86.56802 0.8922,2.35173 z"
   id="path61"
   style="stroke-width:0.550757" />
  <path
   class="fil0"
   d="m 1039.2174,1681.5461 c -2.5003,-6.097 -4.4776,-12.326 -5.9481,-18.6267 1.4815,6.3502 3.4808,12.5849 5.9481,18.6267 z m 3.6185,-100.8051 c 3.1284,-6.3227 6.8184,-12.4086 11.0537,-18.1696 -3.5579,4.8522 -6.8018,10.0238 -9.6933,15.5038 z m 57.0419,-56.1828 c 15.2505,-7.292 31.4758,-11.1694 47.7066,-11.8192 -16.5612,0.6939 -32.7976,4.7254 -47.7066,11.8192 z m 95.9364,-4.0371 c 14.452,5.447 27.9896,13.6313 39.6986,24.4206 l -0.4406,-0.391 -0.1267,-0.1156 -0.9914,-0.8703 h -0.011 c -7.2315,-6.4273 -15.3442,-12.0946 -24.294,-16.8036 -4.5492,-2.4012 -9.1646,-4.4611 -13.835,-6.2346 z"
   id="path62"
   style="stroke-width:0.550757" />
  <polygon
   class="fil0"
   points="7508.84,7482.65 2243.33,2805.17 2242.58,2804.47 7508.85,7482.65 "
   id="polygon62"
   transform="matrix(0.55075719,0,0,0.55075719,0.00471179,0.00720185)" />
  <path
   class="fil0"
   d="m 4225.3038,4059.3135 -198.8729,-526.5183 -57.7304,-152.8241 -223.3706,-591.3811 -112.3214,-297.3923 -0.011,0.022 -241.0058,-638.0852 0.011,-0.011 -107.6291,-284.9287 -167.8543,-444.384 -104.3849,-276.36443 v 0.011 L 2853.9239,428.6002 3083.1049,342.03218 4454.4352,3972.6127 c -81.5781,16.0049 -158.8988,45.6192 -229.1314,86.7057 z"
   id="path63"
   style="stroke-width:0.550757" />
  <path
   class="fil0"
   d="m 3116.5249,1123.8107 c -164.8362,217.0369 -363.8082,407.4227 -590.1639,563.2153 -226.3392,155.7817 -475.1988,273.6383 -736.7919,350.0944 l -220.8592,-196.1963 c 292.3475,-64.411 570.5349,-184.8451 818.7777,-355.701 248.2427,-170.8559 460.086,-387.6945 624.6578,-637.77681 l 104.385,276.36441 z"
   id="path64"
   style="stroke-width:0.550757" />
  <path
   class="fil0"
   d="m 3392.0027,1853.129 c -122.8464,170.4703 -274.514,319.2794 -448.9333,439.3224 -174.4192,120.0541 -367.5699,208.5607 -570.645,262.4413 l -227.7106,-202.282 c 236.2143,-36.5318 461.7218,-125.8757 659.4547,-261.9623 197.7328,-136.0975 361.7208,-314.8458 480.2051,-522.4482 z"
   id="path65"
   style="stroke-width:0.550757" />
  <path
   class="fil0"
   d="m 3745.3354,2788.5956 c -74.5835,105.2662 -167.3641,197.0168 -274.4534,270.7191 -107.0781,73.7024 -225.9095,127.5885 -350.8599,159.6645 L 2882.354,3007.8685 c 160.2317,-6.8404 316.2117,-58.5345 449.6271,-150.3513 133.4319,-91.8386 237.4094,-219.0856 301.0274,-366.3141 l 112.3214,297.3925 z"
   id="path66"
   style="stroke-width:0.550757" />
  <path
   class="fil0"
   d="m 3887.5739,3664.7345 c -53.1315,36.5703 -111.4677,64.3616 -172.8055,82.5806 l -258.0793,-229.2582 c 97.2086,22.6967 203.2679,5.9262 291.9839,-55.1198 88.727,-61.068 142.2605,-154.1679 155.7651,-253.1004 l 121.9928,322.964 c -38.9221,50.7908 -85.7144,95.3691 -138.857,131.9394 z"
   id="path67"
   style="stroke-width:0.550757" />
  <path
   class="fil0"
   d="m 1072.9678,1728.2502 c -42.601,-36.3555 -55.9623,-98.5414 -28.7715,-150.175 31.5253,-59.8672 105.5911,-82.8338 165.4529,-51.3195 9.5172,5.0064 18.0924,11.1143 25.6763,18.0429 l -1.3823,-1.2338 -162.6992,183.1598 1.7238,1.5312 z"
   id="path68"
   style="stroke-width:0.550757" />
  <path
   class="fil0"
   d="m 49.258928,3681.5932 c -9.214168,-7.3085 -17.161595,-15.7682 -23.743143,-25.0869 6.6917,9.4454 14.69971,17.883 23.743143,25.0869 z M 3.3588231,3594.9757 c -1.0794841,-13.9838 0.2423332,-28.2429 4.1472017,-42.188 -2.9024904,10.4258 -4.4666409,21.4189 -4.4886712,32.7701 -0.011015,3.1667 0.1101514,6.3006 0.3414695,9.4179 z M 24.034248,3517.071 c 11.318061,-16.776 26.282134,-29.9942 43.223425,-39.1312 -17.365375,9.3959 -32.202774,22.8509 -43.223425,39.1312 z m 81.082472,-52.1456 c 1.61923,-0.2754 3.24396,-0.5178 4.87971,-0.727 -1.64676,0.2148 -3.26048,0.4516 -4.87971,0.727 z m 5.01741,-0.7435 c 15.1403,-1.9112 30.72123,-1.03 45.96067,2.9024 l -1.10701,-0.2644 c -9.39041,-2.3131 -19.1994,-3.5743 -29.3113,-3.5854 -5.25973,-0.011 -10.45337,0.3139 -15.54236,0.9528 z"
   id="path69"
   style="stroke-width:0.550757" />
  <path
   class="fil0"
   d="m 3972.71,4304.1636 -1015.4145,-902.0245 -237.6683,-211.1274 -509.935,-452.9812 -227.7106,-202.2821 v 0.011 l -355.1447,-315.4847 v -0.011 l -220.8592,-196.1852 -334.7392,-297.3538 162.6991,-183.1598 2901.6038,2577.5658 c -63.6952,51.1929 -118.9361,112.9381 -162.837,183.033 z"
   id="path70"
   style="stroke-width:0.550757" />
  <path
   class="fil0"
   d="m 1626.8478,2220.2636 c -45.0849,268.7916 -132.793,529.8284 -260.8221,772.9713 -128.0125,243.1262 -293.6031,463.1317 -489.7002,652.3884 l -286.74072,-71.0752 c 228.92774,-192.8917 419.28052,-428.8141 559.68502,-695.4577 140.399,-266.6545 227.2093,-557.1074 256.7189,-855.012 z"
   id="path71"
   style="stroke-width:0.550757" />
  <path
   class="fil0"
   d="m 2209.6976,2738.0305 c -29.5536,208.021 -94.6916,410.2645 -193.3433,597.6321 -98.6516,187.3456 -228.5311,355.4862 -383.3269,497.5596 l -295.63,-73.2783 c 192.1867,-142.1228 350.3531,-326.0261 462.1844,-538.4201 111.8422,-212.4051 173.9676,-446.8845 182.4053,-685.7699 l 227.7105,202.2821 z"
   id="path72"
   style="stroke-width:0.550757" />
  <path
   class="fil0"
   d="m 2957.3009,3402.1391 c -17.1285,127.8637 -56.6398,252.2303 -117.212,367.2559 -60.5614,115.0256 -140.7405,217.9621 -236.4732,304.4309 l -308.5562,-76.4835 c 138.7027,-80.5152 252.7976,-198.7738 328.2513,-342.0919 75.4647,-143.318 108.4111,-304.3154 96.3164,-464.2388 l 237.6683,211.1274 z"
   id="path73"
   style="stroke-width:0.550757" />
  <path
   class="fil0"
   d="m 3490.4009,4111.8282 c -30.0438,57.0695 -68.7896,108.7911 -114.6236,153.419 l -335.0641,-83.0597 c 96.6248,-25.0871 182.7411,-89.2172 232.9152,-184.5037 50.1849,-95.2975 54.3266,-202.6125 20.3119,-296.4947 l 258.1013,229.2803 c -10.8554,63.0507 -31.5859,124.2784 -61.6407,181.3588 z"
   id="path74"
   style="stroke-width:0.550757" />
  <path
   class="fil0"
   d="M 98.60677,3705.2482 C 43.839477,3692.9719 2.93474,3644.0316 3.0118461,3585.5578 3.0999672,3517.9027 58.015967,3463.1409 125.67098,3463.229 c 10.10089,0.011 19.92089,1.2668 29.3113,3.5854 l -58.942036,237.795 z"
   id="path75"
   style="stroke-width:0.550757" />
  <path
   class="fil0"
   d="m 154.31586,5908.5029 -0.47915,0.1266 0.13768,-0.038 z m -51.74364,2.5389 c -13.39441,-2.1975 -26.056319,-6.576 -37.62222,-12.739 11.769681,6.2512 24.49768,10.5525 37.62222,12.739 z m -87.129784,-61.3929 c -3.871823,-6.956 -7.0827375,-14.3472 -9.5666525,-22.0578 2.1149076,6.565 4.8026025,13.042 8.1126535,19.3647 l 1.448491,2.6931 z M 3.2982398,5762.0345 c 2.4618847,-10.4534 6.2510941,-20.3945 11.2024012,-29.6252 -4.9953676,9.3683 -8.7680544,19.326 -11.2024012,29.6252 z m 54.3377042,-75.7622 c 8.641381,-5.3974 18.004254,-9.7594 27.901361,-12.8987 -6.713731,2.148 -13.328325,4.8797 -19.783199,8.2613 -2.781324,1.4595 -5.485542,3.0072 -8.112653,4.6374 z m 37.0219,-15.4046 0.952809,-0.2148 -0.627863,0.1487 z"
   id="path76"
   style="stroke-width:0.550757" />
  <path
   class="fil0"
   d="m 3921.1591,4985.4228 -546.5659,133.9276 546.5659,-133.9387 z m -881.8724,216.1006 -437.3398,107.1773 -0.011,-0.011 437.3508,-107.1664 335.3065,-82.1674 m -1081.4007,265.0078 -662.4839,162.3468 -0.011,-0.011 662.4837,-162.3467 z m -958.3011,234.8374 -461.39129,113.065 -0.011,-0.011 461.38039,-113.0649 z m -748.32477,183.3801 -432.46006,105.9822 0.40205,-0.1101 571.22333,-139.975 -139.15982,34.1029 z"
   id="path77"
   style="stroke-width:0.550757" />
  <path
   class="fil0"
   d="m 3863.1038,4638.4788 -546.2906,-135.4312 v -0.011 l -335.0917,-83.0708 0.011,0.011 -437.0644,-108.3505 v -0.011 l -308.5673,-76.4947 0.011,0.023 -662.0212,-164.1201 -0.011,-0.023 -295.6299,-73.2782 0.011,0.011 -461.09394,-114.2986 v -0.011 l -286.73522,-71.0863 v 0.011 L 96.045262,3704.6149 154.9873,3466.8199 3921.9077,4400.6398 c -27.5489,63.3646 -46.5941,131.686 -55.4448,203.7526 -1.3989,11.3952 -2.4784,22.7628 -3.3541,34.0919 z"
   id="path78"
   style="stroke-width:0.550757" />
  <path
   class="fil0"
   d="m 817.36143,3883.4238 c 84.99285,258.9494 128.64587,530.8473 128.27686,805.6365 -0.37451,274.7673 -44.74352,546.5275 -130.4193,805.2401 L 528.28,5564.621 c 113.06494,-277.1795 171.97944,-574.5443 172.38149,-875.8967 0.40206,-301.3523 -57.70833,-598.8878 -170.02976,-876.3868 l 286.73521,71.0863 z"
   id="path79"
   style="stroke-width:0.550757" />
  <path
   class="fil0"
   d="m 1574.0743,4071.0062 c 70.508,197.942 106.8139,407.2848 106.5274,619.0345 -0.2864,211.7385 -37.1595,420.9767 -108.1852,618.7096 l -295.8282,72.4961 c 104.1316,-215.1587 158.7006,-451.4887 159.0256,-691.5306 0.325,-240.0476 -53.6327,-476.5483 -157.1751,-691.9879 l 295.6299,73.2783 z"
   id="path80"
   style="stroke-width:0.550757" />
  <path
   class="fil0"
   d="m 2544.6626,4311.6209 c 44.2534,121.1886 67.0658,249.6693 66.8895,379.67 -0.1762,129.9898 -23.33,258.4043 -67.9083,379.4441 l -308.76,75.6741 c 85.4004,-135.7507 131.4712,-293.482 131.686,-455.4486 0.2148,-161.9777 -45.432,-319.8358 -130.4689,-455.8342 l 308.5673,76.4946 z"
   id="path81"
   style="stroke-width:0.550757" />
  <path
   class="fil0"
   d="m 3346.5155,4692.2712 c -0.088,64.4992 -10.3597,128.3045 -30.2034,189.119 l -335.29,82.1675 c 73.9061,-67.1153 120.3569,-163.9163 120.5056,-271.6114 0.1378,-107.7061 -46.0598,-204.6614 -119.8062,-271.9749 l 335.0917,83.0706 c 19.6786,60.8863 29.7905,124.7191 29.7023,189.2292 z"
   id="path82"
   style="stroke-width:0.550757" />
  <path
   class="fil0"
   d="m 154.17817,5908.5304 c -54.183489,14.551 -113.097987,-9.7869 -140.184226,-61.5802 -31.365622,-59.9443 -8.1897589,-133.9607 51.760162,-165.3153 8.955312,-4.6813 18.224556,-8.1347 27.62598,-10.4478 l 58.308664,237.9491 z"
   id="path83"
   style="stroke-width:0.550757" />
  <path
   class="fil0"
   d="m 1180.1562,7860.6672 c -12.2764,3.7617 -24.8392,5.4856 -37.2698,5.3313 12.6289,0.1378 25.2138,-1.6577 37.2698,-5.3313 z m -95.1048,-9.9962 c -11.3896,-6.2842 -21.843,-14.4244 -30.8699,-24.2553 6.0253,6.5484 12.8547,12.5352 20.4827,17.8059 3.3927,2.3407 6.8569,4.4887 10.3872,6.4494 z m -55.9734,-65.7934 c -5.7333,-15.9169 -7.9695,-32.4562 -6.9946,-48.6374 -0.9583,16.5337 1.432,33.0949 6.9946,48.6374 z m 5.2047,-95.0828 c 7.259,-14.9145 17.5912,-28.4686 30.6441,-39.5609 l -0.391,0.3415 -0.2754,0.2368 -0.9914,0.8813 c -7.2425,6.4108 -13.846,13.7799 -19.6014,22.0853 -3.5745,5.1717 -6.7027,10.5139 -9.3904,16.0105 z"
   id="path84"
   style="stroke-width:0.550757" />
  <polygon
   class="fil0"
   points="7211.47,9227.2 1933.66,13890.31 1932.72,13891.11 7211.47,9227.19 "
   id="polygon84"
   transform="matrix(0.55075719,0,0,0.55075719,0.00471179,0.00720185)" />
  <path
   class="fil0"
   d="m 3921.1591,4985.4117 -546.5659,133.9387 -335.3065,82.1675 h 0.011 l -437.3508,107.1773 -0.011,-0.011 -308.7599,75.663 0.023,0.011 -662.4838,162.3466 -0.011,-0.011 -295.8282,72.4851 0.023,0.011 -461.3914,113.0649 -0.011,-0.011 -286.92797,70.3206 L 151.69426,5909.1362 93.385595,5671.1871 3862.8449,4747.4682 c 6.0143,83.4232 26.1445,163.6519 58.3142,237.9435 z"
   id="path85"
   style="stroke-width:0.550757" />
  <path
   class="fil0"
   d="m 873.4891,5732.2495 c 195.5959,189.8075 360.6028,410.2646 487.9764,653.7543 127.3625,243.4678 214.3657,504.7139 258.7347,773.6211 l -221.3879,195.607 C 1370.1124,7057.2502 1284.0785,6766.566 1144.401,6499.5534 1004.707,6232.5298 814.98216,5996.0843 586.56664,5802.5758 l 286.92797,-70.3208 z"
   id="path86"
   style="stroke-width:0.550757" />
  <path
   class="fil0"
   d="m 1630.6977,5546.6994 c 154.4212,142.492 283.8602,310.9851 382.0106,498.606 98.1395,187.6209 162.7322,390.0297 191.7351,598.1224 l -228.2613,201.6652 c -7.7821,-238.902 -69.2907,-473.53 -180.5547,-686.2159 -111.2751,-212.708 -268.9458,-397.0354 -460.7635,-539.687 l 295.8282,-72.4852 z"
   id="path87"
   style="stroke-width:0.550757" />
  <path
   class="fil0"
   d="m 2601.9304,5308.6897 c 95.5068,86.7333 175.4107,189.9066 235.669,305.0974 60.2584,115.1744 99.4337,239.6345 116.2098,367.5479 l -238.2246,210.4828 c 12.5243,-159.8902 -19.9814,-320.9647 -95.0661,-464.4755 -75.0848,-143.5219 -188.8657,-262.0888 -327.3536,-342.9896 l 308.76,-75.663 z"
   id="path88"
   style="stroke-width:0.550757" />
  <path
   class="fil0"
   d="m 3488.8313,5273.1053 c 29.9006,57.1521 50.4548,118.4183 61.1505,181.4855 l -258.6962,228.5753 c 34.2517,-93.772 30.3908,-201.076 -19.5298,-296.5001 -49.9261,-95.4353 -135.8884,-159.8078 -232.4746,-185.1426 l 335.3065,-82.1675 c 45.7238,44.7656 84.343,96.5918 114.2436,153.7549 z"
   id="path89"
   style="stroke-width:0.550757" />
  <path
   class="fil0"
   d="m 1227.301,7833.6911 c -41.2186,37.9638 -104.6218,43.7632 -152.6368,10.5361 -55.632,-38.5145 -69.5056,-114.8109 -30.9966,-170.4429 6.2015,-8.9553 13.3833,-16.8257 21.3033,-23.578 l -1.6964,1.4981 162.209,183.595 1.812,-1.6083 z"
   id="path90"
   style="stroke-width:0.550757" />
  <path
   class="fil0"
   d="m 3072.3487,9039.2986 c -3.5359,9.9247 -8.4156,19.5574 -14.6998,28.6339 -38.5144,55.621 -114.8108,69.5 -170.4428,30.9966 -47.9103,-33.1721 -64.8406,-94.3777 -44.011,-146.2645 l -0.7435,1.9606 228.9442,87.1739 z"
   id="path91"
   style="stroke-width:0.550757" />
  <path
   class="fil0"
   d="M 4452.5021,5414.8041 3071.3958,9041.7935 2842.4516,8954.6197 4223.5193,5327.7238 c 69.3513,40.7946 146.3472,70.7228 228.9828,87.0803 z"
   id="path92"
   style="stroke-width:0.550757" />
  <path
   class="fil0"
   d="m 4133.9221,5265.6095 -421.7313,372.6038 -258.7182,228.5807 h 0.011 l -337.4435,298.1414 h -0.023 l -238.2355,210.4829 h 0.027 l -511.1523,451.6208 -0.023,-0.011 -228.2502,201.6707 h 0.023 l -355.993,314.532 -0.023,-0.011 -221.3823,195.6069 h 0.011 l -335.5433,296.4616 -162.209,-183.5948 2908.4936,-2569.7451 c 43.3556,69.6433 98.1504,131.8238 162.1539,183.65 z"
   id="path93"
   style="stroke-width:0.550757" />
  <path
   class="fil0"
   d="m 1782.4037,7343.2253 c 261.3893,77.1722 509.9571,195.6951 735.8942,352.0936 225.9261,156.3876 424.364,347.2854 588.6163,564.7629 l -105.1285,276.0891 C 2837.8968,8285.6645 2626.6429,8068.2531 2378.8628,7896.7363 2131.0825,7725.214 1853.209,7604.0254 1561.0269,7538.8322 l 221.3823,-195.6069 z"
   id="path94"
   style="stroke-width:0.550757" />
  <path
   class="fil0"
   d="m 2366.647,6827.0282 c 202.9485,54.4148 395.8622,143.4557 569.9675,263.9779 174.0999,120.5167 325.3434,269.7224 447.7271,440.5066 l -108.3835,284.6368 C 3158.03,7608.2332 2994.5377,7429.0608 2797.1738,7292.4456 2599.7935,7155.8137 2374.5117,7065.8696 2138.3966,7028.7044 l 228.2504,-201.6707 z"
   id="path95"
   style="stroke-width:0.550757" />
  <path
   class="fil0"
   d="m 3116.0237,6164.9354 c 124.8732,32.4176 243.5668,86.6396 350.4578,160.6228 106.8855,73.9888 199.4071,165.9817 273.7098,271.4462 l -113.1255,297.0784 c -63.2049,-147.3935 -166.8574,-274.9049 -300.0195,-367.0907 -133.1841,-92.1912 -289.0374,-144.3094 -449.2582,-151.5793 l 238.2356,-210.4829 z"
   id="path96"
   style="stroke-width:0.550757" />
  <path
   class="fil0"
   d="m 3884.8036,5721.2619 c 53.0269,36.708 99.6981,81.4019 138.4769,132.2809 l -122.8353,322.606 c -13.2513,-98.9435 -66.526,-192.1702 -155.0878,-253.4639 -88.5562,-61.3049 -194.588,-78.3562 -291.8793,-55.8964 l 258.7182,-228.5807 c 61.2882,18.3842 119.5639,46.3296 172.6073,83.0486 z"
   id="path97"
   style="stroke-width:0.550757" />
  <path
   class="fil0"
   d="m 4685.5054,3964.4841 c 402.8734,49.4691 689.3718,416.1632 639.9083,819.0476 -49.469,402.8733 -416.1631,689.3718 -819.0475,639.9083 -402.8734,-49.469 -689.3718,-416.1631 -639.9083,-819.0476 49.469,-402.8733 416.1631,-689.3718 819.0475,-639.9083 z"
   id="path98"
   style="stroke-width:0.550757" />
 </g>
</svg>
