<?xml version="1.0" encoding="UTF-8" standalone="no"?>
<svg
   version="1.1"
   width="200"
   height="191.43713"
   viewBox="0 0 200 191.43713"
   id="svg2"
   sodipodi:docname="web.svg"
   inkscape:version="1.3.2 (091e20e, 2023-11-25, custom)"
   xmlns:inkscape="http://www.inkscape.org/namespaces/inkscape"
   xmlns:sodipodi="http://sodipodi.sourceforge.net/DTD/sodipodi-0.dtd"
   xmlns="http://www.w3.org/2000/svg"
   xmlns:svg="http://www.w3.org/2000/svg">
  <defs
     id="defs2" />
  <sodipodi:namedview
     id="namedview2"
     pagecolor="#ffffff"
     bordercolor="#000000"
     borderopacity="0.25"
     inkscape:showpageshadow="2"
     inkscape:pageopacity="0.0"
     inkscape:pagecheckerboard="0"
     inkscape:deskcolor="#d1d1d1"
     inkscape:zoom="1.3395949"
     inkscape:cx="-80.248141"
     inkscape:cy="98.164005"
     inkscape:window-width="1920"
     inkscape:window-height="1057"
     inkscape:window-x="-8"
     inkscape:window-y="-8"
     inkscape:window-maximized="1"
     inkscape:current-layer="g2" />
  <g
     transform="matrix(1.6705663,0,0,1.6705663,-396.48029,-213.4254)"
     id="g2">
    <g
       data-paper-data="{&quot;isPaintingLayer&quot;:true}"
       fill="#ffffff"
       fill-rule="nonzero"
       stroke="#d1d1d1"
       stroke-width="15"
       stroke-linecap="butt"
       stroke-linejoin="miter"
       stroke-miterlimit="10"
       stroke-dasharray="none"
       stroke-dashoffset="0"
       style="mix-blend-mode:normal;stroke-width:14.99970399;stroke-dasharray:none;fill:#ffffff;fill-opacity:0.31948882;stroke:#d1d1d1;stroke-opacity:0.29392973"
       id="g1"
       transform="translate(-20.555149,-0.89370213)">
      <path
         d="m 265.87682,169.78078 c 5.62464,-1.19376 20.75335,-4.65661 27.47131,-8.67637 7.8646,-4.70586 20.61788,-19.84444 24.90065,-25.07432 0.92512,-1.1297 1.86146,-1.01082 2.57477,0.28818 2.69386,4.90577 9.76416,17.12471 15.84551,21.92577 7.36694,5.81601 25.28319,12.83061 31.51211,15.17382 1.37229,0.51623 1.55052,1.51045 0.51067,2.72249 -4.37793,5.10283 -16.07738,19.19783 -19.14791,27.5529 -2.87125,7.81283 -2.41038,22.53067 -2.03916,28.97163 0.11293,1.95944 -0.75437,2.70392 -2.39812,1.98518 -6.51931,-2.85059 -23.60637,-9.94468 -32.53789,-10.1027 -9.16291,-0.16212 -25.99759,6.35465 -30.7111,8.25809 -0.80439,0.32483 -1.28846,-0.52245 -1.11163,-2.27465 0.68096,-6.74781 2.2565,-24.09122 -0.0345,-33.56494 -2.02704,-8.38208 -11.54554,-20.30813 -15.38396,-24.86912 -0.99681,-1.18445 -0.8069,-2.02812 0.54928,-2.31595 z"
         id="path1"
         style="stroke-width:14.99970399;stroke-dasharray:none;fill:#ffffff;fill-opacity:0.31948882;stroke:#d1d1d1;stroke-opacity:0.29392973" />
    </g>
  </g>
</svg>
