<svg xmlns="http://www.w3.org/2000/svg" width="110" height="110"><clipPath id="a"><path d="M13.333 9.167h83.334q4.166 0 4.166 4.166v83.334q0 4.166-4.166 4.166H13.333q-4.166 0-4.166-4.166V13.333q0-4.166 4.166-4.166"/></clipPath><g clip-path="url(#a)"><path fill="none" stroke="#333" stroke-linecap="round" stroke-linejoin="round" stroke-width="4.167" d="M55 55q6.514 19.334 3.335 28.975M55 55q-1.14 16.96-8.212 27.987M55 55q-14.727 4.976-25.798 13.608M55 55q-19.382-10.027-27.735-9.025M55 55q19.334 6.514 28.975 3.335M55 55q11.908-8.613 22.58-18.462M55 55q4.976-14.727 13.608-25.798M55 55q-2.742-18.516 2.488-29.06"/><path fill="#403525" d="M44.688 44.688q.253-.253.518-.494.266-.24.542-.467.277-.227.565-.44.287-.214.585-.413t.605-.383.622-.352q.316-.17.64-.322.323-.153.654-.29.33-.137.668-.258.337-.12.68-.224.342-.104.69-.191t.698-.157.705-.122.71-.088q.357-.035.714-.053.358-.017.716-.017t.716.017.713.053q.357.035.71.088.355.052.706.122t.698.157.69.19q.343.105.68.225t.668.258q.33.137.654.29t.64.322.622.352.605.383.585.413q.288.213.565.44t.542.467.518.494.494.518q.24.266.467.542.227.277.44.565.214.287.413.585t.383.605.352.622q.17.316.322.64.153.323.29.654.137.33.258.668.12.337.224.68.104.342.191.69t.157.698.122.705.088.71q.035.357.053.714.017.358.017.716t-.017.716-.053.713q-.035.357-.088.71-.052.355-.122.706t-.157.698-.19.69q-.105.343-.225.68t-.258.668q-.137.33-.29.654t-.322.64-.352.622-.383.605-.413.585q-.213.288-.44.565t-.467.542-.494.518-.518.494q-.266.24-.542.467-.277.227-.565.44-.287.214-.585.413t-.605.383-.622.352q-.316.17-.64.322-.323.153-.654.29-.33.137-.668.258-.337.12-.68.224-.342.104-.69.191t-.698.157-.705.122-.71.088q-.357.035-.714.053-.358.017-.716.017t-.716-.017-.713-.053q-.357-.035-.71-.088-.355-.052-.706-.122t-.698-.157-.69-.19q-.343-.105-.68-.225t-.668-.258q-.33-.137-.654-.29t-.64-.322-.622-.352-.605-.383-.585-.413q-.288-.213-.565-.44t-.542-.467-.518-.494-.494-.518q-.24-.266-.467-.542-.227-.277-.44-.565-.214-.287-.413-.585t-.383-.605-.352-.622q-.17-.316-.322-.64-.153-.323-.29-.654-.137-.33-.258-.668-.12-.337-.224-.68-.104-.342-.191-.69t-.157-.698-.122-.705-.088-.71q-.035-.357-.053-.714-.017-.358-.017-.716t.017-.716.053-.713q.035-.357.088-.71.052-.355.122-.706t.157-.698.19-.69q.105-.343.225-.68t.258-.668q.137-.33.29-.654t.322-.64.352-.622.383-.605.413-.585q.213-.288.44-.565t.467-.542.494-.518"/><path fill="#4f412e" d="M47.634 47.634q.181-.18.37-.352.19-.172.388-.334.197-.162.403-.315.205-.152.418-.294.212-.142.432-.274.22-.131.445-.252.225-.12.456-.23.231-.109.468-.207.236-.098.477-.184.24-.086.485-.16t.493-.136.499-.113.504-.087.507-.063q.254-.025.51-.037.255-.013.511-.013t.511.013.51.037.507.063.504.087.499.113.493.136.485.16.477.184.468.207q.23.11.456.23t.445.252q.22.132.432.274.213.142.418.294.206.153.403.315t.387.334q.19.171.37.352.182.181.353.37.172.19.334.388.162.197.315.403.152.205.294.418.142.212.274.432.131.22.252.445.12.225.23.456.109.231.207.468.098.236.184.477.086.24.16.485t.136.493.113.499q.05.25.087.504.037.253.063.507.025.254.037.51.013.255.013.511t-.013.511-.037.51-.063.507-.087.504-.113.499-.136.493-.16.485-.184.477-.207.468q-.11.23-.23.456t-.252.445q-.132.22-.274.432-.142.213-.294.418-.153.206-.315.403t-.334.387q-.171.19-.352.37-.181.182-.37.353-.19.172-.388.334-.197.162-.403.315-.205.152-.418.294-.212.142-.432.274-.22.131-.445.252-.225.12-.456.23-.231.109-.468.207-.236.098-.477.184-.24.086-.485.16t-.493.136-.499.113q-.25.05-.504.087-.253.037-.507.063-.254.025-.51.037-.255.013-.511.013t-.511-.013-.51-.037-.507-.063-.504-.087-.499-.113-.493-.136-.485-.16-.477-.184-.468-.207q-.23-.11-.456-.23t-.445-.252q-.22-.132-.432-.274-.213-.142-.418-.294-.206-.153-.403-.315t-.387-.334q-.19-.171-.37-.352-.182-.181-.353-.37-.172-.19-.334-.388-.162-.197-.315-.403-.152-.205-.294-.418-.142-.212-.274-.432-.131-.22-.252-.445-.12-.225-.23-.456-.109-.231-.207-.468-.098-.236-.184-.477-.086-.24-.16-.485t-.136-.493-.113-.499-.087-.504-.063-.507q-.025-.254-.037-.51-.013-.255-.013-.511t.013-.511.037-.51.063-.507.087-.504.113-.499.136-.493.16-.485.184-.477.207-.468q.11-.23.23-.456t.252-.445q.132-.22.274-.432.142-.213.294-.418.153-.206.315-.403t.334-.387q.171-.19.352-.37"/></g></svg>