<?xml version="1.0" encoding="UTF-8" standalone="no"?>
<svg
   width="200"
   height="200.00032"
   version="1.1"
   id="svg4"
   sodipodi:docname="ant_hole.svg"
   inkscape:version="1.3.2 (091e20e, 2023-11-25, custom)"
   xmlns:inkscape="http://www.inkscape.org/namespaces/inkscape"
   xmlns:sodipodi="http://sodipodi.sourceforge.net/DTD/sodipodi-0.dtd"
   xmlns="http://www.w3.org/2000/svg"
   xmlns:svg="http://www.w3.org/2000/svg">
  <defs
     id="defs4" />
  <sodipodi:namedview
     id="namedview4"
     pagecolor="#ffffff"
     bordercolor="#000000"
     borderopacity="0.25"
     inkscape:showpageshadow="2"
     inkscape:pageopacity="0.0"
     inkscape:pagecheckerboard="0"
     inkscape:deskcolor="#d1d1d1"
     inkscape:zoom="1.9568182"
     inkscape:cx="57.491289"
     inkscape:cy="166.34146"
     inkscape:window-width="1920"
     inkscape:window-height="1057"
     inkscape:window-x="-8"
     inkscape:window-y="-8"
     inkscape:window-maximized="1"
     inkscape:current-layer="svg4" />
  <clipPath
     id="a">
    <path
       d="m 13.333,9.167 h 83.334 q 4.166,0 4.166,4.166 v 83.334 q 0,4.166 -4.166,4.166 H 13.333 q -4.166,0 -4.166,-4.166 V 13.333 q 0,-4.166 4.166,-4.166"
       id="path1" />
  </clipPath>
  <g
     clip-path="url(#a)"
     id="g4"
     transform="matrix(2.6666652,0,0,2.6666652,-46.666584,-46.666423)">
    <path
       fill="#b58500"
       d="m 28.483,28.483 q 0.651,-0.65 1.334,-1.269 0.682,-0.618 1.393,-1.202 0.712,-0.584 1.451,-1.132 0.74,-0.549 1.505,-1.06 0.766,-0.512 1.555,-0.985 0.79,-0.473 1.602,-0.907 0.811,-0.434 1.644,-0.828 0.833,-0.394 1.682,-0.746 0.849,-0.352 1.718,-0.662 0.866,-0.31 1.747,-0.577 0.881,-0.268 1.774,-0.491 0.893,-0.224 1.796,-0.403 0.903,-0.179 1.814,-0.315 0.911,-0.136 1.826,-0.225 0.915,-0.089 1.836,-0.136 0.921,-0.047 1.84,-0.045 0.919,0.002 1.84,0.045 0.921,0.043 1.836,0.136 0.915,0.093 1.826,0.225 0.911,0.132 1.814,0.315 0.903,0.183 1.796,0.403 0.893,0.22 1.774,0.49 0.881,0.27 1.747,0.578 0.866,0.308 1.718,0.662 0.852,0.354 1.682,0.746 0.83,0.392 1.644,0.828 0.814,0.436 1.602,0.907 0.788,0.471 1.555,0.985 0.767,0.514 1.505,1.06 0.738,0.546 1.45,1.132 0.712,0.586 1.394,1.202 0.682,0.616 1.334,1.27 0.652,0.654 1.269,1.333 0.617,0.679 1.202,1.393 0.585,0.714 1.132,1.451 0.547,0.737 1.06,1.505 0.513,0.768 0.985,1.555 0.472,0.787 0.907,1.602 0.435,0.815 0.828,1.644 0.393,0.829 0.746,1.682 0.353,0.853 0.662,1.718 0.309,0.865 0.577,1.747 0.268,0.882 0.491,1.774 0.223,0.892 0.403,1.796 0.18,0.904 0.315,1.814 0.135,0.91 0.225,1.826 0.09,0.916 0.136,1.836 0.046,0.92 0.045,1.84 -0.001,0.92 -0.045,1.84 -0.044,0.92 -0.136,1.836 -0.092,0.916 -0.225,1.826 -0.133,0.91 -0.315,1.814 -0.182,0.904 -0.403,1.796 -0.221,0.892 -0.49,1.774 -0.268,0.88 -0.578,1.747 -0.31,0.867 -0.662,1.718 -0.352,0.851 -0.746,1.682 -0.394,0.833 -0.828,1.644 -0.434,0.812 -0.907,1.602 -0.473,0.79 -0.985,1.555 -0.512,0.765 -1.06,1.505 -0.548,0.74 -1.132,1.45 -0.584,0.71 -1.202,1.394 -0.619,0.683 -1.27,1.334 -0.65,0.65 -1.333,1.269 -0.683,0.619 -1.393,1.202 -0.712,0.584 -1.451,1.132 -0.74,0.549 -1.505,1.06 -0.766,0.512 -1.555,0.985 -0.79,0.473 -1.602,0.907 -0.811,0.434 -1.644,0.828 -0.833,0.394 -1.682,0.746 -0.849,0.352 -1.718,0.662 -0.866,0.31 -1.747,0.577 -0.881,0.268 -1.774,0.491 -0.893,0.224 -1.796,0.403 -0.903,0.179 -1.814,0.315 -0.911,0.136 -1.826,0.225 -0.915,0.089 -1.836,0.136 Q 55.919,92.502 55,92.5 54.081,92.498 53.16,92.455 52.239,92.412 51.324,92.319 50.409,92.226 49.498,92.094 48.587,91.962 47.684,91.779 46.781,91.596 45.888,91.376 44.995,91.156 44.114,90.886 43.233,90.616 42.367,90.308 41.501,90 40.649,89.646 39.797,89.292 38.967,88.9 38.137,88.508 37.323,88.072 36.509,87.636 35.721,87.165 34.933,86.694 34.166,86.18 33.399,85.666 32.661,85.12 31.923,84.574 31.211,83.988 30.499,83.402 29.817,82.786 29.135,82.17 28.483,81.516 27.831,80.862 27.214,80.183 26.597,79.504 26.012,78.79 25.427,78.076 24.88,77.339 24.333,76.602 23.82,75.834 23.307,75.066 22.835,74.279 22.363,73.492 21.928,72.677 21.493,71.862 21.1,71.033 20.707,70.204 20.354,69.351 20.001,68.498 19.692,67.633 19.383,66.768 19.115,65.886 18.847,65.004 18.624,64.112 18.401,63.22 18.221,62.316 18.041,61.412 17.906,60.502 17.771,59.592 17.681,58.676 17.591,57.76 17.545,56.84 17.499,55.92 17.5,55 q 0.001,-0.92 0.045,-1.84 0.044,-0.92 0.136,-1.836 0.092,-0.916 0.225,-1.826 0.133,-0.91 0.315,-1.814 0.182,-0.904 0.403,-1.796 0.221,-0.892 0.49,-1.774 0.268,-0.88 0.578,-1.747 0.31,-0.867 0.662,-1.718 0.352,-0.851 0.746,-1.682 0.394,-0.833 0.828,-1.644 0.434,-0.812 0.907,-1.602 0.473,-0.79 0.985,-1.555 0.512,-0.765 1.06,-1.505 0.548,-0.74 1.132,-1.45 0.584,-0.71 1.202,-1.394 0.619,-0.683 1.27,-1.334"
       id="path2" />
    <path
       fill="#946d00"
       d="m 37.322,37.322 q 0.434,-0.434 0.889,-0.846 0.455,-0.412 0.93,-0.801 0.475,-0.389 0.967,-0.755 0.492,-0.366 1.003,-0.707 0.511,-0.341 1.036,-0.656 0.525,-0.315 1.068,-0.605 0.543,-0.29 1.096,-0.552 0.553,-0.262 1.122,-0.497 0.569,-0.235 1.145,-0.442 0.576,-0.207 1.165,-0.384 0.589,-0.177 1.182,-0.328 0.593,-0.151 1.198,-0.269 0.605,-0.118 1.209,-0.21 0.604,-0.092 1.218,-0.15 0.614,-0.058 1.223,-0.09 Q 54.382,29.998 55,30 q 0.618,0.002 1.227,0.03 0.609,0.028 1.223,0.09 0.614,0.062 1.218,0.15 0.604,0.088 1.21,0.21 0.606,0.122 1.197,0.27 0.591,0.148 1.182,0.327 0.591,0.179 1.165,0.384 0.574,0.205 1.145,0.442 0.571,0.237 1.122,0.497 0.551,0.26 1.096,0.552 0.545,0.292 1.068,0.605 0.523,0.313 1.036,0.656 0.513,0.343 1.003,0.707 0.49,0.364 0.968,0.755 0.478,0.391 0.929,0.801 0.451,0.41 0.889,0.846 0.438,0.436 0.846,0.889 0.408,0.453 0.801,0.93 0.393,0.477 0.755,0.967 0.362,0.49 0.707,1.003 0.345,0.513 0.656,1.036 0.311,0.523 0.605,1.068 0.294,0.545 0.552,1.096 0.258,0.551 0.497,1.122 0.239,0.571 0.442,1.145 0.203,0.574 0.384,1.165 0.181,0.591 0.328,1.182 0.147,0.591 0.269,1.198 0.122,0.607 0.21,1.209 0.088,0.602 0.15,1.218 0.06,0.61 0.09,1.223 Q 80,54.386 80,55 q 0,0.614 -0.03,1.227 -0.03,0.613 -0.09,1.223 -0.06,0.61 -0.15,1.218 -0.09,0.608 -0.21,1.21 -0.12,0.602 -0.27,1.197 -0.148,0.595 -0.327,1.182 -0.178,0.587 -0.384,1.165 -0.206,0.578 -0.442,1.145 -0.236,0.567 -0.497,1.122 -0.261,0.555 -0.552,1.096 -0.291,0.541 -0.605,1.068 -0.314,0.527 -0.656,1.036 -0.342,0.509 -0.707,1.003 -0.365,0.494 -0.755,0.968 -0.39,0.474 -0.801,0.929 -0.411,0.455 -0.846,0.889 -0.435,0.434 -0.889,0.846 -0.454,0.412 -0.93,0.801 -0.476,0.389 -0.967,0.755 -0.491,0.366 -1.003,0.707 -0.512,0.341 -1.036,0.656 -0.524,0.315 -1.068,0.605 -0.544,0.29 -1.096,0.552 -0.552,0.262 -1.122,0.497 -0.57,0.235 -1.145,0.442 -0.578,0.206 -1.165,0.384 -0.587,0.178 -1.182,0.328 -0.595,0.15 -1.198,0.269 -0.603,0.119 -1.209,0.21 -0.606,0.091 -1.218,0.15 -0.612,0.059 -1.223,0.09 Q 55.616,80.001 55,80 54.384,79.999 53.773,79.97 53.162,79.941 52.55,79.88 51.938,79.819 51.332,79.73 50.726,79.641 50.122,79.52 49.518,79.399 48.925,79.25 48.33,79.102 47.743,78.923 47.156,78.745 46.578,78.539 46,78.333 45.433,78.097 44.866,77.861 44.311,77.6 43.756,77.339 43.215,77.048 42.674,76.757 42.147,76.443 41.62,76.129 41.111,75.787 40.602,75.445 40.108,75.08 39.614,74.715 39.14,74.325 38.666,73.935 38.211,73.524 37.756,73.113 37.322,72.678 36.888,72.243 36.476,71.789 36.064,71.335 35.675,70.859 35.286,70.383 34.92,69.892 34.554,69.401 34.213,68.889 33.872,68.377 33.557,67.853 33.242,67.329 32.952,66.785 32.662,66.241 32.4,65.689 32.138,65.137 31.903,64.567 31.668,63.997 31.461,63.422 31.255,62.844 31.077,62.257 30.899,61.67 30.749,61.075 30.599,60.48 30.48,59.877 30.361,59.274 30.27,58.668 30.179,58.062 30.12,57.45 30.061,56.838 30.03,56.227 29.999,55.616 30,55 q 0.001,-0.616 0.03,-1.227 0.029,-0.611 0.09,-1.223 0.061,-0.612 0.15,-1.218 0.089,-0.606 0.21,-1.21 0.121,-0.604 0.27,-1.197 0.148,-0.595 0.327,-1.182 0.178,-0.587 0.384,-1.165 0.206,-0.578 0.442,-1.145 0.236,-0.567 0.497,-1.122 0.261,-0.555 0.552,-1.096 0.291,-0.541 0.605,-1.068 0.314,-0.527 0.656,-1.036 0.342,-0.509 0.707,-1.003 0.365,-0.494 0.755,-0.968 0.39,-0.474 0.801,-0.929 0.411,-0.455 0.846,-0.889"
       id="path3" />
    <path
       fill="#6b4f00"
       d="m 46.161,46.161 q 0.217,-0.217 0.445,-0.423 0.227,-0.206 0.464,-0.4 0.237,-0.194 0.484,-0.378 0.247,-0.184 0.501,-0.353 0.254,-0.169 0.519,-0.329 0.265,-0.16 0.534,-0.302 0.269,-0.142 0.548,-0.276 0.279,-0.134 0.56,-0.249 0.281,-0.115 0.573,-0.22 0.292,-0.105 0.582,-0.193 0.29,-0.088 0.592,-0.163 0.302,-0.075 0.598,-0.135 0.296,-0.06 0.605,-0.105 0.309,-0.045 0.609,-0.075 0.3,-0.03 0.612,-0.045 Q 54.699,42.5 55,42.5 q 0.301,0 0.613,0.015 0.312,0.015 0.612,0.045 0.3,0.03 0.61,0.075 0.31,0.045 0.604,0.105 0.3,0.06 0.598,0.135 0.298,0.074 0.592,0.163 0.293,0.09 0.582,0.193 0.29,0.103 0.573,0.22 0.283,0.117 0.56,0.25 0.277,0.133 0.548,0.275 0.271,0.145 0.534,0.302 0.263,0.158 0.519,0.329 0.255,0.17 0.501,0.353 0.247,0.183 0.484,0.377 0.237,0.195 0.464,0.401 0.227,0.206 0.445,0.423 0.218,0.217 0.423,0.445 0.205,0.228 0.4,0.464 0.195,0.236 0.378,0.484 0.183,0.248 0.353,0.501 0.17,0.253 0.329,0.519 0.159,0.266 0.302,0.534 0.143,0.268 0.276,0.548 0.133,0.28 0.249,0.56 0.116,0.28 0.22,0.573 0.104,0.293 0.193,0.582 0.089,0.289 0.163,0.592 0.074,0.303 0.135,0.598 0.061,0.295 0.105,0.605 0.044,0.31 0.075,0.609 0.031,0.299 0.045,0.612 0.014,0.313 0.015,0.613 0.001,0.3 -0.015,0.613 -0.016,0.313 -0.045,0.612 -0.029,0.299 -0.075,0.61 -0.046,0.311 -0.105,0.604 -0.06,0.3 -0.135,0.598 -0.074,0.298 -0.163,0.592 -0.09,0.293 -0.193,0.582 -0.103,0.29 -0.22,0.573 -0.117,0.283 -0.25,0.56 -0.133,0.277 -0.275,0.548 -0.145,0.271 -0.302,0.534 -0.158,0.263 -0.329,0.519 -0.17,0.255 -0.353,0.501 -0.183,0.247 -0.377,0.484 -0.195,0.237 -0.401,0.464 -0.206,0.227 -0.423,0.445 -0.217,0.218 -0.445,0.423 -0.228,0.205 -0.464,0.4 -0.236,0.195 -0.484,0.378 -0.248,0.183 -0.501,0.353 -0.253,0.17 -0.519,0.329 -0.266,0.159 -0.534,0.302 -0.268,0.143 -0.548,0.276 -0.28,0.133 -0.56,0.249 -0.28,0.116 -0.573,0.22 -0.293,0.104 -0.582,0.193 -0.289,0.089 -0.592,0.163 -0.303,0.074 -0.598,0.135 -0.295,0.061 -0.605,0.105 -0.31,0.044 -0.609,0.075 -0.299,0.031 -0.612,0.045 Q 55.3,67.499 55,67.5 q -0.3,0.001 -0.613,-0.015 -0.313,-0.016 -0.612,-0.045 -0.299,-0.029 -0.61,-0.075 -0.311,-0.046 -0.604,-0.105 -0.3,-0.06 -0.598,-0.135 -0.298,-0.074 -0.592,-0.163 -0.293,-0.09 -0.582,-0.193 -0.29,-0.103 -0.573,-0.22 -0.283,-0.117 -0.56,-0.25 Q 49.379,66.166 49.108,66.024 48.837,65.879 48.574,65.722 48.311,65.564 48.055,65.393 47.8,65.223 47.554,65.04 47.307,64.857 47.07,64.663 46.833,64.468 46.606,64.262 46.379,64.056 46.161,63.839 45.943,63.622 45.738,63.394 45.533,63.166 45.338,62.93 45.143,62.694 44.96,62.446 44.777,62.198 44.607,61.945 44.437,61.692 44.278,61.426 44.119,61.16 43.976,60.892 43.833,60.624 43.7,60.344 43.567,60.064 43.451,59.784 43.335,59.504 43.231,59.211 43.127,58.918 43.038,58.629 42.949,58.34 42.875,58.037 42.801,57.734 42.74,57.439 42.679,57.144 42.635,56.834 42.591,56.524 42.56,56.225 42.529,55.926 42.515,55.613 42.501,55.3 42.5,55 q -10e-4,-0.3 0.015,-0.613 0.016,-0.313 0.045,-0.612 0.029,-0.299 0.075,-0.61 0.046,-0.311 0.105,-0.604 0.06,-0.3 0.135,-0.598 0.074,-0.298 0.163,-0.592 0.09,-0.293 0.193,-0.582 0.103,-0.29 0.22,-0.573 0.117,-0.283 0.25,-0.56 0.133,-0.277 0.275,-0.548 0.145,-0.271 0.302,-0.534 0.158,-0.263 0.329,-0.519 0.17,-0.255 0.353,-0.501 0.183,-0.247 0.377,-0.484 0.195,-0.237 0.401,-0.464 0.206,-0.227 0.423,-0.445"
       id="path4" />
  </g>
</svg>
