<?xml version="1.0" encoding="UTF-8" standalone="no"?>
<svg
   width="200"
   height="200"
   version="1.1"
   id="svg8"
   sodipodi:docname="baby_ant.svg"
   inkscape:version="1.3.2 (091e20e, 2023-11-25, custom)"
   xmlns:inkscape="http://www.inkscape.org/namespaces/inkscape"
   xmlns:sodipodi="http://sodipodi.sourceforge.net/DTD/sodipodi-0.dtd"
   xmlns="http://www.w3.org/2000/svg"
   xmlns:svg="http://www.w3.org/2000/svg">
  <defs
     id="defs8" />
  <sodipodi:namedview
     id="namedview8"
     pagecolor="#ffffff"
     bordercolor="#000000"
     borderopacity="0.25"
     inkscape:showpageshadow="2"
     inkscape:pageopacity="0.0"
     inkscape:pagecheckerboard="0"
     inkscape:deskcolor="#d1d1d1"
     showgrid="false"
     inkscape:zoom="1.9568182"
     inkscape:cx="55.958188"
     inkscape:cy="95.307781"
     inkscape:window-width="1920"
     inkscape:window-height="1057"
     inkscape:window-x="-8"
     inkscape:window-y="-8"
     inkscape:window-maximized="1"
     inkscape:current-layer="svg8" />
  <clipPath
     id="a">
    <path
       d="m 13.333,9.167 h 83.334 q 4.166,0 4.166,4.166 v 83.334 q 0,4.166 -4.166,4.166 H 13.333 q -4.166,0 -4.166,-4.166 V 13.333 q 0,-4.166 4.166,-4.166"
       id="path1" />
  </clipPath>
  <g
     clip-path="url(#a)"
     id="g8"
     transform="matrix(-4.8709552,4.8262835,-4.8262835,-4.8709552,587.63534,102.24636)">
    <path
       fill="#454545"
       d="m 39.974,39.974 q 0.253,-0.253 0.518,-0.494 0.266,-0.24 0.542,-0.467 0.277,-0.227 0.565,-0.44 0.287,-0.214 0.585,-0.413 0.298,-0.199 0.605,-0.383 0.307,-0.184 0.622,-0.352 0.316,-0.17 0.64,-0.322 0.323,-0.153 0.654,-0.29 0.33,-0.137 0.668,-0.258 0.337,-0.12 0.68,-0.224 0.342,-0.104 0.69,-0.191 0.348,-0.087 0.698,-0.157 0.35,-0.07 0.705,-0.122 0.355,-0.052 0.71,-0.088 0.357,-0.035 0.714,-0.053 0.358,-0.017 0.716,-0.017 0.358,0 0.716,0.017 0.358,0.017 0.713,0.053 0.357,0.035 0.71,0.088 0.355,0.052 0.706,0.122 0.351,0.07 0.698,0.157 0.347,0.087 0.69,0.19 0.343,0.105 0.68,0.225 0.337,0.12 0.668,0.258 0.33,0.137 0.654,0.29 0.324,0.153 0.64,0.322 0.316,0.169 0.622,0.352 0.306,0.183 0.605,0.383 0.299,0.2 0.585,0.413 0.288,0.213 0.565,0.44 0.277,0.227 0.542,0.467 0.265,0.24 0.518,0.494 0.253,0.254 0.494,0.518 0.24,0.266 0.467,0.542 0.227,0.277 0.44,0.565 0.214,0.287 0.413,0.585 0.199,0.298 0.383,0.605 0.184,0.307 0.352,0.622 0.17,0.316 0.322,0.64 0.153,0.323 0.29,0.654 0.137,0.33 0.258,0.668 0.12,0.337 0.224,0.68 0.104,0.342 0.191,0.69 0.087,0.348 0.157,0.698 0.07,0.35 0.122,0.705 0.052,0.355 0.088,0.71 0.035,0.357 0.053,0.714 0.017,0.358 0.017,0.716 0,0.358 -0.017,0.716 -0.017,0.358 -0.053,0.713 -0.035,0.357 -0.088,0.71 -0.052,0.355 -0.122,0.706 -0.07,0.351 -0.157,0.698 -0.087,0.347 -0.19,0.69 -0.105,0.343 -0.225,0.68 -0.12,0.337 -0.258,0.668 -0.137,0.33 -0.29,0.654 -0.153,0.324 -0.322,0.64 -0.169,0.316 -0.352,0.622 -0.183,0.306 -0.383,0.605 -0.2,0.299 -0.413,0.585 -0.213,0.288 -0.44,0.565 -0.227,0.277 -0.467,0.542 -0.24,0.265 -0.494,0.518 -0.254,0.253 -0.518,0.494 -0.266,0.24 -0.542,0.467 -0.277,0.227 -0.565,0.44 -0.287,0.214 -0.585,0.413 -0.298,0.199 -0.605,0.383 -0.307,0.184 -0.622,0.352 -0.316,0.17 -0.64,0.322 -0.323,0.153 -0.654,0.29 -0.33,0.137 -0.668,0.258 -0.337,0.12 -0.68,0.224 -0.342,0.104 -0.69,0.191 -0.348,0.087 -0.698,0.157 -0.35,0.07 -0.705,0.122 -0.355,0.052 -0.71,0.088 -0.357,0.035 -0.714,0.053 -0.358,0.017 -0.716,0.017 -0.358,0 -0.716,-0.017 -0.358,-0.017 -0.713,-0.053 -0.357,-0.035 -0.71,-0.088 -0.355,-0.052 -0.706,-0.122 -0.351,-0.07 -0.698,-0.157 -0.347,-0.087 -0.69,-0.19 -0.343,-0.105 -0.68,-0.225 -0.337,-0.12 -0.668,-0.258 -0.33,-0.137 -0.654,-0.29 -0.324,-0.153 -0.64,-0.322 -0.316,-0.169 -0.622,-0.352 -0.306,-0.183 -0.605,-0.383 -0.299,-0.2 -0.585,-0.413 -0.288,-0.213 -0.565,-0.44 -0.277,-0.227 -0.542,-0.467 -0.265,-0.24 -0.518,-0.494 -0.253,-0.254 -0.494,-0.518 -0.24,-0.266 -0.467,-0.542 -0.227,-0.277 -0.44,-0.565 -0.214,-0.287 -0.413,-0.585 -0.199,-0.298 -0.383,-0.605 -0.184,-0.307 -0.352,-0.622 -0.17,-0.316 -0.322,-0.64 -0.153,-0.323 -0.29,-0.654 -0.137,-0.33 -0.258,-0.668 -0.12,-0.337 -0.224,-0.68 -0.104,-0.342 -0.191,-0.69 -0.087,-0.348 -0.157,-0.698 -0.07,-0.35 -0.122,-0.705 -0.052,-0.355 -0.088,-0.71 -0.035,-0.357 -0.053,-0.714 -0.017,-0.358 -0.017,-0.716 0,-0.358 0.017,-0.716 0.017,-0.358 0.053,-0.713 0.035,-0.357 0.088,-0.71 0.052,-0.355 0.122,-0.706 0.07,-0.351 0.157,-0.698 0.087,-0.347 0.19,-0.69 0.105,-0.343 0.225,-0.68 0.12,-0.337 0.258,-0.668 0.137,-0.33 0.29,-0.654 0.153,-0.324 0.322,-0.64 0.169,-0.316 0.352,-0.622 0.183,-0.306 0.383,-0.605 0.2,-0.299 0.413,-0.585 0.213,-0.288 0.44,-0.565 0.227,-0.277 0.467,-0.542 0.24,-0.265 0.494,-0.518"
       id="path7" />
    <path
       fill="#555555"
       d="m 44.099,44.099 q 0.152,-0.152 0.31,-0.296 0.16,-0.145 0.326,-0.28 0.166,-0.137 0.339,-0.265 0.172,-0.128 0.35,-0.247 0.18,-0.12 0.364,-0.23 0.184,-0.11 0.373,-0.212 0.189,-0.102 0.384,-0.193 0.194,-0.092 0.393,-0.174 0.198,-0.082 0.4,-0.155 0.202,-0.072 0.408,-0.134 0.206,-0.062 0.414,-0.115 0.208,-0.053 0.419,-0.094 0.211,-0.041 0.423,-0.073 0.212,-0.032 0.426,-0.053 0.214,-0.021 0.429,-0.031 0.214,-0.011 0.429,-0.011 0.215,0 0.43,0.01 0.215,0.01 0.428,0.032 0.213,0.022 0.426,0.053 0.213,0.031 0.423,0.073 0.21,0.042 0.42,0.094 0.207,0.052 0.413,0.115 0.206,0.062 0.408,0.134 0.202,0.072 0.4,0.155 0.198,0.083 0.393,0.174 0.195,0.091 0.384,0.193 0.189,0.102 0.373,0.212 0.185,0.11 0.363,0.23 0.179,0.119 0.351,0.247 0.173,0.128 0.339,0.264 0.166,0.136 0.325,0.28 0.159,0.144 0.311,0.297 0.152,0.153 0.296,0.31 0.144,0.157 0.28,0.326 0.137,0.166 0.265,0.339 0.128,0.172 0.247,0.35 0.12,0.18 0.23,0.364 0.11,0.184 0.212,0.373 0.102,0.189 0.193,0.384 0.092,0.194 0.174,0.393 0.082,0.198 0.155,0.4 0.072,0.202 0.134,0.408 0.062,0.206 0.115,0.414 0.053,0.208 0.094,0.419 0.041,0.211 0.073,0.423 0.032,0.212 0.053,0.426 0.021,0.214 0.031,0.429 0.011,0.214 0.011,0.429 0,0.215 -0.01,0.43 -0.01,0.215 -0.032,0.428 -0.022,0.213 -0.053,0.426 -0.031,0.213 -0.073,0.423 -0.042,0.21 -0.094,0.42 -0.052,0.207 -0.115,0.413 -0.062,0.206 -0.134,0.408 -0.072,0.202 -0.155,0.4 -0.083,0.198 -0.174,0.393 -0.091,0.195 -0.193,0.384 -0.102,0.189 -0.212,0.373 -0.11,0.185 -0.23,0.363 -0.119,0.179 -0.247,0.351 -0.128,0.173 -0.264,0.339 -0.136,0.166 -0.28,0.325 -0.144,0.159 -0.297,0.311 -0.153,0.152 -0.31,0.296 -0.157,0.144 -0.326,0.28 -0.166,0.137 -0.339,0.265 -0.172,0.128 -0.35,0.247 -0.18,0.12 -0.364,0.23 -0.184,0.11 -0.373,0.212 -0.189,0.102 -0.384,0.193 -0.194,0.092 -0.393,0.174 -0.198,0.082 -0.4,0.155 -0.202,0.072 -0.408,0.134 -0.206,0.062 -0.414,0.115 -0.208,0.053 -0.419,0.094 -0.211,0.041 -0.423,0.073 -0.212,0.032 -0.426,0.053 -0.214,0.021 -0.429,0.031 -0.214,0.011 -0.429,0.011 -0.215,0 -0.43,-0.01 -0.215,-0.01 -0.428,-0.032 -0.213,-0.022 -0.426,-0.053 -0.213,-0.031 -0.423,-0.073 -0.21,-0.042 -0.42,-0.094 -0.207,-0.052 -0.413,-0.115 -0.206,-0.062 -0.408,-0.134 -0.202,-0.072 -0.4,-0.155 -0.198,-0.083 -0.393,-0.174 -0.195,-0.091 -0.384,-0.193 -0.189,-0.102 -0.373,-0.212 -0.185,-0.11 -0.363,-0.23 -0.179,-0.119 -0.351,-0.247 -0.173,-0.128 -0.339,-0.264 -0.166,-0.136 -0.325,-0.28 -0.159,-0.144 -0.311,-0.297 -0.152,-0.153 -0.296,-0.31 -0.144,-0.157 -0.28,-0.326 -0.137,-0.166 -0.265,-0.339 -0.128,-0.172 -0.247,-0.35 -0.12,-0.18 -0.23,-0.364 -0.11,-0.184 -0.212,-0.373 -0.102,-0.189 -0.193,-0.384 -0.092,-0.194 -0.174,-0.393 -0.082,-0.198 -0.155,-0.4 -0.072,-0.202 -0.134,-0.408 -0.062,-0.206 -0.115,-0.414 -0.053,-0.208 -0.094,-0.419 -0.041,-0.211 -0.073,-0.423 -0.032,-0.212 -0.053,-0.426 -0.021,-0.214 -0.031,-0.429 -0.011,-0.214 -0.011,-0.429 0,-0.215 0.01,-0.43 0.01,-0.215 0.032,-0.428 0.022,-0.213 0.053,-0.426 0.031,-0.213 0.073,-0.423 0.042,-0.21 0.094,-0.42 0.052,-0.207 0.115,-0.413 0.062,-0.206 0.134,-0.408 0.072,-0.202 0.155,-0.4 0.083,-0.198 0.174,-0.393 0.091,-0.195 0.193,-0.384 0.102,-0.189 0.212,-0.373 0.11,-0.185 0.23,-0.363 0.119,-0.179 0.247,-0.351 0.128,-0.173 0.264,-0.339 0.136,-0.166 0.28,-0.325 0.144,-0.159 0.297,-0.311"
       id="path8" />
  </g>
</svg>
