<?xml version="1.0" encoding="UTF-8" standalone="no"?>
<svg
   version="1.1"
   width="286.87546"
   height="151.51218"
   viewBox="0 0 286.87547 151.51218"
   id="svg8"
   sodipodi:docname="蜜蜂.svg"
   inkscape:version="1.3.2 (091e20e, 2023-11-25, custom)"
   xmlns:inkscape="http://www.inkscape.org/namespaces/inkscape"
   xmlns:sodipodi="http://sodipodi.sourceforge.net/DTD/sodipodi-0.dtd"
   xmlns="http://www.w3.org/2000/svg"
   xmlns:svg="http://www.w3.org/2000/svg">
  <defs
     id="defs8" />
  <sodipodi:namedview
     id="namedview8"
     pagecolor="#ffffff"
     bordercolor="#000000"
     borderopacity="0.25"
     inkscape:showpageshadow="2"
     inkscape:pageopacity="0.0"
     inkscape:pagecheckerboard="0"
     inkscape:deskcolor="#d1d1d1"
     inkscape:zoom="1.6146498"
     inkscape:cx="100.95068"
     inkscape:cy="56.049305"
     inkscape:window-width="1397"
     inkscape:window-height="1041"
     inkscape:window-x="182"
     inkscape:window-y="0"
     inkscape:window-maximized="0"
     inkscape:current-layer="svg8" />
  <g
     transform="matrix(-1.0474502,1.0240862,-1.0240862,-1.0474502,652.80437,-63.415534)"
     id="g8">
    <g
       data-paper-data="{&quot;isPaintingLayer&quot;:true}"
       fill-rule="nonzero"
       stroke-linecap="butt"
       stroke-linejoin="miter"
       stroke-miterlimit="10"
       stroke-dasharray="none"
       stroke-dashoffset="0"
       style="mix-blend-mode:normal"
       id="g7">
      <path
         d="m 382.44651,212.85589 c 0,0 1.04823,6.95319 2.30185,13.86555 1.29502,7.1406 2.75889,14.28795 0.30896,16.88564 -3.16731,3.35834 -9.80416,2.24154 -16.70766,1.09312 -8.47276,-1.40947 -17.09405,-3.37287 -17.09405,-3.37287 z"
         fill="#333333"
         stroke="none"
         stroke-width="0"
         id="path1" />
      <path
         d="m 287.06523,212.03153 c -28.07432,-28.85275 -33.33488,-64.55202 -16.20356,-81.22115 17.13132,-16.66912 53.17598,-12.50894 81.25029,16.34381 28.07432,28.85275 34.53838,65.75551 17.40706,82.42464 -17.13132,16.66913 -54.37948,11.30545 -82.45379,-17.5473 z"
         fill="#ffe763"
         stroke="#d3bd46"
         stroke-width="11.5"
         id="path2" />
      <path
         d="m 218.21428,138.8514 c 0,-6.39747 5.18617,-11.58364 11.58364,-11.58364 4.22842,0 7.92768,2.26563 9.95006,5.64916 0.5527,0.92469 10.9013,-1.70873 19.37829,2.31087 5.33115,2.52792 12.43508,6.81659 14.52882,10.36386 0.82598,1.3994 0.48631,3.1732 -0.92323,4.29858 -1.40954,1.12539 -2.92559,0.6409 -4.55089,-0.43937 -3.01881,-2.00649 -6.75305,-6.47451 -12.02522,-8.29537 -7.30859,-2.52418 -14.78724,-1.73949 -14.79323,-1.63446 -0.34688,6.08584 -5.39191,10.91399 -11.5646,10.91399 -6.39747,0 -11.58364,-5.18617 -11.58364,-11.58363 z"
         fill="#333333"
         stroke="none"
         stroke-width="0"
         id="path3" />
      <path
         d="m 290.1786,89.49039 c 0.22397,6.16863 -4.41795,11.38551 -10.48719,11.95299 -0.10475,0.01 -0.61757,7.51199 2.17014,14.72418 2.01096,5.20264 6.61154,8.77229 8.72624,11.71632 1.13853,1.58503 1.67771,3.08251 0.6042,4.53195 -1.07351,1.44945 -2.8338,1.85325 -4.26226,1.07859 -3.6209,-1.96365 -8.16451,-8.90729 -10.8842,-14.14321 -4.32453,-8.32556 -2.06834,-18.7629 -3.01247,-19.28168 -3.45469,-1.89827 -5.85304,-5.51289 -6.00647,-9.73853 -0.23213,-6.39325 4.76245,-11.76419 11.15571,-11.99631 6.39325,-0.23213 11.76418,4.76246 11.99631,11.15571 z"
         data-paper-data="{&quot;index&quot;:null}"
         fill="#333333"
         stroke="none"
         stroke-width="0"
         id="path4" />
      <path
         d="m 276.98608,189.67929 c 0,0 -4.40295,-7.74385 -6.03118,-11.95009 -1.29462,-3.34443 -3.39005,-11.44032 -3.39005,-11.44032 l 38.95204,-38.64041 c 0,0 9.36763,1.69954 13.21268,3.40845 3.64416,1.61963 9.89691,5.59155 9.89691,5.59155 z"
         fill="#333333"
         stroke="none"
         stroke-width="0"
         id="path5" />
      <path
         d="m 309.48608,222.4601 c 0,0 -6.30044,-3.93778 -8.71791,-5.82199 -3.08487,-2.40439 -9.14168,-8.34924 -9.14168,-8.34924 l 56.75,-56.75 c 0,0 6.02664,5.45594 8.56315,8.64845 2.26632,2.85244 5.93685,9.60155 5.93685,9.60155 z"
         fill="#333333"
         stroke="none"
         stroke-width="0"
         id="path6" />
      <path
         d="m 333.62649,232.2101 38.46918,-38.67122 c 0,0 5.25681,21.24276 -7.51918,33 -12.54041,9.78876 -30.95,5.67122 -30.95,5.67122 z"
         fill="#333333"
         stroke="none"
         stroke-width="0"
         id="path7" />
    </g>
  </g>
</svg>
