<?xml version="1.0" encoding="UTF-8" standalone="no"?>
<svg
   width="218.66083"
   height="168.39781"
   version="1.1"
   id="svg8"
   sodipodi:docname="beetle.svg"
   inkscape:version="1.3.2 (091e20e, 2023-11-25, custom)"
   xmlns:inkscape="http://www.inkscape.org/namespaces/inkscape"
   xmlns:sodipodi="http://sodipodi.sourceforge.net/DTD/sodipodi-0.dtd"
   xmlns="http://www.w3.org/2000/svg"
   xmlns:svg="http://www.w3.org/2000/svg">
  <defs
     id="defs8" />
  <sodipodi:namedview
     id="namedview8"
     pagecolor="#ffffff"
     bordercolor="#000000"
     borderopacity="0.25"
     inkscape:showpageshadow="2"
     inkscape:pageopacity="0.0"
     inkscape:pagecheckerboard="0"
     inkscape:deskcolor="#d1d1d1"
     inkscape:zoom="1.9568182"
     inkscape:cx="76.399535"
     inkscape:cy="88.15331"
     inkscape:window-width="1920"
     inkscape:window-height="1057"
     inkscape:window-x="-8"
     inkscape:window-y="-8"
     inkscape:window-maximized="1"
     inkscape:current-layer="svg8" />
  <clipPath
     id="a">
    <path
       d="m 13.333,9.167 h 83.334 q 4.166,0 4.166,4.166 v 83.334 q 0,4.166 -4.166,4.166 H 13.333 q -4.166,0 -4.166,-4.166 V 13.333 q 0,-4.166 4.166,-4.166"
       id="path1" />
  </clipPath>
  <g
     clip-path="url(#a)"
     id="g8"
     transform="matrix(-2.6501572,2.6813652,-2.6813652,-2.6501572,440.26334,82.260476)">
    <path
       fill="#905db0"
       d="M 47.929,76.213 Q 29.073,57.357 43.215,43.215 57.357,29.073 76.213,47.929 95.069,66.785 80.927,80.927 66.785,95.069 47.929,76.213"
       id="path6" />
    <path
       fill="#754b8f"
       d="M 46.28,77.863 Q 25.773,57.357 41.565,41.565 57.357,25.773 77.863,46.279 98.369,66.785 82.577,82.577 66.785,98.369 46.279,77.863 m 3.299,-3.3 Q 66.784,91.77 79.276,79.277 91.768,66.784 74.563,49.58 57.358,32.376 44.865,44.866 32.372,57.356 49.579,74.564"
       id="path7" />
    <path
       fill="#754b8f"
       d="M 70.112,73.376 Q 58.99,65.154 50.767,54.03 50.698,53.938 50.64,53.84 q -0.06,-0.1 -0.108,-0.203 -0.049,-0.103 -0.087,-0.211 -0.039,-0.108 -0.066,-0.22 -0.028,-0.111 -0.045,-0.224 -0.016,-0.114 -0.022,-0.228 -0.005,-0.115 0,-0.23 0.006,-0.114 0.023,-0.227 0.017,-0.113 0.046,-0.225 0.029,-0.112 0.066,-0.219 0.04,-0.108 0.088,-0.211 0.05,-0.104 0.109,-0.202 0.059,-0.098 0.127,-0.19 0.068,-0.092 0.146,-0.177 0.078,-0.085 0.162,-0.161 0.084,-0.076 0.177,-0.145 0.092,-0.069 0.19,-0.127 0.1,-0.06 0.203,-0.108 0.104,-0.049 0.212,-0.087 0.107,-0.039 0.219,-0.066 0.111,-0.028 0.224,-0.045 0.114,-0.016 0.228,-0.022 0.115,-0.005 0.23,0 0.114,0.007 0.227,0.023 0.113,0.018 0.225,0.046 0.11,0.028 0.219,0.066 0.108,0.04 0.211,0.088 0.104,0.05 0.202,0.109 0.098,0.059 0.19,0.127 0.092,0.068 0.177,0.146 0.085,0.078 0.161,0.162 0.076,0.084 0.145,0.177 7.806,10.56 18.367,18.367 0.092,0.068 0.177,0.145 0.085,0.077 0.163,0.161 0.078,0.084 0.145,0.177 0.067,0.093 0.128,0.19 0.061,0.097 0.108,0.202 0.047,0.105 0.088,0.212 0.041,0.107 0.067,0.219 0.028,0.11 0.045,0.224 0.017,0.113 0.023,0.228 0.005,0.114 0,0.229 -0.006,0.114 -0.022,0.228 -0.017,0.113 -0.044,0.224 -0.028,0.112 -0.067,0.22 -0.038,0.108 -0.087,0.211 -0.049,0.104 -0.107,0.202 -0.06,0.099 -0.127,0.191 -0.069,0.092 -0.145,0.177 -0.077,0.085 -0.162,0.163 -0.085,0.077 -0.177,0.145 -0.092,0.069 -0.19,0.128 -0.098,0.059 -0.202,0.108 -0.104,0.049 -0.211,0.088 -0.107,0.039 -0.22,0.067 -0.11,0.028 -0.224,0.045 -0.113,0.017 -0.227,0.023 -0.115,0.005 -0.23,0 -0.114,-0.006 -0.227,-0.022 -0.114,-0.017 -0.225,-0.045 -0.111,-0.028 -0.22,-0.066 -0.107,-0.038 -0.211,-0.087 -0.104,-0.049 -0.202,-0.107 -0.099,-0.06 -0.19,-0.127 m -8.042,0.009 q 0.058,-0.058 0.119,-0.113 0.061,-0.055 0.124,-0.107 0.063,-0.052 0.128,-0.1 0.066,-0.05 0.134,-0.095 0.068,-0.045 0.138,-0.087 0.07,-0.042 0.143,-0.08 0.072,-0.04 0.146,-0.074 0.074,-0.035 0.15,-0.067 0.075,-0.031 0.152,-0.059 0.077,-0.028 0.156,-0.051 0.079,-0.023 0.157,-0.044 0.078,-0.021 0.16,-0.035 0.082,-0.014 0.161,-0.028 0.079,-0.014 0.162,-0.02 0.082,-0.008 0.164,-0.013 0.081,-0.003 0.163,-0.003 0.082,0 0.164,0.004 0.082,0.004 0.163,0.012 0.081,0.008 0.162,0.02 0.081,0.012 0.161,0.028 0.08,0.016 0.16,0.035 0.08,0.019 0.158,0.044 0.078,0.025 0.155,0.051 0.077,0.026 0.153,0.06 0.075,0.03 0.15,0.066 0.073,0.035 0.145,0.073 0.073,0.039 0.143,0.08 0.07,0.043 0.138,0.088 0.068,0.046 0.134,0.094 0.066,0.05 0.129,0.101 0.063,0.051 0.124,0.107 0.061,0.056 0.118,0.113 0.057,0.057 0.113,0.118 0.056,0.061 0.107,0.124 0.051,0.063 0.1,0.13 0.05,0.065 0.095,0.133 0.045,0.068 0.087,0.138 0.042,0.07 0.08,0.142 0.04,0.073 0.074,0.147 0.035,0.074 0.067,0.15 0.031,0.075 0.059,0.152 0.028,0.077 0.05,0.155 0.025,0.078 0.045,0.158 0.02,0.08 0.035,0.16 0.016,0.08 0.028,0.16 0.012,0.082 0.02,0.163 0.008,0.082 0.012,0.163 0.004,0.082 0.004,0.164 0,0.082 -0.004,0.163 -0.004,0.081 -0.012,0.164 -0.008,0.083 -0.02,0.162 -0.012,0.08 -0.028,0.161 -0.016,0.08 -0.035,0.16 -0.019,0.08 -0.044,0.157 -0.025,0.077 -0.051,0.156 -0.026,0.079 -0.06,0.152 -0.03,0.076 -0.066,0.15 -0.035,0.074 -0.073,0.146 -0.039,0.072 -0.08,0.143 -0.043,0.07 -0.088,0.138 -0.046,0.068 -0.094,0.133 -0.05,0.066 -0.101,0.13 -0.052,0.063 -0.107,0.123 -0.055,0.061 -0.113,0.119 -0.058,0.058 -0.118,0.113 -0.06,0.055 -0.124,0.107 -0.064,0.052 -0.13,0.1 -0.066,0.048 -0.133,0.094 -0.067,0.046 -0.138,0.088 -0.071,0.042 -0.143,0.08 -0.072,0.04 -0.146,0.074 -0.074,0.035 -0.15,0.066 -0.075,0.032 -0.152,0.06 -0.077,0.028 -0.155,0.05 -0.079,0.024 -0.158,0.044 -0.08,0.02 -0.16,0.036 -0.08,0.016 -0.16,0.028 -0.08,0.012 -0.163,0.02 -0.082,0.008 -0.163,0.012 -0.082,0.004 -0.164,0.004 -0.082,0 -0.163,-0.004 -0.081,-0.004 -0.164,-0.012 -0.083,-0.008 -0.162,-0.02 -0.08,-0.012 -0.161,-0.028 -0.08,-0.016 -0.16,-0.036 -0.08,-0.02 -0.157,-0.043 -0.077,-0.023 -0.156,-0.052 -0.079,-0.029 -0.152,-0.059 -0.076,-0.03 -0.15,-0.066 -0.074,-0.035 -0.146,-0.073 -0.072,-0.039 -0.143,-0.081 -0.071,-0.042 -0.138,-0.088 -0.067,-0.046 -0.134,-0.094 -0.067,-0.048 -0.128,-0.1 -0.064,-0.052 -0.124,-0.107 -0.061,-0.055 -0.119,-0.113 -0.058,-0.058 -0.113,-0.119 -0.055,-0.061 -0.107,-0.124 -0.052,-0.063 -0.1,-0.129 -0.048,-0.066 -0.094,-0.133 -0.046,-0.067 -0.088,-0.138 -0.042,-0.071 -0.08,-0.143 -0.04,-0.072 -0.074,-0.146 -0.035,-0.074 -0.066,-0.15 -0.032,-0.075 -0.06,-0.152 -0.028,-0.077 -0.05,-0.156 -0.022,-0.079 -0.044,-0.157 -0.022,-0.078 -0.036,-0.16 -0.014,-0.082 -0.028,-0.161 -0.014,-0.079 -0.02,-0.162 -0.008,-0.082 -0.012,-0.164 -0.004,-0.081 -0.004,-0.163 0,-0.082 0.004,-0.164 0.004,-0.082 0.012,-0.163 0.008,-0.081 0.02,-0.162 0.012,-0.081 0.028,-0.161 0.016,-0.08 0.036,-0.16 0.02,-0.08 0.043,-0.158 0.023,-0.078 0.052,-0.155 0.029,-0.077 0.059,-0.153 0.03,-0.076 0.066,-0.15 0.035,-0.073 0.073,-0.146 0.039,-0.072 0.081,-0.142 0.042,-0.07 0.088,-0.138 0.046,-0.068 0.094,-0.134 0.048,-0.066 0.1,-0.129 0.052,-0.063 0.107,-0.124 0.055,-0.061 0.113,-0.118 M 73.385,62.071 q 0.058,-0.058 0.118,-0.113 0.06,-0.055 0.124,-0.107 0.063,-0.051 0.13,-0.1 0.065,-0.049 0.133,-0.094 0.068,-0.046 0.138,-0.088 0.07,-0.042 0.142,-0.08 0.072,-0.038 0.147,-0.074 0.075,-0.036 0.15,-0.066 0.075,-0.03 0.152,-0.06 0.077,-0.03 0.155,-0.05 0.078,-0.02 0.158,-0.044 0.08,-0.024 0.16,-0.036 0.08,-0.012 0.16,-0.028 0.082,-0.012 0.163,-0.02 0.082,-0.008 0.163,-0.012 0.082,-0.004 0.164,-0.004 0.082,0 0.163,0.004 0.081,0.004 0.164,0.012 0.083,0.008 0.162,0.02 0.08,0.012 0.161,0.028 0.08,0.016 0.16,0.036 0.08,0.02 0.157,0.043 0.077,0.023 0.156,0.052 0.079,0.029 0.152,0.059 0.076,0.03 0.15,0.066 0.074,0.035 0.146,0.073 0.072,0.039 0.143,0.081 0.071,0.042 0.138,0.088 0.067,0.046 0.133,0.094 0.066,0.048 0.13,0.1 0.064,0.052 0.123,0.107 0.059,0.055 0.119,0.113 0.06,0.058 0.113,0.119 0.053,0.061 0.107,0.123 0.054,0.062 0.1,0.13 0.046,0.068 0.094,0.133 0.048,0.065 0.088,0.138 0.04,0.073 0.08,0.143 0.04,0.072 0.074,0.146 0.035,0.074 0.066,0.15 0.032,0.075 0.06,0.152 0.028,0.077 0.05,0.155 0.024,0.079 0.044,0.158 0.02,0.08 0.036,0.16 0.016,0.08 0.028,0.161 0.012,0.081 0.02,0.162 0.008,0.081 0.012,0.164 0.004,0.081 0.004,0.163 0,0.082 -0.004,0.164 -0.004,0.082 -0.012,0.163 -0.008,0.081 -0.02,0.162 -0.012,0.081 -0.028,0.161 -0.016,0.08 -0.036,0.16 -0.02,0.08 -0.043,0.158 -0.023,0.078 -0.052,0.155 -0.029,0.077 -0.059,0.153 -0.03,0.076 -0.066,0.15 -0.035,0.073 -0.073,0.145 -0.039,0.073 -0.081,0.143 -0.042,0.07 -0.088,0.138 -0.046,0.068 -0.094,0.134 -0.049,0.066 -0.1,0.129 -0.051,0.063 -0.107,0.124 -0.056,0.061 -0.113,0.118 -0.057,0.057 -0.119,0.113 -0.062,0.056 -0.124,0.107 -0.062,0.051 -0.129,0.1 -0.067,0.049 -0.133,0.095 -0.066,0.046 -0.138,0.087 -0.072,0.041 -0.143,0.08 -0.072,0.04 -0.146,0.074 -0.074,0.035 -0.15,0.067 -0.075,0.031 -0.152,0.059 -0.077,0.028 -0.156,0.05 -0.078,0.025 -0.157,0.045 -0.08,0.02 -0.16,0.035 -0.08,0.015 -0.161,0.028 -0.081,0.013 -0.162,0.02 -0.082,0.008 -0.164,0.012 -0.081,0.004 -0.163,0.004 -0.082,0 -0.164,-0.004 -0.082,-0.004 -0.163,-0.012 -0.081,-0.008 -0.162,-0.02 -0.081,-0.012 -0.161,-0.028 -0.08,-0.016 -0.16,-0.035 -0.08,-0.019 -0.158,-0.044 -0.078,-0.025 -0.155,-0.051 -0.077,-0.026 -0.153,-0.06 -0.075,-0.03 -0.15,-0.066 -0.073,-0.035 -0.145,-0.073 -0.073,-0.039 -0.143,-0.08 -0.07,-0.043 -0.138,-0.088 -0.068,-0.046 -0.134,-0.095 -0.066,-0.048 -0.129,-0.1 -0.063,-0.052 -0.124,-0.107 -0.061,-0.055 -0.118,-0.113 -0.057,-0.058 -0.113,-0.118 -0.055,-0.061 -0.107,-0.124 -0.052,-0.063 -0.1,-0.13 -0.05,-0.065 -0.095,-0.133 -0.045,-0.068 -0.087,-0.138 -0.042,-0.07 -0.08,-0.143 -0.04,-0.072 -0.074,-0.146 -0.035,-0.074 -0.067,-0.15 -0.031,-0.075 -0.059,-0.152 -0.028,-0.077 -0.051,-0.155 -0.023,-0.078 -0.044,-0.158 -0.021,-0.08 -0.035,-0.16 -0.014,-0.08 -0.028,-0.16 -0.014,-0.08 -0.02,-0.163 -0.008,-0.082 -0.012,-0.163 -0.004,-0.082 -0.004,-0.164 0,-0.082 0.003,-0.163 0.005,-0.082 0.013,-0.164 0.008,-0.081 0.02,-0.162 0.012,-0.081 0.028,-0.161 0.016,-0.08 0.035,-0.16 0.019,-0.08 0.044,-0.158 0.025,-0.078 0.051,-0.155 0.026,-0.077 0.06,-0.153 0.03,-0.075 0.066,-0.149 0.034,-0.074 0.073,-0.146 0.039,-0.072 0.08,-0.143 0.043,-0.07 0.088,-0.138 0.046,-0.068 0.094,-0.134 l 0.101,-0.129 q 0.052,-0.063 0.107,-0.123 0.055,-0.061 0.113,-0.119 m -20.742,4.714 q 0.058,-0.058 0.118,-0.113 0.061,-0.055 0.124,-0.107 0.064,-0.051 0.13,-0.1 0.065,-0.049 0.133,-0.094 0.068,-0.046 0.138,-0.088 0.07,-0.042 0.143,-0.08 0.073,-0.038 0.146,-0.074 0.073,-0.036 0.15,-0.066 0.077,-0.03 0.152,-0.06 0.075,-0.03 0.155,-0.05 0.08,-0.02 0.158,-0.044 0.078,-0.024 0.16,-0.036 0.082,-0.012 0.16,-0.028 0.082,-0.012 0.163,-0.02 0.082,-0.008 0.163,-0.012 0.082,-0.004 0.164,-0.004 0.082,0 0.164,0.004 0.082,0.004 0.163,0.012 0.081,0.008 0.162,0.02 0.081,0.012 0.161,0.028 0.08,0.016 0.16,0.036 0.08,0.02 0.158,0.043 0.078,0.023 0.155,0.052 0.077,0.029 0.153,0.059 0.076,0.03 0.15,0.066 0.073,0.035 0.145,0.073 0.073,0.039 0.143,0.081 0.07,0.042 0.138,0.088 0.068,0.046 0.134,0.094 0.066,0.048 0.129,0.1 0.063,0.052 0.124,0.107 0.061,0.055 0.118,0.113 0.057,0.058 0.113,0.119 0.056,0.061 0.107,0.124 0.051,0.063 0.1,0.128 0.049,0.065 0.095,0.134 0.046,0.069 0.087,0.138 0.041,0.069 0.08,0.143 0.04,0.072 0.074,0.146 0.035,0.074 0.067,0.15 0.03,0.075 0.058,0.152 0.028,0.077 0.052,0.156 0.024,0.078 0.043,0.157 0.02,0.08 0.036,0.16 0.016,0.08 0.028,0.161 0.012,0.081 0.02,0.162 0.008,0.081 0.012,0.164 0.004,0.081 0.004,0.163 0,0.082 -0.004,0.164 -0.004,0.082 -0.012,0.163 -0.008,0.081 -0.02,0.162 -0.012,0.081 -0.028,0.161 -0.016,0.08 -0.036,0.16 -0.02,0.08 -0.043,0.158 -0.023,0.078 -0.051,0.155 -0.028,0.077 -0.06,0.153 -0.03,0.075 -0.066,0.15 -0.035,0.073 -0.073,0.146 -0.039,0.072 -0.08,0.142 -0.043,0.07 -0.088,0.138 -0.046,0.068 -0.095,0.134 -0.048,0.066 -0.1,0.129 -0.052,0.063 -0.107,0.124 -0.055,0.061 -0.113,0.118 -0.058,0.057 -0.118,0.113 -0.06,0.056 -0.124,0.107 -0.064,0.052 -0.13,0.1 -0.065,0.05 -0.133,0.095 -0.068,0.045 -0.138,0.087 -0.07,0.042 -0.143,0.08 -0.072,0.04 -0.146,0.074 -0.074,0.035 -0.15,0.067 -0.075,0.031 -0.152,0.059 -0.077,0.028 -0.155,0.051 -0.078,0.023 -0.158,0.044 -0.08,0.021 -0.16,0.035 -0.08,0.014 -0.16,0.028 -0.08,0.014 -0.163,0.02 -0.082,0.008 -0.163,0.012 -0.082,0.004 -0.164,0.004 -0.082,0 -0.164,-0.003 -0.081,-0.005 -0.163,-0.013 -0.081,-0.008 -0.162,-0.02 -0.081,-0.012 -0.161,-0.028 -0.08,-0.016 -0.16,-0.035 -0.08,-0.019 -0.158,-0.044 -0.078,-0.025 -0.155,-0.051 -0.077,-0.026 -0.153,-0.06 -0.075,-0.03 -0.15,-0.066 -0.073,-0.034 -0.145,-0.073 -0.072,-0.039 -0.143,-0.08 -0.07,-0.043 -0.138,-0.088 -0.068,-0.046 -0.134,-0.094 l -0.129,-0.101 q -0.063,-0.052 -0.123,-0.107 -0.061,-0.055 -0.119,-0.113 -0.058,-0.058 -0.113,-0.118 -0.055,-0.06 -0.107,-0.124 -0.052,-0.064 -0.1,-0.13 -0.048,-0.066 -0.095,-0.133 -0.047,-0.067 -0.087,-0.138 -0.04,-0.071 -0.08,-0.142 -0.04,-0.073 -0.074,-0.147 -0.035,-0.074 -0.067,-0.15 -0.03,-0.075 -0.058,-0.152 -0.028,-0.077 -0.052,-0.155 -0.024,-0.078 -0.043,-0.158 -0.02,-0.08 -0.036,-0.16 -0.016,-0.08 -0.028,-0.16 -0.012,-0.08 -0.02,-0.163 -0.008,-0.082 -0.012,-0.163 -0.004,-0.082 -0.004,-0.164 0,-0.082 0.004,-0.163 0.004,-0.081 0.012,-0.164 0.008,-0.083 0.02,-0.162 0.012,-0.08 0.028,-0.161 0.016,-0.08 0.036,-0.16 0.02,-0.08 0.043,-0.157 0.023,-0.077 0.052,-0.156 0.029,-0.079 0.058,-0.152 0.029,-0.073 0.067,-0.15 0.038,-0.077 0.073,-0.146 0.035,-0.069 0.08,-0.142 0.045,-0.073 0.088,-0.139 0.043,-0.066 0.095,-0.133 0.052,-0.067 0.1,-0.13 0.048,-0.063 0.107,-0.123 0.059,-0.06 0.113,-0.119 M 66.785,52.643 q 0.058,-0.058 0.119,-0.113 0.061,-0.055 0.124,-0.107 0.063,-0.052 0.129,-0.1 0.065,-0.05 0.133,-0.095 0.068,-0.045 0.138,-0.087 0.07,-0.042 0.143,-0.08 0.072,-0.04 0.146,-0.074 0.074,-0.035 0.15,-0.067 0.075,-0.03 0.152,-0.058 0.077,-0.028 0.156,-0.052 0.078,-0.024 0.157,-0.043 0.08,-0.02 0.16,-0.036 0.08,-0.016 0.161,-0.028 0.081,-0.012 0.162,-0.02 0.081,-0.008 0.164,-0.012 0.081,-0.004 0.163,-0.004 0.082,0 0.164,0.004 0.082,0.004 0.163,0.012 0.081,0.008 0.162,0.02 0.081,0.012 0.161,0.028 0.08,0.016 0.16,0.036 0.08,0.02 0.158,0.043 0.078,0.023 0.155,0.052 0.077,0.029 0.153,0.058 0.076,0.029 0.15,0.067 0.073,0.035 0.145,0.073 0.073,0.039 0.143,0.08 0.07,0.043 0.138,0.088 0.068,0.046 0.134,0.095 0.066,0.048 0.129,0.1 0.063,0.052 0.124,0.107 0.061,0.055 0.118,0.113 0.057,0.058 0.113,0.118 0.056,0.06 0.107,0.124 0.052,0.064 0.1,0.13 0.05,0.065 0.095,0.133 0.045,0.068 0.087,0.138 0.042,0.07 0.08,0.143 0.04,0.072 0.074,0.146 0.035,0.074 0.067,0.15 0.031,0.075 0.059,0.152 0.028,0.077 0.051,0.155 0.023,0.078 0.044,0.158 0.021,0.08 0.035,0.16 0.014,0.08 0.028,0.16 0.014,0.08 0.02,0.163 0.008,0.082 0.012,0.163 0.004,0.082 0.004,0.164 0,0.082 -0.004,0.164 -0.004,0.082 -0.012,0.163 -0.008,0.081 -0.02,0.162 -0.012,0.081 -0.028,0.161 -0.016,0.08 -0.035,0.16 -0.019,0.08 -0.044,0.158 -0.025,0.078 -0.051,0.155 -0.026,0.077 -0.06,0.153 -0.03,0.075 -0.066,0.15 -0.035,0.073 -0.073,0.145 -0.039,0.072 -0.08,0.143 -0.043,0.07 -0.088,0.138 -0.046,0.068 -0.094,0.134 l -0.101,0.129 q -0.052,0.063 -0.107,0.124 -0.055,0.06 -0.113,0.118 -0.058,0.058 -0.118,0.113 -0.06,0.055 -0.124,0.107 -0.064,0.052 -0.13,0.1 -0.065,0.05 -0.133,0.095 -0.068,0.045 -0.138,0.087 -0.07,0.042 -0.143,0.08 -0.072,0.04 -0.146,0.074 -0.074,0.035 -0.15,0.067 l -0.152,0.059 q -0.077,0.027 -0.155,0.05 -0.079,0.025 -0.158,0.044 -0.08,0.02 -0.16,0.036 -0.08,0.016 -0.16,0.028 -0.08,0.012 -0.163,0.02 -0.082,0.008 -0.163,0.012 -0.082,0.004 -0.164,0.004 -0.082,0 -0.163,-0.004 -0.081,-0.004 -0.164,-0.012 -0.083,-0.008 -0.162,-0.02 -0.08,-0.012 -0.161,-0.028 -0.08,-0.016 -0.16,-0.036 -0.08,-0.02 -0.157,-0.043 -0.077,-0.023 -0.156,-0.052 -0.079,-0.029 -0.152,-0.058 -0.073,-0.029 -0.15,-0.067 -0.077,-0.038 -0.146,-0.073 -0.069,-0.035 -0.143,-0.08 -0.074,-0.045 -0.138,-0.088 -0.064,-0.043 -0.134,-0.095 -0.07,-0.052 -0.128,-0.1 -0.064,-0.052 -0.124,-0.107 -0.061,-0.055 -0.119,-0.113 -0.058,-0.058 -0.113,-0.118 -0.055,-0.06 -0.107,-0.124 -0.052,-0.064 -0.1,-0.13 -0.048,-0.066 -0.094,-0.133 -0.046,-0.067 -0.088,-0.138 -0.042,-0.071 -0.08,-0.143 -0.04,-0.072 -0.074,-0.146 -0.035,-0.074 -0.066,-0.15 -0.032,-0.075 -0.06,-0.152 -0.028,-0.077 -0.05,-0.155 -0.024,-0.079 -0.044,-0.158 -0.02,-0.08 -0.036,-0.16 -0.016,-0.08 -0.028,-0.16 -0.012,-0.08 -0.02,-0.163 -0.008,-0.083 -0.012,-0.163 -0.004,-0.082 -0.004,-0.164 0,-0.082 0.004,-0.164 0.004,-0.082 0.012,-0.163 0.008,-0.081 0.02,-0.162 0.012,-0.081 0.028,-0.161 0.016,-0.08 0.036,-0.16 0.02,-0.08 0.043,-0.158 0.023,-0.078 0.052,-0.155 0.029,-0.077 0.059,-0.153 0.03,-0.076 0.066,-0.15 0.035,-0.073 0.073,-0.145 0.039,-0.072 0.081,-0.143 0.042,-0.071 0.088,-0.138 0.046,-0.067 0.094,-0.134 0.048,-0.067 0.1,-0.129 0.052,-0.062 0.107,-0.124 0.055,-0.062 0.113,-0.118 m -20.742,4.714 q 0.058,-0.058 0.119,-0.113 0.061,-0.055 0.124,-0.107 0.063,-0.052 0.129,-0.1 0.066,-0.048 0.133,-0.094 0.067,-0.046 0.139,-0.088 0.072,-0.042 0.142,-0.08 0.072,-0.04 0.146,-0.074 0.074,-0.035 0.15,-0.066 0.075,-0.032 0.152,-0.06 0.077,-0.028 0.156,-0.05 0.079,-0.022 0.157,-0.044 0.078,-0.022 0.16,-0.036 0.082,-0.014 0.161,-0.028 0.079,-0.014 0.163,-0.02 0.084,-0.006 0.163,-0.012 0.079,-0.006 0.163,-0.004 0.084,0.002 0.164,0.004 0.08,0.002 0.163,0.012 0.082,0.008 0.162,0.02 0.081,0.012 0.162,0.028 0.08,0.016 0.16,0.036 0.079,0.02 0.157,0.043 0.078,0.024 0.155,0.052 0.077,0.028 0.153,0.058 0.076,0.03 0.15,0.067 0.074,0.037 0.146,0.073 0.072,0.036 0.142,0.081 0.07,0.045 0.138,0.088 0.068,0.043 0.134,0.094 0.066,0.051 0.129,0.1 0.063,0.049 0.124,0.107 0.061,0.058 0.118,0.113 0.057,0.055 0.113,0.119 0.056,0.064 0.107,0.123 0.051,0.059 0.1,0.13 0.049,0.071 0.095,0.133 0.046,0.062 0.087,0.138 0.041,0.076 0.081,0.143 0.04,0.067 0.074,0.146 0.034,0.079 0.066,0.15 0.032,0.071 0.059,0.152 0.027,0.081 0.051,0.155 0.024,0.074 0.044,0.158 0.02,0.084 0.036,0.16 0.016,0.076 0.028,0.161 0.012,0.085 0.02,0.162 0.008,0.077 0.012,0.164 0.004,0.087 0.004,0.163 0,0.076 -0.004,0.164 -0.004,0.088 -0.012,0.163 -0.008,0.075 -0.02,0.162 -0.012,0.087 -0.028,0.161 -0.016,0.074 -0.036,0.16 -0.02,0.086 -0.044,0.158 -0.024,0.072 -0.051,0.155 -0.027,0.083 -0.059,0.153 -0.032,0.07 -0.066,0.15 -0.034,0.08 -0.074,0.145 -0.04,0.065 -0.08,0.143 -0.043,0.07 -0.088,0.138 -0.045,0.068 -0.094,0.134 -0.049,0.066 -0.1,0.129 -0.053,0.063 -0.108,0.124 -0.055,0.06 -0.113,0.118 -0.057,0.058 -0.118,0.113 -0.061,0.055 -0.124,0.107 -0.063,0.052 -0.129,0.1 -0.066,0.05 -0.134,0.095 -0.068,0.045 -0.138,0.087 -0.07,0.042 -0.142,0.08 -0.072,0.04 -0.146,0.074 -0.074,0.035 -0.15,0.067 -0.076,0.031 -0.153,0.059 -0.077,0.028 -0.155,0.05 -0.078,0.025 -0.158,0.045 -0.08,0.02 -0.16,0.035 -0.08,0.016 -0.16,0.028 -0.081,0.012 -0.163,0.02 -0.081,0.008 -0.163,0.012 -0.082,0.004 -0.164,0.004 -0.082,0 -0.163,-0.004 -0.081,-0.004 -0.163,-0.012 -0.082,-0.008 -0.163,-0.02 -0.081,-0.012 -0.16,-0.028 -0.081,-0.016 -0.16,-0.035 -0.08,-0.02 -0.158,-0.044 -0.079,-0.024 -0.156,-0.051 -0.077,-0.028 -0.152,-0.06 -0.076,-0.03 -0.15,-0.066 -0.074,-0.035 -0.146,-0.073 -0.072,-0.039 -0.142,-0.08 -0.07,-0.043 -0.138,-0.088 -0.069,-0.046 -0.134,-0.095 -0.066,-0.048 -0.13,-0.1 -0.063,-0.052 -0.123,-0.107 -0.06,-0.055 -0.119,-0.113 -0.059,-0.058 -0.112,-0.118 -0.053,-0.06 -0.107,-0.124 -0.054,-0.064 -0.101,-0.13 -0.047,-0.066 -0.094,-0.133 -0.047,-0.067 -0.088,-0.138 -0.041,-0.071 -0.08,-0.143 -0.039,-0.072 -0.074,-0.146 -0.035,-0.074 -0.066,-0.15 -0.031,-0.076 -0.06,-0.152 -0.029,-0.076 -0.05,-0.155 -0.024,-0.079 -0.044,-0.158 -0.02,-0.08 -0.036,-0.16 -0.016,-0.08 -0.028,-0.16 -0.012,-0.08 -0.02,-0.163 -0.008,-0.083 -0.012,-0.163 -0.004,-0.082 -0.004,-0.164 0,-0.082 0.004,-0.163 0.004,-0.081 0.012,-0.164 0.008,-0.083 0.02,-0.162 0.012,-0.079 0.028,-0.161 0.016,-0.082 0.036,-0.16 0.02,-0.078 0.044,-0.158 0.024,-0.08 0.05,-0.155 0.026,-0.075 0.06,-0.153 0.034,-0.078 0.066,-0.15 0.035,-0.073 0.074,-0.145 0.039,-0.072 0.08,-0.143 0.041,-0.071 0.088,-0.138 0.047,-0.067 0.094,-0.134 0.047,-0.067 0.1,-0.129 0.053,-0.063 0.108,-0.123 0.055,-0.061 0.112,-0.119 M 57.357,46.043 q 0.058,-0.057 0.119,-0.112 0.061,-0.055 0.123,-0.107 0.062,-0.052 0.13,-0.101 0.068,-0.049 0.133,-0.094 0.068,-0.046 0.138,-0.088 0.07,-0.042 0.143,-0.08 0.073,-0.038 0.146,-0.074 0.073,-0.036 0.15,-0.066 0.077,-0.03 0.152,-0.06 0.075,-0.03 0.155,-0.05 0.08,-0.02 0.158,-0.044 0.078,-0.024 0.16,-0.036 0.082,-0.012 0.161,-0.028 0.079,-0.016 0.162,-0.02 0.083,-0.004 0.163,-0.012 0.08,-0.008 0.164,-0.004 0.084,0.004 0.164,0.004 0.08,0 0.163,0.012 0.083,0.012 0.162,0.02 0.079,0.008 0.161,0.028 0.082,0.02 0.16,0.036 0.078,0.016 0.158,0.044 0.08,0.028 0.155,0.05 0.075,0.022 0.153,0.06 0.078,0.038 0.15,0.066 0.072,0.028 0.145,0.074 0.073,0.046 0.143,0.08 0.07,0.034 0.138,0.088 0.068,0.054 0.134,0.094 0.066,0.04 0.129,0.1 0.063,0.053 0.124,0.108 0.06,0.055 0.118,0.112 0.058,0.058 0.113,0.119 0.055,0.061 0.107,0.124 0.052,0.063 0.1,0.129 0.05,0.065 0.095,0.134 0.045,0.067 0.087,0.138 0.042,0.07 0.08,0.142 0.04,0.072 0.074,0.146 0.035,0.074 0.067,0.15 0.031,0.075 0.059,0.152 0.028,0.077 0.05,0.156 0.025,0.078 0.044,0.157 0.02,0.08 0.036,0.16 0.016,0.08 0.028,0.161 0.012,0.081 0.02,0.163 0.008,0.082 0.012,0.163 0.004,0.081 0.004,0.163 0,0.082 -0.004,0.164 -0.004,0.082 -0.012,0.163 -0.008,0.082 -0.02,0.162 -0.012,0.081 -0.028,0.162 -0.016,0.08 -0.036,0.16 -0.02,0.079 -0.043,0.157 -0.024,0.078 -0.051,0.155 -0.028,0.077 -0.06,0.153 -0.03,0.076 -0.066,0.15 -0.035,0.074 -0.073,0.146 -0.039,0.072 -0.08,0.142 -0.043,0.07 -0.088,0.138 -0.046,0.068 -0.095,0.134 -0.048,0.066 -0.1,0.129 -0.052,0.063 -0.107,0.124 -0.055,0.061 -0.113,0.118 -0.058,0.057 -0.118,0.113 -0.061,0.055 -0.124,0.107 -0.064,0.052 -0.13,0.1 -0.065,0.05 -0.133,0.095 -0.068,0.045 -0.138,0.087 -0.07,0.042 -0.143,0.081 -0.072,0.039 -0.146,0.074 -0.074,0.035 -0.15,0.066 -0.076,0.031 -0.152,0.059 -0.076,0.028 -0.155,0.051 -0.079,0.023 -0.158,0.044 -0.079,0.021 -0.16,0.036 -0.081,0.015 -0.16,0.028 -0.079,0.013 -0.163,0.02 -0.084,0.007 -0.163,0.012 -0.079,0.005 -0.164,0.004 Q 59.629,51.733 59.551,51.73 59.473,51.727 59.387,51.718 59.301,51.709 59.225,51.698 59.149,51.687 59.064,51.67 58.979,51.653 58.904,51.634 58.829,51.615 58.746,51.59 58.663,51.565 58.591,51.539 58.519,51.513 58.438,51.48 58.357,51.447 58.288,51.414 58.215,51.379 58.143,51.34 58.071,51.301 58,51.26 57.929,51.219 57.862,51.172 57.794,51.126 57.728,51.078 57.663,51.029 57.599,50.978 57.536,50.925 57.476,50.87 57.415,50.815 57.357,50.757 57.299,50.7 57.244,50.639 57.189,50.578 57.137,50.515 57.085,50.452 57.037,50.386 56.987,50.32 56.942,50.252 56.897,50.184 56.855,50.114 56.813,50.044 56.775,49.972 56.735,49.9 56.701,49.826 56.666,49.752 56.634,49.676 56.604,49.6 56.576,49.523 56.548,49.446 56.524,49.368 56.5,49.29 56.481,49.21 q -0.02,-0.08 -0.036,-0.16 -0.016,-0.08 -0.028,-0.16 -0.012,-0.08 -0.02,-0.163 -0.008,-0.083 -0.012,-0.163 -0.004,-0.08 -0.004,-0.164 0,-0.084 0.004,-0.163 0.004,-0.079 0.012,-0.163 0.008,-0.082 0.02,-0.163 0.012,-0.08 0.028,-0.16 0.016,-0.081 0.036,-0.16 0.02,-0.08 0.043,-0.158 0.024,-0.079 0.052,-0.156 0.028,-0.077 0.058,-0.152 0.03,-0.075 0.067,-0.15 0.037,-0.075 0.073,-0.146 0.039,-0.072 0.08,-0.142 0.043,-0.07 0.088,-0.138 0.046,-0.069 0.095,-0.134 0.048,-0.066 0.1,-0.13 0.052,-0.063 0.107,-0.123 0.055,-0.06 0.113,-0.119"
       id="path8" />
  </g>
</svg>
