<?xml version="1.0" encoding="UTF-8" standalone="no"?>
<svg
   version="1.1"
   width="300"
   height="154.52728"
   viewBox="0 0 300 154.52728"
   id="svg11"
   sodipodi:docname="beetle.svg"
   inkscape:version="1.3.2 (091e20e, 2023-11-25, custom)"
   xmlns:inkscape="http://www.inkscape.org/namespaces/inkscape"
   xmlns:sodipodi="http://sodipodi.sourceforge.net/DTD/sodipodi-0.dtd"
   xmlns="http://www.w3.org/2000/svg"
   xmlns:svg="http://www.w3.org/2000/svg">
  <defs
     id="defs11" />
  <sodipodi:namedview
     id="namedview11"
     pagecolor="#ffffff"
     bordercolor="#000000"
     borderopacity="0.25"
     inkscape:showpageshadow="2"
     inkscape:pageopacity="0.0"
     inkscape:pagecheckerboard="0"
     inkscape:deskcolor="#d1d1d1"
     inkscape:zoom="1.5945163"
     inkscape:cx="183.75479"
     inkscape:cy="143.9308"
     inkscape:window-width="1397"
     inkscape:window-height="1041"
     inkscape:window-x="100"
     inkscape:window-y="94"
     inkscape:window-maximized="0"
     inkscape:current-layer="g11" />
  <g
     transform="rotate(134.08747,245.92287,91.145807)"
     id="g11">
    <g
       data-paper-data="{&quot;isPaintingLayer&quot;:true}"
       fill-rule="nonzero"
       stroke-linejoin="miter"
       stroke-miterlimit="10"
       stroke-dasharray="none"
       stroke-dashoffset="0"
       style="mix-blend-mode:normal"
       id="g10"
       transform="matrix(1.4124154,0,0,1.4124154,-129.28559,-77.095798)">
      <g
         id="g2"
         transform="matrix(0.93551776,0.0624603,0.0624603,0.93949824,-4.1827338,-12.402011)"
         inkscape:transform-center-x="-202.52968"
         inkscape:transform-center-y="66.629624">
        <path
           d="m 297.64844,132.64631 c -3.01877,-2.86447 -2.96293,-7.03586 -11.57988,-19.48732 -9.0266,-9.85558 -11.7832,-13.69752 -15.78328,-15.63588 -11.94357,-5.78761 -9.36138,-12.55285 -6.54486,-14.71436 3.68849,-2.8307 26.76028,0.39083 41.66571,14.71703 11.13424,10.70155 24.62466,28.73417 19.3105,28.73417 -7.97881,0 -26.86683,6.57743 -27.06819,6.38636 z"
           fill="#333333"
           stroke="none"
           stroke-width="0"
           stroke-linecap="butt"
           id="path2" />
        <path
           d="m 272.49432,157.52102 c 0.18937,0.20296 -6.54667,19.035 -6.61377,27.01352 -0.0447,5.31397 -17.96322,-8.32762 -28.57075,-19.55147 -14.20034,-15.02538 -17.22772,-38.12345 -14.36611,-41.78801 2.18511,-2.79823 8.97185,-5.32343 14.6588,6.66838 1.90465,4.01624 5.72327,6.80505 15.50259,15.91422 12.37855,8.72136 16.55025,8.7006 19.38924,11.74336 z"
           data-paper-data="{&quot;index&quot;:null}"
           fill="#333333"
           stroke="none"
           stroke-width="0"
           stroke-linecap="butt"
           id="path1"
           style="mix-blend-mode:normal" />
      </g>
      <g
         id="g1"
         transform="matrix(0.87960537,0,0,0.87960537,7.6912784,0.42970936)"
         inkscape:transform-center-x="-100.37541"
         inkscape:transform-center-y="77.768113">
        <path
           d="m 406.76208,212.03268 c 0,13.65185 -7.40526,30.6383 -19.34668,40.6345 -10.88455,9.11149 -24.74931,12.6155 -37.02832,12.6155 -14.26922,0 -38.9443,-14.95396 -56.32758,-35.18136 -13.98663,-16.27502 -22.54742,-36.93368 -22.54742,-48.56864 0,-26.09545 29.85092,-57.55619 59.875,-50.75 14.18837,3.21637 33.29951,15.3305 47.92991,30.43891 16.32908,16.86259 27.44509,37.3323 27.44509,50.81109 z"
           fill="#905db0"
           stroke="#754b8f"
           stroke-width="15"
           stroke-linecap="butt"
           id="path3" />
        <path
           d="m 291.76208,193.03268 c 0,-5.2467 4.25329,-9.5 9.5,-9.5 5.24671,0 9.5,4.2533 9.5,9.5 0,5.2467 -4.25329,9.5 -9.5,9.5 -5.24671,0 -9.5,-4.2533 -9.5,-9.5 z"
           fill="#754b8f"
           stroke="none"
           stroke-width="0.5"
           stroke-linecap="butt"
           id="path4"
           style="mix-blend-mode:normal" />
        <path
           d="m 310.51208,218.53268 c 0,-5.2467 4.25329,-9.5 9.5,-9.5 5.24671,0 9.5,4.2533 9.5,9.5 0,5.2467 -4.25329,9.5 -9.5,9.5 -5.24671,0 -9.5,-4.2533 -9.5,-9.5 z"
           fill="#754b8f"
           stroke="none"
           stroke-width="0.5"
           stroke-linecap="butt"
           id="path5"
           style="mix-blend-mode:normal" />
        <path
           d="m 336.01208,237.53268 c 0,-5.2467 4.25329,-9.5 9.5,-9.5 5.24671,0 9.5,4.2533 9.5,9.5 0,5.2467 -4.25329,9.5 -9.5,9.5 -5.24671,0 -9.5,-4.2533 -9.5,-9.5 z"
           fill="#754b8f"
           stroke="none"
           stroke-width="0.5"
           stroke-linecap="butt"
           id="path6"
           style="mix-blend-mode:normal" />
        <path
           d="m 368.51208,206.53268 c 0,-5.2467 4.25329,-9.5 9.5,-9.5 5.24671,0 9.5,4.2533 9.5,9.5 0,5.2467 -4.25329,9.5 -9.5,9.5 -5.24671,0 -9.5,-4.2533 -9.5,-9.5 z"
           fill="#754b8f"
           stroke="none"
           stroke-width="0.5"
           stroke-linecap="butt"
           id="path7"
           style="mix-blend-mode:normal" />
        <path
           d="m 349.26208,179.03268 c 0,-5.2467 4.25329,-9.5 9.5,-9.5 5.24671,0 9.5,4.2533 9.5,9.5 0,5.2467 -4.25329,9.5 -9.5,9.5 -5.24671,0 -9.5,-4.2533 -9.5,-9.5 z"
           fill="#754b8f"
           stroke="none"
           stroke-width="0.5"
           stroke-linecap="butt"
           id="path8"
           style="mix-blend-mode:normal" />
        <path
           d="m 324.01208,162.03268 c 0,-5.2467 4.25329,-9.5 9.5,-9.5 5.24671,0 9.5,4.2533 9.5,9.5 0,5.2467 -4.25329,9.5 -9.5,9.5 -5.24671,0 -9.5,-4.2533 -9.5,-9.5 z"
           fill="#754b8f"
           stroke="none"
           stroke-width="0.5"
           stroke-linecap="butt"
           id="path9"
           style="mix-blend-mode:normal" />
        <path
           d="m 366.26208,226.03268 c 0,0 -16.26349,-12.89334 -24.14507,-20.84928 -9.48607,-9.57556 -28.85493,-32.65072 -28.85493,-32.65072"
           fill="none"
           stroke="#754b8f"
           stroke-width="12"
           stroke-linecap="round"
           id="path10"
           style="mix-blend-mode:normal" />
      </g>
    </g>
  </g>
</svg>
