<?xml version="1.0" encoding="UTF-8" standalone="no"?>
<svg
   version="1.1"
   width="200"
   height="200"
   viewBox="0 0 200.00001 199.99999"
   id="svg13"
   sodipodi:docname="cactus.svg"
   inkscape:version="1.3.2 (091e20e, 2023-11-25, custom)"
   xmlns:inkscape="http://www.inkscape.org/namespaces/inkscape"
   xmlns:sodipodi="http://sodipodi.sourceforge.net/DTD/sodipodi-0.dtd"
   xmlns="http://www.w3.org/2000/svg"
   xmlns:svg="http://www.w3.org/2000/svg">
  <defs
     id="defs13" />
  <sodipodi:namedview
     id="namedview13"
     pagecolor="#ffffff"
     bordercolor="#000000"
     borderopacity="0.25"
     inkscape:showpageshadow="2"
     inkscape:pageopacity="0.0"
     inkscape:pagecheckerboard="0"
     inkscape:deskcolor="#d1d1d1"
     inkscape:zoom="1.6062891"
     inkscape:cx="59.142529"
     inkscape:cy="163.42015"
     inkscape:window-width="1397"
     inkscape:window-height="1041"
     inkscape:window-x="142"
     inkscape:window-y="0"
     inkscape:window-maximized="0"
     inkscape:current-layer="g13" />
  <g
     transform="matrix(0.77748032,0,0,0.74434283,-148.81391,-34.217618)"
     id="g13">
    <g
       data-paper-data="{&quot;isPaintingLayer&quot;:true}"
       fill-rule="nonzero"
       stroke-linejoin="miter"
       stroke-miterlimit="10"
       stroke-dasharray="none"
       stroke-dashoffset="0"
       style="mix-blend-mode:normal"
       id="g12"
       transform="matrix(1.0000843,0,0,1.0025644,-0.01474792,-0.11940385)">
      <path
         d="m 422.30531,144.24319 25.17169,-1.80978 -23.04173,12.64782 z"
         fill="#2f271e"
         stroke="#000000"
         stroke-width="0.5"
         stroke-linecap="round"
         id="path1" />
      <path
         d="m 424.33555,208.67946 21.72893,12.83522 -26.1446,-2.7109 z"
         fill="#2f271e"
         stroke="#000000"
         stroke-width="0.5"
         stroke-linecap="round"
         id="path2"
         inkscape:label="path2" />
      <g
         id="g11">
        <path
           d="M 325.5,287.16667 319.83333,312.83334 314.5,288.16667 Z"
           data-paper-data="{&quot;index&quot;:null}"
           fill="#2f271e"
           stroke="#000000"
           stroke-width="0.5"
           stroke-linecap="round"
           id="path3" />
        <path
           d="M 314.5,71.83334 319.83333,47.16667 325.5,72.83334 Z"
           fill="#2f271e"
           stroke="#000000"
           stroke-width="0.5"
           stroke-linecap="round"
           id="path4" />
        <path
           d="m 258.77538,268.12769 -20.1873,16.83336 10.87508,-22.77327 z"
           data-paper-data="{&quot;index&quot;:null}"
           fill="#2f271e"
           stroke="#000000"
           stroke-width="0.5"
           stroke-linecap="round"
           id="path5" />
        <path
           d="M 381.83652,91.08137 401.14828,74.83498 389.92495,98.60315 Z"
           fill="#2f271e"
           stroke="#000000"
           stroke-width="0.5"
           stroke-linecap="round"
           id="path6" />
        <path
           d="m 218.73046,215.28347 -26.22506,1.77075 22.17562,-12.04703 z"
           data-paper-data="{&quot;index&quot;:null}"
           fill="#2f271e"
           stroke="#000000"
           stroke-width="0.5"
           stroke-linecap="round"
           id="path7" />
        <path
           d="m 216.50845,151.25701 -22.57292,-13.46672 25.09051,2.7121 z"
           data-paper-data="{&quot;index&quot;:null}"
           fill="#2f271e"
           stroke="#000000"
           stroke-width="0.5"
           stroke-linecap="round"
           id="path8" />
        <path
           d="M 253.78782,95.42691 243.61927,71.18872 262.19881,88.26764 Z"
           data-paper-data="{&quot;index&quot;:null}"
           fill="#2f271e"
           stroke="#000000"
           stroke-width="0.5"
           stroke-linecap="round"
           id="path9" />
        <path
           d="m 386.92905,265.02306 9.86434,23.22895 -19.42845,-17.70378 z"
           fill="#2f271e"
           stroke="#000000"
           stroke-width="0.5"
           stroke-linecap="round"
           id="path10" />
        <path
           d="m 220.01578,179.53568 c 0,-8.87199 -2.10829,-23.47833 -3.07714,-29.72212 -0.28902,-1.86261 0.45245,-3.96982 1.95688,-5.60047 4.717,-5.11277 15.09001,-16.53549 20.21514,-23.57418 5.64867,-7.75772 13.90372,-22.71117 16.45447,-27.39797 0.49915,-0.91715 1.70164,-1.57652 3.25254,-1.82108 6.15805,-0.97106 22.23474,-3.66361 29.90931,-6.43868 8.91606,-3.22398 22.74025,-9.69518 28.55979,-12.46833 1.71012,-0.81491 4.04699,-0.53235 5.32659,0.05564 5.36934,2.46725 19.5531,8.70383 27.92332,11.35552 8.53296,2.70324 23.36864,5.89754 29.94016,7.26353 2.04947,0.42601 3.76589,1.51646 4.57474,2.94168 3.05141,5.37668 10.91467,19.05002 16.46814,27.09838 4.51604,6.54487 15.06747,17.77595 19.62301,22.53546 1.33695,1.39681 2.08701,2.77849 1.96785,3.73909 -0.65195,5.25583 -2.76148,23.03474 -2.76148,33.03355 0,8.78422 1.46245,22.72731 2.25504,29.63887 0.29461,2.56906 -0.009,4.71907 -0.87438,5.67545 -4.05681,4.48332 -16.01924,17.84311 -20.85643,24.77836 -5.10174,7.31453 -12.17595,19.75246 -15.08024,24.94133 -0.83472,1.49131 -2.2016,2.58684 -3.68966,2.94106 -6.36653,1.5155 -23.92534,5.79906 -31.90942,8.7956 -9.17185,3.44233 -22.17342,8.26417 -27.62124,10.28247 -1.60723,0.59544 -3.52997,0.5274 -5.16662,-0.16809 -5.71675,-2.42931 -19.53089,-8.22633 -28.26158,-11.27834 -7.89219,-2.75889 -23.38369,-6.40503 -30.16437,-7.95218 -2.05566,-0.46904 -4.17007,-2.15875 -5.55693,-4.40792 -3.88005,-6.29257 -11.88908,-19.12541 -16.76017,-25.84034 -4.99258,-6.88242 -14.03435,-17.36158 -17.9648,-21.85773 -1.18893,-1.36005 -1.71747,-3.7026 -1.42625,-6.14247 0.90066,-7.54586 2.74373,-23.79507 2.74373,-30.40606 z"
           fill="#32a955"
           stroke="#2f8340"
           stroke-width="12"
           stroke-linecap="butt"
           id="path11" />
      </g>
    </g>
  </g>
</svg>
