<?xml version="1.0" encoding="UTF-8" standalone="no"?>
<svg
   version="1.1"
   width="200"
   height="200"
   viewBox="0 0 200 199.99999"
   id="svg7"
   sodipodi:docname="暗瓢.svg"
   inkscape:version="1.3.2 (091e20e, 2023-11-25, custom)"
   xmlns:inkscape="http://www.inkscape.org/namespaces/inkscape"
   xmlns:sodipodi="http://sodipodi.sourceforge.net/DTD/sodipodi-0.dtd"
   xmlns="http://www.w3.org/2000/svg"
   xmlns:svg="http://www.w3.org/2000/svg">
  <defs
     id="defs7" />
  <sodipodi:namedview
     id="namedview7"
     pagecolor="#ffffff"
     bordercolor="#000000"
     borderopacity="0.25"
     inkscape:showpageshadow="2"
     inkscape:pageopacity="0.0"
     inkscape:pagecheckerboard="0"
     inkscape:deskcolor="#d1d1d1"
     inkscape:zoom="1.1202827"
     inkscape:cx="-83.907395"
     inkscape:cy="265.55798"
     inkscape:window-width="1397"
     inkscape:window-height="1041"
     inkscape:window-x="-7"
     inkscape:window-y="27"
     inkscape:window-maximized="0"
     inkscape:current-layer="svg7" />
  <g
     transform="matrix(-0.7237982,0.74962476,-0.74597291,-0.72027217,465.9769,-10.590899)"
     id="g7">
    <g
       data-paper-data="{&quot;isPaintingLayer&quot;:true}"
       fill-rule="nonzero"
       stroke-linecap="butt"
       stroke-linejoin="miter"
       stroke-miterlimit="10"
       stroke-dasharray="none"
       stroke-dashoffset="0"
       style="mix-blend-mode:normal"
       id="g6">
      <path
         d="m 238.23996,150.16667 c 0,-28.58629 23.17377,-51.76006 51.76006,-51.76006 28.58629,0 51.76006,23.17377 51.76006,51.76006 0,28.58629 -23.17377,51.76006 -51.76006,51.76006 -28.58629,0 -51.76006,-23.17377 -51.76006,-51.76006 z"
         fill="#111111"
         stroke="none"
         stroke-width="0"
         id="path1" />
      <path
         d="m 235.1805,180 c 0,-3.7176 1.51634,-13.12132 1.51634,-13.12132 0,0 30.36802,-6.52163 45.26011,-19.76738 12.5722,-11.18233 22.72142,-47.88493 22.72142,-47.88493 0,0 11.84238,-4.04587 15.32164,-4.04587 46.84452,0 84.8195,37.97498 84.8195,84.8195 0,46.84452 -37.97498,84.8195 -84.8195,84.8195 -46.84452,0 -84.8195,-37.97498 -84.8195,-84.8195 z"
         fill="#962922"
         stroke="#7c2119"
         stroke-width="22.5"
         id="path2" />
      <path
         d="m 312.0851,262.16667 c 0,-7.73198 6.26802,-14 14,-14 7.73198,0 14,6.26802 14,14 0,7.73198 -6.26802,8 -14,8 -7.73198,0 -14,-0.26802 -14,-8 z"
         fill="#c2352d"
         stroke="none"
         stroke-width="0"
         id="path3" />
      <path
         d="m 320.0851,100.16667 c 0,-5.70694 4.62639,-10.33333 10.33333,-10.33333 5.70694,0 10.33333,4.62639 10.33333,10.33333 0,5.70694 -4.62639,10.33333 -10.33333,10.33333 -5.70694,0 -10.33333,-4.62639 -10.33333,-10.33333 z"
         fill="#c2352d"
         stroke="none"
         stroke-width="0"
         id="path4" />
      <path
         d="m 290.75176,197.16667 c 0,-6.62742 5.37258,-12 12,-12 6.62742,0 12,5.37258 12,12 0,6.62742 -5.37258,12 -12,12 -6.62742,0 -12,-5.37258 -12,-12 z"
         fill="#c2352d"
         stroke="none"
         stroke-width="0"
         id="path5" />
      <path
         d="m 235.1805,180 c 0,-3.7176 1.51633,-13.12132 1.51633,-13.12132 0,0 30.36802,-6.52163 45.2601,-19.76738 12.5722,-11.18233 22.72142,-47.88493 22.72142,-47.88493 0,0 11.84238,-4.04587 15.32164,-4.04587 46.84452,0 84.8195,37.97498 84.8195,84.8195 0,46.84452 -37.97498,84.8195 -84.8195,84.8195 -46.84452,0 -84.8195,-37.97498 -84.8195,-84.8195 z"
         fill="none"
         stroke="#7a2218"
         stroke-width="22.5"
         id="path6" />
    </g>
  </g>
</svg>
