<?xml version="1.0" encoding="UTF-8" standalone="no"?>
<svg
   width="200"
   height="226.41365"
   version="1.1"
   id="svg8"
   sodipodi:docname="desert_centipede_body.svg"
   inkscape:version="1.3.2 (091e20e, 2023-11-25, custom)"
   xmlns:inkscape="http://www.inkscape.org/namespaces/inkscape"
   xmlns:sodipodi="http://sodipodi.sourceforge.net/DTD/sodipodi-0.dtd"
   xmlns="http://www.w3.org/2000/svg"
   xmlns:svg="http://www.w3.org/2000/svg">
  <defs
     id="defs8" />
  <sodipodi:namedview
     id="namedview8"
     pagecolor="#ffffff"
     bordercolor="#000000"
     borderopacity="0.25"
     inkscape:showpageshadow="2"
     inkscape:pageopacity="0.0"
     inkscape:pagecheckerboard="0"
     inkscape:deskcolor="#d1d1d1"
     inkscape:zoom="1.3836794"
     inkscape:cx="-107.32255"
     inkscape:cy="36.496894"
     inkscape:window-width="1920"
     inkscape:window-height="1057"
     inkscape:window-x="-8"
     inkscape:window-y="-8"
     inkscape:window-maximized="1"
     inkscape:current-layer="g9" />
  <clipPath
     id="a">
    <path
       d="m 13.333,9.167 h 83.334 q 4.166,0 4.166,4.166 v 83.334 q 0,4.166 -4.166,4.166 H 13.333 q -4.166,0 -4.166,-4.166 V 13.333 q 0,-4.166 4.166,-4.166"
       id="path1" />
  </clipPath>
  <g
     id="g9"
     transform="matrix(-2.6215812,2.1098489,-2.1248207,-2.6031094,238.67435,247.38245)">
    <path
       fill="#333333"
       d="m -14.552864,68.465017 q 0.177802,-0.210541 0.366472,-0.412967 0.188669,-0.202426 0.387179,-0.395522 0.198508,-0.193095 0.405829,-0.375644 0.207321,-0.182547 0.423358,-0.355668 0.216037,-0.173122 0.441076,-0.333453 0.225039,-0.16033 0.456453,-0.312164 0.231416,-0.151835 0.470899,-0.288541 0.239199,-0.14007 0.486277,-0.267253 0.244831,-0.126993 0.49642,-0.241003 0.251492,-0.115132 0.508618,-0.217188 0.2571272,-0.10205 0.5186675,-0.192059 0.2615411,-0.09001 0.527593,-0.166835 0.2660518,-0.07683 0.5354904,-0.140397 0.268316,-0.06347 0.5411425,-0.113767 0.2717037,-0.0502 0.5467944,-0.08714 0.2728457,-0.03674 0.5490784,-0.06021 0.2751099,-0.02338 0.5513609,-0.0333 0.2773739,-0.01002 0.553645,-0.0064 0.2762702,0.0036 0.5525595,0.02083 0.2762894,0.0172 0.5514742,0.04803 0.2751848,0.03084 0.5481427,0.07542 0.2729581,0.04459 0.5434984,0.100673 0.2705406,0.05609 0.5380165,0.129381 0.2660674,0.07002 0.5310312,0.153696 0.2638407,0.08377 0.5220856,0.181569 0.2591776,0.09546 0.5138824,0.20486 0.2535818,0.109493 0.50250047,0.230678 0.24779585,0.121282 0.49092859,0.254257 0.24210491,0.134191 0.47608293,0.279239 0.23622389,0.144859 0.46441592,0.301696 0.22819203,0.156837 0.44703906,0.323506 0.21884703,0.166668 0.43209833,0.347368 0.211843,0.177431 0.4133133,0.365909 0.2024981,0.187263 0.3957462,0.385477 0.1932482,0.198215 0.3759335,0.405236 0.1826852,0.20702 0.3559302,0.42275 0.1732451,0.21573 0.3336814,0.440456 0.1604363,0.224726 0.3123651,0.455823 0.1519289,0.231097 0.2888031,0.471382 0.1368742,0.240284 0.2672013,0.483384 0.1303271,0.2431 0.2412031,0.49689 0.1108763,0.253789 0.2172605,0.507961 0.1063848,0.254172 0.1920998,0.518007 0.085715,0.263836 0.1669393,0.528054 0.076732,0.264599 0.1402749,0.533708 0.063543,0.269107 0.1137056,0.540484 0.050164,0.271375 0.087042,0.546138 0.036879,0.274763 0.060092,0.548428 0.023404,0.275909 0.033143,0.550719 0.00993,0.277054 0.00619,0.553009 -0.00364,0.277077 -0.021041,0.551934 -0.017306,0.275979 -0.048277,0.550859 -0.031066,0.273759 -0.075702,0.547542 -0.044731,0.272661 -0.1009763,0.542911 -0.058491,0.270441 -0.1297147,0.537446 -0.070101,0.266908 -0.1540567,0.530477 Q 4.7144495,79.395302 4.616543,79.654406 4.5186365,79.913511 4.4111761,80.16665 4.3037156,80.419788 4.1800588,80.668655 4.0564021,80.917521 3.9253421,81.15911 3.794282,81.400698 3.6457125,81.635866 3.497143,81.871034 3.3434159,82.098733 3.1896889,82.326432 3.0194801,82.546494 2.8492714,82.766556 2.672592,82.977001 2.4959125,83.187446 2.3050923,83.391185 2.1142722,83.594924 1.9189416,83.78549 1.723611,83.976056 1.513112,84.161133 1.302613,84.34621 1.0897543,84.516802 q -0.21285874,0.170592 -0.44107623,0.333452 -0.22821748,0.16286 -0.45645367,0.312165 -0.22823638,0.149305 -0.47192646,0.289758 -0.24369017,0.140451 -0.48412558,0.26594 -0.24043536,0.12549 -0.49744756,0.242221 -0.2570118,0.116734 -0.5086188,0.217187 -0.2572212,0.100934 -0.5187625,0.190938 -0.261541,0.09001 -0.5287158,0.166931 -0.2649288,0.07673 -0.5343676,0.140301 -0.2694387,0.06357 -0.5411423,0.113767 -0.2717038,0.0502 -0.5467953,0.08713 -0.2750906,0.03694 -0.5490776,0.06022 -0.2762327,0.02347 -0.5513617,0.03329 -0.2773739,0.01002 -0.5536442,0.0064 -0.277393,-0.0035 -0.5525596,-0.02083 -0.2762893,-0.0172 -0.5514741,-0.04803 -0.2740618,-0.03093 -0.5481428,-0.07543 -0.2729576,-0.04459 -0.5434982,-0.100673 -0.2707309,-0.05833 -0.5379211,-0.128259 -0.2672861,-0.07105 -0.5311263,-0.154818 -0.2638412,-0.08377 -0.5231137,-0.180351 -0.2592722,-0.09658 -0.5127602,-0.204956 -0.253486,-0.108372 -0.502595,-0.2318 -0.249109,-0.123429 -0.490928,-0.254256 -0.24182,-0.130827 -0.477207,-0.279145 -0.235386,-0.148318 -0.463292,-0.30179 -0.227907,-0.153472 -0.448163,-0.32341 -0.220255,-0.169938 -0.430879,-0.346342 -0.210626,-0.176405 -0.414437,-0.365815 -0.203811,-0.18941 -0.394719,-0.386694 -0.190907,-0.197285 -0.375933,-0.405235 -0.185026,-0.207951 -0.35593,-0.42275 -0.170904,-0.214799 -0.333682,-0.440457 -0.162777,-0.225656 -0.312364,-0.455822 -0.149588,-0.230167 -0.289831,-0.470165 -0.140243,-0.239998 -0.266174,-0.484601 -0.125931,-0.244604 -0.242326,-0.496794 -0.116398,-0.252191 -0.21726,-0.507963 -0.100866,-0.255769 -0.190977,-0.518102 -0.09012,-0.262332 -0.166845,-0.526932 -0.07673,-0.264599 -0.140373,-0.534828 -0.06345,-0.267988 -0.113709,-0.540484 -0.05016,-0.271375 -0.08705,-0.546139 -0.03669,-0.272519 -0.0601,-0.548428 -0.02331,-0.274786 -0.03314,-0.550719 -0.0099,-0.277053 -0.0062,-0.553009 0.0037,-0.275956 0.02105,-0.551934 0.01731,-0.275979 0.04828,-0.55086 0.03097,-0.27488 0.0757,-0.547542 0.04473,-0.27266 0.100976,-0.542911 0.05625,-0.270249 0.128592,-0.53735 0.07132,-0.265882 0.15518,-0.530572 0.08405,-0.262445 0.180835,-0.521455 0.09678,-0.25901 0.205271,-0.513365 0.108488,-0.254356 0.23224,-0.502101 0.121506,-0.247554 0.254717,-0.490454 0.134429,-0.241874 0.279725,-0.475635 0.145105,-0.236004 0.302201,-0.463989 0.155973,-0.227889 0.324031,-0.446639 0.167963,-0.219871 0.346793,-0.431628 M 14.516279,34.043499 q 0.17883,-0.211758 0.3675,-0.414184 0.187547,-0.202331 0.38615,-0.394306 0.198509,-0.193094 0.40583,-0.375643 0.207321,-0.182547 0.423358,-0.355669 0.216037,-0.173121 0.441076,-0.333452 0.223726,-0.162478 0.456454,-0.312164 0.232632,-0.150809 0.471926,-0.289758 0.238171,-0.138853 0.484126,-0.265941 0.245954,-0.127088 0.497447,-0.242221 0.251493,-0.115131 0.508619,-0.217187 0.257221,-0.100934 0.518762,-0.190938 0.261542,-0.09001 0.528716,-0.16693 0.264929,-0.07673 0.534368,-0.140301 0.269438,-0.06357 0.541142,-0.113767 0.271704,-0.0502 0.546795,-0.08713 0.273969,-0.03683 0.549078,-0.06021 0.276233,-0.02347 0.551361,-0.0333 0.277375,-0.01001 0.553645,-0.0064 0.277393,0.0035 0.55256,0.02083 0.276289,0.01719 0.551474,0.04803 0.274061,0.03093 0.548142,0.07543 0.272958,0.04459 0.543499,0.100673 0.270731,0.05833 0.537921,0.128259 0.267286,0.07105 0.531126,0.154818 0.263841,0.08377 0.523114,0.180352 0.259273,0.09658 0.51276,0.204955 0.253486,0.108372 0.502595,0.2318 0.249109,0.12343 0.490928,0.254256 0.24182,0.130827 0.477207,0.279145 0.235386,0.148318 0.463292,0.30179 0.227908,0.153473 0.448163,0.323411 0.220255,0.169938 0.430879,0.346342 0.210626,0.176404 0.414437,0.365815 0.203811,0.189409 0.394719,0.386693 0.190907,0.197285 0.375933,0.405236 0.185026,0.20795 0.35593,0.42275 0.170904,0.214799 0.333682,0.440456 0.162777,0.225656 0.312364,0.455823 0.149588,0.230167 0.289831,0.470164 0.140243,0.239999 0.266174,0.484602 0.125931,0.244603 0.242326,0.496794 0.116398,0.252191 0.21726,0.507962 0.100866,0.25577 0.190977,0.518102 0.09012,0.262332 0.166845,0.526932 0.07673,0.264599 0.140373,0.534828 0.06345,0.267988 0.113709,0.540484 0.05016,0.271376 0.08705,0.546139 0.03669,0.272519 0.0601,0.548428 0.02331,0.274787 0.03314,0.550719 0.0099,0.277054 0.0062,0.55301 -0.0037,0.275955 -0.02105,0.551934 -0.01731,0.275979 -0.04828,0.550859 -0.03097,0.274881 -0.0757,0.547542 -0.04473,0.272661 -0.100976,0.542911 -0.05625,0.27025 -0.128592,0.53735 -0.07132,0.265883 -0.15518,0.530573 -0.08405,0.262445 -0.180835,0.521455 -0.09678,0.259009 -0.205271,0.513365 -0.108488,0.254355 -0.23224,0.5021 -0.121506,0.247554 -0.254717,0.490454 -0.134429,0.241875 -0.279725,0.475636 -0.145105,0.236003 -0.302201,0.463988 -0.155973,0.22789 -0.324031,0.446639 -0.167963,0.219872 -0.346793,0.431628 -0.177802,0.210541 -0.366472,0.412967 -0.188669,0.202427 -0.387179,0.395523 -0.198508,0.193095 -0.405829,0.375643 -0.207321,0.182547 -0.423358,0.355669 -0.216037,0.173122 -0.441076,0.333452 -0.223821,0.161357 -0.456453,0.312165 -0.231511,0.150714 -0.470899,0.28854 -0.239199,0.14007 -0.486277,0.267253 -0.244831,0.126993 -0.49642,0.241004 -0.251492,0.115132 -0.508618,0.217187 -0.257126,0.10206 -0.518667,0.192059 -0.261542,0.09001 -0.527594,0.166836 -0.264928,0.07673 -0.53549,0.140397 -0.268316,0.06347 -0.541142,0.113767 -0.271704,0.0502 -0.546795,0.08713 -0.272844,0.03675 -0.549077,0.06022 -0.27511,0.02338 -0.551362,0.03329 -0.277374,0.01002 -0.553645,0.0064 -0.27627,-0.0036 -0.55256,-0.02083 -0.276289,-0.0172 -0.551474,-0.04803 -0.275184,-0.03084 -0.548143,-0.07543 -0.272957,-0.04459 -0.543498,-0.100673 -0.270541,-0.05609 -0.538016,-0.12938 -0.266068,-0.07002 -0.531031,-0.153697 -0.263842,-0.08377 -0.522087,-0.181569 -0.259177,-0.09546 -0.513881,-0.204859 -0.253582,-0.109493 -0.502501,-0.23068 -0.247796,-0.121281 -0.490928,-0.254255 -0.242105,-0.134192 -0.476083,-0.27924 -0.236225,-0.144858 -0.464416,-0.301695 -0.228192,-0.156837 -0.447039,-0.323506 -0.218847,-0.166668 -0.432099,-0.347369 -0.211843,-0.17743 -0.413313,-0.36591 -0.202499,-0.187261 -0.395747,-0.385476 -0.193248,-0.198215 -0.375933,-0.405235 -0.182685,-0.20702 -0.355931,-0.422751 -0.173244,-0.21573 -0.333681,-0.440456 -0.160436,-0.224726 -0.312364,-0.455823 -0.15193,-0.231097 -0.288804,-0.471381 -0.136874,-0.240285 -0.267201,-0.483384 -0.130327,-0.2431 -0.241203,-0.496891 -0.11088,-0.253789 -0.217261,-0.507961 -0.106384,-0.254172 -0.1921,-0.518007 -0.08571,-0.263836 -0.166939,-0.528053 -0.07673,-0.264599 -0.140278,-0.533707 -0.06355,-0.269109 -0.113709,-0.540484 -0.05016,-0.271375 -0.08705,-0.546139 -0.03687,-0.274764 -0.06009,-0.548429 -0.0234,-0.275909 -0.03315,-0.550718 -0.0099,-0.277053 -0.0062,-0.55301 0.0036,-0.277076 0.02105,-0.551934 0.01731,-0.275979 0.04828,-0.550859 0.03107,-0.273759 0.0757,-0.547542 0.04473,-0.27266 0.100976,-0.542911 0.05849,-0.270441 0.129715,-0.537445 0.0701,-0.266909 0.154056,-0.530477 0.08396,-0.263568 0.181863,-0.522672 0.09791,-0.259105 0.205367,-0.512243 0.10746,-0.253139 0.231117,-0.502006 0.123656,-0.248866 0.254717,-0.490454 0.13106,-0.241588 0.279629,-0.476756 0.14857,-0.235169 0.302297,-0.462868 0.153728,-0.227698 0.323935,-0.44776 0.170209,-0.220062 0.346889,-0.430507"
       id="path5"
       inkscape:label="path5"
       style="stroke-width:1.12628" />
    <path
       fill="#8ac255"
       d="m -12.215814,37.810364 q 0.468435,-0.466128 0.957639,-0.910334 0.490357,-0.444206 1.000329,-0.863028 0.511125,-0.418823 1.0418646,-0.813417 0.5307397,-0.392285 1.0810936,-0.760342 0.5492001,-0.366902 1.115707,-0.707268 0.5676606,-0.339212 1.1503205,-0.650733 0.5826598,-0.311521 1.1803187,-0.594198 0.597659,-0.282676 1.2080096,-0.535354 0.6103506,-0.252679 1.232239,-0.475358 0.6218884,-0.22268 1.25531456,-0.415362 0.63342621,-0.192681 1.27262133,-0.351903 0.63919512,-0.159222 1.28992811,-0.2896 0.6507329,-0.130377 1.3014658,-0.226141 0.650733,-0.09576 1.3118499,-0.161529 0.661117,-0.06577 1.3176189,-0.09692 0.6565018,-0.03115 1.3210801,-0.03231 0.6645783,-0.0012 1.3210802,0.03231 0.6565018,0.03346 1.3176188,0.09692 0.6611173,0.06346 1.3118503,0.161529 0.65304,0.09692 1.301465,0.226141 0.648426,0.129224 1.289929,0.288446 0.641502,0.159222 1.272621,0.353057 0.631119,0.193835 1.255314,0.415362 0.623043,0.222679 1.232239,0.475358 0.611505,0.252678 1.20801,0.535354 0.597659,0.282677 1.180319,0.594198 0.58266,0.311521 1.15032,0.650733 0.567661,0.339212 1.115707,0.707268 0.548047,0.368057 1.081094,0.761496 0.530739,0.392286 1.041865,0.812263 0.509971,0.418822 1.000329,0.863028 0.489203,0.444206 0.957638,0.911488 0.466128,0.467282 0.910334,0.957639 0.444206,0.490357 0.863029,0.999175 0.418823,0.508818 0.813416,1.041865 0.392286,0.53074 0.760343,1.081094 0.366902,0.5492 0.707268,1.115707 0.339212,0.56766 0.650733,1.15032 0.311521,0.58266 0.594197,1.180319 0.282677,0.597659 0.535355,1.208009 0.252678,0.610351 0.475358,1.232239 0.22268,0.621889 0.415362,1.255315 0.192681,0.633426 0.351903,1.272621 0.159222,0.639195 0.289599,1.289928 0.130378,0.650733 0.226142,1.301466 0.09576,0.650733 0.161529,1.31185 0.06577,0.661117 0.09692,1.317619 0.03115,0.656502 0.03231,1.32108 0.0012,0.664578 -0.03231,1.32108 -0.03346,0.656502 -0.09692,1.317619 -0.06346,0.661117 -0.161529,1.31185 -0.09692,0.65304 -0.226142,1.301466 -0.129223,0.648425 -0.288445,1.289928 -0.159222,0.641503 -0.353057,1.272621 -0.193836,0.631119 -0.415362,1.255315 -0.22268,0.623042 -0.475358,1.232239 -0.252678,0.611504 -0.535355,1.208009 -0.282676,0.597659 -0.594197,1.180319 -0.311521,0.58266 -0.650733,1.150321 -0.339212,0.56766 -0.707268,1.115707 -0.368057,0.548046 -0.761496,1.081093 -0.392286,0.53074 -0.812263,1.041865 -0.418823,0.509972 -0.863029,1.000329 -0.444206,0.489203 -0.911487,0.957639 -0.467282,0.466128 -0.957639,0.910334 -0.490357,0.444206 -0.999175,0.863028 -0.508818,0.418823 -1.041865,0.813417 -0.53074,0.392285 -1.081094,0.760342 -0.5492,0.366902 -1.115707,0.707268 -0.56766,0.339212 -1.15032,0.650733 -0.58266,0.311521 -1.180319,0.594198 -0.596505,0.282676 -1.20801,0.535354 -0.611504,0.252679 -1.232239,0.475359 -0.623042,0.222679 -1.255314,0.415361 -0.632273,0.192682 -1.272621,0.351903 -0.640349,0.159222 -1.289929,0.2896 -0.649579,0.130377 -1.301465,0.226141 -0.651887,0.09576 -1.3118503,0.161529 -0.6599632,0.06577 -1.3176188,0.09692 -0.6576556,0.03115 -1.3210802,0.03231 -0.6634245,0.0012 -1.3210801,-0.03231 Q 4.8428499,83.703189 4.1828867,83.639731 3.5229235,83.576273 2.8710368,83.478202 2.2179963,83.381284 1.569571,83.252061 0.92114558,83.122837 0.27964289,82.963615 -0.36185979,82.804393 -0.99297844,82.610558 -1.6240971,82.416723 -2.248293,82.195197 q -0.6230422,-0.22268 -1.232239,-0.475359 -0.6115044,-0.252678 -1.2080096,-0.535354 -0.5976589,-0.282677 -1.1803187,-0.594198 -0.5826599,-0.311521 -1.1503205,-0.650733 -0.5676606,-0.339212 -1.115707,-0.707268 -0.5480464,-0.368057 -1.0810936,-0.761496 -0.5307396,-0.392286 -1.0418646,-0.812263 -0.509972,-0.418822 -1.000329,-0.863028 -0.489204,-0.444206 -0.957639,-0.911488 -0.466128,-0.467282 -0.910334,-0.957639 -0.444206,-0.490357 -0.863029,-0.999175 -0.418822,-0.508818 -0.813416,-1.041865 -0.392286,-0.53074 -0.760342,-1.081093 -0.366903,-0.549201 -0.707268,-1.115707 -0.339212,-0.567661 -0.650733,-1.150321 -0.311521,-0.58266 -0.594198,-1.180319 -0.282676,-0.596505 -0.535355,-1.208009 -0.252678,-0.611505 -0.475358,-1.232239 -0.22268,-0.623042 -0.415361,-1.255315 -0.192682,-0.632272 -0.351904,-1.272621 -0.159222,-0.640349 -0.289599,-1.289928 -0.130377,-0.649579 -0.226141,-1.301466 -0.09576,-0.651887 -0.16153,-1.31185 -0.06576,-0.659963 -0.09692,-1.317619 -0.03115,-0.657655 -0.03231,-1.32108 -0.0012,-0.663424 0.03231,-1.32108 0.03346,-0.657656 0.09692,-1.317619 0.06346,-0.659963 0.16153,-1.31185 0.09692,-0.65304 0.226141,-1.301466 0.129224,-0.648425 0.288446,-1.289928 0.159221,-0.641502 0.353057,-1.272621 0.193835,-0.631119 0.415361,-1.255315 0.22268,-0.623042 0.475358,-1.232239 0.252679,-0.611504 0.535355,-1.208009 0.282677,-0.597659 0.594198,-1.180319 0.311521,-0.58266 0.650733,-1.15032 0.339212,-0.567661 0.707268,-1.115707 0.368056,-0.548047 0.761496,-1.081094 0.392286,-0.53074 0.812262,-1.041865 0.418823,-0.509972 0.863029,-1.000329 0.444206,-0.489203 0.911488,-0.957639"
       id="path6"
       style="fill:#d3c66d;fill-opacity:1;stroke-width:1.15378" />
    <path
       fill="#709d45"
       d="m -14.119554,35.906624 q 8.6741316,-8.672978 20.9411397,-8.672978 12.2670083,0 20.9411393,8.674132 8.671825,8.672978 8.671825,20.939986 0,12.265854 -8.674132,20.94114 -8.671824,8.671824 -20.9388323,8.671824 -12.2670081,0 -20.9411397,-8.674132 -8.671824,-8.671824 -8.671824,-20.938832 0,-12.267008 8.674132,-20.94114 0.09346,-0.0923 0.196142,-0.176528 0.101533,-0.08423 0.212296,-0.156915 0.10961,-0.07384 0.226142,-0.136146 0.116531,-0.0623 0.238832,-0.113071 0.122301,-0.05077 0.249217,-0.08884 0.126916,-0.03807 0.25614,-0.06461 0.129223,-0.02654 0.260754,-0.03807 0.131532,-0.01154 0.264217,-0.01269 0.132684,-0.0012 0.264216,0.01154 0.131531,0.01269 0.260754,0.03923 0.129224,0.02654 0.25614,0.06461 0.126916,0.03807 0.249217,0.08884 0.122301,0.05077 0.238832,0.113071 0.116532,0.0623 0.226142,0.136146 0.109609,0.07269 0.212296,0.156915 0.102686,0.08423 0.196142,0.177682 0.09346,0.09346 0.177683,0.196143 0.08423,0.102687 0.1569142,0.212296 0.072688,0.109609 0.1361463,0.226141 0.063458,0.116532 0.1130706,0.238833 0.049613,0.122301 0.088841,0.249217 0.039229,0.126916 0.063458,0.256139 0.026537,0.129224 0.039229,0.260755 0.012692,0.131531 0.012692,0.264216 0,0.132685 -0.012692,0.264216 -0.012692,0.131531 -0.039229,0.260755 -0.026537,0.129223 -0.063458,0.256139 -0.036921,0.126916 -0.088841,0.249217 -0.05192,0.122301 -0.1130706,0.238833 -0.061151,0.116532 -0.1361463,0.226141 -0.074996,0.10961 -0.1580682,0.212296 -0.08307,0.102687 -0.176529,0.196143 -7.098065,7.094604 -7.098065,17.132506 0,10.037902 7.095758,17.13366 7.0992194,7.095758 17.1336597,7.095758 10.0344403,0 17.1336603,-7.095758 7.095758,-7.09922 7.095758,-17.13366 0,-10.03444 -7.095758,-17.13366 -7.09922,-7.095758 -17.1336603,-7.095758 -10.0344403,0 -17.1336597,7.095758 -0.0923,0.09461 -0.194989,0.178836 -0.102687,0.08307 -0.212296,0.156915 -0.109609,0.07384 -0.226141,0.136146 -0.116532,0.0623 -0.238833,0.113071 -0.122301,0.05077 -0.249217,0.08884 -0.126916,0.03807 -0.25614,0.06346 -0.129223,0.02654 -0.260754,0.03923 -0.132685,0.01269 -0.26537,0.01269 -0.131531,0 -0.263062,-0.01269 -0.131531,-0.01269 -0.260755,-0.03923 -0.130377,-0.02538 -0.25614,-0.06346 -0.126916,-0.03923 -0.249216,-0.08884 -0.122301,-0.05077 -0.238833,-0.113071 -0.116532,-0.0623 -0.227295,-0.136146 -0.110763,-0.07384 -0.211142,-0.156915 -0.103841,-0.08423 -0.196143,-0.177682 -0.0923,-0.09346 -0.177683,-0.196143 -0.08423,-0.102686 -0.156914,-0.212296 -0.07269,-0.109609 -0.136146,-0.226141 -0.06346,-0.116532 -0.113071,-0.238833 -0.04961,-0.122301 -0.08884,-0.249217 -0.03923,-0.126916 -0.06461,-0.256139 -0.02538,-0.129224 -0.03807,-0.260755 -0.01269,-0.131531 -0.01384,-0.26537 -0.0012,-0.133838 0.01384,-0.263062 0.015,-0.129224 0.03807,-0.260755 0.02308,-0.131531 0.06461,-0.256139 0.04154,-0.124609 0.08884,-0.249217 0.0473,-0.124609 0.113071,-0.238833 0.06577,-0.114224 0.136146,-0.226141 0.07269,-0.110763 0.156914,-0.212296 0.08423,-0.102687 0.177683,-0.196143"
       id="path7"
       style="fill:#aca05b;fill-opacity:1;stroke-width:1.15378" />
  </g>
</svg>
