<?xml version="1.0" encoding="UTF-8" standalone="no"?>
<svg
   version="1.1"
   width="265.57361"
   height="121.48056"
   viewBox="0 0 265.57361 121.48056"
   id="svg9"
   sodipodi:docname="hornet.svg"
   inkscape:version="1.3.2 (091e20e, 2023-11-25, custom)"
   xmlns:inkscape="http://www.inkscape.org/namespaces/inkscape"
   xmlns:sodipodi="http://sodipodi.sourceforge.net/DTD/sodipodi-0.dtd"
   xmlns="http://www.w3.org/2000/svg"
   xmlns:svg="http://www.w3.org/2000/svg">
  <defs
     id="defs9" />
  <sodipodi:namedview
     id="namedview9"
     pagecolor="#ffffff"
     bordercolor="#000000"
     borderopacity="0.25"
     inkscape:showpageshadow="2"
     inkscape:pageopacity="0.0"
     inkscape:pagecheckerboard="0"
     inkscape:deskcolor="#d1d1d1"
     showgrid="false"
     inkscape:zoom="1.2514812"
     inkscape:cx="-88.295374"
     inkscape:cy="291.25488"
     inkscape:window-width="1920"
     inkscape:window-height="1057"
     inkscape:window-x="-8"
     inkscape:window-y="-8"
     inkscape:window-maximized="1"
     inkscape:current-layer="svg9" />
  <g
     transform="matrix(-0.64187928,0.62745019,-0.62745019,-0.64187928,471.46743,-23.102692)"
     id="g9">
    <g
       data-paper-data="{&quot;isPaintingLayer&quot;:true}"
       fill-rule="nonzero"
       stroke-linecap="butt"
       stroke-linejoin="miter"
       stroke-miterlimit="10"
       stroke-dasharray="none"
       stroke-dashoffset="0"
       style="mix-blend-mode:normal"
       id="g8">
      <path
         d="m 443.69405,293.13311 c 0,0 0.13659,2.68898 -0.83016,4.99013 -0.41575,0.9896 -2.77686,2.91523 -4.48075,3.32437 -2.00617,0.48174 -5.28287,-0.20102 -5.28287,-0.20102 l -65.04944,-35.68427 42.37506,-30.4803 z"
         data-paper-data="{&quot;index&quot;:null}"
         fill="#333332"
         stroke="none"
         stroke-width="0"
         id="path1" />
      <path
         d="m 401.20254,262.00591 c -23.02713,23.02713 -69.99193,13.39673 -104.89879,-21.51014 -34.90686,-34.90687 -44.53727,-81.87164 -21.51014,-104.89878 23.02713,-23.02713 69.99192,-13.39671 104.89878,21.51014 34.90686,34.90687 44.53728,81.87165 21.51015,104.89878 z"
         data-paper-data="{&quot;index&quot;:null}"
         fill="#ffd262"
         stroke="#d2ad4c"
         stroke-width="16"
         id="path2" />
      <path
         d="m 282.04606,213.98765 -20.04764,-20.04764 71.80819,-71.80819 20.04764,20.04764 z"
         data-paper-data="{&quot;index&quot;:null}"
         fill="#333333"
         stroke="none"
         stroke-width="NaN"
         id="path3" />
      <path
         d="m 318.58967,257.83997 -20.04764,-20.04764 80.21321,-80.21321 20.04764,20.04764 z"
         data-paper-data="{&quot;index&quot;:null}"
         fill="#333333"
         stroke="none"
         stroke-width="NaN"
         id="path4" />
      <path
         d="m 381.07923,276.47721 -29.91442,-6.89193 59.56608,-59.56608 5.79564,33.20334 z"
         data-paper-data="{&quot;index&quot;:null}"
         fill="#333333"
         stroke="none"
         stroke-width="NaN"
         id="path5" />
      <path
         d="m 399.20254,262.00591 c -23.02713,23.02713 -69.99193,13.39673 -104.89879,-21.51014 -34.90686,-34.90687 -44.53727,-81.87164 -21.51014,-104.89878 23.02713,-23.02713 69.99192,-13.39671 104.89878,21.51014 34.90686,34.90687 44.53728,81.87165 21.51015,104.89878 z"
         data-paper-data="{&quot;index&quot;:null}"
         fill="none"
         stroke="#d2ad4c"
         stroke-width="16"
         id="path6" />
      <path
         d="m 282.71547,96.66806 c 6.95442,17.87126 25.4658,43.86191 15.61186,43.86191 -9.85393,0 -25.07775,-24.2595 -29.73688,-37.91453 -3.14564,-9.21924 -12.02718,-43.17505 -2.23026,-44.23362 1.87445,-0.20254 9.40086,20.41499 16.35529,38.28624 z"
         data-paper-data="{&quot;index&quot;:null}"
         fill="#333333"
         stroke="none"
         stroke-width="0"
         id="path7" />
      <path
         d="m 197.57845,127.16356 c 1.05857,-9.79691 35.01438,-0.91536 44.23362,2.23026 13.65503,4.65913 37.91453,19.88295 37.91453,29.73689 0,9.85394 -25.99065,-8.65744 -43.86191,-15.61186 -17.87125,-6.95442 -38.48878,-14.48084 -38.28624,-16.35529 z"
         data-paper-data="{&quot;index&quot;:null}"
         fill="#333333"
         stroke="none"
         stroke-width="0"
         id="path8" />
    </g>
  </g>
</svg>
