<?xml version="1.0" encoding="UTF-8" standalone="no"?>
<!-- Created with Inkscape (http://www.inkscape.org/) -->

<svg
   width="200.00008"
   height="200.37007"
   viewBox="0 0 52.91669 53.014581"
   version="1.1"
   id="svg1"
   inkscape:version="1.3.2 (091e20e, 2023-11-25, custom)"
   sodipodi:docname="ladybug.svg"
   xmlns:inkscape="http://www.inkscape.org/namespaces/inkscape"
   xmlns:sodipodi="http://sodipodi.sourceforge.net/DTD/sodipodi-0.dtd"
   xmlns="http://www.w3.org/2000/svg"
   xmlns:svg="http://www.w3.org/2000/svg">
  <sodipodi:namedview
     id="namedview1"
     pagecolor="#ffffff"
     bordercolor="#000000"
     borderopacity="0.25"
     inkscape:showpageshadow="2"
     inkscape:pageopacity="0.0"
     inkscape:pagecheckerboard="0"
     inkscape:deskcolor="#d1d1d1"
     inkscape:document-units="mm"
     inkscape:zoom="1.5340488"
     inkscape:cx="176.98264"
     inkscape:cy="90.28396"
     inkscape:window-width="1920"
     inkscape:window-height="1057"
     inkscape:window-x="-8"
     inkscape:window-y="-8"
     inkscape:window-maximized="1"
     inkscape:current-layer="layer1"
     inkscape:lockguides="false" />
  <defs
     id="defs1" />
  <g
     inkscape:label="图层 1"
     inkscape:groupmode="layer"
     id="layer1"
     transform="translate(-0.05911758,0.03513982)">
    <a
       id="a1"
       transform="rotate(45.092663,26.660945,26.482807)">
      <path
         d="m 34.922494,3.9576593 c 7.88843,0 14.283271,6.3814447 14.283271,14.2533487 0,7.871924 -6.394841,14.253408 -14.283271,14.253408 -7.888435,0 -14.283276,-6.381484 -14.283276,-14.253408 0,-7.871904 6.394841,-14.2533487 14.283276,-14.2533487 z"
         fill="#000000"
         stroke="none"
         stroke-width="0"
         id="path1"
         style="mix-blend-mode:normal" />
      <path
         d="m 26.689942,3.1151231 c 1.025874,0 3.620854,0.4174594 3.620854,0.4174594 0,0 1.799643,8.3626085 5.45483,12.4634625 3.085786,3.462078 13.213924,6.256938 13.213924,6.256938 0,0 1.116466,3.261075 1.116466,4.219162 0,12.899759 -10.479254,23.357139 -23.406074,23.357139 -12.926821,0 -23.4060862,-10.45738 -23.4060862,-23.357139 0,-12.899758 10.4792652,-23.357129 23.4060862,-23.357129 z"
         fill="#eb4134"
         stroke="#c3312b"
         stroke-width="6.20242"
         id="path2"
         style="mix-blend-mode:normal" />
      <path
         d="m 4.0159028,24.292663 c 2.133665,0 3.863326,1.726077 3.863326,3.855237 0,2.129205 -1.729661,3.855258 -3.863326,3.855258 -2.133648,0 -2.207607,-1.726044 -2.207607,-3.855258 0,-2.129142 0.07391,-3.855237 2.207607,-3.855237 z"
         fill="#000000"
         stroke="none"
         stroke-width="0"
         id="path3"
         style="mix-blend-mode:normal" />
      <path
         d="m 48.720075,26.495679 c 1.574839,0 2.851498,1.273984 2.851498,2.845512 0,1.571588 -1.276659,2.845572 -2.851498,2.845572 -1.574839,0 -2.851498,-1.273984 -2.851498,-2.845572 0,-1.571528 1.276659,-2.845512 2.851498,-2.845512 z"
         fill="#000000"
         stroke="none"
         stroke-width="0"
         id="path4"
         style="mix-blend-mode:normal" />
      <path
         d="m 21.952764,18.418058 c 1.828857,0 3.311428,1.479458 3.311428,3.304446 0,1.825027 -1.482571,3.3045 -3.311428,3.3045 -1.828837,0 -3.311413,-1.479489 -3.311413,-3.3045 0,-1.824967 1.482576,-3.304446 3.311413,-3.304446 z"
         fill="#000000"
         stroke="none"
         stroke-width="0"
         id="path5"
         style="mix-blend-mode:normal" />
      <path
         d="m 26.689942,3.1151231 c 1.025874,0 3.620854,0.4174594 3.620854,0.4174594 0,0 1.799643,8.3626085 5.45483,12.4634625 3.085786,3.462078 13.213924,6.256895 13.213924,6.256895 0,0 1.116466,3.261118 1.116466,4.219205 0,12.899759 -10.479254,23.357139 -23.406074,23.357139 -12.926821,0 -23.4060862,-10.45738 -23.4060862,-23.357139 0,-12.899758 10.4792652,-23.357129 23.4060862,-23.357129 z"
         fill="none"
         stroke="#c3312b"
         stroke-width="6.20242"
         id="path6"
         style="mix-blend-mode:normal" />
    </a>
  </g>
</svg>
