<?xml version="1.0" encoding="UTF-8" standalone="no"?>
<svg
   width="236.55241"
   height="163.99522"
   version="1.1"
   id="svg7"
   sodipodi:docname="mantis.svg"
   inkscape:version="1.3.2 (091e20e, 2023-11-25, custom)"
   xmlns:inkscape="http://www.inkscape.org/namespaces/inkscape"
   xmlns:sodipodi="http://sodipodi.sourceforge.net/DTD/sodipodi-0.dtd"
   xmlns="http://www.w3.org/2000/svg"
   xmlns:svg="http://www.w3.org/2000/svg">
  <defs
     id="defs7" />
  <sodipodi:namedview
     id="namedview7"
     pagecolor="#ffffff"
     bordercolor="#000000"
     borderopacity="0.25"
     inkscape:showpageshadow="2"
     inkscape:pageopacity="0.0"
     inkscape:pagecheckerboard="0"
     inkscape:deskcolor="#d1d1d1"
     inkscape:zoom="0.97840909"
     inkscape:cx="-372.54355"
     inkscape:cy="-111.91638"
     inkscape:window-width="1920"
     inkscape:window-height="1057"
     inkscape:window-x="-8"
     inkscape:window-y="-8"
     inkscape:window-maximized="1"
     inkscape:current-layer="g7" />
  <clipPath
     id="a">
    <path
       d="m 13.333,9.167 h 83.334 q 4.166,0 4.166,4.166 v 83.334 q 0,4.166 -4.166,4.166 H 13.333 q -4.166,0 -4.166,-4.166 V 13.333 q 0,-4.166 4.166,-4.166"
       id="path1" />
  </clipPath>
  <g
     id="g7"
     transform="translate(-0.92086901,-1.4027016)">
    <path
       fill="none"
       stroke="#333333"
       stroke-linecap="round"
       stroke-linejoin="round"
       stroke-width="10.7194"
       d="M 97.898999,85.557717 Q 49.818935,58.660239 38.455669,33.036827 m 59.44333,52.52089 Q 89.77676,46.036716 88.763805,6.7624018 M 97.898999,85.557717 Q 135.7037,54.496046 145.99545,22.47968 M 97.898999,85.557717 Q 65.295615,118.90261 56.245216,153.06669 M 97.898999,85.557717 Q 76.849111,122.54201 70.606833,160.03823 M 97.898999,85.557717 Q 141.67077,115.1991 151.8846,143.67603"
       id="path2" />
    <path
       fill="#78a62e"
       d="M 140.15185,139.08238 Q 91.245422,155.01498 48.618268,137.46662 -0.25108426,117.36002 0.94966459,82.701723 2.152242,48.045373 52.307308,31.373016 q 43.735261,-14.549671 91.419672,4.73464 43.8031,17.701025 42.57739,53.023985 -1.22401,35.328709 -46.15644,49.954409 z m -7.07824,-21.74136 Q 162.7793,107.67039 163.44998,88.342392 164.12067,69.014369 135.15311,57.303985 95.277018,41.180243 59.519689,53.073537 24.456978,64.729265 23.803917,83.494765 q -0.651231,18.767445 33.521037,32.827545 34.839349,14.34299 75.746696,1.02054 z"
       id="path3"
       style="stroke-width:2.67983" />
    <path
       fill="#9acc46"
       d="M 136.6098,128.21444 C 116.80142,134.6658 83.574051,139.493 52.972529,126.89545 22.367081,114.30153 11.913371,96.453235 12.376791,83.098233 12.84021,69.743232 24.505959,52.66248 55.914417,42.224253 87.311765,31.778055 120.12657,38.895045 139.44011,46.70392 c 19.31354,7.808886 36.12016,22.402142 35.43896,42.03316 -0.68315,19.63285 -18.45529,33.02811 -38.26731,39.47554"
       id="path4"
       style="stroke-width:2.67983" />
    <path
       fill="#78a62e"
       d="m 84.968287,58.22275 q -11.462214,0.01367 -20.746921,1.697578 -9.300123,1.690904 -19.759741,5.650999 -0.261232,0.09715 -0.534867,0.169137 -0.269849,0.07215 -0.546492,0.121357 -0.278466,0.04725 -0.557839,0.066 -0.277413,0.01695 -0.559647,0.0095 -0.280281,-0.0095 -0.56161,-0.04418 -0.277394,-0.03803 -0.550095,-0.102552 -0.274646,-0.06261 -0.542762,-0.149665 -0.262245,-0.09249 -0.521865,-0.205814 -0.253872,-0.11499 -0.497294,-0.258054 -0.241609,-0.141094 -0.471167,-0.30076 -0.227489,-0.16526 -0.441157,-0.347078 -0.209719,-0.185505 -0.403496,-0.393216 -0.191947,-0.20575 -0.362577,-0.424055 -0.172349,-0.224037 -0.321443,-0.462428 -0.149094,-0.238402 -0.273118,-0.489189 -0.12401,-0.250798 -0.224803,-0.51594 -0.100772,-0.265152 -0.171108,-0.533049 -0.07034,-0.267886 -0.119383,-0.548315 -0.04905,-0.280419 -0.06793,-0.556007 -0.01888,-0.275588 -0.009,-0.559651 0.0097,-0.280281 0.04414,-0.561611 0.03807,-0.277389 0.10252,-0.550096 0.06262,-0.274645 0.151626,-0.544586 0.08874,-0.262377 0.203857,-0.520039 0.114995,-0.25388 0.258058,-0.497294 0.13929,-0.24354 0.298932,-0.473128 0.165261,-0.227479 0.350765,-0.437203 0.185657,-0.213484 0.389599,-0.407369 0.205747,-0.191947 0.425861,-0.360639 0.224032,-0.172347 0.462429,-0.32144 0.238397,-0.149092 0.489183,-0.273119 0.250809,-0.124016 0.515946,-0.22481 11.431678,-4.324536 21.765989,-6.203287 10.284537,-1.865317 22.767062,-1.88534 0.282497,3.29e-4 0.560293,0.02702 0.28342,0.02882 0.556376,0.08571 0.275048,0.05128 0.545248,0.132682 0.270215,0.08147 0.528138,0.18897 0.257922,0.107552 0.507356,0.241347 0.249427,0.133795 0.479263,0.285864 0.233484,0.156 0.454962,0.330541 0.215605,0.180006 0.415268,0.382218 0.199958,0.194617 0.379745,0.411714 0.176408,0.216578 0.333218,0.451441 0.156808,0.234864 0.286713,0.480184 0.133662,0.245458 0.240203,0.508895 0.108765,0.254028 0.190314,0.52612 0.08169,0.268289 0.138455,0.54519 0.0531,0.272982 0.08321,0.552755 0.02632,0.279634 0.02796,0.560297 0.0016,0.280673 -0.02703,0.560297 -0.02866,0.279625 -0.08566,0.556378 -0.05126,0.275048 -0.130731,0.543421 -0.07947,0.268384 -0.190928,0.529966 -0.105582,0.256095 -0.239386,0.505525 -0.131991,0.25137 -0.287831,0.481095 -0.156001,0.233487 -0.330535,0.454959 -0.179858,0.211843 -0.380267,0.41344 -0.196488,0.197943 -0.41511,0.380026 -0.214773,0.178344 -0.449637,0.33516 -0.232904,0.154972 -0.482001,0.284741 -0.243584,0.13568 -0.507074,0.242174 -0.255907,0.106747 -0.525997,0.186522 -0.268414,0.0855 -0.543354,0.140416 -0.274946,0.05488 -0.554706,0.08507 -0.279636,0.02638 -0.560312,0.02797 m -2.70407,66.124505 Q 69.854,123.4796 59.67817,120.90052 q -10.196198,-2.59308 -21.290942,-7.70496 -0.253709,-0.11883 -0.497301,-0.25807 -0.24526,-0.14501 -0.470897,-0.30833 -0.225661,-0.1633 -0.433257,-0.35445 -0.211547,-0.18747 -0.403494,-0.39322 -0.19012,-0.20378 -0.360641,-0.42585 -0.17052,-0.22208 -0.313727,-0.46597 -0.149101,-0.2384 -0.269207,-0.49284 -0.12401,-0.2508 -0.222966,-0.51398 -0.09894,-0.26321 -0.16732,-0.53292 -0.07203,-0.27364 -0.113511,-0.55381 -0.0454,-0.2765 -0.06036,-0.55574 -0.01692,-0.27741 -0.0071,-0.56147 0.0097,-0.2803 0.04975,-0.55953 0.03612,-0.27557 0.10252,-0.55009 0.06641,-0.27451 0.158932,-0.53676 0.09083,-0.26798 0.207785,-0.52368 0.116946,-0.2557 0.259877,-0.49533 0.142911,-0.23968 0.310299,-0.47274 0.16134,-0.22384 0.350611,-0.43344 0.18927,-0.20962 0.393212,-0.4035 0.20358,-0.19427 0.425861,-0.36064 0.221919,-0.16676 0.465962,-0.31373 0.238397,-0.14909 0.49284,-0.2692 0.250802,-0.12401 0.513986,-0.22298 0.263192,-0.0989 0.534613,-0.16156 0.273637,-0.072 0.550141,-0.11743 0.278334,-0.0434 0.557576,-0.0584 0.279241,-0.0149 0.561483,-0.007 0.282233,0.007 0.559511,0.0498 0.27727,0.0418 0.551916,0.10446 0.270733,0.0663 0.536766,0.15893 0.26615,0.0889 0.523693,0.20779 10.13919,4.67296 19.313051,7.00303 9.187057,2.33241 20.575569,3.13145 0.27988,0.0211 0.557019,0.0667 0.277007,0.0495 0.549437,0.12146 0.272439,0.072 0.528664,0.17381 0.265762,0.10022 0.517419,0.22463 0.253485,0.12634 0.489062,0.27673 0.235606,0.15035 0.457191,0.32113 0.22343,0.17272 0.427261,0.36371 0.203723,0.19477 0.391713,0.40419 0.180289,0.21298 0.345,0.44047 0.164518,0.23133 0.30203,0.47688 0.137613,0.24177 0.253922,0.4961 0.114249,0.25989 0.20363,0.5247 0.08746,0.26657 0.151912,0.53995 0.06067,0.27324 0.0964,0.5551 0.03598,0.27428 0.04507,0.559 0.0074,0.27899 -0.01188,0.56083 -0.02291,0.27793 -0.06857,0.55508 -0.04564,0.27713 -0.119622,0.55138 -0.07567,0.26852 -0.173829,0.52867 -0.102054,0.2638 -0.224489,0.51363 -0.128312,0.25531 -0.278696,0.49089 -0.146742,0.23947 -0.319301,0.45914 -0.170752,0.2216 -0.365516,0.42533 -0.192956,0.20566 -0.404196,0.39171 -0.212967,0.18028 -0.44046,0.345 -0.229372,0.1627 -0.474914,0.3002 -0.243737,0.13944 -0.498064,0.25575 -0.257955,0.11242 -0.520905,0.20377 -0.268422,0.0855 -0.543748,0.15177 -0.271421,0.0626 -0.553149,0.0946 -0.276241,0.0378 -0.559008,0.045 -0.280932,0.01 -0.560826,-0.0119 M 128.65086,63.275089 q -7.7079,15.528695 -7.98914,23.57913 -0.27746,8.050562 6.33339,24.081801 0.11031,0.2636 0.19019,0.52991 0.0799,0.26633 0.13465,0.54507 0.0551,0.27115 0.0814,0.55078 0.0244,0.28147 0.0261,0.56213 0.003,0.27885 -0.0252,0.56226 -0.0285,0.27584 -0.0837,0.55454 -0.0569,0.27296 -0.13635,0.54135 -0.0852,0.27007 -0.19093,0.52995 -0.10937,0.25597 -0.24318,0.5054 -0.12987,0.24577 -0.28781,0.4811 -0.15601,0.23348 -0.33421,0.45102 -0.1782,0.21755 -0.37846,0.41538 -0.19997,0.19815 -0.41336,0.37404 -0.22231,0.17814 -0.4534,0.33506 -0.2329,0.15497 -0.48017,0.2867 -0.24923,0.13355 -0.50891,0.24021 -0.26359,0.1103 -0.52795,0.18836 -0.26828,0.0817 -0.54505,0.13466 -0.27677,0.053 -0.55458,0.0813 -0.27976,0.0301 -0.56213,0.0261 -0.27885,0.003 -0.5603,-0.027 -0.27976,-0.0249 -0.55454,-0.0837 -0.27113,-0.0549 -0.5433,-0.13451 -0.26629,-0.0851 -0.52996,-0.19093 -0.25597,-0.10938 -0.5054,-0.24317 -0.24577,-0.12989 -0.47926,-0.28588 -0.23349,-0.156 -0.44909,-0.33602 -0.22131,-0.17835 -0.41721,-0.38041 -0.19988,-0.19468 -0.37637,-0.41119 -0.17629,-0.22035 -0.33322,-0.45145 -0.1568,-0.23486 -0.28853,-0.48213 -0.13356,-0.24923 -0.24021,-0.5089 -7.55165,-18.316414 -7.18653,-28.838304 0.36511,-10.521901 9.16992,-28.265058 0.12258,-0.253594 0.27491,-0.491021 0.14478,-0.23765 0.31929,-0.459144 0.17272,-0.223433 0.36568,-0.429088 0.19099,-0.203833 0.40179,-0.386435 0.21153,-0.18576 0.44257,-0.350595 0.22561,-0.162802 0.47115,-0.300305 0.24389,-0.143213 0.49611,-0.253922 0.2581,-0.116187 0.52482,-0.207425 0.26659,-0.0874 0.54191,-0.153733 0.27325,-0.0607 0.5495,-0.09853 0.28003,-0.03772 0.55901,-0.04503 0.28472,-0.0095 0.56082,0.01187 0.28367,0.02119 0.55898,0.06494 0.27714,0.04566 0.54566,0.121315 0.27426,0.07395 0.5344,0.172124 0.26381,0.102023 0.51363,0.224503 0.2536,0.122575 0.49103,0.274899 0.23948,0.146741 0.46293,0.319438 0.22343,0.172707 0.42533,0.365512 0.20189,0.192804 0.38827,0.403757 0.18391,0.209575 0.34875,0.440614 0.16463,0.227564 0.30031,0.471147 0.14321,0.24389 0.25575,0.498056 0.11619,0.258097 0.20755,0.521046 0.0873,0.270365 0.15178,0.543749 0.0626,0.271404 0.0985,0.549481 0.0377,0.280027 0.045,0.559005 0.01,0.284731 -0.0119,0.560817 -0.0193,0.281859 -0.0649,0.558994 -0.0457,0.277145 -0.1195,0.547606 -0.0739,0.274263 -0.17213,0.534415 -0.10202,0.263797 -0.22448,0.51362"
       id="path5"
       style="stroke-width:2.67983" />
    <path
       fill="#78a62e"
       d="m 32.49815,77.571653 81.98922,0.346019 q 0.28446,-0.0011 0.56029,0.02702 0.28342,0.02882 0.55637,0.08571 0.27674,0.057 0.54514,0.136465 0.26249,0.08497 0.52603,0.194595 0.25597,0.109375 0.50541,0.243169 0.24566,0.133647 0.47926,0.285875 0.23521,0.161721 0.45092,0.337967 0.2156,0.180017 0.41344,0.38027 0.19814,0.199966 0.37424,0.41683 0.17641,0.216589 0.33322,0.451452 0.15681,0.234864 0.28475,0.481996 0.1355,0.247428 0.2402,0.508905 0.10467,0.261476 0.18458,0.527826 0.0816,0.27207 0.13466,0.545052 0.0568,0.276902 0.0812,0.558369 0.0263,0.279625 0.0243,0.556389 l -0.002,0.17436 -0.17349,4.999601 q -0.01,0.280281 -0.0478,0.557681 -0.0342,0.277537 -0.10255,0.550095 -0.0626,0.274655 -0.15332,0.538854 -0.0908,0.267982 -0.20777,0.523684 -0.11695,0.255703 -0.25806,0.497294 -0.1411,0.241601 -0.30637,0.469081 -0.15962,0.229609 -0.34716,0.44108 -0.1855,0.209713 -0.39124,0.40167 -0.20575,0.191947 -0.42979,0.364294 -0.22402,0.172347 -0.46032,0.315846 -0.2384,0.149103 -0.49101,0.27117 -0.25261,0.122077 -0.51399,0.222956 -0.26134,0.100963 -0.53683,0.170991 -0.27168,0.07024 -0.55015,0.117426 -0.27466,0.04736 -0.55392,0.06229 -0.27937,0.01875 -0.55964,0.0095 l -0.17789,-0.0095 -81.813905,-5.343659 q -0.280019,-0.01727 -0.557158,-0.06293 -0.275311,-0.04365 -0.549569,-0.11767 -0.268504,-0.07564 -0.532445,-0.173947 -0.262105,-0.0963 -0.513761,-0.22071 -0.251657,-0.124387 -0.491021,-0.274899 -0.239372,-0.150512 -0.463065,-0.315645 -0.223429,-0.172718 -0.425323,-0.365522 -0.205769,-0.189192 -0.391721,-0.404192 -0.183923,-0.209575 -0.348865,-0.436853 -0.164635,-0.227564 -0.304076,-0.471295 -0.139448,-0.243742 -0.255758,-0.498067 -0.116186,-0.258097 -0.205597,-0.522868 -0.09306,-0.26867 -0.157653,-0.538262 -0.06067,-0.273236 -0.09836,-0.553263 -0.03781,-0.276255 -0.04507,-0.559015 -0.013,-0.281065 0.0081,-0.560955 0.01508,-0.270619 0.05836,-0.534564 0.04341,-0.267737 0.111263,-0.528938 0.06784,-0.261201 0.162071,-0.517688 0.09017,-0.249049 0.204897,-0.495344 0.116546,-0.244345 0.255309,-0.472747 0.137177,-0.237946 0.296309,-0.452352 0.159388,-0.222013 0.338859,-0.422488 0.179472,-0.200464 0.377299,-0.381255 0.197701,-0.188789 0.410424,-0.353625 0.212427,-0.165143 0.444944,-0.308758 0.224831,-0.140056 0.469855,-0.26242 0.23943,-0.124408 0.489305,-0.221928 0.253639,-0.09736 0.510317,-0.171891 0.260436,-0.07437 0.525714,-0.123963 0.265272,-0.04958 0.535379,-0.07437 0.270099,-0.02479 0.53549,-0.02309 m -0.0478,11.431649 0.0258,-5.715751 0.370467,-5.7038 81.817815,5.339994 -0.37242,5.705623 -5.7135,-0.200157 0.17336,-4.995819 5.71349,0.200167 -0.022,5.715888 z"
       id="path6"
       style="stroke-width:2.67983" />
    <path
       fill="#353535"
       d="m 152.31147,67.062476 q 25.25044,-1.981175 42.65432,-11.375235 17.44071,-9.41743 33.99558,-30.025874 l 2.4e-4,0.0041 3.72806,2.99433 2.68781,3.957454 Q 207.2484,51.713004 196.42202,57.55453 185.5976,63.394243 154.51487,76.247989 l -1.82806,-4.418708 z m 0.748,9.534751 q -0.37459,0.03062 -0.7489,-0.0011 -0.37445,-0.02818 -0.74482,-0.118762 -0.36477,-0.08846 -0.71059,-0.231325 -0.34764,-0.144791 -0.67086,-0.33803 -0.32112,-0.198844 -0.60657,-0.44196 -0.28529,-0.246952 -0.52952,-0.532191 -0.24416,-0.285314 -0.44159,-0.606902 -0.19743,-0.321567 -0.33891,-0.669693 -0.0929,-0.217489 -0.15716,-0.443443 -0.0681,-0.222289 -0.11509,-0.45336 -0.0451,-0.2291 -0.0693,-0.463148 -0.0201,-0.237713 -0.0235,-0.469144 5.7e-4,-0.235097 0.022,-0.47137 0.0232,-0.230509 0.071,-0.462057 0.0479,-0.231569 0.11634,-0.456718 0.0685,-0.225148 0.15944,-0.441938 0.0909,-0.216811 0.19861,-0.423516 0.10771,-0.206683 0.23962,-0.403132 0.13195,-0.196417 0.28218,-0.373224 0.14867,-0.186363 0.31561,-0.353117 0.16469,-0.165238 0.34673,-0.311883 0.18538,-0.150926 0.37752,-0.278894 0.1941,-0.12979 0.40272,-0.240097 0.20681,-0.112235 0.42412,-0.201439 30.62882,-12.668505 41.02036,-18.272953 10.40316,-5.61163 38.1247,-24.437079 0.31459,-0.212783 0.65952,-0.373392 0.35071,-0.162267 0.71461,-0.267196 0.36755,-0.101005 0.74463,-0.148599 0.37889,-0.04563 0.75752,-0.0287 0.38254,0.01328 0.75528,0.09067 0.37666,0.07375 0.73227,0.207437 0.35744,0.13565 0.68653,0.3234 0.33288,0.187889 0.62983,0.427615 0.18269,0.144757 0.35322,0.311841 0.16688,0.163156 0.31808,0.340949 0.14912,0.183408 0.28269,0.377648 0.13357,0.19424 0.24598,0.397229 0.11241,0.202988 0.2034,0.422297 0.091,0.219305 0.16473,0.443707 0.0737,0.224395 0.12083,0.451661 0.045,0.232887 0.0711,0.465114 0.0261,0.23222 0.0294,0.463657 0.001,0.237054 -0.0164,0.473448 -0.0232,0.230515 -0.0673,0.462206 -0.0421,0.229855 -0.10877,0.456968 -0.0666,0.227112 -0.152,0.445989 -0.0854,0.218862 -0.19679,0.425478 -0.11147,0.206576 -0.23974,0.406923 -0.13,0.194584 -0.27277,0.375456 l 2.3e-4,0.0041 Q 218.65402,53.772166 199.5092,64.105045 180.32573,74.459334 153.05997,76.59812 m -0.7987,23.072101 q 27.04933,4.024749 45.46711,15.681909 18.38631,11.6352 34.57445,34.92702 l -1.4e-4,0.004 q 0.13175,0.19228 0.24612,0.39343 0.11593,0.2107 0.21279,0.42453 0.0911,0.21553 0.16683,0.43809 0.0699,0.22427 0.11888,0.4535 0.0488,0.23301 0.0768,0.46341 0.0279,0.23418 0.0331,0.46758 0.001,0.23705 -0.0145,0.47162 -0.0194,0.23065 -0.0615,0.4605 -0.0403,0.23182 -0.10319,0.45907 -0.0666,0.22711 -0.15199,0.44598 -0.0873,0.22071 -0.19312,0.4294 -0.10584,0.2087 -0.23219,0.40718 -0.12999,0.19458 -0.27488,0.38105 -0.14476,0.18269 -0.30804,0.35335 -0.1633,0.17067 -0.34096,0.31809 -0.17989,0.15681 -0.37412,0.29039 -0.31089,0.21674 -0.65782,0.37914 -0.34144,0.16829 -0.70547,0.27701 -0.36403,0.10871 -0.74489,0.15616 -0.37721,0.0514 -0.75975,0.0381 -0.38254,-0.0132 -0.75567,-0.0794 -0.37288,-0.0736 -0.73436,-0.20181 -0.35576,-0.1299 -0.69242,-0.31792 -0.33496,-0.18227 -0.63204,-0.41821 -26.34994,-20.70173 -36.33911,-27.02097 -9.91851,-6.27887 -39.65141,-21.06849 l -0.003,-0.004 q -0.21064,-0.10403 -0.40928,-0.22654 -0.19846,-0.12638 -0.38511,-0.26744 -0.18658,-0.14113 -0.3591,-0.30634 -0.16707,-0.15934 -0.32196,-0.33734 -0.15468,-0.17823 -0.29056,-0.37031 -0.13549,-0.19244 -0.25552,-0.39565 -0.11996,-0.20327 -0.21111,-0.41877 -0.0911,-0.21553 -0.17074,-0.43444 -0.0737,-0.2244 -0.12658,-0.44997 -0.0526,-0.23313 -0.0844,-0.46366 -0.0317,-0.23433 -0.0369,-0.46772 -0.005,-0.2334 0.006,-0.46809 0.0215,-0.23628 0.056,-0.46639 0.0423,-0.23364 0.1033,-0.46286 0.0609,-0.22541 0.14427,-0.44245 0.0817,-0.2228 0.18948,-0.43332 0.16333,-0.33562 0.38256,-0.64277 0.21924,-0.30712 0.48244,-0.57105 0.26727,-0.27137 0.5671,-0.49604 0.29975,-0.22473 0.63772,-0.40068 0.33201,-0.170513 0.68887,-0.290842 0.35684,-0.120351 0.72869,-0.181395 0.37395,-0.06664 0.74749,-0.06696 0.37746,-0.0042 0.75098,0.05075 m -1.40909,9.461797 0.7046,-4.73279 2.12813,-4.28332 0.003,0.004 q 30.17641,15.01359 40.50681,21.55324 10.3992,6.57807 37.13515,27.5757 l -2.95384,3.7636 -3.92847,2.72674 -5.2e-4,0.004 q -15.0846,-21.70822 -31.83253,-32.31011 -16.7128,-10.576 -41.76337,-14.30074"
       id="path7"
       style="stroke-width:2.67983" />
  </g>
</svg>
