<?xml version="1.0" encoding="UTF-8" standalone="no"?>
<svg
   width="362.28622"
   height="201.9895"
   version="1.1"
   id="svg10"
   sodipodi:docname="queen_ant.svg"
   inkscape:version="1.3.2 (091e20e, 2023-11-25, custom)"
   xmlns:inkscape="http://www.inkscape.org/namespaces/inkscape"
   xmlns:sodipodi="http://sodipodi.sourceforge.net/DTD/sodipodi-0.dtd"
   xmlns="http://www.w3.org/2000/svg"
   xmlns:svg="http://www.w3.org/2000/svg">
  <defs
     id="defs10" />
  <sodipodi:namedview
     id="namedview10"
     pagecolor="#ffffff"
     bordercolor="#000000"
     borderopacity="0.25"
     inkscape:showpageshadow="2"
     inkscape:pageopacity="0.0"
     inkscape:pagecheckerboard="0"
     inkscape:deskcolor="#d1d1d1"
     inkscape:zoom="1.3836794"
     inkscape:cx="-9.0338845"
     inkscape:cy="-5.4203307"
     inkscape:window-width="1920"
     inkscape:window-height="1057"
     inkscape:window-x="-8"
     inkscape:window-y="-8"
     inkscape:window-maximized="1"
     inkscape:current-layer="svg10" />
  <clipPath
     id="a">
    <path
       d="m 13.333,9.167 h 83.334 q 4.166,0 4.166,4.166 v 83.334 q 0,4.166 -4.166,4.166 H 13.333 q -4.166,0 -4.166,-4.166 V 13.333 q 0,-4.166 4.166,-4.166"
       id="path1" />
  </clipPath>
  <g
     clip-path="url(#a)"
     id="g10"
     transform="matrix(-2.6261594,2.4881854,-2.4881854,-2.6261594,457.62397,110.61707)">
    <path
       fill="#454545"
       d="m 49.991,49.991 q 0.485,-0.484 0.993,-0.945 0.507,-0.46 1.037,-0.894 0.53,-0.435 1.08,-0.843 0.55,-0.409 1.12,-0.79 0.57,-0.38 1.158,-0.733 0.588,-0.352 1.193,-0.675 0.604,-0.323 1.223,-0.616 0.619,-0.293 1.253,-0.555 0.634,-0.262 1.279,-0.493 0.645,-0.231 1.3,-0.43 0.656,-0.2 1.321,-0.366 0.665,-0.166 1.337,-0.3 0.672,-0.134 1.35,-0.234 0.678,-0.1 1.36,-0.168 0.682,-0.068 1.367,-0.1 0.684,-0.034 1.37,-0.034 0.685,0 1.37,0.033 0.684,0.034 1.366,0.101 0.682,0.067 1.36,0.168 0.678,0.101 1.35,0.234 0.672,0.133 1.337,0.3 0.665,0.167 1.32,0.366 0.655,0.199 1.301,0.43 0.646,0.231 1.279,0.493 0.633,0.262 1.252,0.555 0.619,0.293 1.224,0.616 0.605,0.323 1.192,0.676 0.587,0.353 1.158,0.733 0.57,0.38 1.12,0.789 0.55,0.408 1.08,0.842 0.53,0.435 1.038,0.896 0.508,0.46 0.992,0.944 0.485,0.485 0.945,0.993 0.46,0.508 0.895,1.037 0.435,0.529 0.843,1.08 0.408,0.551 0.79,1.12 0.38,0.57 0.732,1.158 0.353,0.588 0.676,1.193 0.323,0.604 0.616,1.223 0.293,0.619 0.555,1.253 0.262,0.634 0.493,1.279 0.231,0.645 0.43,1.3 0.199,0.655 0.365,1.321 0.166,0.666 0.3,1.337 0.134,0.671 0.235,1.35 0.101,0.679 0.168,1.36 0.067,0.681 0.1,1.367 0.033,0.686 0.034,1.37 0.001,0.684 -0.034,1.37 -0.035,0.686 -0.1,1.366 -0.065,0.68 -0.168,1.36 -0.1,0.677 -0.234,1.35 -0.134,0.672 -0.3,1.337 -0.167,0.664 -0.366,1.32 -0.199,0.656 -0.43,1.301 -0.23,0.645 -0.493,1.279 -0.262,0.633 -0.555,1.252 -0.293,0.62 -0.616,1.224 -0.323,0.605 -0.676,1.192 -0.352,0.588 -0.733,1.158 -0.38,0.57 -0.789,1.12 -0.408,0.55 -0.843,1.08 -0.434,0.53 -0.895,1.038 -0.46,0.508 -0.945,0.992 -0.484,0.485 -0.992,0.945 -0.508,0.46 -1.037,0.895 -0.529,0.435 -1.08,0.843 -0.551,0.409 -1.12,0.79 -0.57,0.38 -1.159,0.732 -0.587,0.353 -1.192,0.676 -0.604,0.323 -1.224,0.616 -0.62,0.293 -1.252,0.555 -0.634,0.262 -1.279,0.493 -0.645,0.231 -1.3,0.43 -0.655,0.199 -1.321,0.365 -0.666,0.166 -1.337,0.3 -0.671,0.134 -1.35,0.235 -0.679,0.101 -1.36,0.168 -0.681,0.067 -1.367,0.1 -0.686,0.033 -1.37,0.034 -0.685,0 -1.37,-0.034 -0.684,-0.033 -1.366,-0.1 -0.682,-0.067 -1.36,-0.168 -0.678,-0.101 -1.35,-0.234 -0.672,-0.133 -1.337,-0.3 -0.665,-0.167 -1.32,-0.366 -0.656,-0.199 -1.301,-0.43 -0.646,-0.23 -1.279,-0.493 -0.633,-0.262 -1.253,-0.555 -0.62,-0.293 -1.223,-0.616 -0.603,-0.323 -1.193,-0.676 -0.59,-0.353 -1.157,-0.733 -0.567,-0.38 -1.12,-0.789 -0.553,-0.409 -1.08,-0.843 -0.527,-0.434 -1.038,-0.895 -0.511,-0.461 -0.993,-0.945 -0.482,-0.484 -0.944,-0.992 -0.462,-0.508 -0.896,-1.037 -0.434,-0.529 -0.842,-1.08 -0.408,-0.551 -0.79,-1.12 -0.382,-0.569 -0.732,-1.159 -0.353,-0.587 -0.676,-1.192 -0.323,-0.604 -0.616,-1.224 -0.293,-0.62 -0.555,-1.252 -0.262,-0.632 -0.493,-1.279 -0.231,-0.647 -0.43,-1.3 -0.2,-0.657 -0.366,-1.321 -0.166,-0.665 -0.3,-1.337 -0.134,-0.673 -0.234,-1.35 -0.1,-0.678 -0.168,-1.36 -0.067,-0.682 -0.1,-1.367 -0.034,-0.684 -0.034,-1.37 0,-0.685 0.033,-1.37 0.034,-0.684 0.101,-1.366 0.067,-0.682 0.168,-1.36 0.101,-0.678 0.234,-1.35 0.133,-0.672 0.3,-1.337 0.167,-0.665 0.366,-1.32 0.199,-0.655 0.43,-1.301 0.231,-0.646 0.493,-1.279 0.262,-0.633 0.555,-1.253 0.293,-0.62 0.616,-1.223 0.323,-0.603 0.675,-1.193 0.352,-0.59 0.734,-1.157 0.382,-0.567 0.789,-1.12 0.407,-0.553 0.843,-1.08 0.436,-0.527 0.894,-1.038 0.458,-0.511 0.945,-0.993"
       id="path2" />
    <path
       fill="#555555"
       d="m 54.116,54.116 q 0.383,-0.383 0.785,-0.747 0.402,-0.364 0.82,-0.708 0.42,-0.344 0.855,-0.667 0.436,-0.323 0.887,-0.624 0.45,-0.301 0.915,-0.58 0.465,-0.279 0.943,-0.534 0.478,-0.255 0.969,-0.488 0.491,-0.233 0.99,-0.439 0.499,-0.206 1.012,-0.39 0.51,-0.183 1.029,-0.34 0.519,-0.157 1.045,-0.29 0.525,-0.13 1.057,-0.237 0.532,-0.105 1.068,-0.185 0.536,-0.08 1.076,-0.133 0.54,-0.053 1.08,-0.08 0.542,-0.026 1.084,-0.026 0.542,0 1.084,0.027 0.541,0.026 1.081,0.08 0.54,0.053 1.076,0.132 0.536,0.079 1.068,0.185 0.531,0.106 1.057,0.238 0.526,0.132 1.045,0.289 0.519,0.157 1.03,0.34 0.511,0.183 1.01,0.39 0.501,0.207 0.991,0.44 0.49,0.231 0.968,0.487 0.479,0.255 0.943,0.534 0.466,0.279 0.916,0.58 0.451,0.3 0.886,0.624 0.436,0.323 0.855,0.667 0.419,0.344 0.82,0.708 0.401,0.364 0.786,0.747 0.385,0.383 0.747,0.785 0.362,0.402 0.708,0.82 0.346,0.418 0.667,0.855 0.321,0.437 0.624,0.887 0.303,0.45 0.58,0.915 0.277,0.465 0.534,0.943 0.256,0.478 0.488,0.969 0.231,0.49 0.439,0.99 0.207,0.501 0.39,1.012 0.182,0.51 0.34,1.029 0.157,0.519 0.289,1.045 0.132,0.526 0.237,1.057 0.105,0.531 0.186,1.068 0.081,0.537 0.132,1.076 0.054,0.54 0.08,1.08 0.027,0.542 0.027,1.084 0,0.543 -0.027,1.084 -0.026,0.541 -0.08,1.081 -0.053,0.54 -0.132,1.076 -0.079,0.536 -0.186,1.068 -0.105,0.531 -0.237,1.057 -0.132,0.526 -0.29,1.045 -0.158,0.519 -0.34,1.03 -0.182,0.511 -0.39,1.01 -0.207,0.501 -0.439,0.991 -0.231,0.49 -0.487,0.968 -0.255,0.479 -0.534,0.943 -0.279,0.466 -0.58,0.916 -0.301,0.451 -0.624,0.886 -0.323,0.436 -0.667,0.855 -0.344,0.419 -0.708,0.82 -0.364,0.401 -0.747,0.786 -0.383,0.385 -0.785,0.747 -0.402,0.362 -0.821,0.708 -0.419,0.346 -0.855,0.667 -0.436,0.321 -0.886,0.624 -0.45,0.303 -0.916,0.58 -0.466,0.277 -0.943,0.534 -0.478,0.256 -0.968,0.487 -0.49,0.232 -0.99,0.44 -0.501,0.207 -1.012,0.39 -0.51,0.182 -1.03,0.34 -0.518,0.157 -1.044,0.289 -0.526,0.132 -1.057,0.237 -0.532,0.106 -1.068,0.186 -0.537,0.08 -1.076,0.132 -0.54,0.054 -1.081,0.08 -0.541,0.026 -1.084,0.027 -0.543,0.001 -1.083,-0.027 -0.542,-0.026 -1.081,-0.08 -0.54,-0.053 -1.076,-0.132 -0.536,-0.079 -1.068,-0.186 -0.532,-0.107 -1.057,-0.237 -0.525,-0.13 -1.045,-0.29 -0.52,-0.16 -1.03,-0.34 -0.51,-0.18 -1.01,-0.39 -0.5,-0.21 -0.991,-0.438 -0.491,-0.228 -0.969,-0.488 -0.478,-0.26 -0.943,-0.534 -0.465,-0.274 -0.915,-0.58 -0.45,-0.306 -0.887,-0.624 -0.437,-0.318 -0.854,-0.667 -0.417,-0.349 -0.82,-0.708 Q 54.499,85.73 54.116,85.347 53.733,84.963 53.369,84.562 53.005,84.16 52.661,83.741 52.317,83.321 51.994,82.886 51.671,82.451 51.37,82 51.069,81.549 50.79,81.084 50.511,80.62 50.256,80.141 50,79.663 49.768,79.173 q -0.232,-0.49 -0.439,-0.99 -0.207,-0.5 -0.39,-1.012 -0.183,-0.512 -0.34,-1.03 -0.157,-0.518 -0.29,-1.044 -0.13,-0.526 -0.237,-1.057 -0.105,-0.532 -0.185,-1.068 -0.08,-0.537 -0.133,-1.076 -0.053,-0.54 -0.08,-1.081 -0.026,-0.542 -0.026,-1.084 0,-0.542 0.027,-1.083 0.026,-0.542 0.08,-1.081 0.053,-0.54 0.132,-1.076 0.079,-0.536 0.185,-1.068 0.106,-0.532 0.238,-1.057 0.132,-0.525 0.289,-1.045 0.157,-0.52 0.34,-1.03 0.183,-0.51 0.39,-1.01 0.207,-0.5 0.44,-0.991 0.233,-0.491 0.487,-0.969 0.254,-0.478 0.534,-0.943 0.28,-0.465 0.58,-0.915 0.3,-0.45 0.624,-0.887 0.324,-0.437 0.667,-0.854 0.343,-0.417 0.708,-0.82 0.365,-0.403 0.747,-0.786"
       id="path3" />
    <path
       fill="#454545"
       d="m 38.206,38.206 q 0.412,-0.412 0.844,-0.804 0.432,-0.391 0.883,-0.761 0.45,-0.37 0.92,-0.717 0.467,-0.348 0.952,-0.671 0.485,-0.323 0.985,-0.624 0.5,-0.3 1.014,-0.575 0.515,-0.274 1.042,-0.524 0.527,-0.249 1.065,-0.472 0.539,-0.223 1.088,-0.42 0.549,-0.197 1.107,-0.365 0.558,-0.168 1.123,-0.311 0.565,-0.143 1.138,-0.256 0.571,-0.113 1.148,-0.199 0.577,-0.085 1.157,-0.143 0.58,-0.058 1.163,-0.085 0.583,-0.027 1.165,-0.029 0.582,-0.002 1.165,0.029 0.583,0.028 1.163,0.085 0.58,0.057 1.157,0.143 0.577,0.086 1.148,0.2 0.572,0.113 1.138,0.255 0.565,0.141 1.123,0.31 0.558,0.17 1.107,0.366 0.549,0.197 1.088,0.42 0.538,0.223 1.065,0.472 0.527,0.25 1.042,0.524 0.514,0.275 1.014,0.575 0.5,0.3 0.985,0.624 0.485,0.324 0.953,0.67 0.468,0.346 0.919,0.718 0.45,0.37 0.883,0.761 0.432,0.392 0.844,0.804 0.412,0.412 0.804,0.844 0.392,0.432 0.761,0.883 0.369,0.451 0.717,0.92 0.348,0.467 0.671,0.952 0.323,0.485 0.624,0.985 0.301,0.5 0.575,1.014 0.274,0.514 0.524,1.042 0.25,0.528 0.472,1.065 0.223,0.539 0.42,1.088 0.197,0.549 0.365,1.107 0.168,0.558 0.311,1.123 0.143,0.565 0.256,1.138 0.113,0.571 0.199,1.148 0.085,0.577 0.143,1.157 0.058,0.58 0.085,1.163 0.027,0.583 0.029,1.165 0.002,0.582 -0.029,1.165 -0.028,0.583 -0.085,1.163 -0.057,0.58 -0.143,1.157 -0.086,0.577 -0.2,1.148 -0.113,0.572 -0.255,1.138 -0.141,0.565 -0.31,1.123 -0.17,0.558 -0.366,1.107 -0.197,0.549 -0.42,1.088 -0.223,0.538 -0.472,1.065 -0.25,0.527 -0.524,1.042 -0.275,0.514 -0.575,1.014 -0.3,0.5 -0.624,0.985 -0.323,0.485 -0.67,0.953 -0.347,0.468 -0.718,0.919 -0.371,0.451 -0.761,0.883 -0.392,0.432 -0.804,0.844 -0.412,0.412 -0.844,0.804 -0.432,0.392 -0.883,0.761 -0.451,0.369 -0.92,0.717 -0.467,0.348 -0.952,0.671 -0.485,0.323 -0.985,0.624 -0.5,0.301 -1.014,0.575 -0.515,0.274 -1.042,0.524 -0.527,0.249 -1.065,0.472 -0.539,0.223 -1.088,0.42 -0.549,0.197 -1.107,0.365 -0.558,0.168 -1.123,0.311 -0.565,0.143 -1.138,0.256 -0.571,0.113 -1.148,0.199 -0.577,0.085 -1.157,0.143 -0.58,0.058 -1.163,0.085 -0.583,0.027 -1.165,0.029 -0.582,0.002 -1.165,-0.029 -0.583,-0.028 -1.163,-0.085 -0.58,-0.057 -1.157,-0.143 -0.577,-0.086 -1.148,-0.2 -0.572,-0.113 -1.138,-0.255 -0.565,-0.141 -1.123,-0.31 -0.558,-0.17 -1.107,-0.366 Q 46.45,77.165 45.911,76.942 45.373,76.719 44.846,76.47 44.319,76.22 43.804,75.946 43.29,75.671 42.79,75.371 42.29,75.071 41.805,74.747 41.32,74.424 40.852,74.077 40.384,73.73 39.933,73.359 39.482,72.988 39.05,72.598 38.618,72.206 38.206,71.794 37.794,71.382 37.402,70.95 37.01,70.518 36.641,70.067 36.272,69.616 35.924,69.147 35.576,68.68 35.253,68.195 34.93,67.71 34.629,67.21 34.329,66.71 34.054,66.196 33.78,65.681 33.53,65.154 33.281,64.627 33.058,64.089 32.835,63.55 32.638,63.001 32.441,62.452 32.273,61.894 32.105,61.336 31.962,60.771 31.819,60.206 31.706,59.633 31.593,59.062 31.507,58.485 31.422,57.908 31.364,57.328 31.306,56.748 31.279,56.165 31.252,55.582 31.25,55 q -0.002,-0.582 0.029,-1.165 0.028,-0.583 0.085,-1.163 0.057,-0.58 0.143,-1.157 0.086,-0.577 0.2,-1.148 0.113,-0.572 0.255,-1.138 0.141,-0.565 0.31,-1.123 0.17,-0.558 0.366,-1.107 0.197,-0.549 0.42,-1.088 0.223,-0.538 0.472,-1.065 0.25,-0.527 0.524,-1.042 0.275,-0.514 0.575,-1.014 0.3,-0.5 0.624,-0.985 0.324,-0.485 0.67,-0.953 0.346,-0.468 0.718,-0.919 0.37,-0.45 0.761,-0.883 0.392,-0.432 0.804,-0.844"
       id="path4" />
    <path
       fill="#555555"
       d="m 42.331,42.331 q 0.311,-0.311 0.637,-0.606 0.326,-0.296 0.666,-0.575 0.34,-0.279 0.693,-0.54 0.353,-0.261 0.719,-0.507 0.366,-0.245 0.743,-0.47 0.377,-0.227 0.765,-0.434 0.388,-0.207 0.786,-0.395 0.398,-0.188 0.804,-0.357 0.406,-0.169 0.82,-0.316 0.414,-0.147 0.835,-0.276 0.421,-0.129 0.848,-0.235 0.427,-0.106 0.858,-0.192 0.431,-0.086 0.866,-0.15 0.435,-0.064 0.873,-0.108 0.438,-0.044 0.877,-0.065 0.439,-0.021 0.879,-0.022 0.44,-10e-4 0.88,0.022 0.438,0.022 0.876,0.065 0.438,0.043 0.873,0.107 0.435,0.064 0.866,0.15 0.432,0.086 0.858,0.193 0.427,0.107 0.848,0.235 0.42,0.127 0.835,0.276 0.414,0.148 0.82,0.316 0.407,0.168 0.804,0.357 0.397,0.189 0.786,0.395 0.389,0.206 0.765,0.433 0.376,0.227 0.743,0.47 0.367,0.243 0.719,0.507 0.352,0.264 0.693,0.541 0.34,0.28 0.666,0.575 0.326,0.295 0.637,0.606 0.311,0.311 0.606,0.637 0.296,0.326 0.575,0.666 0.279,0.34 0.54,0.693 0.261,0.353 0.507,0.719 0.246,0.366 0.47,0.743 0.227,0.377 0.434,0.765 0.207,0.388 0.395,0.786 0.188,0.398 0.357,0.804 0.169,0.406 0.316,0.82 0.147,0.414 0.276,0.835 0.129,0.421 0.235,0.848 0.106,0.427 0.192,0.858 0.086,0.431 0.15,0.866 0.064,0.435 0.108,0.873 0.044,0.438 0.065,0.877 0.021,0.439 0.022,0.879 0.001,0.44 -0.022,0.88 -0.022,0.438 -0.065,0.876 -0.043,0.438 -0.107,0.873 -0.064,0.435 -0.15,0.866 -0.086,0.432 -0.193,0.858 -0.107,0.427 -0.235,0.848 -0.127,0.42 -0.276,0.835 -0.148,0.414 -0.316,0.82 -0.168,0.407 -0.357,0.804 -0.189,0.397 -0.395,0.786 -0.206,0.389 -0.433,0.765 -0.227,0.376 -0.47,0.743 -0.243,0.367 -0.507,0.719 -0.264,0.352 -0.541,0.693 -0.28,0.34 -0.575,0.666 -0.295,0.326 -0.606,0.637 -0.311,0.311 -0.637,0.606 -0.326,0.296 -0.666,0.575 -0.34,0.279 -0.693,0.54 -0.353,0.261 -0.719,0.507 -0.366,0.246 -0.743,0.47 -0.377,0.227 -0.765,0.434 -0.388,0.207 -0.786,0.395 -0.398,0.188 -0.804,0.357 -0.406,0.169 -0.82,0.316 -0.414,0.147 -0.835,0.276 -0.421,0.129 -0.848,0.235 -0.427,0.106 -0.858,0.192 -0.431,0.086 -0.866,0.15 -0.435,0.064 -0.873,0.108 -0.438,0.044 -0.877,0.065 Q 55.44,72.916 55,72.917 54.56,72.918 54.12,72.895 53.682,72.873 53.244,72.83 52.806,72.787 52.371,72.723 51.936,72.659 51.505,72.573 51.073,72.487 50.647,72.38 50.22,72.273 49.799,72.145 49.379,72.018 48.964,71.869 48.55,71.721 48.144,71.553 47.737,71.385 47.34,71.196 46.943,71.007 46.554,70.801 46.165,70.595 45.789,70.368 45.413,70.141 45.046,69.898 44.679,69.655 44.327,69.391 43.975,69.127 43.634,68.85 43.294,68.57 42.968,68.275 42.642,67.98 42.331,67.669 42.02,67.358 41.725,67.032 41.429,66.706 41.15,66.366 40.871,66.026 40.61,65.673 40.349,65.32 40.103,64.954 39.858,64.588 39.633,64.211 39.406,63.834 39.199,63.446 38.992,63.058 38.804,62.66 38.616,62.262 38.447,61.856 38.278,61.45 38.131,61.036 37.984,60.622 37.855,60.201 37.726,59.78 37.62,59.353 37.514,58.926 37.428,58.495 37.342,58.064 37.278,57.629 37.214,57.194 37.17,56.756 37.126,56.318 37.105,55.879 37.084,55.44 37.083,55 q -10e-4,-0.44 0.022,-0.88 0.022,-0.438 0.065,-0.876 0.043,-0.438 0.107,-0.873 0.064,-0.435 0.15,-0.866 0.086,-0.432 0.193,-0.858 0.107,-0.427 0.235,-0.848 0.127,-0.42 0.276,-0.835 0.148,-0.414 0.316,-0.82 0.168,-0.407 0.357,-0.804 0.189,-0.397 0.395,-0.786 0.206,-0.389 0.433,-0.765 0.227,-0.376 0.47,-0.743 0.243,-0.367 0.507,-0.719 0.264,-0.352 0.541,-0.693 0.28,-0.34 0.575,-0.666 0.295,-0.326 0.606,-0.637"
       id="path5" />
    <path
       fill="#eeeeee"
       fill-opacity="0.498"
       d="m 42.472,50.403 q 0.255,-0.13 0.523,-0.234 0.269,-0.103 0.55,-0.178 0.282,-0.076 0.575,-0.125 0.293,-0.048 0.598,-0.069 0.304,-0.02 0.62,-0.014 0.315,0.007 0.64,0.041 0.325,0.034 0.66,0.096 0.335,0.062 0.676,0.151 0.341,0.089 0.692,0.206 0.351,0.117 0.706,0.259 0.355,0.142 0.719,0.313 0.362,0.17 0.729,0.365 0.367,0.196 0.738,0.417 0.37,0.221 0.745,0.468 0.374,0.246 0.75,0.517 0.376,0.27 0.753,0.566 0.378,0.294 0.756,0.612 0.378,0.318 0.755,0.658 0.377,0.34 0.753,0.702 0.376,0.362 0.75,0.744 0.373,0.383 0.743,0.785 0.37,0.402 0.736,0.823 0.366,0.421 0.727,0.86 0.36,0.439 0.716,0.894 0.355,0.455 0.703,0.926 0.349,0.472 0.69,0.957 0.34,0.486 0.672,0.984 0.333,0.5 0.656,1.01 0.323,0.511 0.636,1.033 0.313,0.522 0.615,1.053 0.302,0.531 0.593,1.071 0.291,0.54 0.57,1.087 0.279,0.547 0.544,1.1 0.265,0.553 0.518,1.109 0.253,0.556 0.49,1.117 0.237,0.561 0.462,1.122 0.225,0.561 0.432,1.123 0.207,0.562 0.4,1.123 0.193,0.561 0.37,1.12 0.177,0.559 0.336,1.114 0.159,0.555 0.302,1.105 0.143,0.55 0.268,1.093 0.125,0.543 0.234,1.08 0.109,0.537 0.197,1.062 0.088,0.525 0.162,1.044 0.074,0.519 0.125,1.022 0.051,0.503 0.089,0.997 0.038,0.494 0.051,0.971 0.013,0.477 0.015,0.943 0.002,0.466 -0.022,0.91 -0.024,0.444 -0.06,0.878 -0.036,0.434 -0.096,0.842 -0.06,0.408 -0.133,0.805 -0.073,0.397 -0.17,0.765 -0.097,0.368 -0.205,0.724 -0.108,0.356 -0.24,0.68 -0.132,0.324 -0.276,0.636 -0.144,0.312 -0.31,0.59 -0.166,0.278 -0.343,0.542 -0.177,0.264 -0.376,0.493 -0.199,0.229 -0.407,0.443 -0.212,0.21 -0.438,0.392 -0.227,0.183 -0.468,0.34 -0.241,0.157 -0.497,0.287 -0.256,0.13 -0.523,0.233 -0.27,0.103 -0.55,0.179 -0.282,0.076 -0.575,0.124 -0.293,0.048 -0.598,0.07 -0.305,0.02 -0.62,0.013 -0.315,-0.007 -0.64,-0.04 -0.325,-0.033 -0.66,-0.097 -0.333,-0.062 -0.676,-0.15 -0.342,-0.09 -0.692,-0.206 -0.35,-0.117 -0.706,-0.26 -0.357,-0.143 -0.719,-0.312 -0.362,-0.17 -0.729,-0.366 -0.367,-0.196 -0.738,-0.417 -0.37,-0.22 -0.745,-0.467 -0.374,-0.247 -0.75,-0.518 -0.376,-0.27 -0.753,-0.565 -0.378,-0.295 -0.756,-0.613 -0.378,-0.318 -0.755,-0.658 -0.377,-0.34 -0.753,-0.702 -0.376,-0.362 -0.75,-0.744 -0.374,-0.382 -0.743,-0.785 -0.369,-0.403 -0.736,-0.823 -0.367,-0.42 -0.727,-0.86 -0.36,-0.438 -0.716,-0.894 -0.355,-0.455 -0.703,-0.926 -0.349,-0.471 -0.69,-0.957 -0.34,-0.485 -0.672,-0.984 -0.333,-0.499 -0.656,-1.01 -0.323,-0.51 -0.636,-1.033 -0.313,-0.523 -0.615,-1.053 -0.302,-0.53 -0.593,-1.071 -0.291,-0.541 -0.57,-1.087 -0.279,-0.546 -0.544,-1.1 -0.266,-0.552 -0.518,-1.109 -0.252,-0.557 -0.49,-1.117 -0.238,-0.56 -0.462,-1.121 Q 41.188,72.966 40.98,72.403 40.772,71.84 40.58,71.28 40.388,70.72 40.21,70.16 40.032,69.6 39.874,69.047 39.716,68.494 39.572,67.942 39.428,67.39 39.304,66.848 39.178,66.305 39.07,65.768 38.963,65.233 38.873,64.706 38.783,64.179 38.711,63.663 38.639,63.146 38.586,62.641 38.533,62.136 38.497,61.643 38.461,61.15 38.446,60.672 38.431,60.194 38.431,59.73 q 0,-0.464 0.022,-0.911 0.022,-0.447 0.06,-0.878 0.038,-0.431 0.096,-0.842 0.058,-0.411 0.133,-0.804 0.075,-0.393 0.17,-0.765 0.095,-0.372 0.205,-0.724 0.11,-0.352 0.24,-0.681 0.13,-0.33 0.276,-0.636 0.147,-0.307 0.31,-0.59 0.163,-0.283 0.343,-0.542 0.18,-0.259 0.376,-0.493 0.196,-0.234 0.407,-0.443 0.211,-0.209 0.438,-0.392 0.227,-0.183 0.468,-0.34 0.241,-0.157 0.497,-0.286"
       id="path6" />
    <path
       fill="#eeeeee"
       fill-opacity="0.498"
       d="m 50.403,42.472 q 0.13,-0.255 0.286,-0.497 0.157,-0.24 0.34,-0.468 0.183,-0.226 0.392,-0.438 0.209,-0.211 0.443,-0.407 0.234,-0.196 0.493,-0.376 0.259,-0.18 0.542,-0.343 0.283,-0.163 0.59,-0.31 0.307,-0.147 0.636,-0.275 0.329,-0.128 0.68,-0.241 0.351,-0.113 0.725,-0.205 0.374,-0.092 0.765,-0.17 0.391,-0.078 0.804,-0.133 0.413,-0.055 0.842,-0.096 0.429,-0.041 0.878,-0.06 0.447,-0.02 0.91,-0.022 0.464,-0.002 0.943,0.015 0.479,0.016 0.971,0.051 0.493,0.035 0.998,0.089 0.505,0.054 1.022,0.125 0.516,0.072 1.043,0.162 0.527,0.09 1.063,0.197 0.536,0.107 1.08,0.234 0.543,0.125 1.093,0.268 0.55,0.143 1.105,0.302 0.555,0.159 1.113,0.336 0.558,0.177 1.12,0.37 0.562,0.193 1.123,0.4 0.561,0.207 1.124,0.432 0.563,0.225 1.121,0.462 0.558,0.237 1.117,0.49 0.559,0.253 1.11,0.518 0.552,0.266 1.1,0.544 0.546,0.279 1.086,0.57 0.54,0.291 1.071,0.593 0.531,0.302 1.053,0.615 0.522,0.313 1.033,0.636 0.511,0.323 1.01,0.656 0.499,0.333 0.984,0.673 0.486,0.34 0.957,0.689 0.471,0.349 0.926,0.703 0.455,0.354 0.894,0.716 0.44,0.361 0.86,0.727 0.421,0.366 0.823,0.736 0.402,0.37 0.785,0.744 0.383,0.374 0.744,0.75 0.361,0.376 0.702,0.752 0.341,0.376 0.658,0.755 0.317,0.379 0.613,0.756 0.296,0.377 0.565,0.753 0.269,0.376 0.518,0.75 0.249,0.374 0.467,0.745 0.218,0.371 0.417,0.738 0.199,0.367 0.366,0.73 0.167,0.363 0.312,0.718 0.145,0.355 0.26,0.706 0.115,0.351 0.205,0.692 0.09,0.341 0.151,0.677 0.061,0.336 0.096,0.659 0.035,0.323 0.041,0.64 0.006,0.317 -0.014,0.62 -0.02,0.305 -0.07,0.598 -0.047,0.293 -0.123,0.575 -0.076,0.28 -0.18,0.55 -0.102,0.268 -0.232,0.523 -0.13,0.256 -0.287,0.497 -0.157,0.24 -0.34,0.468 -0.183,0.226 -0.392,0.438 -0.208,0.211 -0.443,0.407 -0.234,0.196 -0.493,0.376 -0.259,0.18 -0.542,0.343 -0.283,0.163 -0.59,0.31 -0.307,0.147 -0.636,0.275 -0.329,0.128 -0.68,0.241 -0.351,0.113 -0.724,0.205 -0.373,0.092 -0.765,0.17 -0.392,0.078 -0.805,0.133 -0.413,0.055 -0.842,0.096 -0.429,0.041 -0.878,0.06 -0.449,0.019 -0.91,0.022 -0.461,0.003 -0.943,-0.015 -0.482,-0.018 -0.97,-0.051 -0.488,-0.033 -0.998,-0.089 -0.51,-0.056 -1.022,-0.125 -0.512,-0.069 -1.044,-0.162 -0.532,-0.093 -1.063,-0.197 -0.531,-0.104 -1.079,-0.234 -0.548,-0.13 -1.093,-0.268 -0.545,-0.138 -1.105,-0.302 -0.56,-0.164 -1.114,-0.336 -0.554,-0.172 -1.12,-0.37 -0.56,-0.192 -1.123,-0.4 -0.563,-0.208 -1.123,-0.432 -0.562,-0.223 -1.122,-0.462 -0.56,-0.238 -1.117,-0.49 -0.557,-0.252 -1.11,-0.518 -0.553,-0.266 -1.099,-0.544 -0.547,-0.28 -1.087,-0.57 -0.54,-0.29 -1.07,-0.593 -0.532,-0.302 -1.054,-0.615 -0.522,-0.313 -1.033,-0.636 -0.511,-0.323 -1.01,-0.656 -0.498,-0.332 -0.984,-0.673 -0.485,-0.34 -0.957,-0.689 -0.47,-0.348 -0.926,-0.703 -0.455,-0.355 -0.894,-0.716 -0.439,-0.361 -0.86,-0.727 -0.421,-0.366 -0.823,-0.736 -0.402,-0.37 -0.785,-0.744 -0.383,-0.374 -0.744,-0.75 -0.361,-0.376 -0.702,-0.752 -0.341,-0.376 -0.658,-0.755 -0.317,-0.379 -0.612,-0.756 -0.295,-0.377 -0.566,-0.753 -0.271,-0.376 -0.517,-0.75 -0.247,-0.374 -0.468,-0.745 -0.221,-0.371 -0.417,-0.738 -0.196,-0.367 -0.365,-0.73 -0.169,-0.363 -0.313,-0.718 -0.144,-0.355 -0.26,-0.706 -0.116,-0.351 -0.205,-0.692 -0.089,-0.341 -0.15,-0.677 -0.063,-0.334 -0.097,-0.659 -0.034,-0.325 -0.04,-0.64 -0.006,-0.315 0.013,-0.62 0.021,-0.305 0.07,-0.598 0.048,-0.293 0.124,-0.575 0.075,-0.281 0.178,-0.55 0.103,-0.268 0.234,-0.523"
       id="path7" />
    <path
       fill="none"
       stroke="#292929"
       stroke-linecap="round"
       stroke-linejoin="round"
       stroke-width="5.833"
       d="M 34.081,46.456 Q 21.707,39.385 16.404,25.243 m 30.052,8.838 Q 39.385,21.707 25.243,16.404"
       id="path8" />
    <path
       fill="#454545"
       d="m 25.832,25.832 q 0.354,-0.355 0.726,-0.691 0.37,-0.337 0.758,-0.655 0.388,-0.318 0.79,-0.616 0.403,-0.299 0.82,-0.577 0.416,-0.279 0.846,-0.536 0.43,-0.258 0.872,-0.494 0.442,-0.237 0.895,-0.45 0.453,-0.215 0.917,-0.407 0.463,-0.192 0.934,-0.36 0.472,-0.17 0.952,-0.315 0.48,-0.145 0.966,-0.267 0.486,-0.122 0.978,-0.22 0.492,-0.098 0.987,-0.171 0.495,-0.073 0.994,-0.123 0.5,-0.049 1,-0.073 0.5,-0.025 1.002,-0.025 0.5,0 1.001,0.025 0.501,0.024 1,0.073 0.499,0.05 0.994,0.123 0.496,0.073 0.988,0.171 0.491,0.098 0.977,0.22 0.487,0.122 0.966,0.267 0.48,0.146 0.952,0.314 0.472,0.17 0.935,0.361 0.463,0.192 0.916,0.406 0.453,0.214 0.895,0.45 0.442,0.236 0.872,0.495 0.43,0.259 0.846,0.536 0.416,0.277 0.82,0.577 0.404,0.3 0.79,0.616 0.386,0.316 0.759,0.655 0.373,0.339 0.725,0.69 0.352,0.351 0.691,0.727 0.337,0.37 0.655,0.758 0.318,0.388 0.616,0.79 0.298,0.402 0.577,0.82 0.279,0.416 0.537,0.846 0.257,0.43 0.493,0.872 0.237,0.442 0.451,0.895 0.214,0.453 0.406,0.917 0.192,0.464 0.36,0.934 0.17,0.472 0.315,0.952 0.146,0.48 0.267,0.966 0.121,0.486 0.22,0.978 0.099,0.492 0.171,0.987 0.074,0.496 0.123,0.994 0.05,0.5 0.074,1 0.024,0.5 0.024,1.002 0,0.5 -0.024,1.001 -0.025,0.501 -0.074,1 -0.05,0.499 -0.123,0.994 -0.073,0.496 -0.171,0.988 -0.098,0.491 -0.22,0.977 -0.121,0.487 -0.267,0.966 -0.145,0.48 -0.314,0.952 -0.169,0.472 -0.36,0.935 -0.193,0.463 -0.407,0.916 -0.214,0.453 -0.45,0.895 -0.236,0.442 -0.494,0.872 -0.258,0.43 -0.537,0.846 -0.278,0.417 -0.577,0.82 -0.299,0.403 -0.616,0.79 -0.317,0.387 -0.655,0.759 -0.336,0.371 -0.69,0.725 -0.355,0.355 -0.726,0.691 -0.372,0.337 -0.76,0.655 -0.387,0.318 -0.79,0.616 -0.402,0.299 -0.819,0.577 -0.416,0.279 -0.846,0.537 -0.43,0.257 -0.872,0.493 -0.442,0.237 -0.895,0.451 -0.453,0.214 -0.916,0.406 -0.463,0.192 -0.935,0.36 -0.472,0.17 -0.952,0.315 -0.48,0.146 -0.966,0.267 -0.486,0.121 -0.977,0.22 -0.491,0.099 -0.988,0.171 -0.495,0.074 -0.994,0.123 -0.499,0.05 -1,0.074 -0.5,0.024 -1.001,0.024 -0.502,0 -1.002,-0.024 -0.5,-0.025 -1,-0.074 -0.498,-0.05 -0.994,-0.123 -0.496,-0.073 -0.987,-0.171 -0.491,-0.098 -0.978,-0.22 -0.486,-0.121 -0.966,-0.267 -0.48,-0.145 -0.952,-0.314 -0.471,-0.169 -0.934,-0.36 -0.464,-0.193 -0.917,-0.407 -0.453,-0.214 -0.895,-0.45 -0.442,-0.236 -0.872,-0.494 -0.43,-0.258 -0.846,-0.537 -0.417,-0.278 -0.82,-0.577 -0.403,-0.299 -0.79,-0.616 -0.387,-0.317 -0.758,-0.655 -0.372,-0.336 -0.726,-0.69 -0.355,-0.355 -0.691,-0.726 -0.337,-0.372 -0.655,-0.76 -0.318,-0.387 -0.616,-0.79 -0.299,-0.402 -0.577,-0.819 -0.279,-0.416 -0.536,-0.846 -0.258,-0.43 -0.494,-0.872 -0.237,-0.442 -0.45,-0.895 -0.215,-0.453 -0.407,-0.916 -0.192,-0.463 -0.36,-0.935 -0.168,-0.472 -0.315,-0.952 -0.147,-0.48 -0.267,-0.966 -0.12,-0.486 -0.22,-0.977 -0.1,-0.491 -0.171,-0.988 -0.071,-0.497 -0.123,-0.994 -0.052,-0.497 -0.073,-1 -0.021,-0.503 -0.025,-1.001 -0.004,-0.498 0.025,-1.002 0.029,-0.504 0.073,-1 0.044,-0.496 0.123,-0.994 0.079,-0.498 0.171,-0.987 0.092,-0.489 0.22,-0.978 0.128,-0.489 0.267,-0.966 0.139,-0.477 0.314,-0.952 0.17,-0.471 0.361,-0.934 0.192,-0.464 0.406,-0.917 0.214,-0.453 0.45,-0.895 0.236,-0.442 0.495,-0.872 0.257,-0.43 0.536,-0.846 0.278,-0.417 0.577,-0.82 0.299,-0.403 0.616,-0.79 0.317,-0.387 0.655,-0.758 0.336,-0.372 0.69,-0.726"
       id="path9" />
    <path
       fill="#555555"
       d="m 29.957,29.957 q 0.253,-0.254 0.518,-0.494 0.265,-0.24 0.542,-0.467 0.277,-0.227 0.564,-0.44 0.288,-0.214 0.586,-0.413 0.297,-0.199 0.604,-0.383 0.307,-0.184 0.623,-0.353 0.316,-0.169 0.64,-0.322 0.323,-0.153 0.654,-0.29 0.33,-0.137 0.668,-0.257 0.337,-0.12 0.68,-0.225 0.342,-0.104 0.69,-0.19 0.346,-0.088 0.698,-0.158 0.35,-0.07 0.705,-0.122 0.354,-0.052 0.71,-0.088 0.357,-0.035 0.714,-0.052 0.358,-0.018 0.716,-0.018 0.358,0 0.715,0.018 0.357,0.018 0.714,0.052 0.357,0.034 0.71,0.088 0.353,0.054 0.706,0.122 0.353,0.068 0.698,0.157 0.345,0.089 0.69,0.191 0.345,0.102 0.68,0.225 0.335,0.123 0.667,0.257 0.332,0.134 0.655,0.29 0.323,0.154 0.64,0.322 0.315,0.169 0.622,0.353 0.307,0.184 0.605,0.383 0.298,0.199 0.585,0.412 0.287,0.213 0.564,0.44 0.277,0.228 0.542,0.468 0.265,0.24 0.519,0.494 0.253,0.253 0.493,0.518 0.24,0.265 0.468,0.542 0.228,0.277 0.44,0.564 0.212,0.287 0.412,0.586 0.2,0.297 0.383,0.604 0.184,0.307 0.353,0.623 0.169,0.316 0.322,0.64 0.153,0.324 0.29,0.654 0.137,0.33 0.257,0.668 0.12,0.338 0.225,0.68 0.105,0.342 0.19,0.69 0.088,0.346 0.158,0.698 0.07,0.35 0.122,0.705 0.053,0.354 0.088,0.71 0.035,0.357 0.052,0.714 0.018,0.358 0.018,0.716 0,0.358 -0.018,0.715 -0.018,0.357 -0.052,0.714 -0.034,0.357 -0.088,0.71 -0.054,0.353 -0.122,0.706 -0.068,0.353 -0.157,0.698 -0.089,0.345 -0.191,0.69 -0.102,0.345 -0.225,0.68 -0.123,0.335 -0.257,0.667 -0.134,0.332 -0.29,0.655 -0.156,0.323 -0.322,0.64 -0.166,0.317 -0.353,0.622 -0.187,0.305 -0.383,0.605 -0.196,0.3 -0.412,0.585 -0.216,0.285 -0.44,0.564 -0.224,0.279 -0.468,0.542 -0.244,0.263 -0.493,0.519 -0.249,0.256 -0.519,0.493 -0.27,0.237 -0.542,0.468 -0.272,0.231 -0.564,0.44 -0.292,0.209 -0.585,0.412 -0.298,0.2 -0.605,0.383 -0.307,0.184 -0.623,0.353 -0.316,0.169 -0.64,0.322 -0.324,0.153 -0.654,0.29 -0.33,0.137 -0.667,0.257 -0.337,0.12 -0.68,0.225 -0.343,0.105 -0.69,0.19 -0.347,0.088 -0.698,0.158 -0.351,0.07 -0.706,0.122 -0.355,0.052 -0.71,0.088 -0.355,0.036 -0.714,0.052 -0.359,0.016 -0.715,0.018 -0.356,0.002 -0.716,-0.018 -0.36,-0.02 -0.714,-0.052 -0.354,-0.032 -0.71,-0.088 -0.356,-0.056 -0.705,-0.122 -0.349,-0.066 -0.699,-0.157 -0.35,-0.091 -0.69,-0.191 -0.34,-0.1 -0.68,-0.225 -0.34,-0.125 -0.667,-0.257 -0.327,-0.132 -0.655,-0.29 -0.328,-0.158 -0.639,-0.322 -0.311,-0.164 -0.623,-0.353 -0.312,-0.189 -0.604,-0.383 -0.292,-0.194 -0.586,-0.412 -0.294,-0.218 -0.564,-0.44 -0.27,-0.222 -0.542,-0.468 -0.272,-0.246 -0.518,-0.493 -0.246,-0.247 -0.494,-0.519 -0.248,-0.272 -0.467,-0.542 -0.219,-0.27 -0.44,-0.564 -0.214,-0.288 -0.413,-0.585 -0.199,-0.298 -0.383,-0.605 -0.184,-0.307 -0.353,-0.623 -0.169,-0.316 -0.322,-0.64 -0.153,-0.324 -0.29,-0.654 -0.137,-0.33 -0.257,-0.667 -0.12,-0.338 -0.225,-0.68 -0.104,-0.343 -0.19,-0.69 -0.088,-0.347 -0.158,-0.698 -0.07,-0.351 -0.122,-0.706 -0.052,-0.354 -0.088,-0.71 -0.036,-0.356 -0.052,-0.714 -0.018,-0.357 -0.018,-0.715 0,-0.358 0.018,-0.716 0.018,-0.358 0.052,-0.714 0.034,-0.356 0.088,-0.71 0.054,-0.354 0.122,-0.705 0.068,-0.351 0.157,-0.699 0.089,-0.348 0.191,-0.69 0.104,-0.342 0.225,-0.68 0.12,-0.336 0.257,-0.667 0.137,-0.331 0.29,-0.655 0.154,-0.323 0.322,-0.639 0.169,-0.316 0.353,-0.623 0.184,-0.307 0.383,-0.604 0.199,-0.297 0.412,-0.586 0.213,-0.289 0.44,-0.564 0.227,-0.275 0.468,-0.542 0.241,-0.267 0.494,-0.518"
       id="path10" />
  </g>
</svg>
