<?xml version="1.0" encoding="UTF-8" standalone="no"?>
<svg
   version="1.1"
   width="200"
   height="200"
   viewBox="0 0 199.99999 200"
   id="svg4"
   sodipodi:docname="rock.svg"
   inkscape:version="1.3.2 (091e20e, 2023-11-25, custom)"
   xmlns:inkscape="http://www.inkscape.org/namespaces/inkscape"
   xmlns:sodipodi="http://sodipodi.sourceforge.net/DTD/sodipodi-0.dtd"
   xmlns="http://www.w3.org/2000/svg"
   xmlns:svg="http://www.w3.org/2000/svg">
  <defs
     id="defs4" />
  <sodipodi:namedview
     id="namedview4"
     pagecolor="#ffffff"
     bordercolor="#000000"
     borderopacity="0.25"
     inkscape:showpageshadow="2"
     inkscape:pageopacity="0.0"
     inkscape:pagecheckerboard="0"
     inkscape:deskcolor="#d1d1d1"
     inkscape:zoom="0.84411765"
     inkscape:cx="91.219512"
     inkscape:cy="296.75958"
     inkscape:window-width="1397"
     inkscape:window-height="1041"
     inkscape:window-x="179"
     inkscape:window-y="182"
     inkscape:window-maximized="0"
     inkscape:current-layer="svg4" />
  <g
     transform="matrix(1.0981166,0,0,1.0929152,-251.63516,-98.122245)"
     id="g4">
    <g
       data-paper-data="{&quot;isPaintingLayer&quot;:true}"
       fill-rule="nonzero"
       stroke-linecap="butt"
       stroke-linejoin="miter"
       stroke-miterlimit="10"
       stroke-dasharray="none"
       stroke-dashoffset="0"
       style="mix-blend-mode:normal"
       id="g3">
      <path
         d="m 240.23681,178.01957 25.29542,-43.58561 c 0,0 4.83951,-9.64989 5.27601,-9.9501 0.4365,-0.30021 12.21845,-5.48066 12.21845,-5.48066 l 45.28155,-17.9122 c 0,0 3.51861,-1.65924 5.39775,-1.51753 1.47994,0.1116 5.25394,2.87068 5.25394,2.87068 l 50.0626,28.82543 c 0,0 3.36356,1.54958 4.1138,2.40217 0.85415,0.97068 0.73993,3.11372 0.73993,3.11372 l 8.97591,63.16549 c 0,0 0.65181,4.60589 0.245,5.801 -0.45466,1.33565 -1.87526,2.90753 -2.82787,4.18041 -9.13182,12.20192 -39.52554,43.33181 -44.88367,48.76713 -0.56223,0.57033 -1.09715,1.35463 -2.09855,1.57639 -1.77009,0.39199 -4.08716,-0.0632 -4.08716,-0.0632 0,0 -61.8473,-11.3865 -68.14164,-12.76171 -0.51861,-0.11331 -1.72842,-0.23697 -3.10591,-0.84326 -1.14001,-0.50177 -2.5299,-2.51414 -2.5299,-2.51414 l -34.6049,-51.65376 c 0,0 -3.22805,-4.20408 -3.93946,-6.16511 -0.83024,-2.28858 3.3587,-8.25516 3.3587,-8.25516 z"
         fill="#777777"
         stroke="#606060"
         stroke-width="16"
         id="path1" />
      <path
         d="m 194.62938,180.42588 c 0,-70.41631 57.08369,-127.5 127.5,-127.5 70.41631,0 127.5,57.08369 127.5,127.5 0,70.41631 -57.08369,127.5 -127.5,127.5 -70.41631,0 -127.5,-57.08369 -127.5,-127.5 z"
         fill-opacity="0.00784003"
         fill="#efff00"
         stroke="none"
         stroke-width="0"
         id="path2" />
      <path
         d="M 472.33335,180.08334 Z"
         fill-opacity="0.00784003"
         fill="#efff00"
         stroke="none"
         stroke-width="0"
         id="path3" />
    </g>
  </g>
</svg>
