<?xml version="1.0" encoding="UTF-8" standalone="no"?>
<svg
   version="1.1"
   width="189.93179"
   height="117.71647"
   viewBox="0 0 189.93179 117.71647"
   id="svg7"
   sodipodi:docname="兵蚁.svg"
   inkscape:version="1.3.2 (091e20e, 2023-11-25, custom)"
   xmlns:inkscape="http://www.inkscape.org/namespaces/inkscape"
   xmlns:sodipodi="http://sodipodi.sourceforge.net/DTD/sodipodi-0.dtd"
   xmlns="http://www.w3.org/2000/svg"
   xmlns:svg="http://www.w3.org/2000/svg">
  <defs
     id="defs7" />
  <sodipodi:namedview
     id="namedview7"
     pagecolor="#ffffff"
     bordercolor="#000000"
     borderopacity="0.25"
     inkscape:showpageshadow="2"
     inkscape:pageopacity="0.0"
     inkscape:pagecheckerboard="0"
     inkscape:deskcolor="#d1d1d1"
     inkscape:zoom="1.7639819"
     inkscape:cx="-25.793916"
     inkscape:cy="63.209266"
     inkscape:window-width="1920"
     inkscape:window-height="1057"
     inkscape:window-x="-8"
     inkscape:window-y="-8"
     inkscape:window-maximized="1"
     inkscape:current-layer="svg7" />
  <g
     transform="matrix(-1.0809729,1.0058754,-1.0058754,-1.0809729,600.64367,-69.258334)"
     id="g7">
    <g
       data-paper-data="{&quot;isPaintingLayer&quot;:true}"
       fill-rule="nonzero"
       stroke-linejoin="miter"
       stroke-miterlimit="10"
       stroke-dasharray="none"
       stroke-dashoffset="0"
       style="mix-blend-mode:normal"
       id="g6">
      <path
         d="m 309.22181,192.88418 c 0,-12.93944 10.48949,-23.42893 23.42893,-23.42893 12.93944,0 23.42893,10.48949 23.42893,23.42893 0,12.93944 -10.48949,23.42893 -23.42893,23.42893 -12.93944,0 -23.42893,-10.48949 -23.42893,-23.42893 z"
         fill="#555555"
         stroke="#454545"
         stroke-width="16"
         stroke-linecap="butt"
         id="path1" />
      <path
         d="m 273.46229,158.55768 c 0,0 -4.12213,-5.35479 -5.93722,-8.60378 -1.94383,-3.47944 -5.36604,-11.6289 -5.36604,-11.6289"
         fill="none"
         stroke="#292929"
         stroke-width="16"
         stroke-linecap="round"
         id="path2" />
      <path
         d="m 278.36962,122.22111 c 0,0 6.54848,1.66829 9.98204,3.10396 3.6771,1.5375 11.40003,5.83651 11.40003,5.83651"
         data-paper-data="{&quot;index&quot;:null}"
         fill="none"
         stroke="#292929"
         stroke-width="16"
         stroke-linecap="round"
         id="path3" />
      <path
         d="m 332.71007,198.45469 c 0,0 6.2096,11.13891 7.20745,21.29168 0.73384,7.4666 -2.85974,14.39985 -6.13839,15.97692 -4.39916,2.11605 -13.54177,-2.38251 -20.47436,-10.02532 -5.25979,-5.79863 -8.76243,-14.19529 -10.75509,-18.33792 -0.0827,-0.17198 7.17363,-7.59826 15.45189,-9.9846 6.67192,-1.92329 14.7085,1.07924 14.7085,1.07924 z"
         fill-opacity="0.41176"
         fill="#ffffff"
         stroke="none"
         stroke-width="0"
         stroke-linecap="butt"
         id="path4" />
      <path
         d="m 336.63745,178.45946 c 2.20125,-8.32939 9.46395,-15.74945 9.63774,-15.67058 4.18601,1.89983 12.65866,5.21447 18.57307,10.34372 7.79541,6.76054 12.49663,15.8006 10.47915,20.24583 -1.50361,3.31299 -8.35504,7.0602 -15.83615,6.49295 -10.17248,-0.77132 -21.44703,-6.73113 -21.44703,-6.73113 0,0 -3.18089,-7.96767 -1.40678,-14.68079 z"
         data-paper-data="{&quot;index&quot;:null}"
         fill-opacity="0.41176"
         fill="#ffffff"
         stroke="none"
         stroke-width="0"
         stroke-linecap="butt"
         id="path5" />
      <path
         d="m 274.4361,166.54489 c 0,-17.624 14.28708,-31.91107 31.91107,-31.91107 17.62399,0 31.91107,14.28708 31.91107,31.91107 0,17.624 -14.28708,31.91107 -31.91107,31.91107 -17.62399,0 -31.91107,-14.28707 -31.91107,-31.91107 z"
         fill="#555555"
         stroke="#454545"
         stroke-width="16"
         stroke-linecap="butt"
         id="path6" />
    </g>
  </g>
</svg>
