<?xml version="1.0" encoding="UTF-8" standalone="no"?>
<svg
   width="200.5824"
   height="149.37183"
   version="1.1"
   id="svg8"
   sodipodi:docname="soldier_ant.svg"
   inkscape:version="1.3.2 (091e20e, 2023-11-25, custom)"
   xmlns:inkscape="http://www.inkscape.org/namespaces/inkscape"
   xmlns:sodipodi="http://sodipodi.sourceforge.net/DTD/sodipodi-0.dtd"
   xmlns="http://www.w3.org/2000/svg"
   xmlns:svg="http://www.w3.org/2000/svg">
  <defs
     id="defs8" />
  <sodipodi:namedview
     id="namedview8"
     pagecolor="#ffffff"
     bordercolor="#000000"
     borderopacity="0.25"
     inkscape:showpageshadow="2"
     inkscape:pageopacity="0.0"
     inkscape:pagecheckerboard="0"
     inkscape:deskcolor="#d1d1d1"
     showgrid="false"
     inkscape:zoom="1.9568182"
     inkscape:cx="107.57259"
     inkscape:cy="95.307782"
     inkscape:window-width="1920"
     inkscape:window-height="1057"
     inkscape:window-x="-8"
     inkscape:window-y="-8"
     inkscape:window-maximized="1"
     inkscape:current-layer="svg8" />
  <clipPath
     id="a">
    <path
       d="m 13.333,9.167 h 83.334 q 4.166,0 4.166,4.166 v 83.334 q 0,4.166 -4.166,4.166 H 13.333 q -4.166,0 -4.166,-4.166 V 13.333 q 0,-4.166 4.166,-4.166"
       id="path1" />
  </clipPath>
  <g
     clip-path="url(#a)"
     id="g8"
     transform="matrix(-3.6379173,3.6045538,-3.6045538,-3.6379173,490.09139,76.363628)">
    <path
       fill="#454545"
       d="m 51.76,51.76 q 0.194,-0.196 0.399,-0.382 0.205,-0.185 0.418,-0.36 0.214,-0.176 0.435,-0.34 0.222,-0.165 0.452,-0.318 0.23,-0.153 0.466,-0.295 0.236,-0.142 0.48,-0.273 0.244,-0.131 0.494,-0.248 0.25,-0.117 0.505,-0.224 0.255,-0.107 0.515,-0.198 0.26,-0.091 0.524,-0.174 0.264,-0.083 0.533,-0.147 0.267,-0.067 0.538,-0.12 0.271,-0.055 0.544,-0.095 0.274,-0.04 0.548,-0.068 0.275,-0.027 0.551,-0.04 0.276,-0.013 0.552,-0.014 0.276,-10e-4 0.552,0.014 0.276,0.015 0.55,0.04 0.274,0.025 0.549,0.068 0.275,0.043 0.544,0.094 0.27,0.054 0.539,0.121 0.267,0.067 0.532,0.147 0.264,0.08 0.524,0.174 0.26,0.094 0.515,0.198 0.255,0.104 0.505,0.224 0.25,0.12 0.493,0.248 0.243,0.128 0.48,0.273 0.237,0.145 0.467,0.295 0.23,0.15 0.452,0.318 0.221,0.164 0.435,0.34 0.213,0.175 0.418,0.36 0.205,0.186 0.4,0.381 0.195,0.195 0.38,0.4 0.185,0.205 0.361,0.418 0.176,0.213 0.34,0.435 0.165,0.222 0.318,0.452 0.154,0.23 0.295,0.466 0.142,0.237 0.273,0.48 0.13,0.244 0.248,0.494 0.118,0.25 0.224,0.505 0.106,0.255 0.198,0.515 0.092,0.26 0.174,0.524 0.082,0.264 0.147,0.533 0.065,0.269 0.12,0.538 0.055,0.271 0.095,0.544 0.04,0.273 0.068,0.548 0.027,0.275 0.04,0.551 0.013,0.276 0.014,0.552 0.001,0.276 -0.014,0.552 -0.015,0.276 -0.04,0.55 -0.027,0.276 -0.068,0.549 -0.04,0.273 -0.094,0.544 -0.054,0.27 -0.121,0.539 -0.067,0.267 -0.147,0.532 -0.08,0.264 -0.174,0.524 -0.094,0.26 -0.198,0.515 -0.104,0.255 -0.224,0.505 -0.12,0.25 -0.248,0.493 -0.128,0.243 -0.273,0.48 -0.145,0.237 -0.295,0.467 -0.15,0.23 -0.318,0.452 -0.164,0.221 -0.34,0.435 -0.175,0.213 -0.36,0.418 -0.186,0.205 -0.381,0.4 -0.195,0.195 -0.4,0.38 -0.205,0.185 -0.418,0.361 -0.214,0.176 -0.435,0.34 -0.222,0.165 -0.452,0.318 -0.23,0.153 -0.466,0.295 -0.236,0.142 -0.48,0.273 -0.244,0.131 -0.494,0.248 -0.25,0.117 -0.505,0.224 -0.255,0.107 -0.515,0.198 -0.26,0.091 -0.524,0.174 -0.264,0.083 -0.532,0.147 -0.268,0.064 -0.54,0.12 -0.27,0.055 -0.543,0.095 -0.273,0.04 -0.548,0.068 -0.275,0.027 -0.551,0.04 -0.276,0.013 -0.552,0.014 -0.276,0.001 -0.552,-0.014 -0.276,-0.015 -0.55,-0.04 -0.274,-0.025 -0.549,-0.068 -0.275,-0.043 -0.544,-0.094 -0.269,-0.051 -0.538,-0.121 -0.269,-0.07 -0.533,-0.147 -0.264,-0.077 -0.524,-0.174 -0.26,-0.097 -0.515,-0.198 -0.255,-0.101 -0.505,-0.224 -0.25,-0.123 -0.493,-0.248 -0.243,-0.125 -0.48,-0.273 -0.237,-0.148 -0.467,-0.295 -0.23,-0.147 -0.452,-0.318 -0.222,-0.171 -0.435,-0.34 -0.213,-0.169 -0.418,-0.36 -0.205,-0.191 -0.4,-0.381 -0.195,-0.19 -0.38,-0.4 -0.185,-0.21 -0.361,-0.418 -0.176,-0.208 -0.34,-0.435 -0.164,-0.227 -0.318,-0.452 -0.154,-0.225 -0.295,-0.466 -0.141,-0.241 -0.273,-0.48 -0.132,-0.239 -0.248,-0.494 -0.116,-0.255 -0.224,-0.505 -0.108,-0.25 -0.198,-0.515 -0.09,-0.265 -0.174,-0.524 -0.084,-0.259 -0.147,-0.532 -0.063,-0.273 -0.12,-0.54 -0.057,-0.267 -0.095,-0.543 -0.038,-0.276 -0.068,-0.548 -0.03,-0.272 -0.04,-0.551 -0.01,-0.279 -0.014,-0.552 -0.004,-0.273 0.014,-0.552 0.018,-0.279 0.04,-0.55 0.022,-0.271 0.068,-0.549 0.046,-0.278 0.094,-0.544 0.048,-0.266 0.121,-0.538 0.073,-0.272 0.147,-0.533 0.074,-0.261 0.174,-0.524 0.1,-0.263 0.198,-0.515 0.098,-0.252 0.224,-0.505 0.126,-0.253 0.248,-0.493 0.122,-0.24 0.273,-0.48 0.151,-0.24 0.295,-0.467 0.144,-0.227 0.318,-0.452 0.174,-0.225 0.34,-0.435 0.166,-0.21 0.36,-0.418 0.194,-0.208 0.381,-0.4"
       id="path2" />
    <path
       fill="#555555"
       d="m 55.884,55.884 q 0.094,-0.094 0.192,-0.183 0.099,-0.09 0.202,-0.174 0.103,-0.084 0.21,-0.164 0.106,-0.079 0.217,-0.153 0.11,-0.074 0.224,-0.142 0.114,-0.068 0.232,-0.131 0.118,-0.063 0.237,-0.12 0.119,-0.057 0.243,-0.107 0.124,-0.05 0.248,-0.096 0.124,-0.046 0.253,-0.083 0.129,-0.037 0.256,-0.071 0.127,-0.034 0.26,-0.059 0.13,-0.025 0.261,-0.045 0.132,-0.02 0.264,-0.033 0.132,-0.013 0.265,-0.02 0.133,-0.006 0.266,-0.006 0.133,0 0.266,0.007 0.133,0.007 0.265,0.02 0.132,0.012 0.264,0.032 0.131,0.02 0.262,0.045 0.13,0.026 0.26,0.059 0.128,0.032 0.255,0.07 0.128,0.04 0.253,0.084 0.125,0.044 0.248,0.096 0.123,0.05 0.243,0.107 0.12,0.057 0.237,0.12 0.118,0.063 0.232,0.131 0.114,0.068 0.224,0.142 0.11,0.074 0.218,0.153 0.107,0.08 0.21,0.164 0.102,0.084 0.2,0.174 0.1,0.089 0.193,0.183 0.094,0.094 0.184,0.192 0.089,0.099 0.173,0.202 0.085,0.103 0.164,0.21 0.079,0.106 0.153,0.217 0.074,0.11 0.142,0.224 0.068,0.114 0.131,0.232 0.063,0.118 0.12,0.237 0.057,0.119 0.107,0.243 0.05,0.124 0.096,0.248 0.046,0.124 0.083,0.253 0.04,0.127 0.071,0.256 0.033,0.129 0.059,0.26 0.026,0.13 0.045,0.261 0.02,0.132 0.033,0.264 0.013,0.132 0.02,0.265 0.007,0.133 0.006,0.266 -0.001,0.133 -0.007,0.266 -0.006,0.133 -0.02,0.265 -0.012,0.132 -0.032,0.264 -0.02,0.131 -0.045,0.262 -0.026,0.13 -0.059,0.26 -0.032,0.128 -0.07,0.255 -0.04,0.128 -0.084,0.253 -0.044,0.125 -0.096,0.248 -0.05,0.123 -0.107,0.243 -0.057,0.12 -0.12,0.237 -0.063,0.118 -0.13,0.232 -0.07,0.114 -0.143,0.224 -0.074,0.11 -0.153,0.218 -0.08,0.107 -0.164,0.21 -0.084,0.102 -0.173,0.2 -0.09,0.1 -0.184,0.193 -0.094,0.094 -0.192,0.184 -0.099,0.089 -0.202,0.173 -0.102,0.085 -0.21,0.164 -0.106,0.079 -0.217,0.153 -0.11,0.074 -0.224,0.142 -0.114,0.068 -0.232,0.131 -0.118,0.063 -0.237,0.12 -0.119,0.057 -0.243,0.107 -0.124,0.05 -0.248,0.096 -0.124,0.046 -0.253,0.083 -0.127,0.04 -0.256,0.071 -0.129,0.033 -0.26,0.059 -0.13,0.026 -0.261,0.045 -0.132,0.02 -0.264,0.033 -0.132,0.013 -0.265,0.02 -0.133,0.007 -0.266,0.006 -0.133,-0.001 -0.266,-0.007 -0.133,-0.006 -0.265,-0.02 -0.132,-0.012 -0.264,-0.032 -0.131,-0.02 -0.262,-0.045 -0.13,-0.026 -0.26,-0.059 -0.128,-0.032 -0.255,-0.07 -0.128,-0.04 -0.253,-0.084 -0.125,-0.044 -0.248,-0.096 -0.123,-0.05 -0.243,-0.107 -0.12,-0.057 -0.237,-0.12 -0.118,-0.063 -0.232,-0.13 -0.114,-0.07 -0.224,-0.143 -0.11,-0.074 -0.218,-0.153 -0.106,-0.08 -0.21,-0.164 -0.102,-0.084 -0.2,-0.173 -0.1,-0.09 -0.193,-0.184 Q 55.79,63.45 55.701,63.352 55.611,63.253 55.527,63.15 55.443,63.048 55.363,62.94 55.284,62.834 55.21,62.723 55.136,62.613 55.068,62.499 55,62.385 54.937,62.267 54.874,62.149 54.817,62.03 54.76,61.911 54.71,61.787 54.66,61.663 54.614,61.539 54.568,61.415 54.531,61.286 54.494,61.157 54.46,61.03 q -0.034,-0.127 -0.059,-0.26 -0.025,-0.13 -0.045,-0.261 -0.02,-0.132 -0.033,-0.264 -0.013,-0.132 -0.02,-0.265 -0.006,-0.133 -0.006,-0.266 0,-0.133 0.007,-0.266 0.007,-0.133 0.02,-0.265 0.012,-0.132 0.032,-0.264 0.02,-0.131 0.045,-0.262 0.026,-0.13 0.059,-0.26 0.032,-0.128 0.07,-0.255 0.04,-0.128 0.084,-0.253 0.044,-0.125 0.096,-0.248 0.05,-0.123 0.107,-0.243 0.057,-0.12 0.12,-0.237 0.063,-0.118 0.131,-0.232 0.068,-0.114 0.142,-0.224 0.074,-0.11 0.153,-0.218 0.08,-0.106 0.164,-0.21 0.084,-0.102 0.174,-0.2 0.089,-0.1 0.183,-0.193"
       id="path3" />
    <path
       fill="#eeeeee"
       fill-opacity="0.498"
       d="m 48.736,52.701 q 0.127,-0.065 0.262,-0.116 0.134,-0.052 0.275,-0.09 0.14,-0.038 0.287,-0.062 0.147,-0.024 0.299,-0.034 0.152,-0.01 0.31,-0.007 0.157,0.003 0.32,0.02 0.163,0.017 0.33,0.048 0.167,0.031 0.338,0.076 0.171,0.045 0.346,0.102 0.175,0.057 0.353,0.13 0.178,0.073 0.36,0.156 0.182,0.083 0.364,0.183 0.183,0.098 0.369,0.208 0.185,0.111 0.372,0.234 0.187,0.123 0.375,0.259 0.188,0.136 0.377,0.283 0.189,0.147 0.378,0.306 0.189,0.159 0.377,0.33 0.188,0.171 0.377,0.35 0.188,0.18 0.375,0.372 0.186,0.191 0.371,0.392 0.185,0.202 0.368,0.412 0.183,0.21 0.364,0.43 0.181,0.22 0.358,0.447 0.177,0.227 0.352,0.463 0.175,0.236 0.344,0.479 0.17,0.242 0.337,0.492 0.166,0.25 0.327,0.505 0.162,0.255 0.318,0.516 0.157,0.26 0.308,0.527 0.151,0.265 0.297,0.535 0.145,0.27 0.284,0.544 0.14,0.273 0.272,0.55 0.133,0.276 0.26,0.554 0.126,0.278 0.245,0.558 0.119,0.28 0.23,0.561 0.111,0.281 0.216,0.562 0.105,0.281 0.2,0.562 0.095,0.281 0.185,0.56 0.09,0.279 0.168,0.556 0.078,0.277 0.152,0.553 0.074,0.276 0.134,0.547 0.06,0.271 0.116,0.54 0.054,0.267 0.1,0.53 0.044,0.264 0.08,0.522 0.036,0.259 0.063,0.511 0.026,0.253 0.044,0.5 0.017,0.245 0.026,0.485 0.008,0.239 0.007,0.47 -0.001,0.233 -0.011,0.456 -0.01,0.224 -0.03,0.44 -0.02,0.214 -0.048,0.42 -0.029,0.206 -0.067,0.402 -0.037,0.197 -0.084,0.383 -0.047,0.186 -0.103,0.362 -0.056,0.176 -0.12,0.34 -0.065,0.165 -0.138,0.318 -0.073,0.153 -0.155,0.295 -0.082,0.142 -0.172,0.271 -0.09,0.129 -0.187,0.247 -0.097,0.118 -0.204,0.221 -0.107,0.103 -0.22,0.196 -0.113,0.093 -0.233,0.17 -0.12,0.077 -0.248,0.143 -0.128,0.066 -0.262,0.117 -0.134,0.051 -0.275,0.09 -0.14,0.037 -0.287,0.061 -0.147,0.025 -0.3,0.035 -0.152,0.01 -0.31,0.007 -0.157,-0.003 -0.32,-0.02 -0.162,-0.018 -0.33,-0.048 -0.166,-0.031 -0.337,-0.076 -0.172,-0.044 -0.346,-0.103 -0.175,-0.058 -0.354,-0.13 -0.178,-0.07 -0.359,-0.156 -0.18,-0.084 -0.364,-0.182 -0.184,-0.098 -0.37,-0.209 -0.186,-0.111 -0.372,-0.234 -0.186,-0.123 -0.375,-0.258 -0.189,-0.135 -0.377,-0.283 -0.188,-0.148 -0.377,-0.306 -0.19,-0.16 -0.378,-0.33 -0.189,-0.17 -0.376,-0.35 -0.188,-0.181 -0.375,-0.373 -0.187,-0.19 -0.372,-0.392 -0.185,-0.2 -0.368,-0.411 -0.183,-0.211 -0.363,-0.43 -0.18,-0.219 -0.359,-0.447 -0.177,-0.228 -0.351,-0.464 -0.174,-0.235 -0.345,-0.478 -0.171,-0.243 -0.336,-0.492 -0.165,-0.249 -0.328,-0.505 -0.161,-0.255 -0.318,-0.516 -0.156,-0.261 -0.308,-0.527 -0.15,-0.266 -0.296,-0.536 -0.145,-0.27 -0.285,-0.543 -0.14,-0.273 -0.272,-0.55 -0.132,-0.277 -0.259,-0.554 -0.127,-0.277 -0.245,-0.559 -0.12,-0.28 -0.231,-0.56 -0.112,-0.281 -0.216,-0.562 -0.104,-0.281 -0.2,-0.562 -0.096,-0.281 -0.185,-0.56 -0.089,-0.279 -0.168,-0.557 -0.079,-0.278 -0.151,-0.552 -0.072,-0.274 -0.134,-0.547 -0.062,-0.273 -0.117,-0.54 -0.055,-0.267 -0.099,-0.53 -0.044,-0.263 -0.08,-0.523 -0.036,-0.26 -0.063,-0.51 -0.027,-0.25 -0.044,-0.5 -0.017,-0.25 -0.026,-0.485 -0.009,-0.235 -0.008,-0.471 10e-4,-0.236 0.012,-0.456 0.011,-0.22 0.03,-0.438 0.019,-0.218 0.048,-0.421 0.029,-0.203 0.066,-0.403 0.037,-0.2 0.085,-0.382 0.048,-0.182 0.102,-0.362 0.054,-0.18 0.12,-0.34 0.066,-0.16 0.139,-0.319 0.073,-0.159 0.154,-0.294 0.081,-0.135 0.172,-0.271 0.091,-0.136 0.188,-0.247 0.097,-0.111 0.204,-0.222 0.105,-0.104 0.219,-0.196 0.113,-0.091 0.234,-0.17 0.12,-0.078 0.248,-0.143"
       id="path4" />
    <path
       fill="#eeeeee"
       fill-opacity="0.498"
       d="m 52.701,48.736 q 0.065,-0.128 0.144,-0.248 0.079,-0.12 0.17,-0.234 0.091,-0.114 0.195,-0.22 0.104,-0.106 0.222,-0.203 0.118,-0.097 0.247,-0.188 0.129,-0.091 0.27,-0.172 0.141,-0.081 0.295,-0.154 0.154,-0.073 0.319,-0.138 0.164,-0.065 0.34,-0.12 0.176,-0.056 0.362,-0.103 0.186,-0.047 0.382,-0.085 0.196,-0.038 0.403,-0.066 0.207,-0.028 0.42,-0.049 0.213,-0.021 0.44,-0.03 0.227,-0.009 0.455,-0.01 0.228,-10e-4 0.471,0.007 0.24,0.008 0.486,0.026 0.246,0.018 0.498,0.044 0.252,0.026 0.511,0.062 0.259,0.036 0.522,0.081 0.264,0.045 0.531,0.1 0.268,0.053 0.54,0.116 0.272,0.063 0.547,0.134 0.275,0.071 0.552,0.151 0.277,0.08 0.557,0.168 0.28,0.088 0.56,0.185 0.28,0.096 0.562,0.2 0.28,0.104 0.561,0.216 0.281,0.112 0.561,0.23 0.28,0.12 0.559,0.246 0.278,0.126 0.554,0.259 0.277,0.133 0.55,0.272 0.274,0.14 0.543,0.285 0.27,0.145 0.536,0.296 0.266,0.152 0.527,0.308 0.26,0.157 0.516,0.318 0.256,0.162 0.505,0.328 0.25,0.166 0.492,0.336 0.243,0.17 0.478,0.345 0.236,0.174 0.464,0.351 0.227,0.178 0.447,0.359 0.22,0.18 0.43,0.363 0.21,0.183 0.411,0.368 0.201,0.185 0.392,0.372 0.191,0.187 0.373,0.375 0.18,0.187 0.35,0.376 0.17,0.189 0.33,0.378 0.16,0.189 0.306,0.377 0.147,0.189 0.283,0.377 0.136,0.188 0.258,0.375 0.124,0.187 0.234,0.373 0.11,0.185 0.209,0.369 0.098,0.183 0.182,0.364 0.085,0.181 0.157,0.36 0.071,0.178 0.13,0.353 0.058,0.174 0.102,0.346 0.045,0.17 0.076,0.338 0.03,0.167 0.048,0.33 0.017,0.162 0.02,0.32 0.003,0.157 -0.007,0.31 -0.01,0.152 -0.035,0.299 -0.024,0.146 -0.062,0.287 -0.038,0.141 -0.09,0.275 -0.05,0.134 -0.116,0.262 -0.065,0.127 -0.143,0.248 -0.078,0.12 -0.17,0.234 -0.091,0.113 -0.196,0.219 -0.104,0.106 -0.221,0.204 -0.117,0.098 -0.247,0.187 -0.13,0.089 -0.27,0.172 -0.143,0.082 -0.296,0.155 -0.153,0.073 -0.318,0.138 -0.165,0.065 -0.34,0.12 -0.175,0.055 -0.362,0.103 -0.187,0.048 -0.383,0.084 -0.196,0.036 -0.402,0.067 -0.206,0.031 -0.42,0.048 -0.214,0.017 -0.44,0.03 -0.226,0.013 -0.455,0.011 -0.229,-0.002 -0.471,-0.007 -0.24,-0.009 -0.486,-0.026 -0.246,-0.017 -0.499,-0.044 -0.253,-0.027 -0.51,-0.063 -0.259,-0.036 -0.522,-0.08 -0.264,-0.046 -0.532,-0.1 -0.268,-0.054 -0.54,-0.116 -0.271,-0.063 -0.546,-0.134 -0.275,-0.071 -0.553,-0.152 -0.278,-0.081 -0.556,-0.168 -0.278,-0.087 -0.56,-0.184 -0.282,-0.097 -0.562,-0.2 -0.28,-0.105 -0.562,-0.216 -0.28,-0.112 -0.56,-0.231 -0.28,-0.119 -0.559,-0.246 -0.279,-0.127 -0.555,-0.259 -0.276,-0.132 -0.55,-0.272 -0.274,-0.14 -0.543,-0.284 -0.27,-0.146 -0.535,-0.297 -0.266,-0.151 -0.527,-0.308 -0.26,-0.156 -0.516,-0.318 -0.256,-0.161 -0.505,-0.327 -0.25,-0.167 -0.492,-0.337 -0.243,-0.17 -0.479,-0.344 -0.235,-0.175 -0.463,-0.352 -0.228,-0.178 -0.447,-0.358 -0.22,-0.18 -0.43,-0.364 -0.21,-0.183 -0.412,-0.368 -0.2,-0.185 -0.392,-0.371 -0.191,-0.187 -0.372,-0.375 -0.18,-0.188 -0.35,-0.377 -0.171,-0.188 -0.33,-0.377 -0.159,-0.19 -0.306,-0.378 -0.148,-0.189 -0.283,-0.377 -0.135,-0.188 -0.259,-0.375 -0.124,-0.187 -0.234,-0.372 -0.11,-0.185 -0.208,-0.37 -0.098,-0.185 -0.183,-0.364 -0.085,-0.179 -0.156,-0.359 -0.071,-0.18 -0.13,-0.353 -0.059,-0.173 -0.102,-0.346 -0.043,-0.173 -0.076,-0.338 -0.033,-0.165 -0.048,-0.33 -0.015,-0.165 -0.02,-0.32 -0.004,-0.158 0.007,-0.31 0.011,-0.152 0.034,-0.3 0.024,-0.146 0.062,-0.286 0.038,-0.141 0.09,-0.275 0.051,-0.135 0.116,-0.262"
       id="path5" />
    <path
       fill="#454545"
       d="m 39.974,39.974 q 0.253,-0.253 0.518,-0.494 0.266,-0.24 0.542,-0.467 0.277,-0.227 0.565,-0.44 0.287,-0.214 0.585,-0.413 0.298,-0.199 0.605,-0.383 0.307,-0.184 0.622,-0.352 0.316,-0.17 0.64,-0.322 0.323,-0.153 0.654,-0.29 0.33,-0.137 0.668,-0.258 0.337,-0.12 0.68,-0.224 0.342,-0.104 0.69,-0.191 0.348,-0.087 0.698,-0.157 0.35,-0.07 0.705,-0.122 0.355,-0.052 0.71,-0.088 0.357,-0.035 0.714,-0.053 0.358,-0.017 0.716,-0.017 0.358,0 0.716,0.017 0.358,0.017 0.713,0.053 0.357,0.035 0.71,0.088 0.355,0.052 0.706,0.122 0.351,0.07 0.698,0.157 0.347,0.087 0.69,0.19 0.343,0.105 0.68,0.225 0.337,0.12 0.668,0.258 0.33,0.137 0.654,0.29 0.324,0.153 0.64,0.322 0.316,0.169 0.622,0.352 0.306,0.183 0.605,0.383 0.299,0.2 0.585,0.413 0.288,0.213 0.565,0.44 0.277,0.227 0.542,0.467 0.265,0.24 0.518,0.494 0.253,0.254 0.494,0.518 0.24,0.266 0.467,0.542 0.227,0.277 0.44,0.565 0.214,0.287 0.413,0.585 0.199,0.298 0.383,0.605 0.184,0.307 0.352,0.622 0.17,0.316 0.322,0.64 0.153,0.323 0.29,0.654 0.137,0.33 0.258,0.668 0.12,0.337 0.224,0.68 0.104,0.342 0.191,0.69 0.087,0.348 0.157,0.698 0.07,0.35 0.122,0.705 0.052,0.355 0.088,0.71 0.035,0.357 0.053,0.714 0.017,0.358 0.017,0.716 0,0.358 -0.017,0.716 -0.017,0.358 -0.053,0.713 -0.035,0.357 -0.088,0.71 -0.052,0.355 -0.122,0.706 -0.07,0.351 -0.157,0.698 -0.087,0.347 -0.19,0.69 -0.105,0.343 -0.225,0.68 -0.12,0.337 -0.258,0.668 -0.137,0.33 -0.29,0.654 -0.153,0.324 -0.322,0.64 -0.169,0.316 -0.352,0.622 -0.183,0.306 -0.383,0.605 -0.2,0.299 -0.413,0.585 -0.213,0.288 -0.44,0.565 -0.227,0.277 -0.467,0.542 -0.24,0.265 -0.494,0.518 -0.254,0.253 -0.518,0.494 -0.266,0.24 -0.542,0.467 -0.277,0.227 -0.565,0.44 -0.287,0.214 -0.585,0.413 -0.298,0.199 -0.605,0.383 -0.307,0.184 -0.622,0.352 -0.316,0.17 -0.64,0.322 -0.323,0.153 -0.654,0.29 -0.33,0.137 -0.668,0.258 -0.337,0.12 -0.68,0.224 -0.342,0.104 -0.69,0.191 -0.348,0.087 -0.698,0.157 -0.35,0.07 -0.705,0.122 -0.355,0.052 -0.71,0.088 -0.357,0.035 -0.714,0.053 -0.358,0.017 -0.716,0.017 -0.358,0 -0.716,-0.017 -0.358,-0.017 -0.713,-0.053 -0.357,-0.035 -0.71,-0.088 -0.355,-0.052 -0.706,-0.122 -0.351,-0.07 -0.698,-0.157 -0.347,-0.087 -0.69,-0.19 -0.343,-0.105 -0.68,-0.225 -0.337,-0.12 -0.668,-0.258 -0.33,-0.137 -0.654,-0.29 -0.324,-0.153 -0.64,-0.322 -0.316,-0.169 -0.622,-0.352 -0.306,-0.183 -0.605,-0.383 -0.299,-0.2 -0.585,-0.413 -0.288,-0.213 -0.565,-0.44 -0.277,-0.227 -0.542,-0.467 -0.265,-0.24 -0.518,-0.494 -0.253,-0.254 -0.494,-0.518 -0.24,-0.266 -0.467,-0.542 -0.227,-0.277 -0.44,-0.565 -0.214,-0.287 -0.413,-0.585 -0.199,-0.298 -0.383,-0.605 -0.184,-0.307 -0.352,-0.622 -0.17,-0.316 -0.322,-0.64 -0.153,-0.323 -0.29,-0.654 -0.137,-0.33 -0.258,-0.668 -0.12,-0.337 -0.224,-0.68 -0.104,-0.342 -0.191,-0.69 -0.087,-0.348 -0.157,-0.698 -0.07,-0.35 -0.122,-0.705 -0.052,-0.355 -0.088,-0.71 -0.035,-0.357 -0.053,-0.714 -0.017,-0.358 -0.017,-0.716 0,-0.358 0.017,-0.716 0.017,-0.358 0.053,-0.713 0.035,-0.357 0.088,-0.71 0.052,-0.355 0.122,-0.706 0.07,-0.351 0.157,-0.698 0.087,-0.347 0.19,-0.69 0.105,-0.343 0.225,-0.68 0.12,-0.337 0.258,-0.668 0.137,-0.33 0.29,-0.654 0.153,-0.324 0.322,-0.64 0.169,-0.316 0.352,-0.622 0.183,-0.306 0.383,-0.605 0.2,-0.299 0.413,-0.585 0.213,-0.288 0.44,-0.565 0.227,-0.277 0.467,-0.542 0.24,-0.265 0.494,-0.518"
       id="path7" />
    <path
       fill="#555555"
       d="m 44.099,44.099 q 0.152,-0.152 0.31,-0.296 0.16,-0.145 0.326,-0.28 0.166,-0.137 0.339,-0.265 0.172,-0.128 0.35,-0.247 0.18,-0.12 0.364,-0.23 0.184,-0.11 0.373,-0.212 0.189,-0.102 0.384,-0.193 0.194,-0.092 0.393,-0.174 0.198,-0.082 0.4,-0.155 0.202,-0.072 0.408,-0.134 0.206,-0.062 0.414,-0.115 0.208,-0.053 0.419,-0.094 0.211,-0.041 0.423,-0.073 0.212,-0.032 0.426,-0.053 0.214,-0.021 0.429,-0.031 0.214,-0.011 0.429,-0.011 0.215,0 0.43,0.01 0.215,0.01 0.428,0.032 0.213,0.022 0.426,0.053 0.213,0.031 0.423,0.073 0.21,0.042 0.42,0.094 0.207,0.052 0.413,0.115 0.206,0.062 0.408,0.134 0.202,0.072 0.4,0.155 0.198,0.083 0.393,0.174 0.195,0.091 0.384,0.193 0.189,0.102 0.373,0.212 0.185,0.11 0.363,0.23 0.179,0.119 0.351,0.247 0.173,0.128 0.339,0.264 0.166,0.136 0.325,0.28 0.159,0.144 0.311,0.297 0.152,0.153 0.296,0.31 0.144,0.157 0.28,0.326 0.137,0.166 0.265,0.339 0.128,0.172 0.247,0.35 0.12,0.18 0.23,0.364 0.11,0.184 0.212,0.373 0.102,0.189 0.193,0.384 0.092,0.194 0.174,0.393 0.082,0.198 0.155,0.4 0.072,0.202 0.134,0.408 0.062,0.206 0.115,0.414 0.053,0.208 0.094,0.419 0.041,0.211 0.073,0.423 0.032,0.212 0.053,0.426 0.021,0.214 0.031,0.429 0.011,0.214 0.011,0.429 0,0.215 -0.01,0.43 -0.01,0.215 -0.032,0.428 -0.022,0.213 -0.053,0.426 -0.031,0.213 -0.073,0.423 -0.042,0.21 -0.094,0.42 -0.052,0.207 -0.115,0.413 -0.062,0.206 -0.134,0.408 -0.072,0.202 -0.155,0.4 -0.083,0.198 -0.174,0.393 -0.091,0.195 -0.193,0.384 -0.102,0.189 -0.212,0.373 -0.11,0.185 -0.23,0.363 -0.119,0.179 -0.247,0.351 -0.128,0.173 -0.264,0.339 -0.136,0.166 -0.28,0.325 -0.144,0.159 -0.297,0.311 -0.153,0.152 -0.31,0.296 -0.157,0.144 -0.326,0.28 -0.166,0.137 -0.339,0.265 -0.172,0.128 -0.35,0.247 -0.18,0.12 -0.364,0.23 -0.184,0.11 -0.373,0.212 -0.189,0.102 -0.384,0.193 -0.194,0.092 -0.393,0.174 -0.198,0.082 -0.4,0.155 -0.202,0.072 -0.408,0.134 -0.206,0.062 -0.414,0.115 -0.208,0.053 -0.419,0.094 -0.211,0.041 -0.423,0.073 -0.212,0.032 -0.426,0.053 -0.214,0.021 -0.429,0.031 -0.214,0.011 -0.429,0.011 -0.215,0 -0.43,-0.01 -0.215,-0.01 -0.428,-0.032 -0.213,-0.022 -0.426,-0.053 -0.213,-0.031 -0.423,-0.073 -0.21,-0.042 -0.42,-0.094 -0.207,-0.052 -0.413,-0.115 -0.206,-0.062 -0.408,-0.134 -0.202,-0.072 -0.4,-0.155 -0.198,-0.083 -0.393,-0.174 -0.195,-0.091 -0.384,-0.193 -0.189,-0.102 -0.373,-0.212 -0.185,-0.11 -0.363,-0.23 -0.179,-0.119 -0.351,-0.247 -0.173,-0.128 -0.339,-0.264 -0.166,-0.136 -0.325,-0.28 -0.159,-0.144 -0.311,-0.297 -0.152,-0.153 -0.296,-0.31 -0.144,-0.157 -0.28,-0.326 -0.137,-0.166 -0.265,-0.339 -0.128,-0.172 -0.247,-0.35 -0.12,-0.18 -0.23,-0.364 -0.11,-0.184 -0.212,-0.373 -0.102,-0.189 -0.193,-0.384 -0.092,-0.194 -0.174,-0.393 -0.082,-0.198 -0.155,-0.4 -0.072,-0.202 -0.134,-0.408 -0.062,-0.206 -0.115,-0.414 -0.053,-0.208 -0.094,-0.419 -0.041,-0.211 -0.073,-0.423 -0.032,-0.212 -0.053,-0.426 -0.021,-0.214 -0.031,-0.429 -0.011,-0.214 -0.011,-0.429 0,-0.215 0.01,-0.43 0.01,-0.215 0.032,-0.428 0.022,-0.213 0.053,-0.426 0.031,-0.213 0.073,-0.423 0.042,-0.21 0.094,-0.42 0.052,-0.207 0.115,-0.413 0.062,-0.206 0.134,-0.408 0.072,-0.202 0.155,-0.4 0.083,-0.198 0.174,-0.393 0.091,-0.195 0.193,-0.384 0.102,-0.189 0.212,-0.373 0.11,-0.185 0.23,-0.363 0.119,-0.179 0.247,-0.351 0.128,-0.173 0.264,-0.339 0.136,-0.166 0.28,-0.325 0.144,-0.159 0.297,-0.311"
       id="path8" />
  </g>
</svg>
