<?xml version="1.0" encoding="UTF-8" standalone="no"?>
<svg
   version="1.1"
   width="337.10684"
   height="390.60709"
   viewBox="0 0 337.10686 390.60708"
   id="svg10"
   sodipodi:docname="spider.svg"
   inkscape:version="1.3.2 (091e20e, 2023-11-25, custom)"
   xmlns:inkscape="http://www.inkscape.org/namespaces/inkscape"
   xmlns:sodipodi="http://sodipodi.sourceforge.net/DTD/sodipodi-0.dtd"
   xmlns="http://www.w3.org/2000/svg"
   xmlns:svg="http://www.w3.org/2000/svg">
  <defs
     id="defs10" />
  <sodipodi:namedview
     id="namedview10"
     pagecolor="#ffffff"
     bordercolor="#000000"
     borderopacity="0.25"
     inkscape:showpageshadow="2"
     inkscape:pageopacity="0.0"
     inkscape:pagecheckerboard="0"
     inkscape:deskcolor="#d1d1d1"
     inkscape:zoom="0.92674751"
     inkscape:cx="138.11745"
     inkscape:cy="277.85346"
     inkscape:window-width="1397"
     inkscape:window-height="1041"
     inkscape:window-x="6"
     inkscape:window-y="-1"
     inkscape:window-maximized="0"
     inkscape:current-layer="g9" />
  <g
     transform="matrix(0.72121646,-0.78695124,0.78743512,0.70443,-248.29243,264.73101)"
     id="g10">
    <g
       data-paper-data="{&quot;isPaintingLayer&quot;:true}"
       fill-rule="nonzero"
       stroke-width="12"
       stroke-linejoin="miter"
       stroke-miterlimit="10"
       stroke-dasharray="none"
       stroke-dashoffset="0"
       style="mix-blend-mode:normal"
       id="g9">
      <g
         id="g1"
         transform="matrix(1.7583997,0,0,1.7583997,-246.79291,-66.108702)">
        <path
           d="m 314.80913,129.6487 c 0,0 1.50597,-15.516 3.31237,-23.6018 1.82696,-8.17784 7.58843,-25.19224 7.58843,-25.19224"
           fill="none"
           stroke="#2f323b"
           stroke-linecap="round"
           id="path8" />
        <path
           d="m 222.41192,149.89304 c 0,0 17.97936,0.10664 27.3694,2.87334 9.95601,2.93347 30.76818,14.25648 30.76818,14.25648"
           fill="none"
           stroke="#2f323b"
           stroke-linecap="round"
           id="path1"
           style="mix-blend-mode:normal" />
        <path
           d="m 228.12186,228.27496 c 0,0 14.96993,-12.89684 23.1363,-18.23329 9.18865,-6.00447 29.29134,-16.02636 29.29134,-16.02636"
           fill="none"
           stroke="#2f323b"
           stroke-linecap="round"
           id="path2"
           style="mix-blend-mode:normal" />
        <path
           d="m 310.65645,218.93142 c 0,0 -2.77279,20.00039 -5.58819,28.59876 -3.45486,10.55133 -13.61797,30.05791 -13.61797,30.05791"
           fill="none"
           stroke="#2f323b"
           stroke-linecap="round"
           id="path3"
           inkscape:label="path3"
           style="mix-blend-mode:normal" />
        <path
           d="m 327.78629,216.33599 c 0,0 5.39214,24.36119 5.66179,35.23692 0.26964,10.87573 -4.10454,27.57243 -4.10454,27.57243"
           fill="none"
           stroke="#2f323b"
           stroke-linecap="round"
           id="path4"
           style="mix-blend-mode:normal" />
        <path
           d="m 417.58808,192.97714 c 0,0 -16.00192,2.45255 -24.90022,2.3731 -10.2806,-0.0918 -33.23736,-2.89219 -33.23736,-2.89219"
           fill="none"
           stroke="#2f323b"
           stroke-linecap="round"
           id="path5"
           style="mix-blend-mode:normal" />
        <path
           d="m 355.29781,153.00755 c 0,0 13.09832,-12.88158 19.65097,-18.51014 6.92318,-5.94684 20.8377,-16.26859 20.8377,-16.26859"
           fill="none"
           stroke="#2f323b"
           stroke-linecap="round"
           id="path6"
           style="mix-blend-mode:normal" />
        <path
           d="m 339.20616,139.51133 c 0,0 7.2002,-18.24713 12.18743,-26.40804 4.47336,-7.32003 16.36228,-20.30966 16.36228,-20.30966"
           fill="none"
           stroke="#2f323b"
           stroke-linecap="round"
           id="path7"
           style="mix-blend-mode:normal" />
      </g>
      <path
         d="m 231.70681,243.18888 c 8e-5,-45.46669 36.85832,-82.32482 82.32504,-82.32498 45.46671,-7e-5 82.32465,36.85775 82.32449,82.32443 -7e-5,45.46669 -36.85832,82.32484 -82.32503,82.32499 -45.46671,8e-5 -82.32465,-36.85777 -82.3245,-82.32444 z"
         fill="#50412e"
         stroke="#403424"
         stroke-linecap="butt"
         id="path9"
         style="stroke-width:22.7923" />
    </g>
  </g>
</svg>
