<?xml version="1.0" encoding="UTF-8" standalone="no"?>
<svg
   width="200"
   height="200"
   version="1.1"
   id="svg4"
   sodipodi:docname="spider.svg"
   inkscape:version="1.3.2 (091e20e, 2023-11-25, custom)"
   xmlns:inkscape="http://www.inkscape.org/namespaces/inkscape"
   xmlns:sodipodi="http://sodipodi.sourceforge.net/DTD/sodipodi-0.dtd"
   xmlns="http://www.w3.org/2000/svg"
   xmlns:svg="http://www.w3.org/2000/svg">
  <defs
     id="defs4" />
  <sodipodi:namedview
     id="namedview4"
     pagecolor="#ffffff"
     bordercolor="#000000"
     borderopacity="0.25"
     inkscape:showpageshadow="2"
     inkscape:pageopacity="0.0"
     inkscape:pagecheckerboard="0"
     inkscape:deskcolor="#d1d1d1"
     showgrid="false"
     inkscape:zoom="5.5347176"
     inkscape:cx="-55.55839"
     inkscape:cy="35.864522"
     inkscape:window-width="1920"
     inkscape:window-height="1057"
     inkscape:window-x="-8"
     inkscape:window-y="-8"
     inkscape:window-maximized="1"
     inkscape:current-layer="svg4" />
  <clipPath
     id="a">
    <path
       d="m 13.333,9.167 h 83.334 q 4.166,0 4.166,4.166 v 83.334 q 0,4.166 -4.166,4.166 H 13.333 q -4.166,0 -4.166,-4.166 V 13.333 q 0,-4.166 4.166,-4.166"
       id="path1" />
  </clipPath>
  <g
     clip-path="url(#a)"
     id="g4"
     transform="matrix(6.8572996,0,0,6.8572996,-277.15148,-277.15148)">
    <path
       fill="#403525"
       d="m 44.688,44.688 q 0.253,-0.253 0.518,-0.494 0.266,-0.24 0.542,-0.467 0.277,-0.227 0.565,-0.44 0.287,-0.214 0.585,-0.413 0.298,-0.199 0.605,-0.383 0.307,-0.184 0.622,-0.352 0.316,-0.17 0.64,-0.322 0.323,-0.153 0.654,-0.29 0.33,-0.137 0.668,-0.258 0.337,-0.12 0.68,-0.224 0.342,-0.104 0.69,-0.191 0.348,-0.087 0.698,-0.157 0.35,-0.07 0.705,-0.122 0.355,-0.052 0.71,-0.088 0.357,-0.035 0.714,-0.053 0.358,-0.017 0.716,-0.017 0.358,0 0.716,0.017 0.358,0.017 0.713,0.053 0.357,0.035 0.71,0.088 0.355,0.052 0.706,0.122 0.351,0.07 0.698,0.157 0.347,0.087 0.69,0.19 0.343,0.105 0.68,0.225 0.337,0.12 0.668,0.258 0.33,0.137 0.654,0.29 0.324,0.153 0.64,0.322 0.316,0.169 0.622,0.352 0.306,0.183 0.605,0.383 0.299,0.2 0.585,0.413 0.288,0.213 0.565,0.44 0.277,0.227 0.542,0.467 0.265,0.24 0.518,0.494 0.253,0.254 0.494,0.518 0.24,0.266 0.467,0.542 0.227,0.277 0.44,0.565 0.214,0.287 0.413,0.585 0.199,0.298 0.383,0.605 0.184,0.307 0.352,0.622 0.17,0.316 0.322,0.64 0.153,0.323 0.29,0.654 0.137,0.33 0.258,0.668 0.12,0.337 0.224,0.68 0.104,0.342 0.191,0.69 0.087,0.348 0.157,0.698 0.07,0.35 0.122,0.705 0.052,0.355 0.088,0.71 0.035,0.357 0.053,0.714 0.017,0.358 0.017,0.716 0,0.358 -0.017,0.716 -0.017,0.358 -0.053,0.713 -0.035,0.357 -0.088,0.71 -0.052,0.355 -0.122,0.706 -0.07,0.351 -0.157,0.698 -0.087,0.347 -0.19,0.69 -0.105,0.343 -0.225,0.68 -0.12,0.337 -0.258,0.668 -0.137,0.33 -0.29,0.654 -0.153,0.324 -0.322,0.64 -0.169,0.316 -0.352,0.622 -0.183,0.306 -0.383,0.605 -0.2,0.299 -0.413,0.585 -0.213,0.288 -0.44,0.565 -0.227,0.277 -0.467,0.542 -0.24,0.265 -0.494,0.518 -0.254,0.253 -0.518,0.494 -0.266,0.24 -0.542,0.467 -0.277,0.227 -0.565,0.44 -0.287,0.214 -0.585,0.413 -0.298,0.199 -0.605,0.383 -0.307,0.184 -0.622,0.352 -0.316,0.17 -0.64,0.322 -0.323,0.153 -0.654,0.29 -0.33,0.137 -0.668,0.258 -0.337,0.12 -0.68,0.224 -0.342,0.104 -0.69,0.191 -0.348,0.087 -0.698,0.157 -0.35,0.07 -0.705,0.122 -0.355,0.052 -0.71,0.088 -0.357,0.035 -0.714,0.053 -0.358,0.017 -0.716,0.017 -0.358,0 -0.716,-0.017 -0.358,-0.017 -0.713,-0.053 -0.357,-0.035 -0.71,-0.088 -0.355,-0.052 -0.706,-0.122 -0.351,-0.07 -0.698,-0.157 -0.347,-0.087 -0.69,-0.19 -0.343,-0.105 -0.68,-0.225 -0.337,-0.12 -0.668,-0.258 -0.33,-0.137 -0.654,-0.29 -0.324,-0.153 -0.64,-0.322 -0.316,-0.169 -0.622,-0.352 -0.306,-0.183 -0.605,-0.383 -0.299,-0.2 -0.585,-0.413 -0.288,-0.213 -0.565,-0.44 -0.277,-0.227 -0.542,-0.467 -0.265,-0.24 -0.518,-0.494 -0.253,-0.254 -0.494,-0.518 -0.24,-0.266 -0.467,-0.542 -0.227,-0.277 -0.44,-0.565 -0.214,-0.287 -0.413,-0.585 -0.199,-0.298 -0.383,-0.605 -0.184,-0.307 -0.352,-0.622 -0.17,-0.316 -0.322,-0.64 -0.153,-0.323 -0.29,-0.654 -0.137,-0.33 -0.258,-0.668 -0.12,-0.337 -0.224,-0.68 -0.104,-0.342 -0.191,-0.69 -0.087,-0.348 -0.157,-0.698 -0.07,-0.35 -0.122,-0.705 -0.052,-0.355 -0.088,-0.71 -0.035,-0.357 -0.053,-0.714 -0.017,-0.358 -0.017,-0.716 0,-0.358 0.017,-0.716 0.017,-0.358 0.053,-0.713 0.035,-0.357 0.088,-0.71 0.052,-0.355 0.122,-0.706 0.07,-0.351 0.157,-0.698 0.087,-0.347 0.19,-0.69 0.105,-0.343 0.225,-0.68 0.12,-0.337 0.258,-0.668 0.137,-0.33 0.29,-0.654 0.153,-0.324 0.322,-0.64 0.169,-0.316 0.352,-0.622 0.183,-0.306 0.383,-0.605 0.2,-0.299 0.413,-0.585 0.213,-0.288 0.44,-0.565 0.227,-0.277 0.467,-0.542 0.24,-0.265 0.494,-0.518"
       id="path3" />
    <path
       fill="#4f412e"
       d="m 47.634,47.634 q 0.181,-0.18 0.37,-0.352 0.19,-0.172 0.388,-0.334 0.197,-0.162 0.403,-0.315 0.205,-0.152 0.418,-0.294 0.212,-0.142 0.432,-0.274 0.22,-0.131 0.445,-0.252 0.225,-0.12 0.456,-0.23 0.231,-0.109 0.468,-0.207 0.236,-0.098 0.477,-0.184 0.24,-0.086 0.485,-0.16 0.245,-0.074 0.493,-0.136 0.248,-0.062 0.499,-0.113 0.251,-0.051 0.504,-0.087 0.253,-0.036 0.507,-0.063 0.254,-0.025 0.51,-0.037 0.255,-0.013 0.511,-0.013 0.256,0 0.511,0.013 0.255,0.013 0.51,0.037 0.255,0.024 0.507,0.063 0.252,0.039 0.504,0.087 0.252,0.048 0.499,0.113 0.247,0.065 0.493,0.136 0.246,0.071 0.485,0.16 0.239,0.089 0.477,0.184 0.238,0.095 0.468,0.207 0.23,0.11 0.456,0.23 0.226,0.12 0.445,0.252 0.22,0.132 0.432,0.274 0.213,0.142 0.418,0.294 0.206,0.153 0.403,0.315 0.197,0.162 0.387,0.334 0.19,0.171 0.37,0.352 0.182,0.181 0.353,0.37 0.172,0.19 0.334,0.388 0.162,0.197 0.315,0.403 0.152,0.205 0.294,0.418 0.142,0.212 0.274,0.432 0.131,0.22 0.252,0.445 0.12,0.225 0.23,0.456 0.109,0.231 0.207,0.468 0.098,0.236 0.184,0.477 0.086,0.24 0.16,0.485 0.074,0.245 0.136,0.493 0.062,0.248 0.113,0.499 0.05,0.25 0.087,0.504 0.037,0.253 0.063,0.507 0.025,0.254 0.037,0.51 0.013,0.255 0.013,0.511 0,0.256 -0.013,0.511 -0.013,0.255 -0.037,0.51 -0.024,0.255 -0.063,0.507 -0.039,0.252 -0.087,0.504 -0.048,0.252 -0.113,0.499 -0.065,0.247 -0.136,0.493 -0.071,0.246 -0.16,0.485 -0.089,0.239 -0.184,0.477 -0.095,0.238 -0.207,0.468 -0.11,0.23 -0.23,0.456 -0.12,0.226 -0.252,0.445 -0.132,0.22 -0.274,0.432 -0.142,0.213 -0.294,0.418 -0.153,0.206 -0.315,0.403 -0.162,0.197 -0.334,0.387 -0.171,0.19 -0.352,0.37 -0.181,0.182 -0.37,0.353 -0.19,0.172 -0.388,0.334 -0.197,0.162 -0.403,0.315 -0.205,0.152 -0.418,0.294 -0.212,0.142 -0.432,0.274 -0.22,0.131 -0.445,0.252 -0.225,0.12 -0.456,0.23 -0.231,0.109 -0.468,0.207 -0.236,0.098 -0.477,0.184 -0.24,0.086 -0.485,0.16 -0.245,0.074 -0.493,0.136 -0.248,0.062 -0.499,0.113 -0.25,0.05 -0.504,0.087 -0.253,0.037 -0.507,0.063 -0.254,0.025 -0.51,0.037 -0.255,0.013 -0.511,0.013 -0.256,0 -0.511,-0.013 -0.255,-0.013 -0.51,-0.037 -0.255,-0.024 -0.507,-0.063 -0.252,-0.039 -0.504,-0.087 -0.252,-0.048 -0.499,-0.113 -0.247,-0.065 -0.493,-0.136 -0.246,-0.071 -0.485,-0.16 -0.239,-0.089 -0.477,-0.184 -0.238,-0.095 -0.468,-0.207 -0.23,-0.11 -0.456,-0.23 -0.226,-0.12 -0.445,-0.252 -0.22,-0.132 -0.432,-0.274 Q 49,63.519 48.795,63.367 48.589,63.214 48.392,63.052 48.195,62.89 48.005,62.718 47.815,62.547 47.635,62.366 47.453,62.185 47.282,61.996 47.11,61.806 46.948,61.608 46.786,61.411 46.633,61.205 46.481,61 46.339,60.787 46.197,60.575 46.065,60.355 45.934,60.135 45.813,59.91 45.693,59.685 45.583,59.454 45.474,59.223 45.376,58.986 45.278,58.75 45.192,58.509 45.106,58.269 45.032,58.024 44.958,57.779 44.896,57.531 44.834,57.283 44.783,57.032 44.732,56.781 44.696,56.528 44.66,56.275 44.633,56.021 44.608,55.767 44.596,55.511 44.583,55.256 44.583,55 q 0,-0.256 0.013,-0.511 0.013,-0.255 0.037,-0.51 0.024,-0.255 0.063,-0.507 0.039,-0.252 0.087,-0.504 0.048,-0.252 0.113,-0.499 0.065,-0.247 0.136,-0.493 0.071,-0.246 0.16,-0.485 0.089,-0.239 0.184,-0.477 0.095,-0.238 0.207,-0.468 0.11,-0.23 0.23,-0.456 0.12,-0.226 0.252,-0.445 0.132,-0.22 0.274,-0.432 0.142,-0.213 0.294,-0.418 0.153,-0.206 0.315,-0.403 0.162,-0.197 0.334,-0.387 0.171,-0.19 0.352,-0.37"
       id="path4" />
  </g>
</svg>
