<?xml version="1.0" encoding="UTF-8" standalone="no"?>
<svg
   version="1.1"
   width="202.08936"
   height="125.93799"
   viewBox="0 0 202.08936 125.93798"
   id="svg5"
   sodipodi:docname="工蚁.svg"
   inkscape:version="1.3.2 (091e20e, 2023-11-25, custom)"
   xmlns:inkscape="http://www.inkscape.org/namespaces/inkscape"
   xmlns:sodipodi="http://sodipodi.sourceforge.net/DTD/sodipodi-0.dtd"
   xmlns="http://www.w3.org/2000/svg"
   xmlns:svg="http://www.w3.org/2000/svg">
  <defs
     id="defs5" />
  <sodipodi:namedview
     id="namedview5"
     pagecolor="#ffffff"
     bordercolor="#000000"
     borderopacity="0.25"
     inkscape:showpageshadow="2"
     inkscape:pageopacity="0.0"
     inkscape:pagecheckerboard="0"
     inkscape:deskcolor="#d1d1d1"
     inkscape:zoom="1.9551829"
     inkscape:cx="-4.3474194"
     inkscape:cy="130.16685"
     inkscape:window-width="1920"
     inkscape:window-height="1057"
     inkscape:window-x="-8"
     inkscape:window-y="-8"
     inkscape:window-maximized="1"
     inkscape:current-layer="svg5" />
  <g
     transform="matrix(-1.0960975,1.137576,-1.137576,-1.0960975,633.60766,-102.97475)"
     id="g5">
    <g
       data-paper-data="{&quot;isPaintingLayer&quot;:true}"
       fill-rule="nonzero"
       stroke-width="16"
       stroke-linejoin="miter"
       stroke-miterlimit="10"
       stroke-dasharray="none"
       stroke-dashoffset="0"
       style="mix-blend-mode:normal"
       id="g4">
      <path
         d="m 309.22181,192.88418 c 0,-12.93944 10.48949,-23.42893 23.42893,-23.42893 12.93944,0 23.42893,10.48949 23.42893,23.42893 0,12.93944 -10.48949,23.42893 -23.42893,23.42893 -12.93944,0 -23.42893,-10.48949 -23.42893,-23.42893 z"
         fill="#555555"
         stroke="#454545"
         stroke-linecap="butt"
         id="path1" />
      <path
         d="m 273.46229,158.55768 c 0,0 -4.12213,-5.35479 -5.93722,-8.60378 -1.94383,-3.47944 -5.36604,-11.6289 -5.36604,-11.6289"
         fill="none"
         stroke="#292929"
         stroke-linecap="round"
         id="path2" />
      <path
         d="m 278.36962,122.22111 c 0,0 6.54848,1.66829 9.98204,3.10396 3.6771,1.5375 11.40003,5.83651 11.40003,5.83651"
         data-paper-data="{&quot;index&quot;:null}"
         fill="none"
         stroke="#292929"
         stroke-linecap="round"
         id="path3" />
      <path
         d="m 274.4361,166.54489 c 0,-17.624 14.28708,-31.91107 31.91107,-31.91107 17.62399,0 31.91107,14.28708 31.91107,31.91107 0,17.624 -14.28708,31.91107 -31.91107,31.91107 -17.62399,0 -31.91107,-14.28707 -31.91107,-31.91107 z"
         fill="#555555"
         stroke="#454545"
         stroke-linecap="butt"
         id="path4" />
    </g>
  </g>
</svg>
