<?xml version="1.0" encoding="UTF-8" standalone="no"?>
<svg
   width="367.14767"
   height="426.9382"
   version="1.1"
   id="svg4"
   sodipodi:docname="spider.svg"
   inkscape:version="1.3.2 (091e20e, 2023-11-25, custom)"
   xmlns:inkscape="http://www.inkscape.org/namespaces/inkscape"
   xmlns:sodipodi="http://sodipodi.sourceforge.net/DTD/sodipodi-0.dtd"
   xmlns="http://www.w3.org/2000/svg"
   xmlns:svg="http://www.w3.org/2000/svg">
  <defs
     id="defs4" />
  <sodipodi:namedview
     id="namedview4"
     pagecolor="#ffffff"
     bordercolor="#000000"
     borderopacity="0.25"
     inkscape:showpageshadow="2"
     inkscape:pageopacity="0.0"
     inkscape:pagecheckerboard="0"
     inkscape:deskcolor="#d1d1d1"
     showgrid="false"
     inkscape:zoom="0.97840909"
     inkscape:cx="32.195122"
     inkscape:cy="159.95354"
     inkscape:window-width="1920"
     inkscape:window-height="1057"
     inkscape:window-x="-8"
     inkscape:window-y="-8"
     inkscape:window-maximized="1"
     inkscape:current-layer="svg4" />
  <clipPath
     id="a">
    <path
       d="m 13.333,9.167 h 83.334 q 4.166,0 4.166,4.166 v 83.334 q 0,4.166 -4.166,4.166 H 13.333 q -4.166,0 -4.166,-4.166 V 13.333 q 0,-4.166 4.166,-4.166"
       id="path1" />
  </clipPath>
  <path
     fill="none"
     stroke="#333333"
     stroke-linecap="round"
     stroke-linejoin="round"
     stroke-width="28.7296"
     d="m 183.48249,215.45588 q 131.6651,49.49588 169.3004,108.5064 m -169.3004,-108.5064 q 85.61674,80.02771 113.68304,165.8739 M 183.48249,215.45588 Q 145.85651,315.80899 143.69661,412.5734 M 183.48249,215.45588 Q 45.42862,275.26524 14.3648,324.24856 M 183.48249,215.45588 Q 302.56348,140.5876 327.61469,75.23398 m -144.1322,140.2219 Q 189.39286,114.30371 183.31303,14.3648 m 0.16946,201.09108 Q 126.51607,124.6743 105.01572,30.304013 M 183.48249,215.45588 Q 72.6309,149.37913 39.11403,75.477099"
     id="path2-5" />
</svg>
